<svg width="57" height="57" viewBox="0 0 57 57" fill="none" xmlns="http://www.w3.org/2000/svg">
<path d="M3.32738 14.6856L28.1018 2.32969C28.2167 2.27236 28.3433 2.24249 28.4717 2.24243C28.6001 2.24237 28.7268 2.27213 28.8418 2.32936L53.6657 14.6852C54.4502 15.0758 54.1724 16.2577 53.296 16.2577H3.69765C2.82161 16.2577 2.5434 15.0765 3.32738 14.6856ZM53.7492 17.1745H3.25078C3.03819 17.1745 2.83431 17.259 2.68399 17.4093C2.53367 17.5596 2.44922 17.7635 2.44922 17.9761V24.5073C2.44922 24.7198 2.53367 24.9237 2.68399 25.074C2.83431 25.2244 3.03819 25.3088 3.25078 25.3088H4.9541V49.7363C4.9541 50.6217 5.67183 51.3394 6.55723 51.3394H50.4428C51.3282 51.3394 52.0459 50.6217 52.0459 49.7363V25.3088H53.7492C53.9618 25.3088 54.1657 25.2244 54.316 25.074C54.4663 24.9237 54.5508 24.7198 54.5508 24.5073V17.9761C54.5508 17.7635 54.4663 17.5596 54.316 17.4093C54.1657 17.259 53.9618 17.1745 53.7492 17.1745Z" fill="#DADBDC"/>
<path d="M15.4733 49.7363H10.4214V22.8223H15.4733V49.7363ZM46.5271 22.8223H41.4751V49.7363H46.5271V22.8223Z" fill="#767777"/>
<path d="M54.5095 15.1002L28.9065 2.35658C28.7711 2.2892 28.622 2.25415 28.4708 2.25421C28.3195 2.25427 28.1704 2.28943 28.0351 2.35691L2.4833 15.1005C1.56028 15.5609 1.88791 16.9517 2.91937 16.9517H3.16763C3.31852 16.9517 3.46735 16.9167 3.60248 16.8496L28.0677 4.68968C28.2023 4.6228 28.3504 4.58786 28.5007 4.58757C28.6509 4.58728 28.7992 4.62165 28.934 4.68801L53.6427 16.8513C53.7769 16.9174 53.9246 16.9517 54.0742 16.9517C55.106 16.9518 55.4332 15.56 54.5095 15.1002Z" fill="#767777"/>
<path d="M55.2521 15.2646H1.74785C1.53526 15.2646 1.33138 15.349 1.18106 15.4994C1.03074 15.6497 0.946289 15.8536 0.946289 16.0661V18.2826C0.946289 18.4952 1.03074 18.699 1.18106 18.8494C1.33138 18.9997 1.53526 19.0841 1.74785 19.0841H55.2521C55.4647 19.0841 55.6686 18.9997 55.8189 18.8494C55.9693 18.699 56.0537 18.4952 56.0537 18.2826V16.0661C56.0537 15.8536 55.9693 15.6497 55.8189 15.4994C55.6686 15.349 55.4647 15.2646 55.2521 15.2646Z" fill="#999999"/>
<path d="M55.2521 22.7409H1.74785C1.53526 22.7409 1.33138 22.8254 1.18106 22.9757C1.03074 23.126 0.946289 23.3299 0.946289 23.5425V25.7589C0.946289 25.9715 1.03074 26.1754 1.18106 26.3257C1.33138 26.476 1.53526 26.5605 1.74785 26.5605H19.9555V49.7363H4.6593C4.13339 49.7363 3.64622 50.013 3.37669 50.4646L1.34774 53.8651C0.753691 54.8607 1.47109 56.124 2.63035 56.124H54.3696C55.5289 56.124 56.2463 54.8607 55.6523 53.8651L53.6233 50.4646C53.4908 50.2426 53.303 50.0588 53.0782 49.9311C52.8533 49.8034 52.5992 49.7363 52.3407 49.7363H36.9941V26.5605H55.2521C55.4647 26.5605 55.6686 26.476 55.8189 26.3257C55.9693 26.1754 56.0537 25.9715 56.0537 25.7589V23.5425C56.0537 23.3299 55.9693 23.126 55.8189 22.9757C55.6686 22.8254 55.4647 22.7409 55.2521 22.7409Z" fill="#999999"/>
<path d="M19.9536 49.7485L36.9868 49.7263L36.9923 53.8855L19.9591 53.9077L19.9536 49.7485Z" fill="#C8CACB"/>
<path d="M39.4956 56.124H17.4526V53.8232C17.4526 53.6106 17.5371 53.4067 17.6874 53.2564C17.8377 53.1061 18.0416 53.0216 18.2542 53.0216H38.694C38.9066 53.0216 39.1105 53.1061 39.2608 53.2564C39.4112 53.4067 39.4956 53.6106 39.4956 53.8232V56.124Z" fill="#EBECED"/>
<path d="M34.4633 49.7363H22.4863V38.7912C22.4863 35.1138 25.1674 32.1327 28.4749 32.1327C31.7822 32.1327 34.4635 35.1138 34.4635 38.7912V49.7363H34.4633Z" fill="#2B3B47"/>
</svg>
