<svg width="45" height="45" viewBox="0 0 45 45" fill="none" xmlns="http://www.w3.org/2000/svg">
<path d="M21.422 33.3306C21.4215 33.8216 21.2753 34.3015 21.002 34.7094C20.7288 35.1174 20.3407 35.4352 19.8868 35.6226C19.4329 35.81 18.9337 35.8586 18.4522 35.7623C17.9707 35.6659 17.5286 35.429 17.1817 35.0813C16.8349 34.7337 16.599 34.2911 16.5037 33.8094C16.4085 33.3277 16.4582 32.8285 16.6466 32.3751C16.835 31.9216 17.1537 31.5342 17.5623 31.2619C17.9709 30.9895 18.4511 30.8445 18.9421 30.845C19.2683 30.8446 19.5915 30.9087 19.8929 31.0335C20.1943 31.1583 20.4681 31.3415 20.6986 31.5724C20.929 31.8034 21.1116 32.0776 21.2357 32.3793C21.3599 32.6811 21.4232 33.0043 21.422 33.3306Z" fill="#414451"/>
<path d="M18.9417 34.4532C18.7189 34.4539 18.501 34.3884 18.3154 34.265C18.1299 34.1417 17.9851 33.966 17.8995 33.7603C17.814 33.5546 17.7914 33.3281 17.8347 33.1096C17.878 32.891 17.9852 32.6902 18.1427 32.5327C18.3003 32.3751 18.5011 32.2679 18.7196 32.2246C18.9382 32.1813 19.1647 32.2039 19.3704 32.2895C19.5761 32.3751 19.7518 32.5198 19.8751 32.7054C19.9985 32.8909 20.0639 33.1089 20.0632 33.3317C20.0623 33.6288 19.9439 33.9136 19.7337 34.1237C19.5236 34.3338 19.2389 34.4522 18.9417 34.4532Z" fill="#DBD8DD"/>
<path d="M31.119 33.3306C31.1185 33.8216 30.9723 34.3015 30.6991 34.7094C30.4258 35.1174 30.0377 35.4352 29.5838 35.6226C29.1299 35.81 28.6307 35.8586 28.1492 35.7623C27.6677 35.6659 27.2256 35.429 26.8788 35.0813C26.5319 34.7337 26.296 34.2911 26.2007 33.8094C26.1055 33.3277 26.1552 32.8285 26.3436 32.3751C26.5321 31.9216 26.8507 31.5342 27.2593 31.2619C27.6679 30.9895 28.1481 30.8445 28.6391 30.845C28.9654 30.8446 29.2885 30.9087 29.5899 31.0335C29.8914 31.1583 30.1652 31.3415 30.3956 31.5724C30.626 31.8034 30.8086 32.0776 30.9327 32.3793C31.0569 32.6811 31.1202 33.0043 31.119 33.3306Z" fill="#414451"/>
<path d="M28.6383 34.4532C28.4155 34.4539 28.1975 34.3884 28.0119 34.265C27.8264 34.1417 27.6817 33.966 27.5961 33.7603C27.5105 33.5546 27.4879 33.3281 27.5312 33.1096C27.5745 32.891 27.6817 32.6902 27.8393 32.5327C27.9968 32.3751 28.1976 32.2679 28.4161 32.2246C28.6347 32.1813 28.8612 32.2039 29.0669 32.2895C29.2726 32.3751 29.4483 32.5198 29.5716 32.7054C29.695 32.8909 29.7605 33.1089 29.7598 33.3317C29.7588 33.6288 29.6404 33.9136 29.4303 34.1237C29.2201 34.3338 28.9354 34.4522 28.6383 34.4532Z" fill="#DBD8DD"/>
<path d="M34.7854 24.4645C34.7157 24.6944 34.5803 24.8989 34.3958 25.0528C34.2114 25.2067 33.9859 25.3032 33.7472 25.3304L16.6363 27.9073L13.8691 13.3674L36.6152 15.0901C36.7337 15.099 36.8487 15.1345 36.9516 15.1938C37.0546 15.2532 37.1429 15.3348 37.2101 15.4329C37.2772 15.5309 37.3215 15.6428 37.3396 15.7602C37.3578 15.8776 37.3493 15.9977 37.3148 16.1114L34.7854 24.4645Z" fill="#EEEFEE"/>
<path d="M33.641 30.845H15.4462C14.9008 30.845 14.3776 30.6283 13.9919 30.2426C13.6063 29.8569 13.3896 29.3338 13.3896 28.7884C13.3896 28.2429 13.6063 27.7198 13.9919 27.3341C14.3776 26.9484 14.9008 26.7317 15.4462 26.7317H15.7243L12.9891 10.7673H9.89258C9.81178 10.7673 9.73178 10.7514 9.65714 10.7204C9.58249 10.6895 9.51467 10.6442 9.45754 10.5871C9.40041 10.5299 9.35509 10.4621 9.32418 10.3875C9.29326 10.3128 9.27734 10.2328 9.27734 10.152C9.27734 10.0712 9.29326 9.99124 9.32418 9.9166C9.35509 9.84195 9.40041 9.77413 9.45754 9.717C9.51467 9.65987 9.58249 9.61455 9.65714 9.58364C9.73178 9.55272 9.81178 9.5368 9.89258 9.5368H13.508C13.6533 9.53673 13.7938 9.58805 13.9048 9.68167C14.0158 9.7753 14.0901 9.90518 14.1145 10.0483L17.0606 27.2436C17.0758 27.332 17.0714 27.4227 17.0479 27.5092C17.0243 27.5958 16.9821 27.6761 16.9242 27.7446C16.8664 27.8132 16.7942 27.8682 16.7128 27.9059C16.6314 27.9436 16.5428 27.9631 16.4531 27.9629H15.4462C15.2271 27.9629 15.017 28.0499 14.862 28.2049C14.7071 28.3598 14.62 28.57 14.62 28.7891C14.62 29.0082 14.7071 29.2183 14.862 29.3733C15.017 29.5282 15.2271 29.6152 15.4462 29.6152H33.641C33.8041 29.6152 33.9606 29.6801 34.076 29.7954C34.1914 29.9108 34.2562 30.0673 34.2562 30.2305C34.2562 30.3936 34.1914 30.5501 34.076 30.6655C33.9606 30.7809 33.8041 30.8457 33.641 30.8457V30.845Z" fill="#EEEFEE"/>
<path d="M11.7903 9.27805V10.9715C11.7903 10.995 11.781 11.0176 11.7644 11.0342C11.7478 11.0508 11.7252 11.0601 11.7017 11.0601H8.58443C8.33638 11.0601 8.09849 10.9616 7.92305 10.7862C7.74762 10.6109 7.64902 10.373 7.64893 10.125C7.64893 9.87685 7.74749 9.6389 7.92293 9.46346C8.09837 9.28802 8.33632 9.18945 8.58443 9.18945H11.7014C11.7131 9.18941 11.7246 9.19166 11.7354 9.1961C11.7462 9.20053 11.756 9.20705 11.7643 9.21528C11.7725 9.22351 11.7791 9.23329 11.7836 9.24406C11.788 9.25483 11.7903 9.26638 11.7903 9.27805Z" fill="#575B6D"/>
<path d="M31.1819 16.5157H30.2876C30.1932 16.5157 30.1167 16.5922 30.1167 16.6866V23.4204C30.1167 23.5148 30.1932 23.5913 30.2876 23.5913H31.1819C31.2763 23.5913 31.3528 23.5148 31.3528 23.4204V16.6866C31.3528 16.5922 31.2763 16.5157 31.1819 16.5157Z" fill="#DBD8DD"/>
<path d="M26.0572 16.5157H25.1628C25.0684 16.5157 24.9919 16.5922 24.9919 16.6866V23.4204C24.9919 23.5148 25.0684 23.5913 25.1628 23.5913H26.0572C26.1515 23.5913 26.228 23.5148 26.228 23.4204V16.6866C26.228 16.5922 26.1515 16.5157 26.0572 16.5157Z" fill="#DBD8DD"/>
<path d="M20.9324 16.5157H20.038C19.9437 16.5157 19.8672 16.5922 19.8672 16.6866V23.4204C19.8672 23.5148 19.9437 23.5913 20.038 23.5913H20.9324C21.0268 23.5913 21.1033 23.5148 21.1033 23.4204V16.6866C21.1033 16.5922 21.0268 16.5157 20.9324 16.5157Z" fill="#DBD8DD"/>
</svg>
