<svg width="30" height="30" viewBox="0 0 30 30" fill="none" xmlns="http://www.w3.org/2000/svg">
<g clip-path="url(#clip0)">
<path d="M6.10172 8.66307H0.508477C0.203379 8.66307 0 8.45969 0 8.15459C0 7.8495 0.203379 7.64612 0.508477 7.64612H6.10172C6.40682 7.64612 6.6102 7.8495 6.6102 8.15459C6.6102 8.45969 6.40676 8.66307 6.10172 8.66307Z" fill="#565656"/>
<path d="M10.1698 10.1885H7.62742C6.76298 10.1885 6.10199 9.52754 6.10199 8.66311V7.64616C6.10199 6.78172 6.76298 6.12073 7.62742 6.12073H10.1698V10.1885Z" fill="#C3C7CB"/>
<path d="M10.1697 10.1887C10.1697 11.0531 10.8307 11.8158 11.6951 11.9683L16.7799 12.731C19.6782 13.4429 24.3562 13.392 27.2036 12.6802C28.8308 12.2734 30.0002 10.8497 30.0002 9.17171V7.1378C30.0002 5.45985 28.8816 4.03608 27.2545 3.62933C24.5087 2.96833 20.4409 2.81575 17.6443 3.37509C16.8307 3.52761 16.0171 3.68018 15.1528 3.8327L11.6951 4.34118C10.8307 4.4937 10.1697 5.20562 10.1697 6.12085V10.1887Z" fill="#E48D56"/>
<path d="M14.2375 3.98535L11.6951 4.39211C10.8307 4.54463 10.1697 5.25654 10.1697 6.17178V10.2396C10.1697 11.104 10.8307 11.8667 11.6951 12.0193L14.2375 12.426V3.98535Z" fill="#565656"/>
<path d="M26.4405 6.62975H23.3897C23.0846 6.62975 22.8812 6.42637 22.8812 6.12127C22.8812 5.81617 23.0846 5.61279 23.3897 5.61279H26.4405C26.7456 5.61279 26.949 5.81617 26.949 6.12127C26.949 6.42637 26.7456 6.62975 26.4405 6.62975Z" fill="#565656"/>
<path d="M26.4405 8.66307H23.3897C23.0846 8.66307 22.8812 8.45969 22.8812 8.15459C22.8812 7.8495 23.0846 7.64612 23.3897 7.64612H26.4405C26.7456 7.64612 26.949 7.8495 26.949 8.15459C26.949 8.45969 26.7456 8.66307 26.4405 8.66307Z" fill="#565656"/>
<path d="M19.83 24.4261L22.8809 21.3752H27.4572L28.4741 24.4261H19.83Z" fill="#C3C7CB"/>
<path d="M20.4396 13.1886L21.3548 17.3073H22.8802V13.2395C22.0667 13.2395 21.2531 13.2395 20.4396 13.1886Z" fill="#C3C7CB"/>
<path d="M27.4572 21.3748V17.307L27.1521 12.6799C25.9318 12.985 24.4572 13.1375 22.8809 13.1884V21.324H27.4572V21.3748Z" fill="#565656"/>
<path d="M27.9056 30H20.4939C20.1974 30 19.9998 29.5521 19.9998 28.88V24.4H28.3998V28.88C28.3998 29.5519 28.2021 30 27.9056 30Z" fill="#565656"/>
</g>
<defs>
<clipPath id="clip0">
<rect width="30" height="30" fill="white"/>
</clipPath>
</defs>
</svg>
