<svg width="30" height="30" viewBox="0 0 30 30" fill="none" xmlns="http://www.w3.org/2000/svg">
<g clip-path="url(#clip0)">
<path d="M6.20818 29.9999C5.89783 29.9999 5.69095 29.793 5.69095 29.4827V22.759C5.69095 22.4487 5.89783 22.2418 6.20818 22.2418C6.51853 22.2418 6.72541 22.4487 6.72541 22.759V29.4827C6.72535 29.793 6.51847 29.9999 6.20818 29.9999Z" fill="#A3AAAF"/>
<path d="M22.2403 11.8979H7.49995C6.20694 11.8979 5.17254 10.8635 5.17254 9.57048V6.72584C5.17254 6.15694 5.63803 5.63971 6.20694 5.69145L22.2403 6.72584C23.6884 6.72584 24.8263 7.86371 24.8263 9.31187C24.8263 10.76 23.6884 11.8979 22.2403 11.8979ZM27.9295 1.5538L2.06929 0.00217079C0.931418 -0.0495637 0.000488281 0.829689 0.000488281 1.96756V6.20862C0.000488281 6.88099 0.0522229 7.60504 0.155633 8.27741L1.91414 21.4144C2.01761 22.1902 2.68992 22.7592 3.46577 22.7592H29.9983V6.20862V3.62259C29.9983 2.48473 29.0674 1.60553 27.9295 1.5538Z" fill="#E48D56"/>
<path d="M27.9303 16.5525H22.7582C22.4479 16.5525 22.241 16.3456 22.241 16.0353C22.241 15.7249 22.4479 15.5181 22.7582 15.5181H27.9303C28.2406 15.5181 28.4475 15.7249 28.4475 16.0353C28.4475 16.3456 28.2406 16.5525 27.9303 16.5525Z" fill="#565656"/>
<path d="M27.9305 18.6216H23.7928C23.4825 18.6216 23.2756 18.4147 23.2756 18.1044C23.2756 17.794 23.4825 17.5872 23.7928 17.5872H27.9305C28.2408 17.5872 28.4477 17.794 28.4477 18.1044C28.4477 18.4147 28.2408 18.6216 27.9305 18.6216Z" fill="#565656"/>
<path d="M27.9304 20.69H24.8271C24.5168 20.69 24.3099 20.4831 24.3099 20.1727C24.3099 19.8624 24.5168 19.6555 24.8271 19.6555H27.9304C28.2407 19.6555 28.4476 19.8624 28.4476 20.1727C28.4476 20.4831 28.2407 20.69 27.9304 20.69Z" fill="#565656"/>
<path d="M11.3798 24.8278H20.6895V22.759H11.3798V24.8278Z" fill="#565656"/>
<path d="M2.5874 26.897H24.31V24.8282H2.5874V26.897Z" fill="#E0E0E0"/>
<path d="M5.17361 16.0352V20.1728H9.31127C9.31127 18.104 7.24247 16.0352 5.17361 16.0352Z" fill="#565656"/>
<path d="M12.9318 6.10494L7.24261 5.74292V7.76004H12.9318V6.10494Z" fill="#565656"/>
<path d="M7.96642 2.69144L21.7758 3.51902C22.8619 3.57075 23.7929 2.6915 23.7929 1.60537V1.29502L6.20798 0.26062V0.829524C6.20798 1.81225 6.98376 2.63976 7.96642 2.69144Z" fill="#565656"/>
</g>
<defs>
<clipPath id="clip0">
<rect width="30" height="30" fill="white"/>
</clipPath>
</defs>
</svg>
