<svg width="34" height="29" viewBox="0 0 34 29" fill="none" xmlns="http://www.w3.org/2000/svg">
<path d="M30.7231 9.47774L23.6688 8.62781L24.9846 10.9068L30.2101 11.5364L30.4732 11.9922L26.8267 14.0975L27.8794 15.9207L32.4375 13.2891C32.9389 12.9996 33.1123 12.3526 32.8228 11.8512L31.9017 10.2558C31.6648 9.84563 31.2457 9.54067 30.7231 9.47774Z" fill="#E48D56"/>
<path d="M13.673 7.10592C12.6702 7.68486 12.3234 8.979 12.9024 9.98181L15.0077 13.6283C15.1656 13.9018 15.4532 13.9788 15.7266 13.8209C16.0001 13.6631 16.0771 13.3755 15.9193 13.102L13.814 9.45552C13.5245 8.95411 13.6978 8.30706 14.1992 8.01757C14.7007 7.72808 15.3477 7.90146 15.6372 8.40287L16.6898 10.2261C16.8477 10.4996 17.1353 10.5766 17.4088 10.4187C17.6822 10.2609 17.7593 9.97327 17.6014 9.69981L16.5488 7.87657C15.9699 6.87375 14.6757 6.52698 13.673 7.10592Z" fill="#A3AAAF"/>
<path d="M17.3964 21.9732L9.64766 26.447C8.37139 27.1838 6.78968 26.76 6.05283 25.4837C5.31597 24.2075 5.73979 22.6258 7.01606 21.8889L14.7648 17.4152L17.3964 21.9732Z" fill="#E0E0E0"/>
<path d="M14.5206 21.2027L8.59509 24.6238C8.32163 24.7816 8.03404 24.7046 7.87615 24.4311C7.71827 24.1577 7.79533 23.8701 8.06879 23.7122L13.9943 20.2911C14.2678 20.1332 14.5554 20.2103 14.7132 20.4837C14.8711 20.7572 14.7941 21.0448 14.5206 21.2027Z" fill="#A3AAAF"/>
<path d="M17.1471 9.96221L20.3377 8.12008C21.8419 7.25165 23.7831 7.77181 24.6516 9.27598L28.0727 15.2015C28.52 15.9764 28.2696 16.911 27.4947 17.3584L18.8344 22.3585C18.3329 22.6479 17.6859 22.4746 17.3964 21.9732L14.2385 16.5034C13.4226 15.0904 12.7713 12.4885 13.9564 11.8043L17.147 9.96216L17.1471 9.96221Z" fill="#F2994A"/>
<path d="M26.1271 18.1479L21.569 20.7795L18.4111 15.3098L22.9692 12.6782L24.6703 13.5193L25.4598 14.8867L26.1271 18.1479Z" fill="#E48D56"/>
<path d="M20.9539 14.4503C20.6805 14.6082 20.3929 14.5312 20.235 14.2577L19.4455 12.8902C19.2876 12.6168 19.3647 12.3292 19.6381 12.1713C19.9116 12.0134 20.1992 12.0905 20.3571 12.3639L21.1465 13.7313C21.3044 14.0049 21.2274 14.2924 20.9539 14.4503Z" fill="#F2C94C"/>
<path d="M21.0747 12.5566L19.2514 13.6092C18.978 13.7671 18.6904 13.6901 18.5325 13.4166C18.3746 13.1431 18.4517 12.8556 18.7251 12.6977L20.5484 11.645C20.8218 11.4871 21.1094 11.5642 21.2673 11.8377C21.4252 12.1111 21.3481 12.3987 21.0747 12.5566Z" fill="#F2C94C"/>
<path d="M22.9171 15.7466L21.5497 16.5361C21.2762 16.694 20.9886 16.6169 20.8307 16.3435C20.6729 16.07 20.7499 15.7824 21.0234 15.6245L22.3908 14.8351C22.6642 14.6772 22.9518 14.7543 23.1097 15.0277C23.2676 15.3012 23.1905 15.5888 22.9171 15.7466Z" fill="#F2994A"/>
<path d="M23.9699 17.5701L22.6024 18.3596C22.329 18.5175 22.0414 18.4404 21.8835 18.167C21.7256 17.8935 21.8027 17.6059 22.0761 17.448L23.4436 16.6586C23.717 16.5007 24.0046 16.5777 24.1625 16.8512C24.3204 17.1247 24.2433 17.4122 23.9699 17.5701Z" fill="#F2994A"/>
</svg>
