<svg width="30" height="30" viewBox="0 0 30 30" fill="none" xmlns="http://www.w3.org/2000/svg">
<path d="M12.3007 15.8786H7.02921V10.6071H12.3007V15.8786Z" fill="#406080"/>
<path d="M9.66415 10.6071H12.2999V15.8786H9.66415V10.6071Z" fill="#334D66"/>
<path d="M15.8145 19.3924V14.1209C15.8145 11.214 18.1792 8.84937 21.0861 8.84937V12.3637C20.1165 12.3637 19.3289 13.1522 19.3289 14.1209V19.3924H15.8145Z" fill="#334D66"/>
<path d="M13.1792 14.1212H6.15047C5.46517 14.1212 4.85016 14.3847 4.39329 14.8065V18.5142H3.76071C4.05937 19.0413 4.62173 19.3927 5.27188 19.3927H15.8149V16.757C15.8149 15.2985 14.6377 14.1212 13.1792 14.1212Z" fill="#4D7F99"/>
<path d="M13.1785 14.1212H9.66415V19.3927H15.8143V16.757C15.8143 15.2985 14.637 14.1212 13.1785 14.1212Z" fill="#406080"/>
<path d="M5.27152 17.6355V6.21389C5.27152 4.76047 4.08918 3.57812 2.63576 3.57812H0V5.3353H2.63576C3.11969 5.3353 3.51435 5.72914 3.51435 6.21389V17.6355C3.51435 18.2522 3.51435 23.1606 3.51435 22.907H4.39294C4.87686 22.907 5.27152 23.3009 5.27152 23.7856V24.6642H22.8433V20.2713C22.8433 19.8131 22.9685 19.3472 23.1967 18.9586L23.9707 17.6355H5.27152Z" fill="#F2994A"/>
<path d="M14.9363 24.6641H22.8436V20.2711C22.8436 19.813 22.9689 19.3471 23.1971 18.9584L23.971 17.6354H14.9363V24.6641Z" fill="#E48D56"/>
<path d="M4.39281 26.4209C2.93939 26.4209 1.75705 25.2386 1.75705 23.7852C1.75705 22.3318 2.93939 21.1494 4.39281 21.1494C5.84623 21.1494 7.02857 22.3318 7.02857 23.7852C7.02857 25.2386 5.84623 26.4209 4.39281 26.4209Z" fill="#406080"/>
<path d="M4.39269 24.6637C4.87792 24.6637 5.27127 24.2703 5.27127 23.7851C5.27127 23.2999 4.87792 22.9065 4.39269 22.9065C3.90746 22.9065 3.5141 23.2999 3.5141 23.7851C3.5141 24.2703 3.90746 24.6637 4.39269 24.6637Z" fill="#ECF2FF"/>
<path d="M22.8428 8.84937H24.6V10.6065H22.8428V8.84937Z" fill="#D9E5FF"/>
<path d="M22.8428 12.3635H24.6V14.1207H22.8428V12.3635Z" fill="#D9E5FF"/>
<path d="M26.3569 10.6064H28.1141V12.3636H26.3569V10.6064Z" fill="#D9E5FF"/>
<path d="M26.3569 7.09229H28.1141V8.84946H26.3569V7.09229Z" fill="#D9E5FF"/>
<path d="M27.9569 24.6642L26.1994 15.8783H25.4787C23.9017 15.8783 22.4808 16.6977 21.6795 18.0696C21.2917 18.7337 21.0857 19.4947 21.0857 20.2712V23.7856C21.0857 25.239 22.2681 26.4213 23.7215 26.4213C24.3882 26.4213 30.2862 26.4213 29.9887 26.4213V24.6642H27.9569Z" fill="#F2994A"/>
</svg>
