<svg width="30" height="30" viewBox="0 0 30 30" fill="none" xmlns="http://www.w3.org/2000/svg">
<g clip-path="url(#clip0)">
<path d="M11.7978 28.8063H8.71463C8.22514 28.8063 7.82834 28.4095 7.82834 27.92C7.82834 27.4305 8.22514 27.0337 8.71463 27.0337H11.7978C12.2873 27.0337 12.6841 27.4305 12.6841 27.92C12.6841 28.4095 12.2873 28.8063 11.7978 28.8063Z" fill="#FF9E22"/>
<path d="M6.8905 30C6.40101 30 6.00421 29.6032 6.00421 29.1137V28.3591C6.00421 27.8696 6.40101 27.4728 6.8905 27.4728C7.37999 27.4728 7.77679 27.8696 7.77679 28.3591V29.1137C7.77679 29.6032 7.37993 30 6.8905 30Z" fill="#09607D"/>
<path d="M6.89053 27.4728V30C7.38002 30 7.77682 29.6032 7.77682 29.1137V28.3591C7.77682 27.8696 7.37997 27.4728 6.89053 27.4728Z" fill="#07485E"/>
<path d="M8.71477 24.9485H5.06631C4.57682 24.9485 4.18002 25.3453 4.18002 25.8348V28.1567C4.18002 28.6462 4.57682 29.0429 5.06631 29.0429H8.71477C9.20426 29.0429 9.60106 28.6462 9.60106 28.1567V25.8348C9.60106 25.3453 9.20426 24.9485 8.71477 24.9485Z" fill="#07485E"/>
<path d="M8.71397 24.9485H6.88971V29.0429H8.71397C9.20346 29.0429 9.60026 28.6462 9.60026 28.1567V25.8348C9.60026 25.3453 9.20346 24.9485 8.71397 24.9485Z" fill="#04303E"/>
<path d="M5.23552 21.5509C4.99101 21.5509 4.74756 21.4503 4.57242 21.2531C4.24746 20.887 4.28068 20.3269 4.64672 20.0019L26.9233 0.223548C27.1843 -0.00813194 27.5567 -0.0651437 27.875 0.0779423C28.1933 0.22097 28.398 0.537435 28.398 0.886302V4.13187C28.398 6.512 26.4617 8.44835 24.0816 8.44835H20.3295L5.82363 21.3274C5.65482 21.4773 5.44476 21.5509 5.23552 21.5509ZM22.265 6.49572H24.0061C25.3972 6.49572 26.529 5.36398 26.529 3.9729V2.71003L22.265 6.49572Z" fill="#DFEEF0"/>
<path d="M10.4452 15.2446C10.1255 15.1022 9.75212 15.1611 9.49191 15.395L4.41101 19.9628C3.73648 20.5692 3.34964 21.4372 3.34964 22.3442V24.6009C3.34964 25.0904 3.74644 25.4872 4.23593 25.4872H10.0845C10.574 25.4872 10.9708 25.0904 10.9708 24.6009V16.0542C10.9707 15.7042 10.7648 15.3871 10.4452 15.2446Z" fill="#F2994A"/>
<path d="M10.4455 15.2446C10.1258 15.1022 9.75237 15.1611 9.49215 15.395L6.89053 17.7339V25.4871H10.0847C10.5741 25.4871 10.9709 25.0903 10.9709 24.6008V16.0542C10.9709 15.7042 10.765 15.3871 10.4455 15.2446Z" fill="#E48D56"/>
<path d="M14.9425 27.9204C14.7042 27.9204 14.4664 27.8249 14.2918 27.6361L13.4691 26.7471C13.0017 26.242 12.339 25.9523 11.6508 25.9523H2.48712C1.99763 25.9523 1.60083 25.5555 1.60083 25.066C1.60083 24.5765 1.99763 24.1797 2.48712 24.1797H11.6507C12.8313 24.1797 13.9682 24.6767 14.77 25.5431L15.5927 26.4321C15.9251 26.7914 15.9034 27.3521 15.5442 27.6846C15.3737 27.8424 15.1578 27.9204 14.9425 27.9204Z" fill="#09607D"/>
<path d="M15.5929 26.4323L14.7702 25.5432C13.9684 24.6767 12.8315 24.1798 11.6509 24.1798H6.89066V25.9523H11.6509C12.3391 25.9523 13.0019 26.242 13.4693 26.7472L14.2919 27.6362C14.4666 27.8249 14.7043 27.9205 14.9427 27.9205C15.158 27.9205 15.3739 27.8425 15.5444 27.6847C15.9036 27.3523 15.9253 26.7916 15.5929 26.4323Z" fill="#07485E"/>
</g>
<defs>
<clipPath id="clip0">
<rect width="30" height="30" fill="white"/>
</clipPath>
</defs>
</svg>
