<svg width="30" height="30" viewBox="0 0 30 30" fill="none" xmlns="http://www.w3.org/2000/svg">
<path d="M16.8875 15.9885L12.0875 15.9369L12.0119 20.3256L15.9939 20.3291L17.4599 16.7648L16.8875 15.9885Z" fill="#F2994A"/>
<path d="M13.4164 13.3547V14.6901L11.3562 13.4374C10.8547 13.1324 10.3169 12.8914 9.75546 12.7202V12.7196L9.25331 10.1631C9.24656 10.1272 9.24323 10.0907 9.24335 10.0542C9.24357 9.91962 9.28978 9.78921 9.37432 9.68455C9.45885 9.57988 9.57662 9.50727 9.7081 9.47874C9.83958 9.45022 9.97685 9.4675 10.0972 9.52772C10.2175 9.58794 10.3136 9.68748 10.3695 9.80982L11.0914 11.9051C11.1425 12.0532 11.2385 12.1816 11.366 12.2725C11.4935 12.3635 11.6461 12.4124 11.8027 12.4126H12.4742C12.7241 12.4126 12.9637 12.5118 13.1404 12.6885C13.3171 12.8652 13.4164 13.1049 13.4164 13.3547Z" fill="#E2798D"/>
<path d="M13.4164 14.6907V14.6901L11.3563 13.4374C10.254 12.7678 8.98916 12.4133 7.69942 12.4126H1.73575V13.9267H1.96075C2.45247 13.9267 2.93029 14.0898 3.31933 14.3905C3.70838 14.6912 3.98665 15.1125 4.11055 15.5884L12.4391 17.9292H14.2531V15.1993L13.4164 14.6907Z" fill="#F2C94C"/>
<path d="M24.7274 16.94L17.46 16.7648L15.994 20.329H21.6881L24.7983 18.2284L24.7994 18.2208L24.7274 16.94Z" fill="#E48D56"/>
<path d="M27.7309 12.4548C27.6825 12.3954 27.622 12.3472 27.5533 12.3133C27.4847 12.2795 27.4095 12.2608 27.333 12.2585L21.8756 12.085C20.9891 12.0563 20.375 11.9239 19.7885 11.6919C19.202 11.4598 18.643 11.1276 17.8649 10.701L15.0541 13.5036L16.8869 15.9885L17.4594 16.7649L24.7268 16.9401L28.1832 13.4579L27.7309 12.4548Z" fill="#F2C94C"/>
<path d="M12.0119 20.3256V22.3687H18.2932L19.7943 20.3291L12.0119 20.3256Z" fill="#E48D56"/>
<path d="M4.83527 4.96924V12.4124H3.51105V4.96924C3.51105 4.79364 3.58081 4.62523 3.70498 4.50106C3.82915 4.37689 3.99756 4.30713 4.17316 4.30713C4.34876 4.30713 4.51717 4.37689 4.64134 4.50106C4.76551 4.62523 4.83527 4.79364 4.83527 4.96924Z" fill="#E0E0E0"/>
<path d="M28.1839 13.4578L27.9436 14.7375L27.9337 14.7357H24.1415V13.8234C24.1415 13.7753 24.1509 13.7277 24.1693 13.6833C24.1877 13.6389 24.2147 13.5986 24.2487 13.5646C24.2827 13.5306 24.3231 13.5037 24.3676 13.4854C24.412 13.467 24.4596 13.4577 24.5077 13.4578H28.1839Z" fill="#E0E0E0"/>
<path d="M27.9436 14.7376L27.7046 16.0138H27.704H24.1415V14.7358H27.9337L27.9436 14.7376Z" fill="#C1D3EA"/>
<path d="M27.7046 16.0135L27.4649 17.2915H27.4637H24.353L24.3284 17.3038L24.1415 16.9399V16.0135H27.704H27.7046Z" fill="#E0E0E0"/>
<path d="M27.4637 17.2916H24.3529L24.3283 17.3039L24.7994 18.2209L24.7983 18.2285C24.9023 18.2481 24.9962 18.3034 25.0639 18.3848C25.1316 18.4662 25.1688 18.5686 25.1692 18.6744V18.7987L25.2172 18.6844L26.0065 18.5256H27.2334L27.4649 17.2916H27.4637Z" fill="#C1D3EA"/>
<path d="M26.0065 18.5255L26.1559 18.5888C26.2663 18.6357 26.3537 18.7244 26.399 18.8355C26.4444 18.9465 26.444 19.071 26.3979 19.1818C26.4833 19.0975 26.5984 19.0503 26.7184 19.0505C26.8383 19.0507 26.9533 19.0983 27.0384 19.1829L27.3026 19.4472C27.3873 19.5324 27.4349 19.6476 27.4349 19.7677C27.4349 19.8878 27.3873 20.0031 27.3026 20.0882L27.2147 20.1767L27.3296 20.1298C27.4411 20.085 27.5659 20.086 27.6766 20.1328C27.7874 20.1796 27.8751 20.2682 27.9208 20.3794L28.0608 20.7257C28.1056 20.837 28.1047 20.9615 28.0581 21.0721C28.0116 21.1828 27.9233 21.2705 27.8124 21.3163C27.9324 21.317 28.0472 21.365 28.132 21.4499C28.2167 21.5349 28.2644 21.6499 28.2647 21.7698V22.1437C28.2642 22.2638 28.2163 22.3789 28.1314 22.4638C28.0464 22.5488 27.9313 22.5967 27.8112 22.5972H27.6864L27.8013 22.6452C27.9118 22.6925 27.9992 22.7815 28.0443 22.8929C28.0894 23.0044 28.0886 23.1291 28.0421 23.24L27.8968 23.5839C27.8497 23.6943 27.7609 23.7817 27.6498 23.827C27.5386 23.8723 27.4141 23.8719 27.3032 23.8259C27.3876 23.9112 27.4349 24.0263 27.4347 24.1462C27.4346 24.2662 27.3871 24.3812 27.3026 24.4663L27.0384 24.7306C26.9531 24.8153 26.8378 24.8629 26.7176 24.8629C26.5974 24.8629 26.482 24.8153 26.3968 24.7306L26.3089 24.6427L26.3557 24.7575C26.4006 24.8691 26.3995 24.994 26.3526 25.1048C26.3057 25.2155 26.2169 25.3033 26.1055 25.3487L25.7593 25.4888C25.648 25.5337 25.5236 25.5327 25.413 25.4862C25.3025 25.4396 25.2149 25.3513 25.1692 25.2403C25.1684 25.3604 25.1203 25.4753 25.0353 25.56C24.9502 25.6447 24.8352 25.6924 24.7151 25.6927H24.3419C24.2217 25.6923 24.1066 25.6444 24.0216 25.5594C23.9366 25.4745 23.8887 25.3593 23.8884 25.2392V25.1144L23.8397 25.2292C23.7925 25.3398 23.7034 25.4271 23.592 25.4722C23.4806 25.5174 23.3558 25.5166 23.245 25.47L22.9011 25.3247C22.7906 25.2777 22.7032 25.1889 22.658 25.0777C22.6128 24.9665 22.6134 24.8419 22.6596 24.7312C22.5743 24.8156 22.4591 24.8628 22.339 24.8627C22.219 24.8626 22.1038 24.8151 22.0186 24.7306L21.755 24.4663C21.6702 24.3811 21.6227 24.2657 21.6227 24.1455C21.6227 24.0253 21.6702 23.91 21.755 23.8247L21.8428 23.7368L21.7274 23.7837C21.6159 23.8286 21.4911 23.8274 21.3805 23.7806C21.2698 23.7337 21.1822 23.6448 21.1368 23.5335L20.9962 23.1872C20.9513 23.0759 20.9523 22.9514 20.9989 22.8408C21.0456 22.7303 21.1341 22.6427 21.2452 22.5972C21.1252 22.5964 21.0104 22.5484 20.9257 22.4635C20.841 22.3785 20.7933 22.2636 20.7928 22.1437V21.7698C20.7931 21.6497 20.841 21.5345 20.926 21.4495C21.011 21.3645 21.1262 21.3166 21.2464 21.3163H21.3706L21.2563 21.2677C21.1456 21.2206 21.0581 21.1316 21.0129 21.0202C20.9676 20.9087 20.9684 20.7839 21.0149 20.673L21.1608 20.329C21.2078 20.2187 21.2965 20.1313 21.4075 20.0861C21.5186 20.0409 21.6431 20.0414 21.7538 20.0876C21.6695 20.0023 21.6223 19.8871 21.6225 19.7672C21.6228 19.6472 21.6704 19.5322 21.755 19.4472L22.0186 19.1829C22.1039 19.0982 22.2192 19.0507 22.3394 19.0507C22.4596 19.0507 22.575 19.0982 22.6602 19.1829L22.7487 19.2708L22.7018 19.1554C22.657 19.0439 22.6581 18.9193 22.7048 18.8086C22.7516 18.698 22.8403 18.6103 22.9514 18.5648L23.2977 18.4242C23.4091 18.3793 23.5337 18.3803 23.6444 18.427C23.755 18.4736 23.8427 18.5621 23.8884 18.6732C23.889 18.5532 23.937 18.4383 24.022 18.3536C24.1069 18.2689 24.2219 18.2212 24.3419 18.2208H24.7151C24.743 18.2207 24.7709 18.2232 24.7983 18.2284C24.9023 18.248 24.9963 18.3033 25.064 18.3847C25.1317 18.4661 25.1689 18.5685 25.1692 18.6743V18.7986L25.2173 18.6843C25.2643 18.5736 25.3533 18.4861 25.4648 18.4408C25.5763 18.3956 25.7011 18.3963 25.812 18.4429L26.0065 18.5255Z" fill="#6D7486"/>
<path d="M24.5286 23.7439C25.5156 23.7439 26.3157 22.9438 26.3157 21.9568C26.3157 20.9698 25.5156 20.1697 24.5286 20.1697C23.5416 20.1697 22.7415 20.9698 22.7415 21.9568C22.7415 22.9438 23.5416 23.7439 24.5286 23.7439Z" fill="#E0E0E0"/>
<path d="M24.558 21.9568C24.5578 21.646 24.6388 21.3405 24.793 21.0705C24.9471 20.8006 25.1691 20.5756 25.4369 20.4178C25.1655 20.2576 24.8565 20.172 24.5414 20.1697C24.2262 20.1675 23.9161 20.2486 23.6424 20.4048C23.3687 20.5611 23.1412 20.787 22.983 21.0595C22.8247 21.3321 22.7414 21.6416 22.7414 21.9568C22.7414 22.2719 22.8247 22.5815 22.983 22.8541C23.1412 23.1266 23.3687 23.3525 23.6424 23.5087C23.9161 23.665 24.2262 23.7461 24.5414 23.7439C24.8565 23.7416 25.1655 23.656 25.4369 23.4958C25.1691 23.3379 24.9472 23.1129 24.7931 22.843C24.6389 22.5731 24.5579 22.2677 24.558 21.9568Z" fill="#C1D3EA"/>
<path d="M3.77715 13.9267C3.74761 13.9267 3.71835 13.9208 3.69105 13.9095C3.66375 13.8982 3.63895 13.8817 3.61806 13.8608C3.59716 13.8399 3.58059 13.8151 3.56928 13.7878C3.55797 13.7605 3.55215 13.7312 3.55215 13.7017V12.4126H1.73575V13.9267H1.96075C2.45247 13.9267 2.93029 14.0898 3.31933 14.3905C3.70838 14.6912 3.98665 15.1125 4.11055 15.5884L5.85717 16.0793L5.92696 15.5884C5.80306 15.1125 5.52478 14.6912 5.13574 14.3905C4.74669 14.0898 4.26887 13.9267 3.77715 13.9267Z" fill="#FFA23D"/>
<path d="M17.1579 13.2176L19.0388 11.3426C18.6889 11.161 18.3137 10.9468 17.8656 10.7012L15.0549 13.5037L16.8877 15.9887L17.4602 16.765L19.3249 16.81L17.1127 13.829C17.0455 13.7386 17.0132 13.6271 17.0215 13.5149C17.0298 13.4026 17.0782 13.2971 17.1579 13.2176Z" fill="#FFA23D"/>
<path d="M4.11029 15.5883C4.28056 15.5477 4.45984 15.5715 4.61361 15.6551C4.59002 15.502 4.6176 15.3454 4.69208 15.2096C4.76655 15.0738 4.88376 14.9663 5.02553 14.9039L5.60678 14.649C5.74182 14.5906 5.89173 14.5759 6.03556 14.6069C6.17938 14.6379 6.30992 14.7131 6.40893 14.8219C6.45263 14.6813 6.53924 14.5579 6.65661 14.469C6.77398 14.3801 6.91623 14.3302 7.06342 14.3262L7.6974 14.3109C7.85225 14.3077 8.00387 14.3555 8.12884 14.447C8.25381 14.5385 8.34517 14.6686 8.38881 14.8172C8.48057 14.6924 8.61086 14.6014 8.75955 14.5581C8.90824 14.5147 9.06706 14.5216 9.21147 14.5775L9.80209 14.8084C9.93906 14.8625 10.0557 14.958 10.1357 15.0817C10.2156 15.2054 10.2549 15.351 10.248 15.4981C10.3783 15.4295 10.5267 15.4034 10.6726 15.4235C10.8184 15.4435 10.9544 15.5087 11.0613 15.61L11.5206 16.0477C11.6323 16.1549 11.7055 16.296 11.729 16.449C11.7525 16.602 11.725 16.7585 11.6507 16.8943C11.8039 16.871 11.9606 16.8987 12.0965 16.9733C12.2323 17.0479 12.3399 17.1651 12.4025 17.3068L12.6568 17.8875C12.6626 17.9016 12.6685 17.9151 12.6732 17.9291C12.7205 18.0605 12.7277 18.2029 12.694 18.3384C12.6604 18.4739 12.5872 18.5963 12.4839 18.6902C12.6246 18.7339 12.7481 18.8205 12.8371 18.9379C12.9261 19.0552 12.9761 19.1975 12.9802 19.3447L12.9955 19.9787C12.9984 20.0996 12.9697 20.2192 12.9122 20.3256C12.8679 20.4082 12.8077 20.4812 12.735 20.5403C12.6622 20.5994 12.5785 20.6436 12.4886 20.6701C12.6133 20.7619 12.7044 20.8922 12.7478 21.0408C12.7912 21.1895 12.7846 21.3483 12.7288 21.4928L12.4974 22.0834C12.454 22.1948 12.3826 22.2931 12.29 22.3688H12.2894C12.1546 22.4802 11.9831 22.5374 11.8083 22.5293C11.8768 22.6596 11.9028 22.8081 11.8827 22.9539C11.8627 23.0997 11.7975 23.2356 11.6964 23.3426L11.2581 23.8014C11.151 23.9131 11.01 23.9865 10.8569 24.0101C10.7039 24.0337 10.5474 24.0063 10.4115 23.932C10.4347 24.0852 10.407 24.2417 10.3326 24.3776C10.2582 24.5134 10.1411 24.621 9.99955 24.6838L9.4183 24.9381C9.2832 24.9967 9.13315 25.0115 8.98919 24.9805C8.84524 24.9495 8.71459 24.8742 8.61557 24.7652C8.57203 24.9059 8.48556 25.0294 8.36829 25.1184C8.25102 25.2074 8.10883 25.2574 7.96166 25.2615L7.32709 25.2768C7.17228 25.2798 7.02075 25.2319 6.89591 25.1403C6.77106 25.0487 6.67982 24.9185 6.63627 24.7699C6.54444 24.8946 6.41419 24.9857 6.26554 25.0291C6.1169 25.0725 5.95811 25.0658 5.81361 25.0102L5.2224 24.7787C5.0855 24.7248 4.96893 24.6293 4.88906 24.5057C4.8092 24.3821 4.77004 24.2366 4.77709 24.0897C4.64676 24.1582 4.49824 24.1842 4.35238 24.164C4.20652 24.1438 4.07064 24.0785 3.96381 23.9772L3.50443 23.5395C3.39272 23.4323 3.31939 23.2913 3.29578 23.1382C3.27216 22.9852 3.29957 22.8287 3.37377 22.6928C3.22071 22.7161 3.06422 22.6884 2.92846 22.614C2.7927 22.5395 2.68522 22.4225 2.6226 22.2809L2.3683 21.6996C2.30963 21.5646 2.2947 21.4146 2.32559 21.2706C2.35649 21.1266 2.43166 20.996 2.54057 20.8969C2.4001 20.8531 2.27681 20.7666 2.18794 20.6494C2.09906 20.5321 2.04904 20.39 2.04486 20.243L2.02963 19.6084C2.02645 19.4535 2.07436 19.3018 2.16597 19.1769C2.25757 19.0519 2.38778 18.9606 2.53646 18.917C2.41149 18.8254 2.32022 18.6952 2.27679 18.5464C2.23336 18.3977 2.24019 18.2388 2.29623 18.0943L2.52709 17.5037C2.58117 17.3668 2.67675 17.2502 2.80043 17.1704C2.92411 17.0905 3.06968 17.0513 3.21674 17.0584C3.14826 16.9281 3.12223 16.7797 3.14229 16.6338C3.16236 16.488 3.22752 16.3521 3.32865 16.2451L3.76635 15.7858C3.8595 15.6881 3.97897 15.6195 4.11029 15.5883Z" fill="#6D7486"/>
<path d="M7.51251 16.4777C8.16831 16.4777 8.80939 16.6721 9.35468 17.0365C9.89996 17.4008 10.325 17.9187 10.5759 18.5246C10.8269 19.1305 10.8926 19.7972 10.7646 20.4404C10.6367 21.0836 10.3209 21.6744 9.85715 22.1381C9.39342 22.6018 8.8026 22.9176 8.15939 23.0456C7.51619 23.1735 6.84948 23.1079 6.2436 22.8569C5.63771 22.6059 5.11985 22.1809 4.7555 21.6356C4.39116 21.0904 4.19669 20.4493 4.19669 19.7935C4.19684 18.9141 4.54624 18.0708 5.16804 17.449C5.78984 16.8272 6.63314 16.4778 7.51251 16.4777Z" fill="#E0E0E0"/>
<path d="M6.01331 19.7936C6.01353 19.0726 6.24867 18.3713 6.68312 17.7959C7.11757 17.2205 7.72767 16.8023 8.42105 16.6047C7.92766 16.4641 7.40837 16.4399 6.90405 16.5341C6.39973 16.6282 5.92412 16.838 5.51465 17.1471C5.10519 17.4562 4.77302 17.8561 4.5443 18.3153C4.31558 18.7745 4.19653 19.2806 4.19653 19.7936C4.19653 20.3066 4.31558 20.8127 4.5443 21.2719C4.77302 21.7311 5.10519 22.131 5.51465 22.4401C5.92412 22.7492 6.39973 22.959 6.90405 23.0532C7.40837 23.1473 7.92766 23.1231 8.42105 22.9825C7.72762 22.7849 7.11747 22.3668 6.683 21.7914C6.24854 21.2159 6.01344 20.5146 6.01331 19.7936Z" fill="#C1D3EA"/>
<path d="M7.51251 21.1442C8.25842 21.1442 8.8631 20.5395 8.8631 19.7936C8.8631 19.0477 8.25842 18.443 7.51251 18.443C6.7666 18.443 6.16193 19.0477 6.16193 19.7936C6.16193 20.5395 6.7666 21.1442 7.51251 21.1442Z" fill="#515868"/>
<path d="M24.7152 26.0442H24.3416C24.2308 26.0442 24.1211 26.0214 24.0196 25.977C23.918 25.9326 23.8267 25.8677 23.7515 25.7864C23.7425 25.7904 23.7333 25.7943 23.724 25.7981C23.6261 25.8382 23.5213 25.8584 23.4155 25.8577C23.3098 25.857 23.2052 25.8353 23.1079 25.7939L22.7638 25.6484C22.5689 25.566 22.4144 25.4099 22.334 25.2142C22.1224 25.2132 21.9197 25.1287 21.7701 24.979L21.5059 24.7148C21.4276 24.6365 21.3662 24.5428 21.3258 24.4397C21.2854 24.3365 21.2667 24.2262 21.271 24.1155C21.1673 24.0763 21.0729 24.0161 20.9937 23.9387C20.9144 23.8613 20.8521 23.7683 20.8105 23.6656L20.6699 23.3193C20.5902 23.1233 20.5913 22.9037 20.6728 22.7084C20.5239 22.5581 20.4404 22.355 20.4405 22.1434V21.7698C20.4404 21.659 20.4633 21.5493 20.5077 21.4478C20.552 21.3462 20.6169 21.255 20.6983 21.1797C20.6942 21.1707 20.6903 21.1615 20.6866 21.1522C20.6464 21.0543 20.6262 20.9495 20.6269 20.8437C20.6276 20.738 20.6492 20.6334 20.6907 20.5361L20.8362 20.192C20.9186 19.9971 21.0746 19.8426 21.2704 19.7622C21.2713 19.5506 21.3559 19.3479 21.5056 19.1983L21.7698 18.9341C21.8482 18.8559 21.9418 18.7947 22.045 18.7543C22.1481 18.7139 22.2584 18.6952 22.3691 18.6994C22.4082 18.5957 22.4684 18.5013 22.5458 18.422C22.6233 18.3427 22.7163 18.2803 22.819 18.2387L23.1651 18.0981C23.3612 18.0186 23.5808 18.0197 23.7761 18.1012C23.9265 17.9522 24.1296 17.8687 24.3412 17.8688H24.7148C24.8256 17.8687 24.9352 17.8916 25.0367 17.936C25.1383 17.9804 25.2295 18.0453 25.3047 18.1266C25.4057 18.081 25.515 18.0568 25.6258 18.0555C25.7366 18.0542 25.8464 18.0759 25.9484 18.1191L26.2925 18.2646C26.4874 18.347 26.6419 18.5031 26.7224 18.6988C26.934 18.6998 27.1366 18.7843 27.2862 18.934L27.5504 19.1982C27.6288 19.2765 27.6902 19.3702 27.7306 19.4734C27.771 19.5766 27.7897 19.687 27.7853 19.7977C27.7946 19.8013 27.8039 19.805 27.8131 19.8089C27.9107 19.8498 27.9991 19.9096 28.0734 19.9849C28.1477 20.0601 28.2063 20.1494 28.2458 20.2474L28.3864 20.5936C28.466 20.7897 28.4648 21.0093 28.3833 21.2046C28.5323 21.3549 28.6158 21.558 28.6158 21.7697V22.1432C28.6158 22.2541 28.5929 22.3637 28.5486 22.4652C28.5042 22.5668 28.4393 22.658 28.3579 22.7333C28.3619 22.7423 28.3658 22.7515 28.3697 22.7608C28.4098 22.8587 28.43 22.9635 28.4293 23.0693C28.4286 23.1751 28.4069 23.2796 28.3655 23.3769L28.22 23.721C28.1376 23.9159 27.9815 24.0704 27.7858 24.1508C27.7849 24.3625 27.7004 24.5651 27.5508 24.7148L27.2866 24.979C27.2083 25.0574 27.1146 25.1187 27.0114 25.1591C26.9083 25.1995 26.7978 25.2181 26.6871 25.2137C26.6835 25.2231 26.6798 25.2324 26.676 25.2417C26.6351 25.3392 26.5753 25.4277 26.5 25.502C26.4247 25.5763 26.3354 25.6349 26.2373 25.6744L25.8912 25.815C25.6951 25.8946 25.4755 25.8935 25.2802 25.812C25.1298 25.9609 24.9268 26.0443 24.7152 26.0442ZM23.8878 24.763C23.981 24.763 24.0704 24.8 24.1364 24.8659C24.2023 24.9319 24.2393 25.0213 24.2393 25.1145V25.239C24.2397 25.266 24.2506 25.2917 24.2696 25.3108C24.2887 25.3298 24.3145 25.3407 24.3415 25.3411H24.7151C24.7419 25.3407 24.7676 25.3299 24.7867 25.3109C24.8057 25.2919 24.8166 25.2662 24.8171 25.2393C24.8172 25.1579 24.8457 25.0791 24.8975 25.0163C24.9494 24.9535 25.0214 24.9106 25.1014 24.895C25.1813 24.8795 25.2642 24.8921 25.3358 24.9308C25.4075 24.9696 25.4634 25.032 25.4942 25.1074C25.5047 25.1322 25.5244 25.1519 25.5492 25.1623C25.574 25.1727 25.6019 25.1731 25.627 25.1633L25.9731 25.023C25.998 25.0126 26.0178 24.9928 26.0283 24.968C26.0388 24.9431 26.0392 24.9152 26.0294 24.8901L25.9825 24.7746C25.952 24.6995 25.9485 24.6161 25.9724 24.5387C25.9964 24.4612 26.0464 24.3944 26.114 24.3496C26.1816 24.3047 26.2625 24.2847 26.3432 24.2927C26.4239 24.3008 26.4993 24.3365 26.5567 24.3938L26.6446 24.4817C26.6639 24.5005 26.6898 24.511 26.7168 24.511C26.7438 24.511 26.7697 24.5005 26.789 24.4817L27.0532 24.2175C27.072 24.1981 27.0824 24.1723 27.0824 24.1454C27.0824 24.1185 27.072 24.0926 27.0532 24.0733C26.9959 24.0156 26.9603 23.9398 26.9526 23.8588C26.9449 23.7777 26.9655 23.6966 27.011 23.6291C27.0564 23.5616 27.1239 23.5119 27.2019 23.4886C27.2799 23.4653 27.3635 23.4698 27.4386 23.5013C27.4635 23.5114 27.4914 23.5113 27.5163 23.5012C27.5413 23.4911 27.5613 23.4716 27.5721 23.447L27.7177 23.1029C27.7279 23.0779 27.7279 23.05 27.7177 23.025C27.7076 23 27.6881 22.9799 27.6634 22.9691L27.5488 22.9207C27.4741 22.8891 27.4126 22.8326 27.3748 22.7609C27.337 22.6891 27.3251 22.6065 27.3412 22.527C27.3573 22.4475 27.4005 22.3761 27.4632 22.3247C27.526 22.2734 27.6047 22.2453 27.6858 22.2453H27.8102C27.8372 22.245 27.8629 22.2341 27.882 22.215C27.9011 22.1959 27.9119 22.1702 27.9123 22.1432V21.7696C27.9119 21.7427 27.9011 21.717 27.882 21.6979C27.863 21.6789 27.8374 21.668 27.8104 21.6676C27.7291 21.6674 27.6503 21.6389 27.5875 21.587C27.5248 21.5352 27.482 21.4632 27.4664 21.3833C27.4508 21.3034 27.4634 21.2206 27.5021 21.149C27.5408 21.0774 27.6031 21.0214 27.6784 20.9906C27.7032 20.9801 27.7229 20.9603 27.7334 20.9355C27.7438 20.9107 27.7442 20.8828 27.7345 20.8578L27.5938 20.5116C27.5834 20.4867 27.5637 20.4669 27.5388 20.4564C27.514 20.4459 27.486 20.4455 27.4609 20.4553L27.3457 20.5022C27.2705 20.5327 27.1872 20.5362 27.1097 20.5123C27.0322 20.4883 26.9654 20.4383 26.9206 20.3707C26.8758 20.3032 26.8557 20.2222 26.8638 20.1415C26.8718 20.0608 26.9075 19.9854 26.9648 19.928L27.0527 19.8401C27.0715 19.8208 27.0821 19.7949 27.0821 19.7679C27.0821 19.7409 27.0715 19.715 27.0527 19.6957L26.7886 19.4315C26.7693 19.4128 26.7434 19.4023 26.7165 19.4023C26.6896 19.4023 26.6637 19.4128 26.6444 19.4315C26.5867 19.4889 26.5109 19.5245 26.4299 19.5322C26.3489 19.5399 26.2677 19.5192 26.2002 19.4738C26.1327 19.4283 26.083 19.3608 26.0597 19.2829C26.0364 19.2049 26.0409 19.1213 26.0724 19.0462C26.0825 19.0213 26.0824 18.9934 26.0723 18.9685C26.0622 18.9435 26.0427 18.9235 26.0181 18.9127L25.674 18.7671C25.649 18.7569 25.621 18.7569 25.596 18.767C25.571 18.7772 25.5509 18.7967 25.5401 18.8214L25.4917 18.9359C25.4601 19.0106 25.4037 19.0721 25.3319 19.11C25.2602 19.1478 25.1776 19.1597 25.0981 19.1435C25.0186 19.1274 24.9471 19.0843 24.8958 19.0215C24.8444 18.9587 24.8164 18.8801 24.8164 18.799V18.6746C24.816 18.6476 24.8051 18.6218 24.7861 18.6028C24.767 18.5837 24.7413 18.5728 24.7143 18.5725H24.3407C24.3138 18.5728 24.2881 18.5837 24.269 18.6027C24.25 18.6217 24.2391 18.6474 24.2387 18.6743C24.2385 18.7557 24.21 18.8345 24.1582 18.8972C24.1063 18.96 24.0343 19.0028 23.9544 19.0184C23.8745 19.034 23.7917 19.0213 23.7201 18.9827C23.6485 18.944 23.5925 18.8817 23.5617 18.8063C23.5512 18.7816 23.5314 18.7619 23.5066 18.7514C23.4818 18.7409 23.4539 18.7406 23.4288 18.7503L23.0827 18.8909C23.0578 18.9014 23.038 18.9212 23.0275 18.946C23.017 18.9709 23.0166 18.9989 23.0264 19.024L23.0733 19.1393C23.1039 19.2145 23.1075 19.298 23.0836 19.3756C23.0596 19.4532 23.0096 19.5201 22.9419 19.5649C22.8742 19.6098 22.7931 19.6298 22.7123 19.6217C22.6316 19.6135 22.5561 19.5777 22.4987 19.5202L22.4109 19.4323C22.3915 19.4135 22.3656 19.403 22.3387 19.403C22.3117 19.403 22.2859 19.4135 22.2665 19.4323L22.0024 19.6965C21.9836 19.7158 21.9732 19.7417 21.9732 19.7686C21.9732 19.7955 21.9836 19.8214 22.0024 19.8407C22.0597 19.8984 22.0953 19.9742 22.103 20.0553C22.1107 20.1363 22.09 20.2174 22.0446 20.2849C21.9991 20.3524 21.9316 20.402 21.8537 20.4253C21.7757 20.4486 21.6921 20.4442 21.617 20.4127C21.5921 20.4026 21.5642 20.4026 21.5393 20.4128C21.5144 20.4229 21.4944 20.4423 21.4835 20.4669L21.3379 20.8111C21.3278 20.836 21.3277 20.864 21.3379 20.889C21.348 20.914 21.3675 20.934 21.3922 20.9448L21.5069 20.9933C21.5816 21.0249 21.6431 21.0814 21.6809 21.1532C21.7187 21.2249 21.7306 21.3075 21.7145 21.387C21.6983 21.4665 21.6552 21.538 21.5924 21.5893C21.5296 21.6407 21.451 21.6687 21.3699 21.6687H21.2461C21.2192 21.669 21.1934 21.6799 21.1743 21.699C21.1552 21.718 21.1444 21.7438 21.144 21.7708V22.1444C21.1444 22.1713 21.1552 22.197 21.1742 22.216C21.1932 22.2351 21.2189 22.2459 21.2458 22.2464C21.3272 22.2466 21.406 22.275 21.4688 22.3269C21.5315 22.3787 21.5744 22.4507 21.59 22.5306C21.6055 22.6105 21.5929 22.6933 21.5542 22.765C21.5156 22.8366 21.4532 22.8926 21.3779 22.9234C21.3531 22.9339 21.3334 22.9536 21.3229 22.9784C21.3125 23.0032 21.3121 23.0311 21.3218 23.0561L21.4625 23.4024C21.4729 23.4273 21.4926 23.4471 21.5175 23.4576C21.5423 23.4681 21.5703 23.4685 21.5954 23.4586L21.7108 23.4117C21.7859 23.3813 21.8693 23.3777 21.9468 23.4017C22.0242 23.4256 22.091 23.4757 22.1358 23.5432C22.1807 23.6108 22.2007 23.6918 22.1927 23.7725C22.1846 23.8532 22.1489 23.9286 22.0916 23.986L22.0037 24.0739C21.9849 24.0932 21.9744 24.1191 21.9744 24.146C21.9744 24.173 21.9849 24.1989 22.0037 24.2182L22.2679 24.4824C22.2872 24.5011 22.3131 24.5116 22.34 24.5116C22.3669 24.5116 22.3927 24.5011 22.412 24.4824C22.4697 24.425 22.5456 24.3894 22.6266 24.3817C22.7076 24.374 22.7888 24.3946 22.8564 24.4401C22.9239 24.4855 22.9735 24.553 22.9968 24.631C23.0201 24.709 23.0156 24.7927 22.9841 24.8677C22.974 24.8927 22.974 24.9206 22.9842 24.9456C22.9943 24.9705 23.0138 24.9905 23.0385 25.0013L23.3825 25.1469C23.4075 25.1571 23.4354 25.1571 23.4604 25.147C23.4854 25.1368 23.5054 25.1174 23.5162 25.0927L23.5648 24.9779C23.5916 24.9143 23.6365 24.8601 23.694 24.8219C23.7514 24.7836 23.8188 24.7632 23.8878 24.763Z" fill="#515868"/>
<path d="M7.31056 25.6284C7.16681 25.6282 7.02461 25.5986 6.8927 25.5415C6.7608 25.4843 6.64199 25.4008 6.54357 25.296C6.41149 25.3628 6.26682 25.401 6.11898 25.4082C5.97115 25.4153 5.82347 25.3912 5.68558 25.3374L5.0946 25.1063C4.96125 25.0542 4.83994 24.9754 4.7381 24.8748C4.63626 24.7741 4.55603 24.6538 4.50234 24.521C4.35935 24.5287 4.21631 24.507 4.08203 24.4572C3.94775 24.4075 3.82506 24.3309 3.72152 24.2319L3.26214 23.7943C3.1551 23.692 3.0708 23.5684 3.01472 23.4314C2.95863 23.2944 2.93204 23.1472 2.93665 22.9993C2.79602 22.9531 2.6667 22.8778 2.55712 22.7783C2.44754 22.6788 2.36016 22.5573 2.30068 22.4218L2.0462 21.8406C1.98879 21.7094 1.95873 21.5679 1.95789 21.4247C1.95704 21.2815 1.98542 21.1397 2.04128 21.0078C1.9349 20.912 1.84919 20.7955 1.78939 20.6654C1.7296 20.5353 1.69698 20.3944 1.69353 20.2513L1.67829 19.6172C1.67486 19.4692 1.70265 19.3222 1.75985 19.1857C1.81705 19.0492 1.90239 18.9263 2.01029 18.825C1.9435 18.6929 1.90529 18.5482 1.89816 18.4003C1.89104 18.2525 1.91515 18.1048 1.96892 17.9669L2.19995 17.3759C2.2521 17.2426 2.3309 17.1213 2.43152 17.0195C2.53215 16.9177 2.65249 16.8374 2.78519 16.7837C2.77773 16.6407 2.79953 16.4977 2.84925 16.3634C2.89897 16.2292 2.97557 16.1064 3.07435 16.0028L3.51204 15.5435C3.61439 15.4366 3.738 15.3525 3.87489 15.2963C4.01178 15.2402 4.15892 15.2134 4.30681 15.2177C4.353 15.0771 4.4283 14.9478 4.5278 14.8382C4.62731 14.7286 4.74878 14.6412 4.88431 14.5817L5.4655 14.3273C5.59665 14.2698 5.73816 14.2397 5.88135 14.2389C6.02455 14.238 6.16641 14.2664 6.29823 14.3223C6.39406 14.2159 6.51059 14.1302 6.64069 14.0705C6.77079 14.0107 6.91172 13.9781 7.05486 13.9746L7.68913 13.9594C7.83713 13.9559 7.9842 13.9837 8.12073 14.0409C8.25727 14.0981 8.3802 14.1834 8.4815 14.2914C8.61365 14.2245 8.75841 14.1863 8.90634 14.1791C9.05428 14.172 9.20205 14.1962 9.34001 14.25L9.93081 14.4811C10.0642 14.5332 10.1855 14.612 10.2874 14.7126C10.3892 14.8132 10.4695 14.9336 10.5232 15.0664C10.6662 15.0588 10.8092 15.0805 10.9435 15.1302C11.0778 15.18 11.2005 15.2566 11.3041 15.3555L11.7634 15.7932C11.8704 15.8954 11.9547 16.019 12.0108 16.156C12.0669 16.293 12.0935 16.4403 12.0889 16.5882C12.2295 16.6344 12.3588 16.7097 12.4684 16.8092C12.578 16.9087 12.6654 17.0301 12.7249 17.1657L12.9793 17.7469C13.0367 17.8781 13.0668 18.0195 13.0677 18.1627C13.0685 18.3059 13.0401 18.4478 12.9843 18.5796C13.0906 18.6754 13.1762 18.7919 13.2359 18.922C13.2957 19.052 13.3282 19.1929 13.3317 19.336L13.3469 19.9702C13.3504 20.1182 13.3226 20.2653 13.2654 20.4018C13.2082 20.5383 13.1229 20.6613 13.015 20.7626C13.0817 20.8947 13.1199 21.0394 13.1271 21.1872C13.1342 21.3351 13.1101 21.4828 13.0563 21.6207L12.8253 22.2116C12.7731 22.3449 12.6944 22.4662 12.5937 22.568C12.4931 22.6699 12.3728 22.7501 12.2401 22.8038C12.2475 22.9468 12.2257 23.0898 12.176 23.2241C12.1263 23.3584 12.0497 23.4811 11.9509 23.5847L11.5131 24.0441C11.411 24.1512 11.2874 24.2356 11.1504 24.2916C11.0134 24.3477 10.8661 24.3743 10.7182 24.3696C10.672 24.5102 10.5967 24.6395 10.4972 24.7491C10.3977 24.8586 10.2762 24.946 10.1407 25.0055L9.5595 25.26C9.42834 25.3174 9.28685 25.3474 9.14368 25.3483C9.00051 25.3491 8.85867 25.3208 8.72683 25.265C8.63099 25.3713 8.51446 25.457 8.38436 25.5168C8.25426 25.5766 8.11334 25.6092 7.97021 25.6126L7.33587 25.6279C7.32743 25.6283 7.31894 25.6284 7.31056 25.6284ZM6.6362 24.4183C6.71221 24.4183 6.78617 24.4429 6.84701 24.4885C6.90784 24.5341 6.95228 24.5981 6.97365 24.6711C6.99535 24.7454 7.04091 24.8106 7.10331 24.8565C7.16571 24.9024 7.24148 24.9266 7.31894 24.9252L7.95322 24.9098C8.0269 24.9078 8.0981 24.8827 8.15676 24.8381C8.21542 24.7934 8.25859 24.7315 8.28017 24.661C8.29856 24.6019 8.33225 24.5487 8.37783 24.5067C8.4234 24.4648 8.47925 24.4357 8.53971 24.4222C8.60017 24.4088 8.6631 24.4116 8.72214 24.4303C8.78117 24.4491 8.83421 24.483 8.87589 24.5288C8.92529 24.5836 8.99062 24.6214 9.06267 24.637C9.13472 24.6527 9.20985 24.6453 9.27749 24.616L9.85868 24.3616C9.92954 24.3301 9.98807 24.2763 10.0252 24.2082C10.0624 24.1402 10.0761 24.0619 10.0642 23.9853C10.0543 23.9205 10.0627 23.8542 10.0884 23.7939C10.1142 23.7337 10.1563 23.6818 10.21 23.6442C10.2637 23.6066 10.3268 23.5847 10.3923 23.5811C10.4577 23.5775 10.5229 23.5922 10.5804 23.6237C10.6483 23.661 10.7266 23.675 10.8032 23.6633C10.8798 23.6517 10.9504 23.6151 11.0041 23.5592L11.4419 23.0999C11.4925 23.0464 11.5251 22.9783 11.535 22.9052C11.545 22.8322 11.5317 22.7579 11.4971 22.6927C11.4683 22.6379 11.4545 22.5765 11.4571 22.5146C11.4597 22.4527 11.4786 22.3926 11.5118 22.3404C11.5451 22.2882 11.5916 22.2456 11.6465 22.2171C11.7015 22.1886 11.7631 22.1751 11.8249 22.1781C11.8986 22.1821 11.9717 22.1627 12.0337 22.1228C12.0958 22.0829 12.1437 22.0244 12.1706 21.9557L12.4017 21.3648C12.4296 21.2925 12.4329 21.213 12.411 21.1387C12.3892 21.0643 12.3435 20.9992 12.2809 20.9535C12.2281 20.9147 12.1871 20.8619 12.1627 20.8011C12.1383 20.7402 12.1314 20.6738 12.1428 20.6092C12.1541 20.5446 12.1833 20.4845 12.227 20.4357C12.2708 20.3868 12.3273 20.3512 12.3902 20.3328C12.4646 20.3112 12.5298 20.2656 12.5758 20.2032C12.6217 20.1408 12.6458 20.065 12.6442 19.9875L12.6289 19.3532C12.6269 19.2795 12.6018 19.2083 12.5572 19.1496C12.5125 19.0909 12.4506 19.0478 12.3801 19.0262C12.321 19.0078 12.2677 18.9741 12.2258 18.9285C12.1839 18.8829 12.1547 18.8271 12.1413 18.7666C12.1279 18.7062 12.1307 18.6432 12.1494 18.5842C12.1681 18.5252 12.2021 18.4721 12.2479 18.4305C12.3026 18.3811 12.3405 18.3158 12.3562 18.2438C12.3718 18.1717 12.3644 18.0966 12.3351 18.029L12.0807 17.4477C12.0492 17.3769 11.9953 17.3184 11.9273 17.2813C11.8592 17.2442 11.7809 17.2306 11.7043 17.2426C11.6395 17.2525 11.5733 17.2441 11.513 17.2183C11.4527 17.1926 11.4009 17.1504 11.3632 17.0968C11.3256 17.0431 11.3038 16.9799 11.3002 16.9145C11.2965 16.849 11.3113 16.7839 11.3427 16.7264C11.3801 16.6585 11.3941 16.5801 11.3824 16.5035C11.3707 16.4269 11.3342 16.3562 11.2783 16.3025L10.819 15.8649C10.7654 15.8142 10.6973 15.7816 10.6242 15.7717C10.5512 15.7617 10.4768 15.775 10.4117 15.8096C10.3568 15.8384 10.2954 15.8522 10.2335 15.8496C10.1716 15.847 10.1115 15.8281 10.0592 15.7947C10.007 15.7614 9.96447 15.7149 9.93599 15.6599C9.90752 15.6049 9.89409 15.5433 9.89706 15.4814C9.90089 15.4078 9.88149 15.3348 9.84159 15.2727C9.80169 15.2107 9.74331 15.1628 9.6747 15.1357L9.08384 14.9047C9.01154 14.8768 8.93206 14.8735 8.8577 14.8953C8.78334 14.9171 8.71825 14.9629 8.67251 15.0255C8.6337 15.0783 8.5809 15.1192 8.52007 15.1436C8.45924 15.168 8.39279 15.1749 8.32824 15.1635C8.26369 15.1522 8.2036 15.123 8.15476 15.0793C8.10592 15.0356 8.07026 14.9791 8.05183 14.9162C8.03042 14.8416 7.98492 14.7763 7.92246 14.7303C7.85999 14.6844 7.78407 14.6604 7.70654 14.6621L7.0722 14.6774C6.99851 14.6794 6.92732 14.7045 6.86866 14.7492C6.81 14.7938 6.76683 14.8558 6.74525 14.9263C6.7269 14.9855 6.69322 15.0387 6.64764 15.0807C6.60205 15.1227 6.54618 15.1519 6.48567 15.1654C6.42517 15.1788 6.36219 15.176 6.30312 15.1573C6.24404 15.1385 6.19098 15.1045 6.14929 15.0586C6.09991 15.0039 6.03459 14.966 5.96255 14.9504C5.8905 14.9348 5.81537 14.9421 5.74775 14.9715L5.16655 15.226C5.09569 15.2574 5.03715 15.3112 5 15.3793C4.96285 15.4473 4.94917 15.5257 4.96107 15.6023C4.97098 15.6671 4.96258 15.7333 4.93681 15.7936C4.91104 15.8539 4.86893 15.9058 4.81523 15.9434C4.76153 15.981 4.69839 16.0028 4.63293 16.0064C4.56747 16.0101 4.50231 15.9953 4.4448 15.9638C4.37692 15.9265 4.29862 15.9125 4.22202 15.9242C4.14542 15.9358 4.0748 15.9724 4.02111 16.0283L3.58335 16.4876C3.53269 16.5412 3.50011 16.6092 3.4902 16.6823C3.48028 16.7553 3.49354 16.8297 3.5281 16.8948C3.5569 16.9496 3.57071 17.0111 3.56813 17.0729C3.56555 17.1348 3.54668 17.1949 3.51341 17.2471C3.48015 17.2994 3.43367 17.3419 3.37869 17.3704C3.32372 17.3989 3.26218 17.4124 3.20032 17.4095C3.12666 17.4058 3.05368 17.4253 2.99167 17.4652C2.92966 17.5051 2.88173 17.5635 2.85462 17.6321L2.6237 18.2227C2.59582 18.295 2.59254 18.3745 2.61438 18.4488C2.63622 18.5232 2.68196 18.5883 2.74452 18.634C2.79736 18.6728 2.83829 18.7256 2.8627 18.7865C2.88711 18.8473 2.89403 18.9138 2.88266 18.9783C2.87129 19.0429 2.8421 19.103 2.79838 19.1518C2.75466 19.2007 2.69816 19.2363 2.63525 19.2548C2.56081 19.2763 2.49556 19.3219 2.44963 19.3843C2.4037 19.4467 2.37964 19.5226 2.38118 19.6L2.39648 20.2344C2.39851 20.3081 2.42362 20.3792 2.46825 20.4379C2.51288 20.4966 2.5748 20.5397 2.64527 20.5613C2.70438 20.5797 2.75759 20.6134 2.79951 20.659C2.84143 20.7045 2.87058 20.7604 2.884 20.8208C2.89742 20.8813 2.89464 20.9442 2.87594 21.0032C2.85724 21.0622 2.82329 21.1153 2.77751 21.1569C2.72277 21.2063 2.68492 21.2717 2.66928 21.3437C2.65365 21.4158 2.66103 21.491 2.69038 21.5586L2.9448 22.1398C2.97616 22.2107 3.03004 22.2692 3.09808 22.3064C3.16611 22.3435 3.2445 22.3571 3.32109 22.3452C3.38589 22.3352 3.45217 22.3436 3.51245 22.3694C3.57273 22.3952 3.6246 22.4373 3.66222 22.491C3.69983 22.5447 3.72168 22.6078 3.72531 22.6732C3.72893 22.7387 3.71418 22.8039 3.68273 22.8614C3.64536 22.9293 3.63142 23.0076 3.64307 23.0842C3.65473 23.1609 3.69132 23.2315 3.74718 23.2852L4.2065 23.7229C4.26004 23.7735 4.32812 23.8061 4.40115 23.816C4.47419 23.826 4.54849 23.8127 4.61361 23.7782C4.66843 23.7494 4.72988 23.7356 4.79176 23.7381C4.85364 23.7407 4.91374 23.7596 4.96598 23.7928C5.01823 23.8261 5.06076 23.8726 5.08927 23.9275C5.11778 23.9825 5.13126 24.0441 5.12835 24.1059C5.12454 24.1796 5.14394 24.2525 5.18383 24.3146C5.22371 24.3766 5.28207 24.4245 5.35066 24.4516L5.94158 24.6827C6.01389 24.7106 6.09339 24.7139 6.16776 24.692C6.24214 24.6702 6.30723 24.6244 6.35296 24.5618C6.38561 24.5174 6.42826 24.4812 6.47746 24.4563C6.52666 24.4314 6.58104 24.4184 6.6362 24.4183Z" fill="#515868"/>
<path d="M16.8198 11.7426L15.6699 10.5261L16.3637 9.87459C16.4317 9.81076 16.4715 9.72254 16.4745 9.62934C16.4774 9.53615 16.4432 9.4456 16.3793 9.37763C16.3155 9.30966 16.2273 9.26983 16.1341 9.2669C16.0409 9.26397 15.9504 9.29818 15.8824 9.36201L14.068 11.0658C14.0001 11.1296 13.9602 11.2179 13.9573 11.311C13.9544 11.4042 13.9886 11.4948 14.0524 11.5628C14.1162 11.6307 14.2045 11.6706 14.2977 11.6735C14.3909 11.6764 14.4814 11.6422 14.5494 11.5784L15.1574 11.0074L16.3088 12.2255L16.8198 11.7426Z" fill="#E0E0E0"/>
<path d="M22.89 7.62249C22.7968 7.62249 22.7074 7.58545 22.6414 7.51952C22.5755 7.45359 22.5385 7.36417 22.5385 7.27093V5.51827C22.5376 5.28863 22.6014 5.06339 22.7224 4.86824C22.8434 4.6731 23.0169 4.51592 23.223 4.41465L23.4628 4.29571C23.5042 4.27479 23.5493 4.26228 23.5956 4.25888C23.6418 4.25548 23.6883 4.26127 23.7323 4.27591C23.7763 4.29055 23.817 4.31376 23.852 4.34419C23.887 4.37462 23.9156 4.41168 23.9362 4.45322C23.9569 4.49477 23.969 4.53999 23.9721 4.58626C23.9752 4.63254 23.9691 4.67897 23.9541 4.72287C23.9391 4.76678 23.9156 4.80729 23.885 4.84207C23.8543 4.87685 23.817 4.90522 23.7753 4.92553L23.5355 5.04454C23.447 5.08801 23.3725 5.15548 23.3206 5.23924C23.2686 5.323 23.2412 5.41969 23.2416 5.51827V7.27093C23.2416 7.36417 23.2045 7.45359 23.1386 7.51952C23.0727 7.58545 22.9833 7.62249 22.89 7.62249Z" fill="#E0E0E0"/>
<path d="M22.1389 7.15381V12.0933L23.6412 12.1413V12.1325V7.15381H22.1389Z" fill="#E0E0E0"/>
</svg>
