<svg width="30" height="30" viewBox="0 0 30 30" fill="none" xmlns="http://www.w3.org/2000/svg">
<path d="M3.10345 21.7243H1.03448V17.0691L0 15.5174V13.9657L1.03448 12.4139H3.10345V21.7243Z" fill="#DE4C3C"/>
<path d="M3.10336 16.0345H5.17233V18.1035H3.10336V16.0345Z" fill="#D64333"/>
<path d="M9.82782 5.17236H20.1726V7.24133H9.82782V5.17236Z" fill="#F2994A"/>
<path d="M17.5865 5.17236H20.1728V7.24133H17.5865V5.17236Z" fill="#E48D56"/>
<path d="M13.9659 7.24133H16.0348V9.31029H13.9659V7.24133Z" fill="#E48D56"/>
<path d="M21.7241 12.4138L19.6552 9.3103H10.3448L8.27584 12.4138H5.17239V21.7241H8.27584L10.3448 24.8275H25.3448V21.7241V12.4138H21.7241Z" fill="#F2994A"/>
<path d="M21.7242 12.4137L20.8113 11.0446C18.0062 15.9726 14.026 20.1305 9.2251 23.148L10.3449 24.8275H25.3449V12.4137H21.7242Z" fill="#E48D56"/>
<path d="M29.9995 22.7586L28.9651 23.7931H27.4133V13.4482H28.9651L29.9995 14.4827V22.7586Z" fill="#F2994A"/>
<path d="M25.3443 16.5518H27.4133V19.6552H25.3443V16.5518Z" fill="#E48D56"/>
<path d="M19.138 16.5518H16.0345L17.069 11.8966L10.8621 17.5863H13.9656L12.9311 22.2414L19.138 16.5518Z" fill="#F2C94C"/>
<path d="M22.7589 12.4139H23.7934V24.8277H22.7589V12.4139Z" fill="#D35500"/>
<path d="M6.72409 16.0344H7.75858V20.1724H6.72409V16.0344Z" fill="#EEA987"/>
<path d="M6.72409 13.9655H7.75858V14.9999H6.72409V13.9655Z" fill="#EEA987"/>
</svg>
