<svg width="30" height="27" viewBox="0 0 30 27" fill="none" xmlns="http://www.w3.org/2000/svg">
<path d="M24.7146 25.8572C25.6614 25.8572 26.4289 25.0896 26.4289 24.1429C26.4289 23.1961 25.6614 22.4286 24.7146 22.4286C23.7678 22.4286 23.0003 23.1961 23.0003 24.1429C23.0003 25.0896 23.7678 25.8572 24.7146 25.8572Z" fill="#3F5C6C"/>
<path d="M24.7147 24.1425C24.3991 24.1425 24.1432 23.8866 24.1432 23.5711V20.1425C24.1432 19.8269 24.3991 19.571 24.7147 19.571C25.0303 19.571 25.2861 19.8269 25.2861 20.1425V23.5711C25.2861 23.8866 25.0303 24.1425 24.7147 24.1425Z" fill="#35495E"/>
<path d="M18.4288 12.1428V10.4285C18.4288 9.48174 17.6613 8.71423 16.7146 8.71423C15.7678 8.71423 15.0003 9.48174 15.0003 10.4285V12.1428H18.4288Z" fill="#547580"/>
<path d="M13.8575 21.8574L13.2861 23.0002H10.8346L3.97179 19.2517L2.49179 17.4745C3.00036 15.5717 5.23465 15.0002 7.00036 15.0002C13.2861 15.0002 13.8575 20.3374 13.8575 21.8574Z" fill="#35495E"/>
<path d="M28.652 17.8568L19.572 18.9996L11.852 17.8568C10.7139 16.4785 9.04334 15.6493 7.25743 15.5763C5.47152 15.5032 3.73883 16.1932 2.49198 17.4739C2.39484 17.5768 2.29769 17.6796 2.20627 17.7882C2.10757 17.9025 1.96673 17.9719 1.81595 17.9805C1.66517 17.9891 1.51734 17.9362 1.40627 17.8339L0.526266 17.0568C0.281776 16.8391 0.142377 16.527 0.143409 16.1996V15.2339C0.141731 14.7504 0.446906 14.319 0.903409 14.1596L7.12055 11.9368C7.79923 11.6949 8.51435 11.5712 9.23484 11.571H23.6291C24.983 11.5714 26.21 12.3684 26.7606 13.6053L28.652 17.8568Z" fill="#F2994A"/>
<path d="M21.8574 2.99995C21.7277 3.00016 21.6019 2.956 21.5008 2.87481C20.1306 1.81982 18.4436 1.25971 16.7145 1.28567C14.9852 1.25958 13.298 1.8197 11.9276 2.87481C11.7683 3.00383 11.5521 3.03762 11.361 2.96338C11.1699 2.88913 11.0333 2.71821 11.0029 2.51548C10.9725 2.31275 11.053 2.10926 11.2139 1.98224C12.7872 0.765727 14.7259 0.117422 16.7145 0.142808C18.7031 0.117422 20.6418 0.765727 22.2151 1.98224C22.4047 2.13391 22.4778 2.38889 22.3973 2.61801C22.3168 2.84712 22.1002 3.00031 21.8574 2.99995Z" fill="#F0C419"/>
<path d="M20.144 5.28542C20.0143 5.28572 19.8884 5.24155 19.7874 5.16028C17.9637 3.80327 15.4659 3.80327 13.6422 5.16028C13.3956 5.35497 13.0381 5.31404 12.8419 5.06864C12.6456 4.82324 12.6843 4.46546 12.9285 4.26771C15.1695 2.57662 18.2601 2.57662 20.5011 4.26771C20.6907 4.41932 20.7638 4.67416 20.6834 4.90321C20.603 5.13227 20.3867 5.28554 20.144 5.28542Z" fill="#F0C419"/>
<path d="M18.4291 7.57113C18.2994 7.57143 18.1735 7.52726 18.0725 7.44599C17.259 6.87004 16.1706 6.87004 15.357 7.44599C15.1104 7.64068 14.7529 7.59974 14.5567 7.35435C14.3604 7.10895 14.3992 6.75117 14.6433 6.55342C15.8682 5.62477 17.5614 5.62477 18.7862 6.55342C18.9758 6.70502 19.0489 6.95986 18.9685 7.18892C18.8881 7.41798 18.6718 7.57124 18.4291 7.57113Z" fill="#F0C419"/>
<path d="M29.8521 18.8969C29.8792 19.216 29.7718 19.5319 29.5559 19.7684C29.34 20.005 29.0352 20.1406 28.7149 20.1426H22.5264C21.7879 20.1415 21.1317 20.6136 20.8978 21.3141L20.5378 22.3998C20.3039 23.1003 19.6477 23.5723 18.9092 23.5712H13.8578C13.5422 23.5712 13.2864 23.3154 13.2864 22.9998V21.8569C13.2895 20.3971 12.7821 18.9821 11.8521 17.8569H28.6521C29.2593 17.8453 29.7773 18.2942 29.8521 18.8969Z" fill="#E48D56"/>
<path d="M23.572 14.4286H11.0005C10.6849 14.4286 10.4291 14.1728 10.4291 13.8572C10.4291 13.5416 10.6849 13.2858 11.0005 13.2858H23.572C23.8876 13.2858 24.1434 13.5416 24.1434 13.8572C24.1434 14.1728 23.8876 14.4286 23.572 14.4286Z" fill="#FFA23D"/>
<path d="M7.00058 25.8573C9.20972 25.8573 11.0006 24.0664 11.0006 21.8573C11.0006 19.6482 9.20972 17.8573 7.00058 17.8573C4.79144 17.8573 3.00058 19.6482 3.00058 21.8573C3.00058 24.0664 4.79144 25.8573 7.00058 25.8573Z" fill="#3F5C6C"/>
<path d="M7.00089 22.9998C7.63207 22.9998 8.14375 22.4882 8.14375 21.857C8.14375 21.2258 7.63207 20.7141 7.00089 20.7141C6.36971 20.7141 5.85803 21.2258 5.85803 21.857C5.85803 22.4882 6.36971 22.9998 7.00089 22.9998Z" fill="#547580"/>
<path d="M17.8574 21.857H15.5717C15.2561 21.857 15.0003 21.6011 15.0003 21.2855C15.0003 20.9699 15.2561 20.7141 15.5717 20.7141H17.8574C18.173 20.7141 18.4288 20.9699 18.4288 21.2855C18.4288 21.6011 18.173 21.857 17.8574 21.857Z" fill="#802F34"/>
</svg>
