<svg width="30" height="23" viewBox="0 0 30 23" fill="none" xmlns="http://www.w3.org/2000/svg">
<path d="M12.5819 19.3961C12.5819 21.1334 11.1739 22.5415 9.43654 22.5415C7.69922 22.5415 6.29114 21.1334 6.29114 19.3961C6.29114 17.6588 7.69922 16.2507 9.43654 16.2507C11.1739 16.2507 12.5819 17.6588 12.5819 19.3961Z" fill="#535353"/>
<path d="M20.2705 22.2972C20.7471 20.3911 22.4597 19.054 24.4244 19.054H25.8464C27.8111 19.054 29.5237 20.3911 30.0002 22.2972H20.2705Z" fill="#535353"/>
<path d="M8.53247 16.3846L7.68682 9.58667H4.04502C3.60521 9.58667 3.23037 9.90438 3.15804 10.3379L2.27159 18.3499C2.17984 18.8977 2.60237 19.3968 3.15804 19.3968H6.29085C6.29085 17.974 7.23603 16.773 8.53247 16.3846Z" fill="#FFA23D"/>
<path d="M6.26871 8.90559L8.53236 16.3842C8.81859 16.2982 9.12158 16.2511 9.43614 16.2511C11.1729 16.2511 12.5815 17.6592 12.5815 19.3965C20.0674 19.3965 24.5268 19.7435 29.3569 19.7435V15.2026L28.137 14.66C22.5823 12.1914 15.155 10.1491 8.38769 9.17817L6.2908 2.09689L5.68008 0H1.04845C0.469203 0 0 0.469203 0 1.04845C0 1.62722 0.469203 2.09689 1.04845 2.09689H4.19385L7.54787 13.1026" fill="#FFA23D"/>
<path d="M26.0724 13.7959C24.0709 13.0049 21.8922 12.2715 19.6328 11.6183C19.4849 11.9989 19.3979 12.4099 19.3979 12.8429C19.3979 14.7248 20.9234 16.2503 22.8054 16.2503C24.3555 16.2504 25.6598 15.2129 26.0724 13.7959Z" fill="#E48D56"/>
<path d="M9.95973 19.3962C9.95973 19.6856 9.72486 19.9205 9.43548 19.9205C9.14609 19.9205 8.91122 19.6856 8.91122 19.3962C8.91122 19.1068 9.14609 18.8719 9.43548 18.8719C9.72486 18.8719 9.95973 19.1068 9.95973 19.3962Z" fill="#A4A4A4"/>
<path d="M4.71845 14.6783H2.88362L2.7117 15.71C2.74056 15.7147 2.76622 15.7268 2.79609 15.7268H4.71845C5.00837 15.7268 5.2427 15.4925 5.2427 15.2025C5.2427 14.9126 5.00831 14.6783 4.71845 14.6783Z" fill="#F2994A"/>
<path d="M4.71777 16.7755H2.53328L2.36136 17.8067C2.39022 17.8119 2.41641 17.824 2.44628 17.824H4.71777C5.00768 17.824 5.24202 17.5896 5.24202 17.2997C5.24196 17.0098 5.00763 16.7755 4.71777 16.7755Z" fill="#F2994A"/>
<path d="M7.08685 11.6063L7.382 12.5808H7.38936L7.0916 11.6031C7.09 11.6042 7.0884 11.6052 7.08685 11.6063Z" fill="#E48D56"/>
<path d="M12.5814 11.5326H7.33906C7.24731 11.5326 7.16607 11.5619 7.09113 11.6034L7.38888 12.581H12.5814C12.8713 12.581 13.1056 12.3467 13.1056 12.0568C13.1056 11.7669 12.8712 11.5326 12.5814 11.5326Z" fill="#E48D56"/>
<path d="M16.7761 15.7264H8.38845C8.3701 15.7264 8.3549 15.7348 8.33762 15.737L8.53317 16.3838C8.81994 16.2984 9.12293 16.2507 9.43696 16.2507C10.0797 16.2507 10.6762 16.4441 11.1743 16.7749H16.7762C17.0661 16.7749 17.3005 16.5406 17.3005 16.2507C17.3003 15.9608 17.066 15.7264 16.7761 15.7264Z" fill="#E48D56"/>
<path d="M14.6784 13.63H7.69888L8.01606 14.6785H14.6785C14.9684 14.6785 15.2027 14.4441 15.2027 14.1542C15.2027 13.8643 14.9684 13.63 14.6784 13.63Z" fill="#E48D56"/>
</svg>
