<svg width="30" height="29" viewBox="0 0 30 29" fill="none" xmlns="http://www.w3.org/2000/svg">
<path d="M29.821 2.65543L12.97 18.945L11.0498 17.0889L27.9009 0.79953C28 0.703705 28.1606 0.703705 28.2597 0.79953L29.821 2.30854C29.9201 2.40436 29.9201 2.5596 29.821 2.65543Z" fill="#A56021"/>
<path d="M13.1633 17.0889L29.1373 1.64758L28.26 0.79953C28.1608 0.703705 28.0003 0.703705 27.9011 0.79953L11.0498 17.0889L12.97 18.945L14.0264 17.9235L13.1633 17.0889Z" fill="#8C4C17"/>
<path d="M24.1902 23.7176L21.9159 19.7583C21.5997 19.2078 20.9995 18.8662 20.3482 18.8662H11.9147V22.3329H18.5014C18.9899 22.3329 19.4399 22.5893 19.6771 23.002L20.6716 24.7334V25.2798H24.2579V23.9701C24.2579 23.8817 24.2346 23.7947 24.1902 23.7176Z" fill="#FFA730"/>
<path d="M23.1158 24.5439C22.9215 24.5439 22.7611 24.4035 22.7378 24.2217L20.5847 20.4728C20.5372 20.3899 20.4465 20.3384 20.3481 20.3384C20.1379 20.3384 19.9674 20.1735 19.9674 19.9704C19.9674 19.767 20.1379 19.6024 20.3481 19.6024C20.7228 19.6024 21.0685 19.7991 21.2504 20.1158L23.4486 23.9428C23.4801 23.9974 23.4964 24.059 23.4964 24.1215V24.1762C23.4964 24.3791 23.3259 24.5439 23.1158 24.5439Z" fill="#FFB74B"/>
<path d="M16.6554 18.8662H11.9147V22.3329H18.5012C18.9896 22.3329 19.4399 22.5893 19.6771 23.002L20.6639 24.7202C20.6255 22.1046 18.9889 19.8628 16.6554 18.8662Z" fill="#E58D23"/>
<path d="M12.0968 17.9053H8.14575V16.3853C8.14575 15.4057 8.96704 14.6118 9.98014 14.6118H10.2624C11.2755 14.6118 12.0968 15.4057 12.0968 16.3853V17.9053Z" fill="#F9BB32"/>
<path d="M11.225 14.8926C10.9097 14.7153 10.5301 14.6118 10.1212 14.6118C9.03024 14.6118 8.14575 15.3492 8.14575 16.2586V17.9053H10.3529V16.2586C10.3529 15.6899 10.6988 15.1884 11.225 14.8926Z" fill="#DB9C2E"/>
<path d="M13.9623 21.4589H6.28152V18.3388C6.28152 17.1898 7.24506 16.2587 8.43338 16.2587H11.8105C12.999 16.2587 13.9623 17.1898 13.9623 18.3388V21.4589Z" fill="#FFBF55"/>
<path d="M12.0253 16.269C11.9547 16.2623 11.8831 16.2587 11.8105 16.2587H8.43338C7.24506 16.2587 6.28152 17.1901 6.28152 18.3388V21.4589H10.0881V18.3388C10.0881 17.26 10.9376 16.3732 12.0253 16.269Z" fill="#EE7719"/>
<path d="M17.2944 26.9815H2.94912C2.45397 26.9815 2.05249 26.5934 2.05249 26.1147V24.8146C2.05249 21.2248 5.06306 18.3143 8.77695 18.3143H11.4666C15.1805 18.3143 18.191 21.2248 18.191 24.8146V26.1147C18.191 26.5934 17.7896 26.9815 17.2944 26.9815Z" fill="#EE7719"/>
<path d="M12.0964 24.9854C12.0964 25.578 11.5996 26.0586 10.9862 26.0586C10.3731 26.0586 9.87595 25.578 9.87595 24.9854C9.87595 24.3927 10.3731 23.9121 10.9862 23.9121C11.5996 23.9121 12.0964 24.3927 12.0964 24.9854Z" fill="#E48D56"/>
</svg>
