<svg width="30" height="30" viewBox="0 0 30 30" fill="none" xmlns="http://www.w3.org/2000/svg">
<g clip-path="url(#clip0)">
<path d="M11.0855 14.7422L14.548 10.9181L4.16069 0.479015C3.54056 -0.141117 2.507 -0.141117 1.88687 0.479015L0.491528 1.87436C-0.128605 2.49449 -0.128605 3.52804 0.491528 4.14818L11.0855 14.7422Z" fill="#E48D56"/>
<path d="M27.5194 29.6764L29.9999 29.9865L29.6382 27.4543L27.3643 25.9039L25.9174 27.4026L27.5194 29.6764Z" fill="#C3C7CB"/>
<path d="M16.5123 17.9456L25.9694 27.4028L27.4164 25.9558L17.9593 16.4987L16.5123 17.9456Z" fill="#E0E0E0"/>
<path d="M11.3952 11.8997C11.2402 11.8997 11.1368 11.848 11.0335 11.7447L2.24817 2.95936C2.04146 2.75265 2.04146 2.44255 2.24817 2.23584C2.45488 2.02913 2.76498 2.02913 2.97169 2.23584L11.757 11.0211C11.9637 11.2279 11.9637 11.5379 11.757 11.7447C11.6536 11.848 11.5502 11.8997 11.3952 11.8997Z" fill="#E48D56"/>
<path d="M16.5119 8.64327C17.7004 7.4547 17.8555 5.59424 16.6152 4.35398C14.1863 1.92508 12.7911 2.18349 10.0521 2.18349C14.1863 0.37478 17.1837 -0.0386415 20.181 1.35664C21.473 1.92508 21.9898 2.44189 23.0233 3.47544L24.8837 5.33584C25.3488 5.80095 25.6589 6.42109 25.7623 7.04122C25.9173 8.02308 25.6589 8.22979 26.3307 8.95331C26.5374 9.16002 26.8475 9.16002 27.0542 8.95331C27.2609 8.7466 27.571 8.7466 27.7777 8.95331L29.5865 10.7621C29.9999 11.1755 29.9999 11.7956 29.5865 12.209L25.9173 15.8782C25.5039 16.2916 24.8838 16.2916 24.4704 15.8782L22.765 14.1211C22.5583 13.9144 22.5583 13.6043 22.765 13.3976C22.9717 13.1909 22.9717 12.8292 22.765 12.6225C22.0415 11.899 21.8348 12.1574 20.8529 12.054C20.1811 11.9506 19.6126 11.6406 19.1475 11.1755L16.5119 8.64327Z" fill="#828282"/>
<path d="M16.512 8.64319L0.491722 26.5756C-0.128411 27.1957 -0.180103 28.2293 0.44003 28.7978L1.16355 29.5213C1.78368 30.1414 2.7656 30.0897 3.38573 29.4696L19.4577 11.4856L16.512 8.64319Z" fill="#565656"/>
<path d="M13.9796 17.5844L15.4266 19.0313L19.0957 15.3622L17.4421 13.7085L13.9796 17.5844Z" fill="#E48D56"/>
</g>
<defs>
<clipPath id="clip0">
<rect width="30" height="30" fill="white"/>
</clipPath>
</defs>
</svg>
