<svg width="32" height="18" viewBox="0 0 32 18" fill="none" xmlns="http://www.w3.org/2000/svg">
<path d="M10.7439 5.33054L5.3365 3.52123L5.41153 3.29697C5.57554 2.80681 6.28058 2.60097 6.98649 2.83717L9.83782 3.79122C10.5437 4.02742 10.9829 4.61611 10.8189 5.10628L10.7439 5.33054Z" fill="#141312"/>
<path d="M2.66792 7.04923L1.58368 6.68644L2.44339 4.11707L2.66792 7.04923Z" fill="#0A0A09"/>
<path d="M26.7547 13.4915L26.9083 13.753L27.2686 13.6421L27.5105 13.9617L27.9133 13.8008L28.2867 14.0646L28.497 13.85L28.8258 14.0633L28.9461 13.7652L29.3307 13.9651L29.3225 13.6061L29.7885 13.7621L29.5939 13.4084L30.0757 13.5019L29.767 13.1671L30.2358 13.1458L29.8361 12.8838L30.2746 12.7847L29.8016 12.573L30.1409 12.341L29.651 12.2412L29.8916 11.9975L29.33 11.8666L29.473 11.5618L28.9914 11.5752L29.003 11.2798L28.5064 11.3381L28.4742 11.0815L28.0622 11.1325L27.8848 10.8345L27.6047 10.9509L27.4557 10.6909L27.1757 10.8074L27.022 10.5458L26.742 10.6622L26.5884 10.4007L26.3083 10.5171L26.1593 10.2571L25.8792 10.3736L25.7256 10.112L25.4455 10.2284L25.2919 9.96686L25.0118 10.0833L24.8582 9.82174L24.5827 9.93975L24.4291 9.67817L24.149 9.79464L23.9954 9.53306L23.7153 9.64952L23.5617 9.38794L23.2862 9.50595L23.1326 9.24437L22.8525 9.36083L22.6989 9.09926L22.4188 9.21572L22.2652 8.95414L21.9897 9.07215L21.8361 8.81057L21.556 8.92703L21.4024 8.66546L21.1223 8.78192L20.9687 8.52034L20.6886 8.6368L20.5397 8.37677L20.2596 8.49323L20.106 8.23166L19.8259 8.34812L19.6723 8.08654L19.3922 8.203L19.2432 7.94297L18.9631 8.05943L18.8095 7.79786L18.5294 7.91432L18.3758 7.65274L18.0957 7.7692L17.9467 7.50917L17.6666 7.62563L17.513 7.36405L17.2329 7.48052L17.0793 7.21894L16.7992 7.3354L16.6456 7.07382L16.3701 7.19183L16.2165 6.93025L15.9364 7.04672L15.7828 6.78514L15.5027 6.9016L15.3491 6.64002L15.0736 6.75803L14.92 6.49645L14.6399 6.61291L14.4863 6.35134L14.2062 6.4678L14.0526 6.20622L13.7772 6.32423L13.6236 6.06265L13.3435 6.17911L13.1899 5.91754L12.9098 6.034L12.7562 5.77242L12.4807 5.89043L12.3271 5.62885L11.7975 5.84707L27.9735 11.2595L27.1895 13.4339L11.0589 8.05443L11.3505 8.54743L11.6306 8.43097L11.7796 8.69101L12.0597 8.57454L12.2133 8.83612L12.4934 8.71966L12.647 8.98124L12.9271 8.86477L13.0761 9.12481L13.3562 9.00834L13.5098 9.26992L13.7899 9.15346L13.9435 9.41504L14.2236 9.29857L14.3726 9.55861L14.6527 9.44215L14.8063 9.70372L15.0864 9.58726L15.24 9.84884L15.5201 9.73238L15.669 9.99241L15.9491 9.87595L16.1027 10.1375L16.3828 10.0211L16.5364 10.2826L16.8165 10.1662L16.9701 10.4278L17.2456 10.3097L17.3992 10.5713L17.6793 10.4549L17.8329 10.7164L18.113 10.6L18.2666 10.8616L18.5421 10.7435L18.6957 11.0051L18.9758 10.8887L19.1294 11.1502L19.4095 11.0338L19.5631 11.2954L19.8386 11.1773L19.9922 11.4389L20.2723 11.3225L20.4259 11.584L20.706 11.4676L20.8596 11.7292L21.1397 11.6127L21.2887 11.8727L21.5688 11.7563L21.7224 12.0178L22.0025 11.9014L22.1561 12.163L22.4361 12.0465L22.5851 12.3065L22.8652 12.1901L23.0188 12.4516L23.2989 12.3352L23.4525 12.5968L23.7326 12.4803L23.8816 12.7403L24.1617 12.6239L24.3153 12.8854L24.5954 12.769L24.749 13.0306L25.0291 12.9141L25.1827 13.1757L25.4582 13.0577L25.6118 13.3192L25.8919 13.2028L26.0455 13.4644L26.3256 13.3479L26.4792 13.6095L26.7547 13.4915Z" fill="#B8B5BA"/>
<path d="M29.6879 13.0624C29.5743 13.402 29.2741 13.6399 28.8807 13.7577C28.8238 13.7743 28.7624 13.7893 28.703 13.798C28.3428 13.8627 27.9255 13.8371 27.5103 13.6981L10.9652 8.16215L11.7852 5.7113L28.3303 11.2473C29.3038 11.573 29.9141 12.3864 29.6879 13.0624Z" fill="#6F6A72"/>
<path d="M12.1424 9.67448C12.8489 7.56323 10.9575 5.02807 7.91702 4.01073L3.67232 2.59045C2.90643 2.33419 2.14453 2.55662 1.96659 3.08843L1.02112 5.91411C0.843176 6.44593 1.31778 7.08209 2.08368 7.33836L4.34444 8.09481L6.09113 8.24107L12.1424 9.67448ZM4.26835 7.26425C4.16652 7.5686 2.8211 7.09705 2.38279 6.95039L2.37818 6.94885C1.93986 6.80219 1.66714 6.43663 1.76898 6.13228L2.69515 3.36427C2.79699 3.05992 3.23479 2.9321 3.6731 3.07876L3.67772 3.08031C4.11603 3.22696 5.09987 4.76381 4.99803 5.06816L4.26835 7.26425Z" fill="#EE7719"/>
<path d="M12.1426 9.67444C12.8491 7.56319 10.9577 5.02803 7.91721 4.01069L5.05203 3.052C5.85592 5.23399 6.90043 7.32549 7.57831 8.59609L9.84094 9.13229L12.1426 9.67444Z" fill="#EE7719"/>
<path d="M12.1427 9.67452C12.8492 7.56327 10.9578 5.02811 7.91732 4.01076L7.42365 3.84558C8.20218 5.91934 9.18443 7.89026 9.84213 9.12917L12.1427 9.67452Z" fill="#EE7719"/>
<path d="M7.79387 4.45736L7.03259 4.20264L6.87501 4.67358L7.63629 4.92831L7.79387 4.45736Z" fill="#0A0A09"/>
<path d="M8.5412 4.70749L7.79376 4.4574L7.63618 4.92834L8.38362 5.17844L8.5412 4.70749Z" fill="#444441"/>
<path d="M7.70841 5.32328C7.72878 5.26241 7.67565 5.19119 7.58799 5.16186C7.50033 5.13253 7.41504 5.15743 7.39468 5.2183C7.37431 5.27917 7.42744 5.35038 7.5151 5.37972C7.60276 5.40905 7.68805 5.38415 7.70841 5.32328Z" fill="#F2C94C"/>
<path d="M12.5277 9.18351C12.3262 9.78581 11.3974 10.0165 10.4469 9.69849C9.50111 9.38202 8.89354 8.63724 9.09507 8.03494C9.2966 7.43264 10.2254 7.20195 11.1759 7.51996C12.1263 7.83798 12.7293 8.58121 12.5277 9.18351Z" fill="#141312"/>
<path d="M14.4459 6.08827L13.4907 8.94278C13.3514 9.35926 12.743 9.53687 12.1432 9.33618L8.43833 8.09653C8.13382 7.99464 7.94256 7.73828 8.01331 7.52683L9.0381 4.46408C9.20855 3.95469 9.9477 3.7389 10.6813 3.98436L13.6064 4.96311C14.2062 5.1638 14.5852 5.67179 14.4459 6.08827Z" fill="#EE7719"/>
<path opacity="0.43" d="M12.8448 4.70838L9.68372 8.51334L8.43337 8.09497C8.30419 8.05175 8.19495 7.97957 8.11982 7.89744L11.2208 4.16497L12.8448 4.70838Z" fill="#FDFAFF"/>
<path opacity="0.43" d="M14.3194 5.4689L11.331 9.06445L10.0622 8.63992L13.2233 4.83495L13.6016 4.96154C13.92 5.06806 14.1703 5.25514 14.3194 5.4689Z" fill="#FDFAFF"/>
<path d="M9.75177 6.56255C9.62259 6.51933 9.54112 6.41013 9.57114 6.32043L10.0943 4.75702C10.1243 4.66731 10.255 4.62913 10.3842 4.67236C10.5134 4.71559 10.5949 4.82478 10.5649 4.91448L10.0407 6.4811C10.0107 6.5708 9.88096 6.60578 9.75177 6.56255Z" fill="#312E35"/>
<path d="M9.66234 6.35451L10.1865 4.78789C10.2133 4.7078 10.3178 4.67151 10.4293 4.691C10.4165 4.68317 10.4027 4.67854 10.3842 4.67236C10.255 4.62913 10.1243 4.66731 10.0943 4.75702L9.57007 6.32363C9.54005 6.41334 9.62151 6.52253 9.7507 6.56576C9.76454 6.57039 9.77838 6.57502 9.79791 6.57799C9.69254 6.52492 9.63554 6.4346 9.66234 6.35451Z" fill="#E48D56"/>
<path d="M10.4207 6.78631C10.2916 6.74308 10.2101 6.63389 10.2401 6.54419L10.7632 4.98077C10.7932 4.89107 10.924 4.85289 11.0532 4.89612C11.1824 4.93934 11.2639 5.04853 11.2338 5.13824L10.7097 6.70485C10.675 6.79301 10.5499 6.82953 10.4207 6.78631Z" fill="#312E35"/>
<path d="M10.3271 6.5768L10.8513 5.01018C10.8781 4.93009 10.9826 4.8938 11.0941 4.91329C11.0813 4.90546 11.0675 4.90083 11.049 4.89465C10.9198 4.85142 10.7891 4.8896 10.7591 4.97931L10.2349 6.54592C10.2048 6.63563 10.2863 6.74482 10.4155 6.78805C10.4293 6.79268 10.4432 6.79731 10.4627 6.80028C10.3619 6.74876 10.3003 6.65689 10.3271 6.5768Z" fill="#E48D56"/>
<path d="M11.0578 6.99944C10.9286 6.95622 10.8472 6.84702 10.8772 6.75732L11.4003 5.19391C11.4303 5.1042 11.5611 5.06602 11.6903 5.10925C11.8195 5.15248 11.9009 5.26167 11.8709 5.35137L11.3467 6.91799C11.3167 7.00769 11.187 7.04267 11.0578 6.99944Z" fill="#312E35"/>
<path d="M11.6478 7.19695C11.5186 7.15373 11.4372 7.04453 11.4672 6.95483L11.9903 5.39142C12.0203 5.30171 12.1511 5.26353 12.2803 5.30676C12.4094 5.34999 12.4909 5.45918 12.4609 5.54888L11.9367 7.1155C11.9067 7.2052 11.777 7.24018 11.6478 7.19695Z" fill="#312E35"/>
<path d="M10.9636 6.78981L11.4877 5.2232C11.5145 5.1431 11.619 5.10682 11.7305 5.12631C11.7177 5.11847 11.7039 5.11384 11.6854 5.10766C11.5563 5.06444 11.4255 5.10262 11.3955 5.19232L10.8713 6.75894C10.8413 6.84864 10.9227 6.95783 11.0519 7.00106C11.0658 7.00569 11.0796 7.01032 11.0991 7.01329C10.9984 6.96177 10.9368 6.86991 10.9636 6.78981Z" fill="#E48D56"/>
<path d="M10.5808 11.0613L10.5623 11.0551C9.95328 10.8514 9.5743 10.3434 9.7158 9.92048L9.92483 9.29576L10.4785 9.48101L10.2695 10.1057C10.1987 10.3172 10.3864 10.5688 10.6909 10.6707L10.7094 10.6769C11.0139 10.7788 11.3152 10.6908 11.386 10.4793L13.4388 4.34422C13.5095 4.13277 13.3218 3.88115 13.0173 3.77926L9.37241 2.55968C9.0679 2.45779 8.76655 2.54577 8.6958 2.75722L8.43317 3.54213L7.87952 3.35687L8.14215 2.57196C8.28826 2.15062 8.89664 1.973 9.50566 2.17678L13.1506 3.39636C13.7596 3.60014 14.1386 4.10812 13.9971 4.53101L11.9432 10.6693C11.7982 11.0875 11.1898 11.2651 10.5808 11.0613Z" fill="#141312"/>
<path d="M12.6144 8.73885L11.9869 8.5289C11.8854 8.49493 11.817 8.40794 11.8417 8.33425L12.591 6.09485C12.6146 6.02437 12.718 5.99129 12.8241 6.0268L13.4516 6.23675C13.5531 6.27071 13.6215 6.35771 13.5968 6.4314L12.8464 8.674C12.8229 8.74448 12.7159 8.77281 12.6144 8.73885Z" fill="#141312"/>
<path d="M5.86784 7.88127C5.93154 7.90259 5.99518 7.88401 6.00998 7.83978C6.02478 7.79554 5.98514 7.7424 5.92144 7.72109C5.85773 7.69977 5.79409 7.71835 5.77929 7.76259C5.76449 7.80682 5.80414 7.85996 5.86784 7.88127Z" fill="#141312"/>
<path d="M9.41365 8.04883C9.39864 8.09368 9.33502 8.11514 9.26582 8.09198C9.20122 8.07037 9.15765 8.01661 9.17373 7.96855C9.18874 7.9237 9.25235 7.90224 9.32156 7.92539C9.38615 7.947 9.42865 8.00397 9.41365 8.04883Z" fill="#141312"/>
<path d="M5.00313 5.0698C5.10497 4.76545 4.11652 3.22706 3.68282 3.08195L3.6782 3.0804C3.53979 3.03409 3.40203 3.01649 3.27167 3.02275C3.75309 3.45458 4.44757 4.59892 4.36181 4.85522L3.63106 7.05451C3.55817 7.27236 2.85356 7.0936 2.30023 6.9227C2.32684 6.93517 2.35914 6.94598 2.38682 6.95524L2.39143 6.95678C2.82974 7.10344 4.17516 7.57499 4.27699 7.27064L5.00313 5.0698Z" fill="#FF7F00"/>
</svg>
