<svg width="30" height="30" viewBox="0 0 30 30" fill="none" xmlns="http://www.w3.org/2000/svg">
<path d="M20.5886 17.3529V29.1175C20.5886 29.6046 20.1934 29.9998 19.7063 29.9998H15.2746C14.924 29.9998 14.6064 29.7922 14.4658 29.4704C13.9531 28.2969 12.2837 28.2957 11.7705 29.4704C11.6299 29.7922 11.3123 29.9998 10.9617 29.9998H6.52999C6.04293 29.9998 5.64764 29.6046 5.64764 29.1175V17.2582C5.64764 15.0094 6.64999 12.9071 8.3982 11.4912C8.55526 11.3636 8.75114 11.2942 8.95349 11.2942H17.2216C17.4216 11.2942 17.6157 11.3624 17.7722 11.4871C19.5007 12.8681 20.5886 14.9839 20.5886 17.3529Z" fill="#FFE278"/>
<path d="M20.5888 17.3529V29.1175C20.5888 29.6046 20.1935 29.9998 19.7064 29.9998H15.2747C14.9241 29.9998 14.6065 29.7922 14.4659 29.4704C14.2318 28.9346 13.703 28.5881 13.1183 28.5881V11.2942H17.2217C17.4217 11.2942 17.6158 11.3624 17.7723 11.4871C19.5008 12.8681 20.5888 14.9839 20.5888 17.3529Z" fill="#FFB454"/>
<path d="M15.4619 22.4582C15.9158 23.0414 15.4909 23.8823 14.766 23.8823C14.5031 23.8823 14.2431 23.7652 14.069 23.5417L13.1184 22.3194L12.1678 23.5417C11.9937 23.7652 11.7337 23.8823 11.4708 23.8823C10.7465 23.8823 10.3207 23.0417 10.7749 22.4582L12.0008 20.8823L10.7749 19.3065C10.4755 18.9218 10.5449 18.3677 10.9296 18.0682C11.3143 17.7688 11.8684 17.8382 12.1678 18.2229L13.1184 19.4453L14.069 18.2229C14.3678 17.8382 14.9225 17.7688 15.3072 18.0682C15.6919 18.3677 15.7613 18.9218 15.4619 19.3065L14.2361 20.8823L15.4619 22.4582Z" fill="#F2994A"/>
<path d="M15.4618 22.4582C15.9156 23.0414 15.4908 23.8823 14.7659 23.8823C14.5029 23.8823 14.2429 23.7652 14.0688 23.5417L13.1183 22.3194V19.4453L14.0688 18.2229C14.3677 17.8382 14.9224 17.7688 15.3071 18.0682C15.6918 18.3677 15.7612 18.9218 15.4618 19.3065L14.2359 20.8823L15.4618 22.4582Z" fill="#E48D56"/>
<path d="M18.7646 13.0588H7.47063C6.87646 13.0588 6.45305 12.4828 6.62711 11.917L8.50944 5.79945C8.62356 5.42886 8.96591 5.17651 9.35296 5.17651H16.8823C17.2693 5.17651 17.6117 5.42886 17.7258 5.79945L19.6081 11.917C19.7821 12.4825 19.359 13.0588 18.7646 13.0588Z" fill="#FFB454"/>
<path d="M18.7652 13.0588H13.1183V5.17651H16.8829C17.27 5.17651 17.6123 5.42886 17.7264 5.79945L19.6088 11.917C19.7828 12.4825 19.3596 13.0588 18.7652 13.0588Z" fill="#FF8E00"/>
<path d="M22.4707 6.05924C22.4707 6.54629 22.0754 6.94158 21.5884 6.94158H3.90624L1.73274 14.7656C1.6245 15.1562 1.2698 15.4121 0.883335 15.4121C0.297401 15.4121 -0.123065 14.854 0.0327569 14.2938L2.38567 5.82336C2.49155 5.44101 2.83919 5.1769 3.23566 5.1769H12.2355V1.76517H10.765C10.2779 1.76517 9.88264 1.36988 9.88264 0.882831C9.88264 0.395778 10.2779 0.000488281 10.765 0.000488281H15.4708C15.9579 0.000488281 16.3531 0.395778 16.3531 0.882831C16.3531 1.36988 15.9579 1.76517 15.4708 1.76517H14.0002V5.1769H21.5884C22.0754 5.1769 22.4707 5.57219 22.4707 6.05924Z" fill="#F2994A"/>
<path d="M22.4711 6.059C22.4711 6.54605 22.0758 6.94134 21.5887 6.94134H13.1183V0.000244141H15.4712C15.9582 0.000244141 16.3535 0.395534 16.3535 0.882587C16.3535 1.36964 15.9582 1.76493 15.4712 1.76493H14.0006V5.17665H21.5887C22.0758 5.17665 22.4711 5.57194 22.4711 6.059Z" fill="#E48D56"/>
<path d="M29.1172 6.94632H28.6467C28.1594 6.94632 27.7643 6.55127 27.7643 6.06398C27.7643 5.57669 28.1594 5.18164 28.6467 5.18164H29.1172C29.6045 5.18164 29.9996 5.57669 29.9996 6.06398C29.9996 6.55127 29.6045 6.94632 29.1172 6.94632Z" fill="#F2F2F2"/>
<path d="M28.1759 11.1712C27.977 11.1712 27.777 11.1044 27.6122 10.9672L24.7887 8.6195C24.414 8.30797 24.3628 7.75163 24.6744 7.37693C24.986 7.00223 25.5424 6.95111 25.9169 7.26263L28.7404 9.61037C29.3721 10.1356 29.0003 11.1712 28.1759 11.1712Z" fill="#F2F2F2"/>
<path d="M25.353 5.05892C24.5334 5.05892 24.1529 4.02864 24.7871 3.49923L27.6054 1.14632C27.9795 0.834029 28.536 0.884087 28.8482 1.2582C29.1605 1.63225 29.1104 2.18872 28.7364 2.50101L25.918 4.85392C25.7529 4.99168 25.5523 5.05892 25.353 5.05892Z" fill="#F2F2F2"/>
</svg>
