<svg width="30" height="30" viewBox="0 0 30 30" fill="none" xmlns="http://www.w3.org/2000/svg">
<g clip-path="url(#clip0)">
<path d="M25.8621 16.8108H14.3276C15.1034 18.0004 15.5172 19.4487 15.5172 20.9487H14.4827C14.4827 22.5005 13.9655 23.9487 13.0345 25.0867H25.8621C28.1379 25.0867 30 23.2246 30 20.9487C30 18.6728 28.138 16.8108 25.8621 16.8108Z" fill="#EE7719"/>
<path d="M7.75868 15.2587C4.60352 15.2587 2.06905 17.7931 2.06905 20.9483H1.03452C1.03452 24.6724 4.03452 27.6724 7.75868 27.6724C11.4828 27.6724 14.4828 24.6724 14.4828 20.9483H13.4484C13.4483 17.7931 10.9138 15.2587 7.75868 15.2587Z" fill="#E0E0E0"/>
<path d="M13.4483 20.9478C13.4483 17.7927 10.9138 15.2582 7.75863 15.2582C4.60348 15.2582 2.06895 17.7927 2.06895 20.9478H0C0 16.6547 3.46553 13.1892 7.75863 13.1892C12.0517 13.1892 15.5173 16.6547 15.5173 20.9478H13.4483Z" fill="#565656"/>
<path d="M7.7588 23.018C6.62085 23.018 5.68985 22.087 5.68985 20.9491C5.68985 19.8112 6.62091 18.8801 7.7588 18.8801C8.89669 18.8801 9.82774 19.8112 9.82774 20.9491C9.82774 22.087 8.89669 23.018 7.7588 23.018Z" fill="#A3AAAF"/>
<path d="M8.27575 2.32715H11.3792L10.862 3.36162V9.05125L11.8964 11.1202H7.75848L8.79296 9.05125V3.36162L8.27575 2.32715Z" fill="#565656"/>
<path d="M10.8619 13.8621V11.1207H8.79294V13.2414C9.5171 13.3449 10.1895 13.5518 10.8619 13.8621Z" fill="#E0E0E0"/>
<path d="M17.5862 18.8797H24.8275V16.8108H17.5862V18.8797Z" fill="#565656"/>
<path d="M29.9998 20.9493C29.9998 20.7941 29.9998 20.5872 29.9481 20.432H27.9309C27.6205 20.432 27.4136 20.6389 27.4136 20.9493C27.4136 21.2596 27.6205 21.4665 27.9309 21.4665H29.9481C29.9998 21.3114 29.9998 21.1044 29.9998 20.9493Z" fill="#565656"/>
<path d="M29.6904 22.5517C29.5869 22.5 29.5352 22.5 29.4318 22.5H26.8973C26.5869 22.5 26.38 22.7069 26.38 23.0173C26.38 23.3276 26.5869 23.5345 26.8973 23.5345H29.0697C29.3283 23.2242 29.5352 22.9138 29.6904 22.5517Z" fill="#565656"/>
</g>
<defs>
<clipPath id="clip0">
<rect width="30" height="30" fill="white"/>
</clipPath>
</defs>
</svg>
