<svg width="30" height="30" viewBox="0 0 30 30" fill="none" xmlns="http://www.w3.org/2000/svg">
<path d="M12.3949 19.8125C12.6509 19.2769 23.6423 10.1249 25.3304 9.05375C25.7761 8.76812 26.2314 8.38728 26.6486 8.00644C26.715 8.94664 27.0944 14.1594 27.7108 14.3022C28.3462 14.445 28.6971 10.8032 28.2608 6.42357L28.0996 6.19745C28.0901 6.20935 27.5401 6.86392 26.8004 7.57799C26.7909 7.43518 26.7814 7.30426 26.7719 7.16145L26.5822 7.18525C26.5822 7.19715 26.5917 7.39948 26.6202 7.74461C26.1839 8.14926 25.7098 8.5539 25.2356 8.85143C24.145 9.5417 12.2052 19.2055 12.2052 19.7768H12.3949C12.4044 19.8006 12.4044 19.8125 12.3949 19.8125ZM28.0996 6.53068C28.5738 12.0291 27.9384 14.1237 27.7487 14.0761C27.4358 14.0047 27.0469 10.9103 26.8288 7.85172C27.3978 7.30427 27.872 6.78061 28.0996 6.53068Z" fill="#2B1638"/>
<path d="M11.1239 18.6581H12.1196V18.0274C12.1196 17.6822 11.892 17.3966 11.617 17.3966C11.342 17.3966 11.1144 17.6822 11.1144 18.0274V18.6581H11.1239Z" fill="#2B2033"/>
<path d="M7.02734 19.7769C7.02734 20.0983 7.13165 20.3839 7.29287 20.5981C7.45409 20.8123 7.69118 20.9313 7.93775 20.9313H9.5215C10.0336 20.9313 10.4414 20.4196 10.4414 19.7769C10.4414 19.4556 10.3371 19.17 10.1759 18.9557C10.0052 18.7415 9.77756 18.6225 9.5215 18.6225H7.93775C7.54893 18.6225 7.22649 18.92 7.08424 19.3366C7.0463 19.4675 7.02734 19.6222 7.02734 19.7769Z" fill="#54403D"/>
<path d="M7.02734 19.7769C7.02734 20.0983 7.13165 20.3839 7.29287 20.5981C7.45409 20.8123 7.69118 20.9313 7.93775 20.9313H9.5215C10.0336 20.9313 10.4414 20.4196 10.4414 19.7769C10.4414 19.4556 10.3371 19.17 10.1759 18.9557C10.0052 18.7415 9.77756 18.6225 9.5215 18.6225H9.44564C9.2939 18.8605 9.00939 19.1819 8.52573 19.289C8.04207 19.3961 7.47306 19.3723 7.09372 19.3366C7.0463 19.4675 7.02734 19.6222 7.02734 19.7769Z" fill="#3C2F47"/>
<path d="M5.70893 21.9786H11.124V26.8344H5.70893V21.9786Z" fill="#585D4C"/>
<path d="M6.77129 25.7275L7.02734 25.1443H3.73656L4.53318 26.5011L6.77129 25.7275Z" fill="#2B2033"/>
<path d="M1.51717 26.6677V29.2146H13.7983V23.3949L13.3716 23.502L1.51717 26.6677Z" fill="#EE7719"/>
<path d="M1.51717 26.6915V29.2146H13.7983V23.3949L13.3716 23.5139C11.4749 24.6921 8.15564 26.4654 5.70889 27.1081C3.34749 27.7151 2.08618 27.1319 1.51717 26.6915Z" fill="#E48D56"/>
<path d="M1.51717 29.155H13.7983V29.274H1.51717V29.155Z" fill="#072616"/>
<path d="M11.4751 22.9901V19.7887H6.91352C5.8324 19.7887 4.95991 20.8836 4.95991 22.2404V23.1925L11.4751 22.9901Z" fill="#EE7719"/>
<path d="M3.73656 25.1443H7.02734V22.5379C7.02734 21.9547 6.65749 21.4906 6.19279 21.4906H4.58059C4.1159 21.4906 3.74604 21.9547 3.74604 22.5379V25.1443H3.73656Z" fill="#54403D"/>
<path d="M12.5746 24.4064V28.0838C12.5746 28.0838 15.4007 27.9053 18.2268 27.0246C20.9106 26.1915 23.585 24.7277 23.7936 22.1808C23.9738 19.9315 24.0023 18.1463 23.9643 16.8371C23.9264 15.0996 23.7936 14.207 23.7936 14.207L12.5746 24.4064Z" fill="white"/>
<path d="M12.5751 24.4064V28.0838C12.5751 28.0838 15.4012 27.9053 18.2273 27.0246C18.2747 26.251 18.3696 25.2037 18.5403 23.9184C18.8153 21.8238 21.9259 18.6937 23.9648 16.8371C23.9269 15.0996 23.7941 14.207 23.7941 14.207L12.5751 24.4064Z" fill="#F2F2F2"/>
<path d="M11.9583 25.4775C12.0342 25.4775 12.1101 25.4537 12.1765 25.3823L24.5904 13.9452C24.7516 13.7904 24.7896 13.5048 24.6663 13.2906C24.543 13.0764 24.3154 13.0407 24.1447 13.1954L11.7307 24.6444C11.5695 24.7991 11.5316 25.0847 11.6549 25.299C11.7307 25.418 11.8445 25.4775 11.9583 25.4775Z" fill="#333333"/>
<path d="M10.7066 18.9676V23.8471L11.4463 23.2759L12.8594 22.1928V18.9676C12.8594 18.4797 12.5464 18.0869 12.1576 18.0869H11.4084C11.3705 18.0869 11.342 18.0869 11.3041 18.0988C10.9627 18.1464 10.7066 18.5154 10.7066 18.9676Z" fill="#54403D"/>
<path d="M11.6739 19.1818C11.6739 20.1339 11.5317 22.1691 11.4463 23.2759L12.8594 22.1928V18.9676C12.8594 18.4797 12.5464 18.0869 12.1576 18.0869H11.4084C11.3705 18.0869 11.342 18.0869 11.3041 18.0988C11.5032 18.2535 11.6739 18.5749 11.6739 19.1818Z" fill="#333333"/>
<path d="M14.4811 29.8928C12.7737 29.8928 11.3895 28.1558 11.3895 26.013C11.3895 23.8702 12.7737 22.1332 14.4811 22.1332C16.1886 22.1332 17.5728 23.8702 17.5728 26.013C17.5728 28.1558 16.1886 29.8928 14.4811 29.8928Z" fill="black"/>
<path d="M12.3094 26.0132C12.3094 26.7273 12.5275 27.3938 12.8974 27.8698C13.2957 28.4054 13.8552 28.7267 14.4811 28.7267C15.676 28.7267 16.6528 27.5128 16.6528 26.0013C16.6528 24.9421 16.1692 24.0138 15.4579 23.5735C15.1639 23.3831 14.832 23.2878 14.4811 23.2878C13.2862 23.2878 12.3094 24.5018 12.3094 26.0132Z" fill="#E8AA43"/>
<path d="M12.8974 27.8697C13.2957 28.4052 13.8552 28.7265 14.4811 28.7265C15.676 28.7265 16.6528 27.5126 16.6528 26.0012C16.6528 24.9419 16.1692 24.0136 15.4579 23.5733C15.6571 24.6087 15.7803 26.3582 14.6139 27.346C14.0638 27.8102 13.4664 27.9292 12.8974 27.8697Z" fill="#FFBF55"/>
<path d="M14.4813 27.3461C13.8947 27.3461 13.4191 26.7493 13.4191 26.0132C13.4191 25.277 13.8947 24.6802 14.4813 24.6802C15.0679 24.6802 15.5435 25.277 15.5435 26.0132C15.5435 26.7493 15.0679 27.3461 14.4813 27.3461Z" fill="black"/>
<path d="M6.60419e-05 27.8459C6.60419e-05 29.036 0.768233 30 1.71659 30C2.66494 30 3.43311 29.036 3.43311 27.8459C3.43311 26.6558 2.66494 25.6918 1.71659 25.6918C0.768233 25.6799 6.60419e-05 26.6558 6.60419e-05 27.8459Z" fill="black"/>
<path d="M0.512079 27.8459C0.512079 28.679 1.05264 29.3573 1.71649 29.3573C2.38034 29.3573 2.9209 28.679 2.9209 27.8459C2.9209 27.0128 2.38034 26.3344 1.71649 26.3344C1.05264 26.3344 0.512079 27.0128 0.512079 27.8459Z" fill="#FFBF55"/>
<path d="M1.12873 27.8458C1.12873 28.2505 1.39427 28.5837 1.71671 28.5837C2.03915 28.5837 2.30469 28.2505 2.30469 27.8458C2.30469 27.4412 2.03915 27.108 1.71671 27.108C1.39427 27.0961 1.12873 27.4293 1.12873 27.8458Z" fill="black"/>
<path d="M6.41039 25.0132H6.71387L6.67593 22.1212H6.45781L6.41039 25.0132Z" fill="#1E1921"/>
<path d="M6.29688 22.1212H5.9934L6.04082 25.0132H6.24946L6.29688 22.1212Z" fill="#1E1921"/>
<path d="M5.62329 25.0132H5.92676L5.87934 22.1212H5.6707L5.62329 25.0132Z" fill="#1E1921"/>
<path d="M5.50049 22.1212H5.19702L5.24443 25.0132H5.45307L5.50049 22.1212Z" fill="#1E1921"/>
<path d="M4.79858 25.0132H5.10205L5.05463 22.1212H4.84599L4.79858 25.0132Z" fill="#1E1921"/>
<path d="M4.01147 25.0132H4.31494L4.26752 22.1212H4.05889L4.01147 25.0132Z" fill="#1E1921"/>
<path d="M4.68457 22.1212H4.3811L4.42852 25.0132H4.63715L4.68457 22.1212Z" fill="#1E1921"/>
<path d="M9.7296 25.7631C9.81495 25.7631 9.9003 25.7274 9.96668 25.656L30 4.81846L27.0317 0.176964C26.8989 -0.025357 26.6713 -0.0610615 26.5101 0.105556C26.3488 0.272174 26.3204 0.557804 26.4532 0.760125L28.9663 4.68754L9.50199 24.93C9.34077 25.0966 9.3218 25.3942 9.45457 25.5846C9.52096 25.7036 9.62528 25.7631 9.7296 25.7631Z" fill="black"/>
<path d="M9.15157 25.2992C9.15157 25.7395 9.43608 26.0965 9.78697 26.0965C10.1379 26.0965 10.4224 25.7395 10.4224 25.2992C10.4224 24.8588 10.1379 24.5018 9.78697 24.5018C9.43608 24.5018 9.15157 24.8588 9.15157 25.2992Z" fill="#585D4C"/>
<path d="M9.35017 25.2989C9.35017 25.5965 9.53984 25.8464 9.78641 25.8464C10.0235 25.8464 10.2227 25.6084 10.2227 25.2989C10.2227 25.0014 10.033 24.7515 9.78641 24.7515C9.54933 24.7634 9.35017 25.0014 9.35017 25.2989Z" fill="#EE7719"/>
</svg>
