<svg width="30" height="30" viewBox="0 0 30 30" fill="none" xmlns="http://www.w3.org/2000/svg">
<path d="M26.1937 6.84921L28.4765 5.97827V7.70679L26.2258 8.02484L26.1937 6.84921Z" fill="#EE7719"/>
<path d="M25.3478 7.9687C25.2475 7.96861 25.1508 7.93178 25.0759 7.86518C25.0009 7.79859 24.953 7.70684 24.9412 7.6073C24.9224 7.45894 24.4255 3.92925 19.904 3.06886C17.0446 2.52488 13.9855 3.04308 12.291 4.35792C11.5323 4.94667 11.1226 5.63808 11.0737 6.41316C11.0715 6.46781 11.0584 6.52148 11.0351 6.571C11.0119 6.62052 10.979 6.6649 10.9384 6.70152C10.8977 6.73815 10.8502 6.76628 10.7986 6.78427C10.7469 6.80226 10.6922 6.80974 10.6376 6.80627C10.583 6.8028 10.5296 6.78845 10.4807 6.76407C10.4317 6.73969 10.3881 6.70577 10.3524 6.6643C10.3168 6.62282 10.2898 6.57464 10.273 6.52258C10.2562 6.47051 10.25 6.41562 10.2547 6.36113C10.3185 5.35542 10.8489 4.43925 11.7883 3.70988C13.6579 2.2591 16.9806 1.67761 20.0572 2.26308C25.1854 3.23855 25.7505 7.4662 25.7556 7.5098C25.762 7.56328 25.7578 7.6175 25.7433 7.66936C25.7287 7.72123 25.7041 7.76971 25.6708 7.81205C25.6375 7.85438 25.5962 7.88974 25.5492 7.9161C25.5022 7.94245 25.4505 7.9593 25.397 7.96566C25.3807 7.96772 25.3642 7.96874 25.3478 7.9687Z" fill="#E6E9ED"/>
<path d="M13.7346 6.91406H8.90039C8.79163 6.914 8.68734 6.87077 8.61043 6.79386C8.53353 6.71696 8.4903 6.61267 8.49023 6.50391V1.52344C8.4903 1.41468 8.53353 1.31039 8.61043 1.23348C8.68734 1.15658 8.79163 1.11334 8.90039 1.11328H13.7346C13.8434 1.11334 13.9477 1.15658 14.0246 1.23348C14.1015 1.31039 14.1447 1.41468 14.1448 1.52344V6.50391C14.1447 6.61267 14.1015 6.71696 14.0246 6.79386C13.9477 6.87077 13.8434 6.914 13.7346 6.91406ZM9.31055 6.09375H13.3242V1.93359H9.31055V6.09375Z" fill="#C0C3C6"/>
<path d="M17.1611 28.4766H5.47284C5.28211 28.4766 5.09338 28.4378 4.91812 28.3626C4.74286 28.2873 4.58473 28.1772 4.45337 28.0389C4.322 27.9007 4.22013 27.7371 4.15396 27.5582C4.08779 27.3794 4.0587 27.1889 4.06846 26.9984L5.02377 8.33887C5.06061 7.61878 5.37259 6.94033 5.8953 6.44367C6.418 5.94701 7.11149 5.67006 7.83252 5.67004H14.8014C15.5225 5.67006 16.216 5.94701 16.7387 6.44367C17.2614 6.94033 17.5733 7.61878 17.6102 8.33887L18.5655 26.9984C18.5752 27.1889 18.5462 27.3794 18.48 27.5582C18.4138 27.7371 18.312 27.9007 18.1806 28.0389C18.0492 28.1772 17.8911 28.2873 17.7158 28.3626C17.5406 28.4378 17.3518 28.4766 17.1611 28.4766Z" fill="#E48D56"/>
<path d="M7.33319 19.7596H15.3019V24.33H7.33319V19.7596Z" fill="#E6E9ED"/>
<path d="M14.1299 9.82434H8.50485C8.39607 9.82434 8.29175 9.78113 8.21483 9.70421C8.13791 9.62729 8.0947 9.52296 8.0947 9.41418C8.0947 9.3054 8.13791 9.20108 8.21483 9.12416C8.29175 9.04724 8.39607 9.00403 8.50485 9.00403H14.1299C14.2386 9.00403 14.343 9.04724 14.4199 9.12416C14.4968 9.20108 14.54 9.3054 14.54 9.41418C14.54 9.52296 14.4968 9.62729 14.4199 9.70421C14.343 9.78113 14.2386 9.82434 14.1299 9.82434Z" fill="#E6E9ED"/>
<path d="M14.1299 11.6602H8.50485C8.39607 11.6602 8.29175 11.6169 8.21483 11.54C8.13791 11.4631 8.0947 11.3588 8.0947 11.25C8.0947 11.1412 8.13791 11.0369 8.21483 10.96C8.29175 10.8831 8.39607 10.8398 8.50485 10.8398H14.1299C14.2386 10.8398 14.343 10.8831 14.4199 10.96C14.4968 11.0369 14.54 11.1412 14.54 11.25C14.54 11.3588 14.4968 11.4631 14.4199 11.54C14.343 11.6169 14.2386 11.6602 14.1299 11.6602Z" fill="#E6E9ED"/>
<path d="M14.1299 13.4961H8.50485C8.39607 13.4961 8.29175 13.4529 8.21483 13.376C8.13791 13.299 8.0947 13.1947 8.0947 13.0859C8.0947 12.9772 8.13791 12.8728 8.21483 12.7959C8.29175 12.719 8.39607 12.6758 8.50485 12.6758H14.1299C14.1837 12.6758 14.2371 12.6864 14.2868 12.707C14.3366 12.7276 14.3818 12.7578 14.4199 12.7959C14.458 12.834 14.4882 12.8792 14.5088 12.929C14.5294 12.9787 14.54 13.0321 14.54 13.0859C14.54 13.1398 14.5294 13.1931 14.5088 13.2429C14.4882 13.2927 14.458 13.3379 14.4199 13.376C14.3818 13.414 14.3366 13.4443 14.2868 13.4649C14.2371 13.4855 14.1837 13.4961 14.1299 13.4961Z" fill="#E6E9ED"/>
<path d="M18.2984 27.0703C18.2984 27.847 18.928 28.4766 19.7046 28.4766C20.4813 28.4766 21.1109 27.847 21.1109 27.0703V22.3741C21.1109 21.5975 20.4813 20.9679 19.7046 20.9679C18.928 20.9679 18.2984 21.5975 18.2984 22.3741V27.0703Z" fill="black"/>
<path d="M4.336 22.3741C4.336 21.5975 3.7064 20.9679 2.92975 20.9679C2.1531 20.9679 1.5235 21.5975 1.5235 22.3741V27.0703C1.5235 27.847 2.1531 28.4766 2.92975 28.4766C3.7064 28.4766 4.336 27.847 4.336 27.0703V22.3741Z" fill="black"/>
<path d="M24.6452 9.56714H26.0514V25.4205H24.6452V9.56714Z" fill="#E6E9ED"/>
<path d="M24.2934 6.76929H26.4027V11.4844H24.2934V6.76929Z" fill="#E48D56"/>
<path d="M26.5432 28.4766H24.1537L24.2939 25.1375H26.4032L26.5432 28.4766Z" fill="#C0C3C6"/>
</svg>
