<svg width="30" height="30" viewBox="0 0 30 30" fill="none" xmlns="http://www.w3.org/2000/svg">
<g clip-path="url(#clip0)">
<path d="M17.4734 1.69617C17.9337 0.665801 18.9602 0 20.0886 0C21.668 0 22.9529 1.28484 22.9529 2.86424V8.32547L22.0103 8.85281L21.1383 8.32547V2.86424C21.1383 2.28545 20.6675 1.81453 20.0886 1.81453C19.6751 1.81453 19.2988 2.05852 19.1301 2.43615L9.13705 24.8083L7.90025 25.5577L7.14978 24.8083L17.4734 1.69617Z" fill="#C6D0DA"/>
<path d="M6.66382 25.8971L7.64274 26.5227L8.65109 25.8971L9.13736 24.8083H7.15009L6.66382 25.8971Z" fill="#A0AAB7"/>
<path d="M5.51965 26.8148L7.64221 27.3422L9.76477 26.8148V26.5018C9.76477 26.1677 9.49395 25.8969 9.1599 25.8969H6.12439C5.79035 25.8969 5.51953 26.1677 5.51953 26.5018V26.8148H5.51965Z" fill="#E48D56"/>
<path d="M5.52036 27.9037L7.64297 28.431L9.76553 27.9037V26.8149H5.52036V27.9037Z" fill="#EE7719"/>
<path d="M21.1384 8.3255V9.41423L22.0457 9.94157L22.953 9.41423V8.3255H21.1384Z" fill="#A0AAB7"/>
<path d="M12.8828 28.9114C12.5642 28.3023 11.9287 27.9037 11.2185 27.9037H3.52733C2.67561 27.9037 1.8962 28.2884 1.37659 28.9114L7.01659 29.4387L12.8828 28.9114Z" fill="#4F4F4F"/>
<path d="M12.8815 28.9113H1.37638C1.11786 29.2213 0.923329 29.5899 0.816864 30H13.2158L13.0367 29.3102C13.0001 29.1692 12.9469 29.0362 12.8815 28.9113Z" fill="black"/>
<path d="M23.4135 11.0512V9.71665C23.4135 9.54966 23.2781 9.41425 23.1111 9.41425H20.9097C20.7427 9.41425 20.6073 9.54966 20.6073 9.71665V11.3176L22.0457 11.7084L23.4135 11.0512Z" fill="#F6E080"/>
<path d="M22.9651 10.9937C22.1514 10.9937 21.3603 11.1064 20.6075 11.3174V12.4062L22.0459 12.7969L23.4137 12.1397V11.051C23.2704 11.0137 23.1201 10.9937 22.9651 10.9937Z" fill="#ECCD61"/>
<path d="M24.2138 29.4727H17.5383C13.1205 29.4727 13.274 25.1656 13.274 25.1656C13.2847 25.0808 13.2981 24.9958 13.3141 24.9106L14.2402 19.969L20.6069 12.4059C21.3596 12.1949 22.151 12.0827 22.9646 12.0827C23.9458 12.0827 24.7411 12.8781 24.7411 13.8592V28.9114L24.2138 29.4727Z" fill="#E48D56"/>
<path d="M13.2744 25.1655C12.9502 27.7104 14.9344 30 17.5386 30H24.7414V28.9113H17.5386C15.3135 28.9113 13.541 27.2396 13.2744 25.1655Z" fill="#EE7719"/>
<path d="M20.6077 18.0472V17.6704V12.4062C17.5762 13.256 15.1704 15.7071 14.4513 18.8801L15.2955 19.4415H19.398C20.0661 19.4415 20.6077 18.7153 20.6077 18.0472Z" fill="#F6E080"/>
<path d="M19.398 18.8803H14.4515C14.4271 18.9878 14.4044 19.096 14.384 19.2051L14.2408 19.9691H19.398C20.0661 19.9691 20.6076 19.4275 20.6076 18.7594V17.6707C20.6076 18.3387 20.0661 18.8803 19.398 18.8803Z" fill="#ECCD61"/>
<path d="M24.7413 29.4726C29.1507 29.4726 29.1723 25.1916 29.1505 25.0131C28.8821 22.8166 27.0103 21.1154 24.7413 21.1154C22.4723 21.1154 20.6005 22.8166 20.3321 25.0131C20.3103 25.1916 20.299 29.4726 24.7413 29.4726Z" fill="#4F4F4F"/>
<path d="M24.7414 28.9113C22.4724 28.9113 20.6021 27.2098 20.3335 25.0134C20.3117 25.1919 20.2991 25.3733 20.2991 25.5577C20.2991 28.0111 22.288 29.9999 24.7414 29.9999C27.1948 29.9999 29.1836 28.0111 29.1836 25.5577C29.1836 25.3733 29.1711 25.1919 29.1492 25.0134C28.8807 27.2098 27.0104 28.9113 24.7414 28.9113Z" fill="black"/>
<path d="M24.7416 26.6143C26.2335 26.6143 26.2916 25.1831 26.2295 25.0134C26.0075 24.4068 25.4251 23.9738 24.7416 23.9738C24.0581 23.9738 23.4757 24.4068 23.2537 25.0134C23.1916 25.1831 23.2497 26.6143 24.7416 26.6143Z" fill="#F6E080"/>
<path d="M24.7416 26.0529C24.0581 26.0529 23.4757 25.62 23.2537 25.0134C23.1916 25.1831 23.1577 25.3665 23.1577 25.5577C23.1577 26.4324 23.8668 27.1416 24.7416 27.1416C25.6163 27.1416 26.3255 26.4324 26.3255 25.5577C26.3255 25.3665 26.2916 25.1831 26.2295 25.0134C26.0075 25.62 25.4251 26.0529 24.7416 26.0529Z" fill="#ECCD61"/>
</g>
<defs>
<clipPath id="clip0">
<rect width="30" height="30" fill="white"/>
</clipPath>
</defs>
</svg>
