<svg width="30" height="30" viewBox="0 0 30 30" fill="none" xmlns="http://www.w3.org/2000/svg">
<g clip-path="url(#clip0)">
<path d="M5.40628 3.87085H24.5934V28.0644H5.40628V3.87085Z" fill="#F5F5F7"/>
<path d="M22.7831 3.87085H24.5939V28.0644H22.7831V3.87085Z" fill="#E5E1E5"/>
<path d="M5.40628 3.87085H24.5934V7.74184H5.40628V3.87085Z" fill="#F2994A"/>
<path d="M22.7831 3.87085H24.5939V7.74179H22.7831V3.87085Z" fill="#E48D56"/>
<path d="M5.40665 28.0647H24.5938C25.1515 28.0647 25.6036 28.498 25.6036 29.0324C25.6036 29.5669 25.1515 30.0002 24.5938 30.0002H5.40665C4.84896 30.0002 4.39679 29.5669 4.39679 29.0324C4.39679 28.4979 4.8489 28.0647 5.40665 28.0647Z" fill="#9B8E99"/>
<path d="M24.5939 28.0647H22.7831C23.3407 28.0647 23.7929 28.4979 23.7929 29.0324C23.7929 29.5669 23.3408 30.0002 22.7831 30.0002H24.5939C25.1516 30.0002 25.6038 29.5669 25.6038 29.0324C25.6038 28.4979 25.1516 28.0647 24.5939 28.0647Z" fill="#918291"/>
<path d="M5.40665 1.93555H24.5938C25.1515 1.93555 25.6036 2.36885 25.6036 2.90328C25.6036 3.43777 25.1515 3.87102 24.5938 3.87102H5.40665C4.84896 3.87102 4.39679 3.43777 4.39679 2.90328C4.39679 2.36885 4.8489 1.93555 5.40665 1.93555Z" fill="#9B8E99"/>
<path d="M24.5939 1.93555H22.7831C23.3407 1.93555 23.7929 2.36879 23.7929 2.90328C23.7929 3.43777 23.3408 3.87102 22.7831 3.87102H24.5939C25.1516 3.87102 25.6038 3.43777 25.6038 2.90328C25.6038 2.36879 25.1516 1.93555 24.5939 1.93555Z" fill="#918291"/>
<path d="M5.40628 24.1936H24.5934V28.0645H5.40628V24.1936Z" fill="#F2994A"/>
<path d="M22.7831 24.1936H24.5939V28.0645H22.7831V24.1936Z" fill="#E48D56"/>
<path d="M22.5739 1.93547H16.5148V0.988594C16.5148 0.442617 16.9574 0 17.5034 0H21.5853C22.1313 0 22.5739 0.442617 22.5739 0.988594V1.93547Z" fill="#F2994A"/>
<path d="M21.5852 0H19.7743C20.3203 0 20.7629 0.442617 20.7629 0.988594V1.93547H22.5738V0.988594C22.5738 0.442617 22.1311 0 21.5852 0V0Z" fill="#E48D56"/>
<path d="M18.6435 17.2595C18.6435 19.23 17.0123 20.8273 15.0002 20.8273C12.9881 20.8273 11.357 19.23 11.357 17.2595C11.357 15.6223 13.8723 12.4832 14.7229 11.4684C14.8677 11.2957 15.1327 11.2957 15.2775 11.4684C16.1281 12.4832 18.6435 15.6223 18.6435 17.2595Z" fill="#F2994A"/>
<path d="M15.2773 11.4684C15.1326 11.2957 14.8675 11.2957 14.7228 11.4684C14.5629 11.6591 14.3442 11.9248 14.0946 12.2415C15.1736 13.6099 16.8324 15.9299 16.8324 17.2596C16.8324 18.9239 15.6686 20.3219 14.0946 20.7161C14.3841 20.7886 14.6874 20.8273 15 20.8273C17.0121 20.8273 18.6433 19.2299 18.6433 17.2595C18.6433 15.6223 16.128 12.4832 15.2773 11.4684Z" fill="#E48D56"/>
</g>
<defs>
<clipPath id="clip0">
<rect width="30" height="30" fill="white"/>
</clipPath>
</defs>
</svg>
