<svg width="30" height="30" viewBox="0 0 30 30" fill="none" xmlns="http://www.w3.org/2000/svg">
<g clip-path="url(#clip0)">
<path d="M0 26.1114V9.4447H30V26.1114C30 26.7225 29.5 27.2225 28.8889 27.2225H1.11111C0.49998 27.2225 0 26.7225 0 26.1114Z" fill="#E0E0E0"/>
<path d="M10 9.4446H0V7.22238C0 6.61125 0.49998 6.11127 1.11111 6.11127H10C10.6112 6.11127 11.1111 6.61125 11.1111 7.22238V8.33349C11.1111 8.94462 10.6111 9.4446 10 9.4446Z" fill="#828282"/>
<path d="M30.0001 9.4446H20.0001C19.3889 9.4446 18.8889 8.94462 18.8889 8.33349V7.22238C18.8889 6.61125 19.3889 6.11127 20.0001 6.11127H28.889C29.5001 6.11127 30.0001 6.61125 30.0001 7.22238V9.4446Z" fill="#828282"/>
<path d="M7.77722 6.11099H3.33276V3.88876C3.33276 3.27763 3.83274 2.77765 4.44388 2.77765H6.66611C7.27724 2.77765 7.77722 3.27763 7.77722 3.88876V6.11099Z" fill="#E48D56"/>
<path d="M26.6659 6.11099H22.2214V3.88876C22.2214 3.27763 22.7214 2.77765 23.3325 2.77765H25.5547C26.1659 2.77765 26.6659 3.27763 26.6659 3.88876V6.11099Z" fill="#E0E0E0"/>
<path d="M19.4447 17.2222H27.2225V15H19.4447V17.2222Z" fill="#828282"/>
<path d="M10.5555 15.0001H7.77772V12.2224H5.55549V15.0001H2.77768V17.2223H5.55543V20.0001H7.77766V17.2223H10.5554V15.0001H10.5555Z" fill="#E48D56"/>
<path d="M1.11111 27.2221H28.8889C29.5 27.2221 30 26.7221 30 26.111V22.7776H0V26.111C0 26.7221 0.49998 27.2221 1.11111 27.2221Z" fill="#828282"/>
</g>
<defs>
<clipPath id="clip0">
<rect width="30" height="30" fill="white"/>
</clipPath>
</defs>
</svg>
