<svg width="30" height="30" viewBox="0 0 30 30" fill="none" xmlns="http://www.w3.org/2000/svg">
<g clip-path="url(#clip0)">
<path d="M29.5672 11.4125L29.1594 11.2585L25.3662 4.6382L25.3877 4.17953C23.6613 2.52174 21.5391 1.2734 19.1768 0.589844L18.8868 0.794863H11.029L10.8232 0.589844C8.46094 1.27334 6.33873 2.52168 4.61232 4.17953L4.69043 4.98279L1.49092 10.9466L0.432832 11.4125C0.150703 12.5621 0 13.7633 0 14.9999C0 16.2364 0.150703 17.4377 0.432832 18.5872L1.53117 19.056L4.58977 25.0169L4.61227 25.8202C6.33867 27.478 8.46088 28.7264 10.8231 29.4099L11.3157 28.9964H18.3636L19.1768 29.4099C21.5391 28.7264 23.6613 27.478 25.3877 25.8202L25.3461 25.2738L28.8977 18.7475L29.5671 18.5872C29.8493 17.4377 30 16.2364 30 14.9999C30 13.7633 29.8493 12.5621 29.5672 11.4125Z" fill="#FAFAFC"/>
<path d="M13.8662 0.794894H11.029L10.8232 0.589874C8.46094 1.27343 6.33873 2.52177 4.61232 4.17962L4.69043 4.98288L1.49092 10.9467L0.432832 11.4126C0.150703 12.5622 0 13.7634 0 15C0 16.2365 0.150703 17.4377 0.432832 18.5873L1.53117 19.056L4.58977 25.017L4.61227 25.8203C6.33867 27.4781 8.46088 28.7265 10.8231 29.41L11.3157 28.9965H13.2928C7.67766 26.8284 3.69404 21.3799 3.69404 15C3.69404 8.40487 7.95059 2.80466 13.8662 0.794894Z" fill="#E0E0E0"/>
<path d="M14.9998 25.5437C14.7498 25.5437 14.547 25.341 14.547 25.091V19.8253C14.547 19.5752 14.7498 19.3725 14.9998 19.3725C15.2498 19.3725 15.4525 19.5752 15.4525 19.8253V25.091C15.4525 25.341 15.2499 25.5437 14.9998 25.5437Z" fill="#E0E0E0"/>
<path d="M14.9998 10.7015C14.7498 10.7015 14.547 10.4988 14.547 10.2488V4.98303C14.547 4.73301 14.7498 4.53027 14.9998 4.53027C15.2498 4.53027 15.4525 4.73301 15.4525 4.98303V10.2487C15.4525 10.4988 15.2499 10.7015 14.9998 10.7015Z" fill="#E0E0E0"/>
<path d="M23.7066 20.517C23.6298 20.517 23.5519 20.4974 23.4807 20.4562L18.9205 17.8234C18.7039 17.6984 18.6297 17.4215 18.7548 17.2049C18.8798 16.9884 19.1567 16.9141 19.3732 17.0392L23.9334 19.672C24.15 19.797 24.2241 20.0739 24.0991 20.2905C24.0152 20.4357 23.863 20.517 23.7066 20.517Z" fill="#E0E0E0"/>
<path d="M10.8529 13.0955C10.7761 13.0955 10.6982 13.0759 10.627 13.0347L6.06672 10.4019C5.85016 10.2769 5.77598 10 5.90102 9.78344C6.026 9.56694 6.30291 9.49264 6.51947 9.61774L11.0797 12.2506C11.2963 12.3756 11.3705 12.6525 11.2454 12.869C11.1616 13.0143 11.0094 13.0955 10.8529 13.0955Z" fill="#E0E0E0"/>
<path d="M19.1474 13.0954C18.991 13.0954 18.8388 13.0142 18.7549 12.8689C18.6299 12.6524 18.7041 12.3755 18.9206 12.2505L23.4809 9.61769C23.6974 9.49265 23.9743 9.56683 24.0993 9.7834C24.2244 9.99996 24.1502 10.2769 23.9336 10.4019L19.3734 13.0347C19.3021 13.0758 19.2243 13.0954 19.1474 13.0954Z" fill="#E0E0E0"/>
<path d="M6.29341 20.517C6.13697 20.517 5.98474 20.4358 5.9009 20.2906C5.77586 20.074 5.85004 19.7971 6.0666 19.6721L10.6269 17.0393C10.8434 16.9142 11.1204 16.9884 11.2453 17.205C11.3704 17.4215 11.2962 17.6984 11.0796 17.8234L6.51935 20.4563C6.4481 20.4974 6.37023 20.517 6.29341 20.517Z" fill="#E0E0E0"/>
<path d="M1.94592 12.2862C2.11672 12.3848 2.32719 12.3848 2.49799 12.2862L6.12272 10.1935C6.29352 10.0949 6.39881 9.91258 6.39876 9.71536V5.52983C6.39881 5.3326 6.29352 5.15032 6.12272 5.05171L4.61217 4.1796C2.59626 6.11542 1.12081 8.60916 0.432739 11.4126L1.94592 12.2862Z" fill="#F2994A"/>
<path d="M2.49799 12.2862L4.14588 11.3348C4.59612 9.54227 5.36862 7.87792 6.39876 6.40692V5.52983C6.39876 5.3326 6.29352 5.15032 6.12272 5.05171L4.61217 4.1796C2.62508 6.08758 1.12936 8.57418 0.432739 11.4126L1.94592 12.2862C2.11672 12.3848 2.32719 12.3848 2.49799 12.2862Z" fill="#E48D56"/>
<path d="M11.0987 2.81619L14.7234 4.90893C14.8942 5.00754 15.1047 5.00754 15.2755 4.90893L18.9002 2.81619C19.071 2.71758 19.1762 2.53529 19.1762 2.33807V0.58998C17.8503 0.206309 16.449 0 14.9994 0C13.5499 0 12.1485 0.206309 10.8226 0.58998V2.33807C10.8226 2.53535 10.9279 2.71758 11.0987 2.81619Z" fill="#F2994A"/>
<path d="M14.9994 0C14.9988 0 14.9981 5.85938e-05 14.9974 5.85938e-05C13.5837 0.000234375 12.1705 0.19998 10.8226 0.58998V2.22949C12.615 1.12254 14.6577 0.38209 16.8465 0.113262C16.2318 0.037793 15.6035 0 14.9994 0V0Z" fill="#E48D56"/>
<path d="M23.8772 10.1935L27.5019 12.2862C27.6727 12.3848 27.8832 12.3848 28.054 12.2862L29.5672 11.4126C28.8791 8.60916 27.4037 6.11542 25.3878 4.1796L23.8772 5.05171C23.7064 5.15032 23.6011 5.3326 23.6011 5.52983V9.7153C23.6011 9.91258 23.7064 10.0949 23.8772 10.1935Z" fill="#F2994A"/>
<path d="M26.3721 10.1936C26.2013 10.095 26.0961 9.91267 26.0961 9.71545V5.52992C26.0961 5.37002 26.1661 5.22084 26.2833 5.11718C25.9983 4.79193 25.6994 4.4791 25.3876 4.17963L23.877 5.05174C23.7062 5.15035 23.601 5.33258 23.601 5.52986V9.71533C23.601 9.91256 23.7062 10.0948 23.877 10.1935L27.5017 12.2862C27.6725 12.3848 27.883 12.3848 28.0538 12.2862L29.0253 11.7253L26.3721 10.1936Z" fill="#E48D56"/>
<path d="M4.61217 25.8204L6.12272 24.9483C6.29352 24.8497 6.39876 24.6674 6.39876 24.4702V20.2847C6.39876 20.0874 6.29352 19.9051 6.12272 19.8065L2.49799 17.7138C2.32719 17.6152 2.11672 17.6152 1.94592 17.7138L0.432739 18.5874C1.12081 21.3908 2.5962 23.8846 4.61217 25.8204Z" fill="#F2994A"/>
<path d="M4.61248 25.8202L6.12302 24.9481C6.29382 24.8495 6.39906 24.6672 6.39906 24.47V23.5929C5.36898 22.1218 4.59642 20.4575 4.14619 18.665L2.4983 17.7136C2.3275 17.6149 2.11703 17.615 1.94617 17.7136L0.432983 18.5872C1.10857 21.3395 2.5583 23.8477 4.61248 25.8202Z" fill="#E48D56"/>
<path d="M28.0538 17.7136C27.883 17.615 27.6726 17.6149 27.5018 17.7136L23.877 19.8063C23.7062 19.9049 23.601 20.0872 23.601 20.2844L23.601 24.4699C23.601 24.6671 23.7062 24.8494 23.877 24.948L25.3876 25.8201C27.4035 23.8843 28.879 21.3906 29.567 18.5871L28.0538 17.7136Z" fill="#F2994A"/>
<path d="M26.0961 24.4702V20.2847C26.0961 20.0875 26.2013 19.9052 26.3721 19.8066L29.0253 18.2748L28.0538 17.7139C27.883 17.6153 27.6725 17.6152 27.5017 17.7139L23.877 19.8066C23.7062 19.9052 23.601 20.0875 23.601 20.2847V24.4702C23.601 24.6674 23.7062 24.8497 23.877 24.9483L25.3876 25.8204C25.6994 25.521 25.9983 25.2081 26.2833 24.8829C26.1661 24.7793 26.0961 24.63 26.0961 24.4702Z" fill="#E48D56"/>
<path d="M19.1762 29.4102V27.6621C19.1762 27.4649 19.071 27.2826 18.9002 27.184L15.2755 25.0912C15.1047 24.9926 14.8942 24.9926 14.7234 25.0912L11.0987 27.184C10.9279 27.2826 10.8226 27.4649 10.8226 27.6621V29.4102C12.1485 29.7938 13.5499 30.0002 14.9994 30.0002C16.449 30.0002 17.8503 29.7938 19.1762 29.4102Z" fill="#F2994A"/>
<path d="M10.8226 27.7707V29.4102C12.136 29.7902 13.5479 30.0002 14.9984 30.0002H14.9994C15.609 30.0002 16.2384 29.9615 16.8464 29.8869C14.6577 29.6181 12.615 28.8776 10.8226 27.7707Z" fill="#E48D56"/>
<path d="M14.6847 10.3331L11.0845 12.4117C10.8892 12.5244 10.7689 12.7328 10.7689 12.9584V17.1155C10.7689 17.341 10.8892 17.5495 11.0845 17.6622L14.6847 19.7408C14.8799 19.8536 15.1207 19.8536 15.3159 19.7408L18.9161 17.6622C19.1114 17.5495 19.2317 17.3411 19.2317 17.1155V12.9584C19.2317 12.7329 19.1114 12.5244 18.9161 12.4117L15.3159 10.3331C15.1207 10.2203 14.88 10.2203 14.6847 10.3331Z" fill="#F2994A"/>
<path d="M14.151 17.6623C13.9557 17.5495 13.8354 17.3411 13.8354 17.1155V12.9584C13.8354 12.7329 13.9557 12.5245 14.151 12.4117L16.5336 11.0361L15.3159 10.3331C15.1206 10.2203 14.8799 10.2203 14.6846 10.3331L11.0845 12.4117C10.8892 12.5245 10.7689 12.7328 10.7689 12.9584V17.1155C10.7689 17.3411 10.8892 17.5495 11.0845 17.6623L14.6846 19.7408C14.88 19.8536 15.1206 19.8536 15.3159 19.7408L16.5336 19.0378L14.151 17.6623Z" fill="#E48D56"/>
</g>
<defs>
<clipPath id="clip0">
<rect width="30" height="30" fill="white"/>
</clipPath>
</defs>
</svg>
