<svg width="30" height="30" viewBox="0 0 30 30" fill="none" xmlns="http://www.w3.org/2000/svg">
<path d="M3.59741 26.2719L5.35438 22.758L6.92603 23.5438L5.16905 27.0577L3.59741 26.2719Z" fill="#576073"/>
<path d="M15.9013 23.5399L17.4729 22.7541L19.2299 26.268L17.6583 27.0539L15.9013 23.5399Z" fill="#434B59"/>
<path d="M6.51627 2.93823L0 9.45444L3.09592 12.5504L10.3014 6.72333L6.51627 2.93823Z" fill="#576073"/>
<path d="M26.4844 12.4925L30.0001 11.517V6.45386H26.4844L25.6055 8.08212V10.247L26.4844 12.4925Z" fill="#434B59"/>
<path d="M11.4259 6.45386V8.21167L20.0227 14.2533L26.4845 12.4925V6.45386H11.4259Z" fill="#EE7719"/>
<path d="M11.4257 25.7898C16.7651 25.7898 21.0936 21.4613 21.0936 16.1218C21.0936 10.7824 16.7651 6.45386 11.4257 6.45386C6.08619 6.45386 1.75769 10.7824 1.75769 16.1218C1.75769 21.4613 6.08619 25.7898 11.4257 25.7898Z" fill="#F2994A"/>
<path d="M21.0938 16.1218C21.0938 10.7909 16.7568 6.45386 11.4259 6.45386V25.7898C16.7568 25.7898 21.0938 21.4527 21.0938 16.1218Z" fill="#E48D56"/>
<path d="M8.35606 18.3054C6.97934 18.3054 5.82663 17.2129 6.25495 15.0876C6.38714 14.4336 6.65491 13.7864 7.02915 13.2191L7.62223 12.3187L11.4254 16.1219L9.88729 17.66C9.47104 18.0763 8.9277 18.3054 8.35606 18.3054Z" fill="#E1E6F0"/>
<path d="M15.2308 19.9267L11.4259 16.1218L12.8936 14.6541C14.0806 13.4663 16.6813 14.049 16.6993 16.0789C16.6993 17.187 16.3807 18.1769 15.8239 19.0255L15.2308 19.9267Z" fill="#CFD7E6"/>
<path d="M14.3287 11.7247C13.496 11.1759 12.4989 10.8487 11.4259 10.8485C11.4256 10.8485 11.4254 10.8484 11.4251 10.8484C10.5247 10.8527 9.75308 11.372 9.41148 12.202C9.069 13.0336 9.25099 13.9461 9.88697 14.5829L11.4259 16.1218L15.2291 12.3178L14.3287 11.7247Z" fill="#F3F5F9"/>
<path d="M11.4257 16.1218L7.62076 19.9258L8.52029 20.5198C9.38654 21.091 10.3993 21.3952 11.4222 21.3952H11.4257H11.4265H11.4317C12.3123 21.3858 13.0393 20.8862 13.3749 20.0614C13.6539 19.3782 13.6744 18.3705 12.8934 17.5894L11.4257 16.1218Z" fill="#F3F5F9"/>
<path d="M14.3287 11.7248C13.496 11.176 12.4988 10.8487 11.4259 10.8486V16.1219L15.229 12.3179L14.3287 11.7248Z" fill="#E1E6F0"/>
<path d="M11.4319 21.3953C12.3125 21.3859 13.0395 20.8863 13.3751 20.0615C13.6541 19.3783 13.6746 18.3707 12.8936 17.5895L11.4259 16.1219V21.3953H11.4268H11.4319Z" fill="#E1E6F0"/>
<path d="M11.4256 18.7585C12.8818 18.7585 14.0623 17.578 14.0623 16.1218C14.0623 14.6656 12.8818 13.4851 11.4256 13.4851C9.96935 13.4851 8.78885 14.6656 8.78885 16.1218C8.78885 17.578 9.96935 18.7585 11.4256 18.7585Z" fill="#576073"/>
<path d="M14.0626 16.1218C14.0626 14.6679 12.8798 13.4851 11.4259 13.4851V18.7585C12.8798 18.7585 14.0626 17.5758 14.0626 16.1218Z" fill="#434B59"/>
</svg>
