<svg width="30" height="30" viewBox="0 0 30 30" fill="none" xmlns="http://www.w3.org/2000/svg">
<path d="M18.5376 6.53701H11.213C11.0482 6.53694 10.8902 6.48995 10.7737 6.40636C10.6572 6.32276 10.5917 6.20941 10.5916 6.09119V0.677634C10.5917 0.559415 10.6572 0.446057 10.7737 0.362464C10.8902 0.278871 11.0482 0.231879 11.213 0.231812H18.5376C18.7024 0.231879 18.8604 0.278871 18.9769 0.362464C19.0935 0.446057 19.159 0.559415 19.1591 0.677634V6.09119C19.159 6.20941 19.0935 6.32276 18.9769 6.40636C18.8604 6.48995 18.7024 6.53694 18.5376 6.53701ZM11.8345 5.64536H17.9158V1.12346H11.8345V5.64536Z" fill="#C0C3C6"/>
<path d="M23.7292 29.9746H6.01973C5.73075 29.9746 5.44479 29.9324 5.17925 29.8506C4.9137 29.7688 4.67412 29.6491 4.47508 29.4988C4.27604 29.3485 4.1217 29.1708 4.02144 28.9763C3.92118 28.7819 3.8771 28.5749 3.89189 28.3678L5.33933 8.08571C5.39514 7.303 5.86785 6.56556 6.65982 6.02571C7.4518 5.48586 8.50253 5.18484 9.59501 5.18481H20.154C21.2464 5.18484 22.2972 5.48586 23.0891 6.02571C23.8811 6.56556 24.3538 7.303 24.4096 8.08571L25.8571 28.3678C25.8719 28.5749 25.8278 28.7819 25.7275 28.9763C25.6273 29.1708 25.4729 29.3485 25.2739 29.4988C25.0748 29.6491 24.8353 29.7688 24.5697 29.8506C24.3042 29.9324 24.0182 29.9746 23.7292 29.9746Z" fill="#E48D56"/>
<path d="M8.83774 20.4997H20.9116V25.4674H8.83774V20.4997Z" fill="#E6E9ED"/>
<path d="M19.1357 9.70036H10.6129C10.4481 9.70036 10.29 9.65339 10.1735 9.56978C10.057 9.48617 9.99149 9.37278 9.99149 9.25454C9.99149 9.1363 10.057 9.0229 10.1735 8.93929C10.29 8.85569 10.4481 8.80872 10.6129 8.80872H19.1357C19.3005 8.80872 19.4586 8.85569 19.5751 8.93929C19.6916 9.0229 19.7571 9.1363 19.7571 9.25454C19.7571 9.37278 19.6916 9.48617 19.5751 9.56978C19.4586 9.65339 19.3005 9.70036 19.1357 9.70036Z" fill="#E6E9ED"/>
<path d="M19.1357 11.6958H10.6129C10.4481 11.6958 10.29 11.6489 10.1735 11.5653C10.057 11.4817 9.99149 11.3683 9.99149 11.25C9.99149 11.1318 10.057 11.0184 10.1735 10.9348C10.29 10.8512 10.4481 10.8042 10.6129 10.8042H19.1357C19.3005 10.8042 19.4586 10.8512 19.5751 10.9348C19.6916 11.0184 19.7571 11.1318 19.7571 11.25C19.7571 11.3683 19.6916 11.4817 19.5751 11.5653C19.4586 11.6489 19.3005 11.6958 19.1357 11.6958Z" fill="#E6E9ED"/>
<path d="M19.1357 13.6914H10.6129C10.4481 13.6914 10.29 13.6444 10.1735 13.5608C10.057 13.4772 9.99149 13.3638 9.99149 13.2456C9.99149 13.1273 10.057 13.0139 10.1735 12.9303C10.29 12.8467 10.4481 12.7997 10.6129 12.7997H19.1357C19.2173 12.7997 19.2981 12.8113 19.3735 12.8337C19.4489 12.8561 19.5174 12.8889 19.5751 12.9303C19.6328 12.9717 19.6786 13.0209 19.7098 13.075C19.741 13.129 19.7571 13.187 19.7571 13.2456C19.7571 13.3041 19.741 13.3621 19.7098 13.4162C19.6786 13.4703 19.6328 13.5194 19.5751 13.5608C19.5174 13.6022 19.4489 13.635 19.3735 13.6575C19.2981 13.6799 19.2173 13.6914 19.1357 13.6914Z" fill="#E6E9ED"/>
<path d="M25.4518 28.446C25.4518 29.2902 26.4057 29.9745 27.5825 29.9745C28.7592 29.9745 29.7131 29.2902 29.7131 28.446V23.3415C29.7131 22.4973 28.7592 21.8129 27.5825 21.8129C26.4057 21.8129 25.4518 22.4973 25.4518 23.3415V28.446Z" fill="black"/>
<path d="M4.29655 23.3414C4.29655 22.4972 3.34261 21.8129 2.16587 21.8129C0.989126 21.8129 0.0351868 22.4972 0.0351868 23.3414V28.4459C0.0351868 29.2901 0.989126 29.9745 2.16587 29.9745C3.34261 29.9745 4.29655 29.2901 4.29655 28.4459V23.3414Z" fill="black"/>
</svg>
