<svg width="30" height="30" viewBox="0 0 30 30" fill="none" xmlns="http://www.w3.org/2000/svg">
<path d="M14.9992 3.6207C11.8957 3.6207 9.15436 2.22412 7.75778 0C7.75778 2.06897 9.82676 11.8448 14.9992 11.8448C20.1716 11.8448 22.2406 2.06897 22.2406 0C20.844 2.22412 18.1027 3.6207 14.9992 3.6207Z" fill="#E48D56"/>
<path d="M3.10336 28.9655C3.10336 29.5345 3.56887 30 4.13785 30H25.862C26.431 30 26.8965 29.5345 26.8965 28.9655V14.4828C26.8965 13.9655 26.7414 13.1896 26.4827 12.7759C25.2414 10.1897 24.3103 5.06896 24.3103 1.03449C24.3102 0.465507 23.8447 0 23.2757 0H22.2413C22.2413 2.06897 20.1723 11.8448 14.9998 11.8448C9.82741 11.8448 7.75849 2.06897 7.75849 0H6.72401C6.15503 0 5.68952 0.465507 5.68952 1.03449C5.68952 5.06896 4.75851 10.1897 3.51713 12.7759C3.25851 13.1896 3.10336 13.9655 3.10336 14.4828V28.9655Z" fill="#F2C94C"/>
<path d="M3.10336 19.0862H26.8964V14.9482H3.10336V19.0862Z" fill="#E8EDEE"/>
<path d="M3.10336 26.8444H26.8964V22.7064H3.10336V26.8444Z" fill="#E8EDEE"/>
<path d="M14.4829 14.9481H15.5174V11.7928H14.4829V14.9481Z" fill="#E8EDEE"/>
<path d="M14.4829 22.7066H15.5174V19.0341H14.4829V22.7066Z" fill="#E8EDEE"/>
<path d="M14.4829 29.7933H15.5174V26.845H14.4829V29.7933Z" fill="#E8EDEE"/>
</svg>
