<svg width="30" height="30" viewBox="0 0 30 30" fill="none" xmlns="http://www.w3.org/2000/svg">
<path d="M16.758 7.03125V2.63672C16.758 1.18049 15.5775 0 14.1212 0H13.2423H8.84781C5.44996 0 2.69547 2.75449 2.69547 6.15234V27.3633C2.69547 28.8195 3.87595 30 5.33218 30H13.2423H21.1525C22.6087 30 23.7892 28.8195 23.7892 27.3633V7.03125H16.758ZM13.2423 6.15234C13.2423 6.63773 12.8488 7.03125 12.3634 7.03125H7.09C6.60461 7.03125 6.21109 6.63773 6.21109 6.15234V5.27344C6.21109 4.3026 6.99806 3.51562 7.9689 3.51562H12.3634C12.8488 3.51562 13.2423 3.90914 13.2423 4.39453V6.15234Z" fill="#FFA23D"/>
<path d="M23.7891 27.3633V7.03125H16.7579V2.63672C16.7579 1.18049 15.5774 0 14.1212 0H13.2422V4.39453V6.15234V30H21.1524C22.6086 30 23.7891 28.8195 23.7891 27.3633Z" fill="#E48D56"/>
<path d="M16.7582 21.6673V15.3639L20.0163 12.1058C20.3596 11.7625 20.3596 11.2062 20.0163 10.8629C19.673 10.5196 19.1168 10.5196 18.7735 10.8629L15.5154 14.121H13.2426H10.9698L7.71167 10.8629C7.36837 10.5196 6.81214 10.5196 6.46884 10.8629C6.12554 11.2062 6.12554 11.7625 6.46884 12.1058L9.72695 15.3639V21.6673L6.46884 24.9254C6.12554 25.2687 6.12554 25.8249 6.46884 26.1682C6.81214 26.5115 7.36837 26.5115 7.71167 26.1682L10.9698 22.9101H13.2426H15.5154L18.7735 26.1682C19.1168 26.5115 19.673 26.5115 20.0163 26.1682C20.3596 25.8249 20.3596 25.2687 20.0163 24.9254L16.7582 21.6673Z" fill="#E48D56"/>
<path d="M18.7732 26.1682C19.1165 26.5115 19.6727 26.5115 20.016 26.1682C20.3593 25.8249 20.3593 25.2687 20.016 24.9254L16.7579 21.6673V15.3639L20.016 12.1058C20.3593 11.7625 20.3593 11.2062 20.016 10.8629C19.6727 10.5196 19.1164 10.5196 18.7731 10.8629L15.515 14.121H13.2422V22.9101H15.515L18.7732 26.1682Z" fill="#F2994A"/>
<rect x="19.9998" y="5.60004" width="3.6" height="1.6" rx="0.8" fill="#828282"/>
</svg>
