<svg width="30" height="30" viewBox="0 0 30 30" fill="none" xmlns="http://www.w3.org/2000/svg">
<path d="M5.25764 4.43058H2.86716C2.60283 4.43058 2.38916 4.25012 2.38916 4.02776V2.01488C2.38916 1.79252 2.60283 1.61206 2.86716 1.61206H5.25764C5.52198 1.61206 5.73564 1.79252 5.73564 2.01488V4.02776C5.73564 4.25012 5.52198 4.43058 5.25764 4.43058ZM3.34516 3.62495H4.77964V2.4177H3.34516V3.62495Z" fill="#545C66"/>
<path d="M4.06296 24.974C3.79863 24.974 3.58496 24.7939 3.58496 24.5712V23.7656C3.58496 23.5428 3.79863 23.3627 4.06296 23.3627C4.3273 23.3627 4.54096 23.5428 4.54096 23.7656V24.5712C4.54096 24.7939 4.3273 24.974 4.06296 24.974Z" fill="#656D78"/>
<path d="M4.78074 25.7804C4.5164 25.7804 4.30273 25.6003 4.30273 25.3776C4.30273 25.1548 4.5164 24.9747 4.78074 24.9747C5.57135 24.9747 6.21474 24.4325 6.21474 23.7663C6.21474 23.5435 6.4284 23.3635 6.69274 23.3635C6.95707 23.3635 7.17074 23.5435 7.17074 23.7663C7.17074 24.8769 6.09858 25.7804 4.78074 25.7804Z" fill="#F2F2F2"/>
<path d="M4.78044 25.7804H4.06296C3.79863 25.7804 3.58496 25.6004 3.58496 25.3776C3.58496 25.1549 3.79863 24.9748 4.06296 24.9748H4.78044C5.04477 24.9748 5.25844 25.1549 5.25844 25.3776C5.25844 25.6004 5.04477 25.7804 4.78044 25.7804Z" fill="#F2F2F2"/>
<path d="M6.69157 19.3374H1.43308C1.16874 19.3374 0.955078 19.1573 0.955078 18.9345V17.7249C0.955078 17.5021 1.16874 17.7253 1.43308 17.7253H6.69157C6.9559 17.7253 7.16957 17.5021 7.16957 17.7249V18.9345C7.16957 19.1573 6.9559 19.3374 6.69157 19.3374ZM1.91108 18.5317H6.21357V18.1277H1.91108V18.5317Z" fill="#AAB2BD"/>
<path d="M6.69157 24.1692H1.43308C1.16874 24.1692 0.955078 23.9891 0.955078 23.7664V18.9293C0.955078 18.7065 1.16874 18.5265 1.43308 18.5265H6.69157C6.9559 18.5265 7.16957 18.7065 7.16957 18.9293V23.7664C7.16957 23.9891 6.9559 24.1692 6.69157 24.1692ZM1.91108 23.3635H6.21357V19.3321H1.91108V23.3635Z" fill="#AAB2BD"/>
<path d="M7.65048 16.9187V17.7239H6.69448H1.43647H0.480469V16.9187H1.43647H6.69448H7.65048Z" fill="#F2F2F2"/>
<path d="M7.65048 13.2928V14.9037H6.69448H1.43647H0.480469V13.2928H1.43647H6.69448H7.65048Z" fill="#F2F2F2"/>
<path d="M6.69453 22.5577V23.7661H4.06553H1.43652V22.5577H6.69453Z" fill="#AAB2BD"/>
<path d="M1.43652 21.3492H6.69453V22.5576H1.43652V21.3492Z" fill="#AAB2BD"/>
<path d="M1.43652 20.141H6.69453V21.3494H1.43652V20.141Z" fill="#AAB2BD"/>
<path d="M1.43652 18.9363H6.69453V20.1408H1.43652V18.9363Z" fill="#AAB2BD"/>
<path d="M1.43652 17.7241H6.69453V18.9285H1.43652V17.7241Z" fill="#AAB2BD"/>
<path d="M1.43652 14.904H6.69453V16.9189H1.43652V14.904Z" fill="#AAB2BD"/>
<path d="M6.69453 12.0847V13.2931H1.43652V12.0847H1.91452H6.21653H6.69453Z" fill="#AAB2BD"/>
<path d="M1.91357 7.65344H6.21558V12.0844H1.91357V7.65344Z" fill="#E6E9ED"/>
<path d="M1.91357 6.44495H6.21558V7.6534H1.91357V6.44495Z" fill="#E6E9ED"/>
<path d="M1.91357 5.23651H6.21558V6.44497H1.91357V5.23651Z" fill="#E6E9ED"/>
<path d="M6.21558 4.02832V5.23678H1.91357V4.02832H2.86958H5.25958H6.21558Z" fill="#E6E9ED"/>
<path d="M5.73761 0.402893V2.01417H5.25961H2.8696H2.3916V0.402893H5.73761Z" fill="#656D78"/>
<path d="M2.87109 2.01404H5.2611V4.02813H2.87109V2.01404Z" fill="#545C66"/>
<path d="M6.21457 12.4867H1.91208C1.64775 12.4867 1.43408 12.3067 1.43408 12.0839V4.02794C1.43408 3.80558 1.64775 3.62512 1.91208 3.62512H6.21457C6.47891 3.62512 6.69257 3.80558 6.69257 4.02794V12.0839C6.69257 12.3067 6.47891 12.4867 6.21457 12.4867ZM2.39008 11.6811H5.73657V4.43076H2.39008V11.6811Z" fill="#E6E9ED"/>
<path d="M6.69157 5.63926H1.43308C1.16874 5.63926 0.955078 5.45879 0.955078 5.23644C0.955078 5.01408 1.16874 4.83362 1.43308 4.83362H6.69157C6.9559 4.83362 7.16957 5.01408 7.16957 5.23644C7.16957 5.45879 6.9559 5.63926 6.69157 5.63926Z" fill="#F2F2F2"/>
<path d="M6.69157 6.84769H1.43308C1.16874 6.84769 0.955078 6.66723 0.955078 6.44487C0.955078 6.22252 1.16874 6.04205 1.43308 6.04205H6.69157C6.9559 6.04205 7.16957 6.22252 7.16957 6.44487C7.16957 6.66723 6.9559 6.84769 6.69157 6.84769Z" fill="#F2F2F2"/>
<path d="M6.69157 8.05594H1.43308C1.16874 8.05594 0.955078 7.87548 0.955078 7.65312C0.955078 7.43077 1.16874 7.25031 1.43308 7.25031H6.69157C6.9559 7.25031 7.16957 7.43077 7.16957 7.65312C7.16957 7.87548 6.9559 8.05594 6.69157 8.05594Z" fill="#F2F2F2"/>
<path d="M5.73687 2.41691H2.39038C2.12605 2.41691 1.91238 2.23645 1.91238 2.01409V0.402819C1.91238 0.180463 2.12605 0 2.39038 0H5.73687C6.0012 0 6.21487 0.180463 6.21487 0.402819V2.01409C6.21487 2.23645 6.0012 2.41691 5.73687 2.41691ZM2.86839 1.61127H5.25887V0.805637H2.86839V1.61127Z" fill="#656D78"/>
<path d="M6.69157 13.6959H1.43308C1.16874 13.6959 0.955078 13.5159 0.955078 13.2931V12.0838C0.955078 11.8611 1.16874 11.681 1.43308 11.681H6.69157C6.9559 11.681 7.16957 11.8611 7.16957 12.0838V13.2931C7.16957 13.5159 6.9559 13.6959 6.69157 13.6959ZM1.91108 12.8903H6.21357V12.4867H1.91108V12.8903Z" fill="#AAB2BD"/>
<path d="M6.69157 17.3216H1.43308C1.16874 17.3216 0.955078 17.1416 0.955078 16.9188V14.9027C0.955078 14.6799 1.16874 14.4999 1.43308 14.4999H6.69157C6.9559 14.4999 7.16957 14.6799 7.16957 14.9027V16.9188C7.16957 17.1416 6.9559 17.3216 6.69157 17.3216ZM1.91108 16.516H6.21357V15.3055H1.91108V16.516Z" fill="#AAB2BD"/>
<path d="M7.17004 19.3381H0.956028C0.691694 19.3381 0.478027 19.158 0.478027 18.9353C0.478027 18.7125 0.691694 18.5325 0.956028 18.5325H7.17004C7.43437 18.5325 7.64804 18.7125 7.64804 18.9353C7.64804 19.158 7.43437 19.3381 7.17004 19.3381Z" fill="#F2F2F2"/>
<path d="M7.17004 20.5444H0.956028C0.691694 20.5444 0.478027 20.3643 0.478027 20.1416C0.478027 19.9188 0.691694 19.7388 0.956028 19.7388H7.17004C7.43437 19.7388 7.64804 19.9188 7.64804 20.1416C7.64804 20.3643 7.43437 20.5444 7.17004 20.5444Z" fill="#F2F2F2"/>
<path d="M7.17004 21.7529H0.956028C0.691694 21.7529 0.478027 21.5728 0.478027 21.3501C0.478027 21.1273 0.691694 20.9473 0.956028 20.9473H7.17004C7.43437 20.9473 7.64804 21.1273 7.64804 21.3501C7.64804 21.5728 7.43437 21.7529 7.17004 21.7529Z" fill="#F2F2F2"/>
<path d="M7.17004 22.9613H0.956028C0.691694 22.9613 0.478027 22.7813 0.478027 22.5585C0.478027 22.3358 0.691694 22.1557 0.956028 22.1557H7.17004C7.43437 22.1557 7.64804 22.3358 7.64804 22.5585C7.64804 22.7813 7.43437 22.9613 7.17004 22.9613Z" fill="#F2F2F2"/>
<path d="M7.64849 15.3067H0.478001C0.213666 15.3067 0 15.1266 0 14.9039V13.293C0 13.0703 0.213666 12.8902 0.478001 12.8902H7.64849C7.91283 12.8902 8.12649 13.0703 8.12649 13.293V14.9039C8.12649 15.1266 7.91283 15.3067 7.64849 15.3067ZM0.956002 14.5011H7.17049V13.6958H0.956002V14.5011Z" fill="#F2F2F2"/>
<path d="M7.64849 18.1257H0.478001C0.213666 18.1257 0 17.9457 0 17.7229V16.9189C0 16.6961 0.213666 16.5161 0.478001 16.5161H7.64849C7.91283 16.5161 8.12649 16.6961 8.12649 16.9189V17.7229C8.12649 17.9457 7.91283 18.1257 7.64849 18.1257ZM0.956002 17.7233H7.17049V17.3217H0.956002V17.7233Z" fill="#F2F2F2"/>
<path d="M24.9733 10.0772L22.8716 9.11735C22.6392 9.01122 22.5534 8.76676 22.6791 8.57127L23.8172 6.80154C23.9429 6.60605 24.2328 6.53318 24.4652 6.63931L26.5669 7.59913C26.7993 7.70527 26.8851 7.94972 26.7594 8.14522L25.6213 9.91494C25.4956 10.1104 25.2057 10.1833 24.9733 10.0772ZM23.7474 8.60096L25.0086 9.17693L25.6911 8.11552L24.4299 7.53955L23.7474 8.60096Z" fill="#545C66"/>
<path d="M12.3076 27.659C12.0752 27.5528 11.9892 27.3087 12.1151 27.1129L12.5706 26.4046C12.6965 26.2087 12.9862 26.1362 13.2186 26.2423C13.451 26.3485 13.5371 26.5926 13.4111 26.7884L12.9556 27.4967C12.8297 27.6926 12.54 27.7651 12.3076 27.659Z" fill="#656D78"/>
<path d="M12.4815 28.656C12.2491 28.5498 12.1631 28.3057 12.289 28.1099C12.4149 27.914 12.7046 27.8415 12.937 27.9477C13.6321 28.2651 14.5043 28.0467 14.881 27.461C15.007 27.2651 15.2966 27.1926 15.529 27.2987C15.7614 27.4049 15.8475 27.649 15.7215 27.8448C15.0936 28.8212 13.6402 29.1851 12.4815 28.656Z" fill="#F2F2F2"/>
<path d="M12.4813 28.6562L11.8505 28.3681C11.6181 28.2619 11.5321 28.0178 11.658 27.822C11.7839 27.6261 12.0736 27.5536 12.306 27.6598L12.9368 27.9478C13.1692 28.054 13.2553 28.2981 13.1293 28.4939C13.0034 28.6898 12.7137 28.7623 12.4813 28.6562Z" fill="#F2F2F2"/>
<path d="M17.8055 23.7591L13.1822 21.6477C12.9498 21.5416 12.8638 21.2975 12.9897 21.1017L13.6736 20.0381C13.7996 19.8423 14.0892 19.7698 14.3216 19.8759L18.9449 21.9873C19.1773 22.0934 19.2633 22.3375 19.1374 22.5333L18.4535 23.5969C18.3275 23.7927 18.0379 23.8652 17.8055 23.7591ZM14.058 21.1313L17.8407 22.8589L18.0691 22.5037L14.2864 20.7761L14.058 21.1313Z" fill="#AAB2BD"/>
<path d="M15.0734 28.0073L10.4502 25.8959C10.2178 25.7897 10.1317 25.5456 10.2577 25.3498L12.9925 21.0971C13.1184 20.9012 13.4081 20.8287 13.6405 20.9348L18.2637 23.0462C18.4961 23.1524 18.5822 23.3965 18.4562 23.5923L15.7214 27.845C15.5955 28.0409 15.3058 28.1134 15.0734 28.0073ZM11.3259 25.3795L15.1087 27.107L17.388 23.5626L13.6052 21.8351L11.3259 25.3795Z" fill="#AAB2BD"/>
<path d="M20.0114 22.0155L19.5561 22.7234L18.7156 22.3396L14.0928 20.2284L13.2523 19.8446L13.7075 19.1366L14.548 19.5204L19.1709 21.6316L20.0114 22.0155Z" fill="#F2F2F2"/>
<path d="M22.0617 18.8278L21.1509 20.2441L20.3104 19.8602L15.6876 17.749L14.8471 17.3652L15.7578 15.9489L16.5983 16.3328L21.2212 18.444L22.0617 18.8278Z" fill="#F2F2F2"/>
<path d="M15.9827 26.5896L15.2995 27.6521L12.988 26.5965L10.6766 25.5409L11.3599 24.4785L15.9827 26.5896Z" fill="#AAB2BD"/>
<path d="M12.043 23.4159L16.6658 25.5271L15.9826 26.5895L11.3597 24.4784L12.043 23.4159Z" fill="#AAB2BD"/>
<path d="M12.7261 22.3535L17.3489 24.4647L16.6657 25.5272L12.0428 23.416L12.7261 22.3535Z" fill="#AAB2BD"/>
<path d="M13.4072 21.2946L18.0301 23.4058L17.3491 24.4647L12.7263 22.3535L13.4072 21.2946Z" fill="#AAB2BD"/>
<path d="M14.0928 20.2284L18.7156 22.3396L18.0346 23.3985L13.4118 21.2873L14.0928 20.2284Z" fill="#AAB2BD"/>
<path d="M15.688 17.7491L20.3108 19.8603L19.1716 21.6318L14.5488 19.5206L15.688 17.7491Z" fill="#AAB2BD"/>
<path d="M21.9041 17.3816L21.2208 18.444L16.598 16.3329L17.2812 15.2704L17.7015 15.4623L21.4838 17.1896L21.9041 17.3816Z" fill="#AAB2BD"/>
<path d="M20.2075 11.5665L23.9898 13.2939L21.4846 17.1896L17.7023 15.4623L20.2075 11.5665Z" fill="#E6E9ED"/>
<path d="M20.8906 10.504L24.6729 12.2313L23.9897 13.2938L20.2074 11.5664L20.8906 10.504Z" fill="#E6E9ED"/>
<path d="M21.5742 9.44159L25.3565 11.1689L24.6733 12.2314L20.891 10.5041L21.5742 9.44159Z" fill="#E6E9ED"/>
<path d="M26.0387 10.1064L25.3554 11.1688L21.5731 9.4415L22.2563 8.37903L23.0969 8.76288L25.1981 9.72251L26.0387 10.1064Z" fill="#E6E9ED"/>
<path d="M27.6689 6.72709L26.7579 8.14372L26.3376 7.95179L24.2363 6.99216L23.8161 6.80023L24.7271 5.38361L27.6689 6.72709Z" fill="#656D78"/>
<path d="M24.2363 6.99207L26.3376 7.95169L25.1989 9.72248L23.0976 8.76285L24.2363 6.99207Z" fill="#545C66"/>
<path d="M21.2587 17.5439L17.476 15.8164C17.2436 15.7103 17.1575 15.4662 17.2835 15.2703L21.8382 8.18753C21.9639 7.99204 22.2538 7.91916 22.4862 8.0253L26.2689 9.75282C26.5013 9.85896 26.5871 10.1034 26.4614 10.2989L21.9067 17.3817C21.7808 17.5775 21.4911 17.6501 21.2587 17.5439ZM18.3517 15.3L21.2939 16.6437L25.3932 10.2692L22.4509 8.92554L18.3517 15.3Z" fill="#E6E9ED"/>
<path d="M25.5509 11.7155L20.9277 9.60416C20.6953 9.49802 20.6094 9.25357 20.7351 9.05808C20.8609 8.86258 21.1507 8.78971 21.3831 8.89584L26.0064 11.0072C26.2388 11.1134 26.3246 11.3578 26.1989 11.5533C26.0732 11.7488 25.7833 11.8217 25.5509 11.7155Z" fill="#F2F2F2"/>
<path d="M24.8678 12.7781L20.2445 10.6667C20.0121 10.5606 19.9263 10.3161 20.052 10.1206C20.1778 9.92514 20.4676 9.85227 20.7 9.95841L25.3233 12.0698C25.5557 12.1759 25.6415 12.4204 25.5158 12.6159C25.3901 12.8114 25.1002 12.8842 24.8678 12.7781Z" fill="#F2F2F2"/>
<path d="M24.1842 13.8407L19.561 11.7293C19.3286 11.6231 19.2427 11.3787 19.3684 11.1832C19.4942 10.9877 19.784 10.9148 20.0164 11.021L24.6397 13.1323C24.8721 13.2385 24.9579 13.4829 24.8322 13.6784C24.7065 13.8739 24.4166 13.9468 24.1842 13.8407Z" fill="#F2F2F2"/>
<path d="M26.5316 8.49898L23.5894 7.15531C23.357 7.04917 23.2712 6.80472 23.3969 6.60923L24.3079 5.1926C24.4336 4.9971 24.7235 4.92423 24.9559 5.03037L27.8981 6.37404C28.1305 6.48017 28.2163 6.72463 28.0906 6.92012L27.1796 8.33675C27.0539 8.53225 26.764 8.60512 26.5316 8.49898ZM24.4652 6.63892L26.5669 7.59874L27.0224 6.89043L24.9207 5.93061L24.4652 6.63892Z" fill="#656D78"/>
<path d="M20.9956 18.799L16.3724 16.6877C16.14 16.5815 16.0539 16.3374 16.1799 16.1416L16.8636 15.0784C16.9895 14.8826 17.2792 14.81 17.5116 14.9162L22.1348 17.0275C22.3672 17.1337 22.4533 17.3778 22.3273 17.5736L21.6436 18.6368C21.5177 18.8327 21.228 18.9052 20.9956 18.799ZM17.2481 16.1713L21.0309 17.8988L21.2591 17.5439L17.4763 15.8164L17.2481 16.1713Z" fill="#AAB2BD"/>
<path d="M18.9457 21.9869L14.3224 19.8756C14.09 19.7694 14.004 19.5253 14.1299 19.3295L15.2698 17.5569C15.3958 17.3611 15.6854 17.2885 15.9178 17.3947L20.5411 19.5061C20.7735 19.6122 20.8595 19.8563 20.7336 20.0521L19.5937 21.8247C19.4678 22.0205 19.1781 22.0931 18.9457 21.9869ZM15.1982 19.3592L18.9809 21.0867L19.6653 20.0224L15.8826 18.2949L15.1982 19.3592Z" fill="#AAB2BD"/>
<path d="M18.2255 23.9515L12.7621 21.4565C12.5297 21.3503 12.4437 21.1062 12.5696 20.9104C12.6956 20.7145 12.9852 20.642 13.2176 20.7481L18.681 23.2432C18.9134 23.3493 18.9994 23.5934 18.8735 23.7893C18.7475 23.9851 18.4579 24.0576 18.2255 23.9515Z" fill="#F2F2F2"/>
<path d="M17.5433 25.0123L12.08 22.5173C11.8476 22.4112 11.7615 22.1671 11.8875 21.9712C12.0134 21.7754 12.3031 21.7029 12.5355 21.809L17.9988 24.304C18.2312 24.4102 18.3173 24.6543 18.1913 24.8501C18.0654 25.046 17.7757 25.1185 17.5433 25.0123Z" fill="#F2F2F2"/>
<path d="M16.8597 26.0747L11.3964 23.5796C11.164 23.4735 11.0779 23.2294 11.2039 23.0335C11.3298 22.8377 11.6195 22.7652 11.8519 22.8713L17.3152 25.3663C17.5476 25.4725 17.6337 25.7166 17.5078 25.9124C17.3818 26.1083 17.0921 26.1808 16.8597 26.0747Z" fill="#F2F2F2"/>
<path d="M16.1766 27.1372L10.7133 24.6422C10.4809 24.536 10.3948 24.2919 10.5208 24.0961C10.6467 23.9003 10.9364 23.8277 11.1688 23.9339L16.6321 26.4289C16.8645 26.535 16.9506 26.7791 16.8246 26.975C16.6987 27.1708 16.409 27.2434 16.1766 27.1372Z" fill="#F2F2F2"/>
<path d="M20.9257 20.5993L14.6214 17.7203C14.389 17.6141 14.3029 17.37 14.4289 17.1742L15.3396 15.7579C15.4656 15.5621 15.7552 15.4895 15.9876 15.5957L22.2919 18.4748C22.5243 18.5809 22.6104 18.825 22.4844 19.0208L21.5737 20.4371C21.4477 20.633 21.1581 20.7055 20.9257 20.5993ZM15.4971 17.2039L20.9609 19.6991L21.4162 18.9911L15.9524 16.4959L15.4971 17.2039Z" fill="#F2F2F2"/>
<path d="M19.3306 23.0774L13.0263 20.1983C12.7939 20.0922 12.7078 19.8481 12.8338 19.6522L13.2884 18.9453C13.4143 18.7495 13.704 18.677 13.9364 18.7831L20.2406 21.6622C20.473 21.7683 20.5591 22.0124 20.4332 22.2083L19.9786 22.9152C19.8526 23.111 19.563 23.1835 19.3306 23.0774ZM13.902 19.6819L19.3658 22.1772L19.3649 22.1786L13.9011 19.6834L13.902 19.6819Z" fill="#F2F2F2"/>
</svg>
