<svg width="28" height="28" viewBox="0 0 28 28" fill="none" xmlns="http://www.w3.org/2000/svg">
<path d="M17 18.5C17 17.9477 17.4477 17.5 18 17.5C18.5523 17.5 19 17.9477 19 18.5L19 23.5C19 24.0523 18.5523 24.5 18 24.5C17.4477 24.5 17 24.0523 17 23.5L17 18.5ZM11 13.5C11 12.9477 11.4477 12.5 12 12.5C12.5523 12.5 13 12.9477 13 13.5L13 23.5C13 24.0523 12.5523 24.5 12 24.5C11.4477 24.5 11 24.0523 11 23.5L11 13.5ZM4.99998 6.5C4.99998 5.94772 5.4477 5.5 5.99998 5.5C6.55227 5.5 6.99998 5.94772 6.99998 6.5L6.99998 23.5C6.99998 24.0523 6.55227 24.5 5.99998 24.5C5.4477 24.5 4.99998 24.0523 4.99998 23.5L4.99998 6.5Z" fill="#828282"/>
</svg>
