<svg width="32" height="32" viewBox="0 0 32 32" fill="none" xmlns="http://www.w3.org/2000/svg">
<path d="M19.4286 21.1429C19.4286 20.5117 19.9403 20 20.5715 20C21.2027 20 21.7144 20.5117 21.7144 21.1429L21.7144 26.8571C21.7144 27.4883 21.2027 28 20.5715 28C19.9403 28 19.4286 27.4883 19.4286 26.8571L19.4286 21.1429ZM12.5715 15.4286C12.5715 14.7974 13.0832 14.2857 13.7144 14.2857C14.3455 14.2857 14.8572 14.7974 14.8572 15.4286L14.8572 26.8571C14.8572 27.4883 14.3455 28 13.7144 28C13.0832 28 12.5715 27.4883 12.5715 26.8571L12.5715 15.4286ZM5.71435 7.42857C5.71435 6.79739 6.22603 6.28572 6.85721 6.28572C7.48839 6.28572 8.00007 6.79739 8.00007 7.42857L8.00007 26.8571C8.00007 27.4883 7.4884 28 6.85721 28C6.22603 28 5.71436 27.4883 5.71436 26.8571L5.71435 7.42857Z" fill="white"/>
</svg>
