<svg width="79" height="79" viewBox="0 0 79 79" fill="none" xmlns="http://www.w3.org/2000/svg">
<path d="M65.4219 39.5C65.4219 41.3911 62.8297 42.9649 62.426 44.7344C62.0107 46.5613 63.6549 49.1022 62.8581 50.7501C62.0496 52.4252 59.0315 52.7196 57.8811 54.1582C56.7306 55.5969 57.1071 58.6125 55.6592 59.7666C54.2113 60.9208 51.3741 59.879 49.6984 60.6875C48.0505 61.4824 47.0914 64.3616 45.2652 64.777C43.4957 65.1794 41.3874 63.0099 39.4963 63.0099C37.6052 63.0099 35.4969 65.1787 33.7274 64.777C31.9006 64.3616 30.9421 61.4824 29.2936 60.6875C27.6185 59.879 24.7721 60.9158 23.3328 59.7666C21.8935 58.6174 22.2675 55.6037 21.1109 54.1582C19.9543 52.7128 16.9424 52.4252 16.1339 50.7501C15.339 49.1022 16.9831 46.5613 16.5659 44.7344C16.1703 42.9649 13.5781 41.3911 13.5781 39.5C13.5781 37.609 16.1703 36.0351 16.574 34.2657C16.9893 32.4388 15.3451 29.8978 16.1419 28.2499C16.9504 26.5749 19.9685 26.2805 21.1189 24.8418C22.2694 23.4032 21.8929 20.3876 23.3408 19.2334C24.7887 18.0793 27.6259 19.1211 29.3016 18.3126C30.9495 17.5177 31.9086 14.6385 33.7349 14.2231C35.5043 13.8207 37.6126 15.9901 39.5037 15.9901C41.3948 15.9901 43.5031 13.8213 45.2726 14.2231C47.0994 14.6385 48.0579 17.5177 49.7064 18.3126C51.3815 19.1211 54.2279 18.0842 55.6672 19.2334C57.1065 20.3827 56.7325 23.3964 57.8891 24.8418C59.0457 26.2873 62.0576 26.5749 62.8661 28.2499C63.661 29.8978 62.0168 32.4388 62.4341 34.2657C62.8297 36.0351 65.4219 37.609 65.4219 39.5Z" fill="#EF5261"/>
<path d="M39.4998 57.3368C35.972 57.3368 32.5235 56.2907 29.5903 54.3307C26.657 52.3708 24.3709 49.5851 23.0208 46.3259C21.6708 43.0666 21.3176 39.4803 22.0058 36.0203C22.6941 32.5603 24.3928 29.3821 26.8873 26.8876C29.3819 24.3931 32.5601 22.6943 36.02 22.0061C39.48 21.3178 43.0664 21.6711 46.3256 23.0211C49.5849 24.3711 52.3706 26.6573 54.3305 29.5905C56.2904 32.5237 57.3365 35.9723 57.3365 39.5001C57.3319 44.2292 55.4513 48.7634 52.1072 52.1075C48.7632 55.4515 44.229 57.3322 39.4998 57.3368ZM39.4998 23.5272C36.3407 23.5272 33.2525 24.464 30.6258 26.2191C27.9991 27.9743 25.9518 30.4689 24.7429 33.3875C23.5339 36.3062 23.2176 39.5178 23.8339 42.6162C24.4502 45.7146 25.9715 48.5607 28.2053 50.7945C30.4392 53.0284 33.2852 54.5496 36.3837 55.1659C39.4821 55.7823 42.6937 55.4659 45.6123 54.257C48.531 53.0481 51.0256 51.0008 52.7807 48.3741C54.5358 45.7474 55.4726 42.6592 55.4726 39.5001C55.4677 35.2653 53.7833 31.2054 50.7889 28.211C47.7945 25.2166 43.7346 23.5321 39.4998 23.5272Z" fill="#EEEFEE"/>
<path d="M57.5006 17.7017H57.5C55.3643 17.7017 53.2766 18.335 51.5008 19.5216C49.725 20.7081 48.341 22.3946 47.5237 24.3677C46.7064 26.3408 46.4926 28.512 46.9092 30.6066C47.3259 32.7013 48.3543 34.6254 49.8645 36.1355C51.3746 37.6457 53.2987 38.6741 55.3934 39.0908C57.488 39.5074 59.6592 39.2936 61.6323 38.4763C63.6054 37.659 65.2919 36.275 66.4784 34.4992C67.665 32.7234 68.2983 30.6357 68.2983 28.5V28.4994C68.295 25.6367 67.1563 22.8922 65.132 20.868C63.1078 18.8437 60.3633 17.705 57.5006 17.7017ZM57.4995 39.5C55.3241 39.4999 53.1975 38.8548 51.3887 37.6462C49.5798 36.4375 48.1699 34.7195 47.3373 32.7095C46.5048 30.6995 46.2869 28.4878 46.7114 26.354C47.1358 24.2202 48.1835 22.2602 49.7218 20.7218C51.2602 19.1835 53.2202 18.1358 55.354 17.7114C57.4878 17.2869 59.6995 17.5048 61.7095 18.3373C63.7195 19.1699 65.4375 20.5798 66.6462 22.3887C67.8548 24.1975 68.4999 26.3241 68.5 28.4995C68.4972 31.4162 67.3373 34.2125 65.2749 36.2749C63.2125 38.3373 60.4162 39.4972 57.4995 39.5ZM52.0564 20.353C53.6676 19.2764 55.5619 18.7018 57.4997 18.7017C60.0975 18.7048 62.588 19.7382 64.4249 21.5751C66.2619 23.4121 67.2953 25.9027 67.2983 28.5006C67.2982 30.4383 66.7235 32.3325 65.647 33.9436C64.5703 35.5549 63.04 36.8108 61.2496 37.5524C59.4592 38.294 57.4891 38.4881 55.5885 38.11C53.6878 37.7319 51.9419 36.7987 50.5716 35.4284C49.2013 34.0581 48.2681 32.3122 47.89 30.4115C47.5119 28.5109 47.706 26.5408 48.4476 24.7504C49.1892 22.96 50.4451 21.4297 52.0564 20.353Z" fill="#EEEFEE" stroke="#EF5261"/>
<path d="M47.0547 39.292C47.0547 43.0322 46.4395 45.8008 45.209 47.5977C43.9883 49.3945 42.1035 50.293 39.5547 50.293C37.084 50.293 35.2188 49.3652 33.959 47.5098C32.709 45.6543 32.084 42.915 32.084 39.292C32.084 35.5127 32.6943 32.7295 33.915 30.9424C35.1357 29.1455 37.0156 28.2471 39.5547 28.2471C42.0254 28.2471 43.8906 29.1846 45.1504 31.0596C46.4199 32.9346 47.0547 35.6787 47.0547 39.292ZM36.5811 39.292C36.5811 41.9189 36.8057 43.8037 37.2549 44.9463C37.7139 46.0791 38.4805 46.6455 39.5547 46.6455C40.6094 46.6455 41.3711 46.0693 41.8398 44.917C42.3086 43.7646 42.543 41.8896 42.543 39.292C42.543 36.665 42.3037 34.7803 41.8252 33.6377C41.3564 32.4854 40.5996 31.9092 39.5547 31.9092C38.4902 31.9092 37.7285 32.4854 37.2695 33.6377C36.8105 34.7803 36.5811 36.665 36.5811 39.292Z" fill="white"/>
<path d="M54.0408 24C52.9232 24 52 25.0979 52 27.0519C52.0125 29.0223 52.9232 30 53.9749 30C55.0643 30 56 28.975 56 26.9135C56 25.0544 55.2215 24 54.0408 24ZM54 29.202C53.2842 29.202 52.8824 28.2567 52.9071 27.0061C52.9071 25.7738 53.2838 24.7957 54 24.7957C54.7911 24.7957 55.0894 25.788 55.0894 26.9767C55.0894 28.2716 54.7535 29.202 54 29.202Z" fill="#EB5757"/>
<path d="M61 24L55.1662 34H54L59.8338 24H61Z" fill="#EB5757"/>
<path d="M60.559 28C59.1576 28 58 29.0976 58 31.0673C58.0157 33.0226 59.1576 34 60.4764 34C61.8267 34 63 32.9753 63 30.9181C63 29.0504 62.0391 28 60.559 28ZM60.5099 33.2008C59.632 33.2008 59.1125 32.2557 59.1282 31.0056C59.1282 29.7737 59.6163 28.7959 60.5099 28.7959C61.5058 28.7959 61.8803 29.7878 61.8803 30.9762C61.8779 32.2702 61.4526 33.2008 60.5099 33.2008Z" fill="#EB5757"/>
</svg>
