<svg width="32" height="32" viewBox="0 0 32 32" fill="none" xmlns="http://www.w3.org/2000/svg">
<path d="M10.3158 5.57715C6.19653 5.57715 2.85718 8.9165 2.85718 13.0358C2.85718 17.1647 4.50858 19.2313 11.4209 24.6075L14.5967 27.0776C15.4221 27.7196 16.5779 27.7196 17.4033 27.0776L20.5792 24.6075C27.4915 19.2313 29.1429 17.1647 29.1429 13.0358C29.1429 8.9165 25.8035 5.57715 21.6842 5.57715C19.5454 5.57715 17.6411 6.549 16 8.41891C14.359 6.549 12.4547 5.57715 10.3158 5.57715ZM10.3158 7.86286C12.052 7.86286 13.617 8.84288 15.06 10.9295L15.295 11.2694C15.5643 11.6587 16.0982 11.7561 16.4876 11.4868C16.5726 11.428 16.6462 11.3544 16.705 11.2694L16.94 10.9295C18.383 8.84288 19.948 7.86286 21.6842 7.86286C24.5412 7.86286 26.8572 10.1789 26.8572 13.0358C26.8572 16.2133 25.5572 17.84 19.1759 22.8033L16 25.2734L12.8242 22.8033C6.44284 17.84 5.14289 16.2133 5.14289 13.0358C5.14289 10.1789 7.45889 7.86286 10.3158 7.86286Z" fill="white"/>
</svg>
