<svg width="40" height="40" viewBox="0 0 40 40" fill="none" xmlns="http://www.w3.org/2000/svg">
<path fill-rule="evenodd" clip-rule="evenodd" d="M0 -1H81.225V2.30898H0V-1ZM0 5.61797H81.225V8.92695H0V5.61797ZM0 12.2275H81.225V15.5449H0V12.2275ZM0 18.8455H81.225V22.1545H0V18.8455ZM0 25.4635H81.225V28.7725H0V25.4635ZM0 32.073H81.225V35.382H0V32.073ZM0 38.691H81.225V42H0V38.691Z" fill="#BD3D44"/>
<path fill-rule="evenodd" clip-rule="evenodd" d="M0 2.30896H81.225V5.61794H0V2.30896ZM0 8.92693H81.225V12.2275H0V8.92693ZM0 15.5365H81.225V18.8455H0V15.5365ZM0 22.1545H81.225V25.4634H0V22.1545ZM0 28.7724H81.225V32.0814H0V28.7724ZM0 35.382H81.225V38.691H0V35.382Z" fill="white"/>
<path fill-rule="evenodd" clip-rule="evenodd" d="M0 -1H32.4883V22.1545H0V-1Z" fill="#192F5D"/>
<path fill-rule="evenodd" clip-rule="evenodd" d="M2.70557 -0.0090332L3.00615 0.906396H3.95801L3.18984 1.46909L3.48208 2.39292L2.70557 1.82183L1.9374 2.38452L2.22964 1.46909L1.45312 0.906396H2.42168L2.70557 -0.0090332ZM8.12446 -0.0090332L8.4167 0.906396H9.3769L8.60039 1.46909L8.89263 2.39292L8.12446 1.82183L7.34795 2.38452L7.64019 1.46909L6.87202 0.906396H7.82388L8.12446 -0.0090332ZM13.535 -0.0090332L13.8356 0.906396H14.7791L14.0109 1.46909L14.3032 2.39292L13.5267 1.82183L12.7585 2.38452L13.0507 1.46909L12.2742 0.906396H13.2344L13.535 -0.0090332ZM18.9539 -0.0090332L19.2461 0.906396H20.2063L19.4298 1.46909L19.7304 2.39292L18.9539 1.82183L18.1774 2.38452L18.478 1.46909L17.7015 0.906396H18.6533L18.9539 -0.0090332ZM24.3645 -0.0090332L24.665 0.906396H25.6169L24.8487 1.46909L25.141 2.39292L24.3645 1.82183L23.5963 2.38452L23.8885 1.46909L23.1204 0.906396H24.0722L24.3645 -0.0090332ZM29.7834 -0.0090332L30.0756 0.906396H31.0358L30.2593 1.46909L30.5599 2.39292L29.7834 1.82183L29.0068 2.38452L29.3074 1.46909L28.5309 0.906396H29.4911L29.7834 -0.0090332ZM5.41919 2.30893L5.71143 3.22436H6.67163L5.89512 3.78706L6.179 4.70249L5.42754 4.13979L4.65103 4.70249L4.92656 3.78706L4.1751 3.22436H5.12695L5.41919 2.30893ZM10.8297 2.30893L11.1303 3.22436H12.0822L11.3057 3.78706L11.6062 4.70249L10.8297 4.13979L10.0532 4.70249L10.3538 3.78706L9.57729 3.22436H10.5375L10.8297 2.30893ZM16.2486 2.30893L16.5409 3.22436H17.5011L16.7246 3.78706L17.0168 4.70249L16.2486 4.13979L15.4721 4.70249L15.7644 3.78706L14.9962 3.22436H15.948L16.2486 2.30893ZM21.6592 2.30893L21.9598 3.22436H22.9116L22.1351 3.78706L22.4357 4.70249L21.6592 4.13979L20.891 4.70249L21.1833 3.78706L20.4067 3.22436H21.3753L21.6592 2.30893ZM27.0781 2.30893L27.3703 3.22436H28.3305L27.554 3.78706L27.8462 4.70249L27.0781 4.13979L26.3016 4.70249L26.5938 3.78706L25.8256 3.22436H26.7775L27.0781 2.30893ZM2.70557 4.6185L3.00615 5.55073H3.95801L3.18984 6.11342L3.48208 7.02885L2.70557 6.45776L1.9374 7.02885L2.22964 6.10503L1.45312 5.54233H2.42168L2.70557 4.6185ZM8.12446 4.6185L8.4167 5.54233H9.3769L8.60039 6.10503L8.89263 7.02045L8.12446 6.44936L7.34795 7.02045L7.64019 6.09663L6.87202 5.53393H7.82388L8.12446 4.6185ZM13.535 4.6185L13.8356 5.54233H14.7791L14.0109 6.10503L14.3032 7.02045L13.5267 6.44936L12.7585 7.02045L13.0507 6.09663L12.2742 5.53393H13.2344L13.535 4.6185ZM18.9539 4.6185L19.2461 5.54233H20.2063L19.4298 6.10503L19.7304 7.02045L18.9539 6.44936L18.1774 7.02045L18.478 6.09663L17.7015 5.53393H18.6533L18.9539 4.6185ZM24.3645 4.6185L24.665 5.54233H25.6169L24.8487 6.10503L25.141 7.02045L24.3645 6.44936L23.5963 7.02045L23.8885 6.09663L23.1204 5.53393H24.0722L24.3645 4.6185ZM29.7834 4.6185L30.0756 5.54233H31.0358L30.2593 6.10503L30.5599 7.02045L29.7834 6.44936L29.0068 7.02045L29.3074 6.09663L28.5309 5.53393H29.4911L29.7834 4.6185ZM5.41919 6.93647L5.71143 7.8519H6.67163L5.89512 8.41459L6.18735 9.33842L5.41919 8.76733L4.64268 9.33002L4.93491 8.41459L4.16675 7.8519H5.1186L5.41919 6.93647ZM10.8297 6.93647L11.1303 7.8519H12.0822L11.3057 8.41459L11.6062 9.33842L10.8297 8.76733L10.0532 9.33002L10.3538 8.41459L9.57729 7.8519H10.5375L10.8297 6.93647ZM16.2486 6.93647L16.5409 7.8519H17.5011L16.7246 8.41459L17.0168 9.33842L16.2486 8.76733L15.4721 9.33002L15.7644 8.41459L14.9962 7.8519H15.948L16.2486 6.93647ZM21.6592 6.93647L21.9598 7.8519H22.9116L22.1435 8.41459L22.4357 9.33842L21.6592 8.76733L20.891 9.33002L21.1833 8.41459L20.4067 7.8519H21.3753L21.6592 6.93647ZM27.0781 6.93647L27.3703 7.8519H28.3305L27.554 8.41459L27.8462 9.33842L27.0781 8.76733L26.3016 9.33002L26.5938 8.41459L25.8256 7.8519H26.7775L27.0781 6.93647ZM2.70557 9.25444L3.00615 10.1699H3.95801L3.18984 10.7326L3.48208 11.6564L2.70557 11.0853L1.9374 11.648L2.22964 10.7326L1.45312 10.1699H2.42168L2.70557 9.25444ZM8.12446 9.25444L8.4167 10.1699H9.3769L8.60039 10.7326L8.89263 11.648L8.12446 11.0853L7.34795 11.648L7.64019 10.7326L6.87202 10.1699H7.82388L8.12446 9.25444ZM13.535 9.25444L13.8356 10.1699H14.7791L14.0109 10.7326L14.3032 11.6564L13.5267 11.0853L12.7585 11.648L13.0507 10.7326L12.2742 10.1699H13.2344L13.535 9.25444ZM18.9539 9.25444L19.2461 10.1699H20.2063L19.4298 10.7326L19.7304 11.6564L18.9539 11.0853L18.1774 11.648L18.478 10.7326L17.7015 10.1699H18.6533L18.9539 9.25444ZM24.3645 9.25444L24.665 10.1699H25.6169L24.8487 10.7326L25.141 11.6564L24.3645 11.0853L23.5963 11.648L23.8885 10.7326L23.1204 10.1699H24.0722L24.3645 9.25444ZM29.7834 9.25444L30.0756 10.1699H31.0358L30.2593 10.7326L30.5599 11.6564L29.7834 11.0853L29.0068 11.648L29.3074 10.7326L28.5309 10.1699H29.4911L29.7834 9.25444ZM5.41919 11.5724L5.71143 12.4878H6.67163L5.89512 13.0505L6.18735 13.966L5.41919 13.3949L4.64268 13.966L4.93491 13.0421L4.16675 12.4794H5.1186L5.41919 11.5724ZM10.8297 11.5724L11.1303 12.4878H12.0822L11.3057 13.0505L11.6062 13.966L10.8297 13.3949L10.0532 13.966L10.3538 13.0421L9.57729 12.4794H10.5375L10.8297 11.5724ZM16.2486 11.5724L16.5409 12.4878H17.5011L16.7246 13.0505L17.0168 13.966L16.2486 13.3949L15.4721 13.966L15.7644 13.0421L14.9962 12.4794H15.948L16.2486 11.5724ZM21.6592 11.5724L21.9598 12.4878H22.9116L22.1435 13.0505L22.4357 13.966L21.6592 13.3949L20.891 13.966L21.1833 13.0421L20.4067 12.4794H21.3753L21.6592 11.5724ZM27.0781 11.5724L27.3703 12.4878H28.3305L27.554 13.0505L27.8462 13.966L27.0781 13.3949L26.3016 13.966L26.5938 13.0421L25.8256 12.4794H26.7775L27.0781 11.5724ZM2.70557 13.882L3.00615 14.8058H3.95801L3.18984 15.3685L3.48208 16.2755L2.70557 15.7128L1.9374 16.2755L2.22964 15.3601L1.45312 14.7974H2.42168L2.70557 13.882ZM8.12446 13.882L8.4167 14.8058H9.3769L8.60039 15.3685L8.90098 16.2755L8.12446 15.7128L7.34795 16.2755L7.64853 15.3601L6.87202 14.7974H7.82388L8.12446 13.882ZM13.535 13.882L13.8356 14.8058H14.7791L14.0109 15.3685L14.3032 16.2755L13.5267 15.7128L12.7585 16.2755L13.0507 15.3601L12.2742 14.7974H13.2344L13.535 13.882ZM18.9539 13.882L19.2461 14.8058H20.2063L19.4298 15.3685L19.7304 16.2755L18.9539 15.7128L18.1774 16.2755L18.478 15.3601L17.7015 14.7974H18.6533L18.9539 13.882ZM24.3645 13.882L24.665 14.8058H25.6169L24.8487 15.3685L25.141 16.2755L24.3645 15.7128L23.5963 16.2755L23.8885 15.3601L23.1204 14.7974H24.0722L24.3645 13.882ZM29.7834 13.882L30.0756 14.8058H31.0358L30.2593 15.3685L30.5599 16.2755L29.7834 15.7128L29.0068 16.2755L29.3074 15.3601L28.5309 14.7974H29.4911L29.7834 13.882ZM5.41919 16.1999L5.71143 17.1154H6.67163L5.89512 17.6781L6.18735 18.6019L5.41919 18.0308L4.64268 18.5935L4.93491 17.6781L4.16675 17.1154H5.1186L5.41919 16.1999ZM10.8297 16.1999L11.1303 17.1154H12.0822L11.3057 17.6781L11.6062 18.6019L10.8297 18.0308L10.0532 18.5935L10.3538 17.6781L9.57729 17.1154H10.5375L10.8297 16.1999ZM16.2486 16.1999L16.5409 17.1154H17.5011L16.7246 17.6781L17.0168 18.6019L16.2486 18.0308L15.4721 18.5935L15.7644 17.6781L14.9962 17.1154H15.948L16.2486 16.1999ZM21.6592 16.1999L21.9598 17.1154H22.9116L22.1435 17.6781L22.4357 18.6019L21.6592 18.0308L20.891 18.5935L21.1833 17.6781L20.4067 17.1154H21.3753L21.6592 16.1999ZM27.0781 16.1999L27.3703 17.1154H28.3305L27.554 17.6781L27.8462 18.6019L27.0781 18.0308L26.3016 18.5935L26.5938 17.6781L25.8256 17.1154H26.7775L27.0781 16.1999ZM2.70557 18.5179L3.00615 19.4333H3.95801L3.18984 19.996L3.48208 20.9115L2.70557 20.3488L1.9374 20.9115L2.22964 19.9876L1.45312 19.4249H2.42168L2.70557 18.5179ZM8.12446 18.5179L8.4167 19.4333H9.3769L8.60039 19.996L8.90098 20.9115L8.12446 20.3488L7.34795 20.9115L7.64853 19.9876L6.87202 19.4249H7.82388L8.12446 18.5179ZM13.535 18.5179L13.8356 19.4333H14.7791L14.0276 19.996L14.3199 20.9115L13.5434 20.3488L12.7752 20.9115L13.0674 19.9876L12.2909 19.4249H13.2511L13.535 18.5179ZM18.9539 18.5179L19.2461 19.4333H20.2063L19.4298 19.996L19.7304 20.9115L18.9539 20.3488L18.1774 20.9115L18.478 19.9876L17.7015 19.4249H18.6533L18.9539 18.5179ZM24.3645 18.5179L24.665 19.4333H25.6169L24.8487 19.996L25.141 20.9115L24.3645 20.3488L23.5963 20.9115L23.8885 19.9876L23.1204 19.4249H24.0722L24.3645 18.5179ZM29.7834 18.5179L30.0756 19.4333H31.0358L30.2593 19.996L30.5599 20.9115L29.7834 20.3488L29.0068 20.9115L29.3074 19.9876L28.5309 19.4249H29.4911L29.7834 18.5179Z" fill="white"/>
</svg>
