<svg width="40" height="40" viewBox="0 0 40 40" fill="none" xmlns="http://www.w3.org/2000/svg">
<path d="M-2 0H66V51H-2V0Z" fill="#DE2910"/>
<path d="M6.16006 18.87L10.75 5.09998L15.34 18.87L3.1001 10.455H18.3999L6.16006 18.87Z" fill="#FFDE00"/>
<path d="M26.0678 5.36385L21.3441 6.41064L24.495 2.739L24.1859 7.68055L21.5646 3.30579L26.0678 5.36385Z" fill="#FFDE00"/>
<path d="M30.8352 11.4057L26.0753 10.5385L30.4035 8.37627L28.2022 12.8112L27.4827 7.76218L30.8352 11.4057Z" fill="#FFDE00"/>
<path d="M30.1407 19.882L26.1484 17.1489L30.9821 16.9399L27.1634 20.0914L28.5657 15.188L30.1407 19.882Z" fill="#FFDE00"/>
<path d="M24.1361 25.4193L21.5092 21.3563L26.0485 23.0305L21.309 24.4625L24.4963 20.4812L24.1361 25.4193Z" fill="#FFDE00"/>
</svg>
