<svg width="45" height="45" viewBox="0 0 45 45" fill="none" xmlns="http://www.w3.org/2000/svg">
<rect width="45" height="45" rx="5" fill="white"/>
<path d="M32.8615 34.8269L28.7127 33.1257L26.9915 37.266L22.5537 26.5866L28.4237 24.1475L32.8615 34.8269Z" fill="#EEEFEE"/>
<path d="M12.1384 34.8269L16.2872 33.1257L18.0085 37.266L22.4462 26.5866L16.5762 24.1475L12.1384 34.8269Z" fill="#EEEFEE"/>
<path d="M33.0387 18.0264C33.0387 18.7833 31.6824 19.3778 31.5214 20.0862C31.3551 20.8174 32.3152 21.9403 31.9967 22.6002C31.6733 23.271 30.1935 23.2182 29.7333 23.7955C29.2732 24.3728 29.6497 25.8047 29.0707 26.267C28.4916 26.7293 27.1849 26.0413 26.5141 26.3651C25.8542 26.6832 25.5761 28.138 24.8445 28.3043C24.1361 28.4653 23.2565 27.2791 22.4992 27.2791C21.742 27.2791 20.8624 28.4653 20.154 28.3043C19.4227 28.138 19.1443 26.6836 18.4844 26.3651C17.8136 26.0416 16.5037 26.7272 15.9278 26.267C15.352 25.8068 15.7274 24.3742 15.2655 23.7955C14.8035 23.2168 13.3259 23.272 13.0025 22.6002C12.6843 21.9403 13.6441 20.8174 13.4778 20.0862C13.3168 19.3778 11.9604 18.7833 11.9604 18.0264C11.9604 17.2694 13.3168 16.6749 13.4778 15.9665C13.6441 15.2353 12.684 14.1124 13.0025 13.4525C13.3259 12.7817 14.8056 12.8345 15.2658 12.2572C15.726 11.6799 15.3495 10.248 15.9285 9.78573C16.5076 9.32342 17.8143 10.0114 18.4851 9.68764C19.145 9.36948 19.4231 7.91471 20.1547 7.74842C20.8631 7.58741 21.7427 8.77358 22.4999 8.77358C23.2572 8.77358 24.1368 7.58741 24.8452 7.74842C25.5765 7.91471 25.8549 9.36913 26.5148 9.68764C27.1856 10.0111 28.4955 9.32553 29.0714 9.78573C29.6472 10.2459 29.2717 11.6785 29.7337 12.2572C30.1957 12.8359 31.6733 12.7807 31.9967 13.4525C32.3149 14.1124 31.3551 15.2353 31.5214 15.9665C31.6824 16.6746 33.0387 17.2691 33.0387 18.0264Z" fill="#FFBF55"/>
<path d="M22.5 25.2066C26.4654 25.2066 29.68 21.992 29.68 18.0266C29.68 14.0613 26.4654 10.8467 22.5 10.8467C18.5346 10.8467 15.3201 14.0613 15.3201 18.0266C15.3201 21.992 18.5346 25.2066 22.5 25.2066Z" fill="#EE7719"/>
<path d="M21.0319 21.6507L18.2141 18.8326L19.2104 17.8363L21.0319 19.6574L25.7892 14.9004L26.7856 15.8967L21.0319 21.6507Z" fill="#EEEFEE"/>
</svg>
