<svg width="45" height="45" viewBox="0 0 45 45" fill="none" xmlns="http://www.w3.org/2000/svg">
<rect width="45" height="45" rx="5" fill="white"/>
<path d="M29.4476 35.2269C26.9306 36.5666 24.073 37.1298 21.2359 36.8454C18.3989 36.561 15.7099 35.4417 13.509 33.629C11.3081 31.8163 9.69417 29.3917 8.87127 26.6618C8.04836 23.9319 8.05346 21.0192 8.88592 18.2922C9.71838 15.5652 11.3408 13.1462 13.548 11.3413C15.7553 9.53631 18.4481 8.42641 21.2862 8.15193C24.1242 7.87744 26.9799 8.45069 29.4921 9.79919C32.0043 11.1477 34.0602 13.2109 35.3999 15.7278L33.7851 16.587C32.6158 14.3895 30.8211 12.588 28.6279 11.4105C26.4347 10.233 23.9416 9.73225 21.4638 9.97166C18.9861 10.2111 16.6349 11.1799 14.7078 12.7555C12.7806 14.3312 11.364 16.4429 10.637 18.8237C9.91002 21.2045 9.90537 23.7474 10.6236 26.1308C11.3419 28.5142 12.7508 30.6311 14.6722 32.2138C16.5936 33.7965 18.9412 34.7739 21.418 35.0223C23.8949 35.2708 26.3898 34.7792 28.5873 33.6097L29.4476 35.2269Z" fill="#EE7719"/>
<path d="M36.7401 14.041L36.2258 19.2245L31.6372 16.7572L36.7401 14.041Z" fill="#EE7719"/>
<path d="M22.0137 23.3027C22.0137 23.9362 21.8291 24.4648 21.46 24.8887C21.0908 25.3079 20.5713 25.5905 19.9014 25.7363V25.791C20.7035 25.8913 21.305 26.1419 21.7061 26.543C22.1071 26.9395 22.3076 27.4681 22.3076 28.1289C22.3076 29.0905 21.9681 29.8333 21.2891 30.3574C20.61 30.877 19.6439 31.1367 18.3906 31.1367C17.2832 31.1367 16.349 30.9567 15.5879 30.5967V29.168C16.0117 29.3776 16.4606 29.5394 16.9346 29.6533C17.4085 29.7673 17.8643 29.8242 18.3018 29.8242C19.0765 29.8242 19.6553 29.6807 20.0381 29.3936C20.4209 29.1064 20.6123 28.6621 20.6123 28.0605C20.6123 27.5273 20.4004 27.1354 19.9766 26.8848C19.5527 26.6341 18.8874 26.5088 17.9805 26.5088H17.1123V25.2031H17.9941C19.5892 25.2031 20.3867 24.6517 20.3867 23.5488C20.3867 23.1204 20.2477 22.79 19.9697 22.5576C19.6917 22.3252 19.2816 22.209 18.7393 22.209C18.361 22.209 17.9964 22.2637 17.6455 22.373C17.2946 22.4779 16.8799 22.6852 16.4014 22.9951L15.6152 21.874C16.5312 21.1995 17.5954 20.8623 18.8076 20.8623C19.8148 20.8623 20.6009 21.0788 21.166 21.5117C21.7311 21.9447 22.0137 22.5417 22.0137 23.3027ZM23.6406 26.7412C23.6406 22.8311 25.2334 20.876 28.4189 20.876C28.9202 20.876 29.3441 20.9147 29.6904 20.9922V22.332C29.3441 22.2318 28.943 22.1816 28.4873 22.1816C27.4163 22.1816 26.612 22.4688 26.0742 23.043C25.5365 23.6172 25.2448 24.5378 25.1992 25.8047H25.2812C25.4954 25.4355 25.7962 25.1507 26.1836 24.9502C26.571 24.7451 27.0267 24.6426 27.5508 24.6426C28.4577 24.6426 29.1641 24.9206 29.6699 25.4766C30.1758 26.0326 30.4287 26.7868 30.4287 27.7393C30.4287 28.7874 30.1348 29.6169 29.5469 30.2275C28.9635 30.8337 28.166 31.1367 27.1543 31.1367C26.4388 31.1367 25.8167 30.9658 25.2881 30.624C24.7594 30.2777 24.3516 29.7764 24.0645 29.1201C23.7819 28.4593 23.6406 27.6663 23.6406 26.7412ZM27.127 29.8105C27.6784 29.8105 28.1022 29.6328 28.3984 29.2773C28.6992 28.9219 28.8496 28.4137 28.8496 27.7529C28.8496 27.1787 28.7083 26.7275 28.4258 26.3994C28.1478 26.0713 27.7285 25.9072 27.168 25.9072C26.8216 25.9072 26.5026 25.9824 26.2109 26.1328C25.9193 26.2786 25.6891 26.4814 25.5205 26.7412C25.3519 26.9964 25.2676 27.2585 25.2676 27.5273C25.2676 28.1699 25.4408 28.7122 25.7871 29.1543C26.138 29.5918 26.5846 29.8105 27.127 29.8105ZM38.3857 26.0029C38.3857 27.7393 38.1055 29.029 37.5449 29.8721C36.9889 30.7152 36.1367 31.1367 34.9883 31.1367C33.8763 31.1367 33.0332 30.7015 32.459 29.8311C31.8848 28.9606 31.5977 27.6846 31.5977 26.0029C31.5977 24.2393 31.8757 22.9404 32.4316 22.1064C32.9922 21.2679 33.8444 20.8486 34.9883 20.8486C36.1048 20.8486 36.9502 21.2861 37.5244 22.1611C38.0986 23.0361 38.3857 24.3167 38.3857 26.0029ZM33.2246 26.0029C33.2246 27.3656 33.3636 28.3385 33.6416 28.9219C33.9242 29.5052 34.373 29.7969 34.9883 29.7969C35.6035 29.7969 36.0524 29.5007 36.335 28.9082C36.6221 28.3158 36.7656 27.3473 36.7656 26.0029C36.7656 24.6631 36.6221 23.6947 36.335 23.0977C36.0524 22.4961 35.6035 22.1953 34.9883 22.1953C34.373 22.1953 33.9242 22.4893 33.6416 23.0771C33.3636 23.665 33.2246 24.6403 33.2246 26.0029Z" fill="#538742"/>
</svg>
