<svg width="45" height="45" viewBox="0 0 45 45" fill="none" xmlns="http://www.w3.org/2000/svg">
<rect width="45" height="45" rx="5" fill="white"/>
<path d="M36.3255 21.8774V26.7008H26.4607V16.251H31.7169L32.5832 17.306L36.3255 21.8774Z" fill="#F6C863"/>
<path d="M26.4597 15.1974V26.7009H8.67236V15.1974C8.67236 15.1002 8.69151 15.0039 8.72872 14.9141C8.76593 14.8243 8.82047 14.7426 8.88922 14.6739C8.95797 14.6051 9.03959 14.5506 9.12942 14.5134C9.21925 14.4762 9.31552 14.457 9.41275 14.457H25.7193C25.9156 14.457 26.104 14.535 26.2428 14.6739C26.3817 14.8127 26.4597 15.0011 26.4597 15.1974Z" fill="#EEEFEE"/>
<path d="M35.0084 21.8801L27.281 21.8998C27.2344 21.8998 27.1897 21.8812 27.1567 21.8483C27.1237 21.8153 27.1052 21.7706 27.1052 21.724V17.3115C27.1052 17.2649 27.1237 17.2202 27.1567 17.1872C27.1897 17.1543 27.2344 17.1357 27.281 17.1357H31.453C31.4793 17.1357 31.5053 17.1415 31.529 17.1529C31.5527 17.1642 31.5736 17.1807 31.5901 17.2011L35.1448 21.5932C35.1658 21.619 35.1791 21.6502 35.1831 21.6832C35.187 21.7163 35.1816 21.7497 35.1673 21.7798C35.153 21.8098 35.1305 21.8352 35.1024 21.853C35.0742 21.8707 35.0416 21.8801 35.0084 21.8801Z" fill="#575B6D"/>
<path d="M34.4918 21.459L31.1133 21.466H31.1098L29.6086 21.473H28.3781L27.9809 21.4766H27.5273V17.5566H31.3348L31.6336 17.9258L32.5125 19.0121L34.4918 21.459Z" fill="#69B0EE"/>
<path d="M29.422 22.876H28.2597C28.1023 22.876 27.9746 23.0036 27.9746 23.1611V23.191C27.9746 23.3484 28.1023 23.4761 28.2597 23.4761H29.422C29.5795 23.4761 29.7071 23.3484 29.7071 23.191V23.1611C29.7071 23.0036 29.5795 22.876 29.422 22.876Z" fill="#575B6D"/>
<path d="M36.3255 24.6762V23.0625H35.2617C35.2283 23.0627 35.1955 23.0708 35.1658 23.0862C35.1362 23.1016 35.1106 23.1237 35.0912 23.1509C35.0718 23.1781 35.0592 23.2095 35.0543 23.2425C35.0494 23.2756 35.0524 23.3093 35.0631 23.3409L35.4737 24.5334C35.4882 24.5745 35.5151 24.6101 35.5507 24.6353C35.5863 24.6605 35.6288 24.674 35.6723 24.6741L36.3255 24.6762Z" fill="#EAB54E"/>
<path d="M36.3255 25.209V25.8066H35.6576C35.6272 25.8065 35.5982 25.7943 35.5767 25.7729C35.5553 25.7514 35.5432 25.7224 35.543 25.692V25.3239C35.5432 25.2936 35.5553 25.2646 35.5767 25.2431C35.5982 25.2217 35.6272 25.2095 35.6576 25.2093L36.3255 25.209Z" fill="#EF5261"/>
<path d="M36.9141 26.7886V27.6113C36.9139 27.7075 36.8756 27.7996 36.8076 27.8676C36.7396 27.9356 36.6474 27.9739 36.5513 27.9741H8.44489C8.39748 27.9739 8.35057 27.9644 8.30685 27.946C8.26313 27.9277 8.22347 27.9009 8.19012 27.8672C8.15678 27.8335 8.13041 27.7935 8.11253 27.7496C8.09466 27.7057 8.08562 27.6587 8.08595 27.6113V26.7886C8.08571 26.7414 8.09484 26.6947 8.11279 26.651C8.13075 26.6073 8.15718 26.5677 8.19056 26.5343C8.22394 26.5009 8.2636 26.4745 8.30725 26.4565C8.35091 26.4386 8.39769 26.4295 8.44489 26.4297H36.5513C36.5987 26.4294 36.6457 26.4384 36.6896 26.4563C36.7335 26.4742 36.7735 26.5005 36.8072 26.5339C36.8409 26.5672 36.8677 26.6069 36.886 26.6506C36.9044 26.6943 36.9139 26.7412 36.9141 26.7886Z" fill="#62667C"/>
<path d="M16.8399 27.7733C16.8399 27.8401 16.8361 27.9069 16.8322 27.9737H10.2165C10.2126 27.9069 10.2088 27.8401 10.2088 27.7733C10.2075 27.2753 10.3203 26.7835 10.5385 26.3358C10.8095 25.7743 11.2334 25.3007 11.7615 24.9692C12.2895 24.6377 12.9003 24.4619 13.5238 24.4619C14.1473 24.4619 14.7581 24.6377 15.2862 24.9692C15.8142 25.3007 16.2381 25.7743 16.5091 26.3358C16.7277 26.7834 16.8409 27.2752 16.8399 27.7733Z" fill="#62667C"/>
<path d="M16.2773 27.7875C16.2777 28.3323 16.1165 28.8648 15.8141 29.318C15.5118 29.7711 15.0819 30.1243 14.5788 30.3331C14.0757 30.5419 13.5219 30.5968 12.9876 30.4909C12.4533 30.3849 11.9624 30.1229 11.577 29.738C11.1915 29.3531 10.9289 28.8625 10.8223 28.3283C10.7157 27.7941 10.7699 27.2403 10.978 26.737C11.1862 26.2336 11.5389 25.8032 11.9916 25.5003C12.4443 25.1974 12.9767 25.0355 13.5214 25.0352C13.8831 25.0349 14.2413 25.1059 14.5756 25.244C14.9098 25.3822 15.2136 25.5849 15.4695 25.8405C15.7254 26.0961 15.9285 26.3996 16.0671 26.7337C16.2057 27.0677 16.2771 27.4258 16.2773 27.7875Z" fill="#414451"/>
<path d="M13.5229 29.309C14.3631 29.309 15.0441 28.628 15.0441 27.7878C15.0441 26.9477 14.3631 26.2666 13.5229 26.2666C12.6828 26.2666 12.0017 26.9477 12.0017 27.7878C12.0017 28.628 12.6828 29.309 13.5229 29.309Z" fill="#EEEFEE"/>
<path d="M13.5228 28.1989C13.7498 28.1989 13.9338 28.0149 13.9338 27.7879C13.9338 27.561 13.7498 27.377 13.5228 27.377C13.2958 27.377 13.1118 27.561 13.1118 27.7879C13.1118 28.0149 13.2958 28.1989 13.5228 28.1989Z" fill="#575B6D"/>
<path d="M35.0507 27.7733C35.0507 27.8401 35.0468 27.9069 35.0429 27.9737H28.4286C28.4248 27.9069 28.4209 27.8401 28.4209 27.7733C28.4196 27.2753 28.5324 26.7835 28.7507 26.3358C29.0217 25.7743 29.4456 25.3007 29.9736 24.9692C30.5017 24.6377 31.1125 24.4619 31.736 24.4619C32.3594 24.4619 32.9702 24.6377 33.4983 24.9692C34.0264 25.3007 34.4502 25.7743 34.7212 26.3358C34.9393 26.7835 35.052 27.2753 35.0507 27.7733Z" fill="#62667C"/>
<path d="M34.4905 27.7875C34.4908 28.3323 34.3296 28.8648 34.0273 29.318C33.7249 29.7711 33.295 30.1243 32.7919 30.3331C32.2888 30.5419 31.7351 30.5968 31.2007 30.4909C30.6664 30.3849 30.1755 30.1229 29.7901 29.738C29.4047 29.3531 29.1421 28.8625 29.0354 28.3283C28.9288 27.7941 28.983 27.2403 29.1912 26.737C29.3993 26.2336 29.752 25.8032 30.2047 25.5003C30.6575 25.1974 31.1898 25.0355 31.7346 25.0352C32.0962 25.0349 32.4545 25.1059 32.7887 25.244C33.123 25.3822 33.4267 25.5849 33.6826 25.8405C33.9386 26.0961 34.1416 26.3996 34.2802 26.7337C34.4188 27.0677 34.4903 27.4258 34.4905 27.7875Z" fill="#414451"/>
<path d="M31.7351 29.309C32.5752 29.309 33.2563 28.628 33.2563 27.7878C33.2563 26.9477 32.5752 26.2666 31.7351 26.2666C30.8949 26.2666 30.2139 26.9477 30.2139 27.7878C30.2139 28.628 30.8949 29.309 31.7351 29.309Z" fill="#EEEFEE"/>
<path d="M31.7352 28.1989C31.9622 28.1989 32.1462 28.0149 32.1462 27.7879C32.1462 27.561 31.9622 27.377 31.7352 27.377C31.5082 27.377 31.3242 27.561 31.3242 27.7879C31.3242 28.0149 31.5082 28.1989 31.7352 28.1989Z" fill="#575B6D"/>
<path d="M24.0458 16.251H11.0862C10.9339 16.251 10.8105 16.3744 10.8105 16.5266V16.5561C10.8105 16.7084 10.9339 16.8318 11.0862 16.8318H24.0458C24.198 16.8318 24.3214 16.7084 24.3214 16.5561V16.5266C24.3214 16.3744 24.198 16.251 24.0458 16.251Z" fill="#DBD8DD"/>
<path d="M24.0458 18.9307H11.0862C10.9339 18.9307 10.8105 19.0541 10.8105 19.2063V19.2358C10.8105 19.388 10.9339 19.5114 11.0862 19.5114H24.0458C24.198 19.5114 24.3214 19.388 24.3214 19.2358V19.2063C24.3214 19.0541 24.198 18.9307 24.0458 18.9307Z" fill="#DBD8DD"/>
<path d="M24.0458 21.6094H11.0862C10.9339 21.6094 10.8105 21.7328 10.8105 21.885V21.9145C10.8105 22.0668 10.9339 22.1902 11.0862 22.1902H24.0458C24.198 22.1902 24.3214 22.0668 24.3214 21.9145V21.885C24.3214 21.7328 24.198 21.6094 24.0458 21.6094Z" fill="#DBD8DD"/>
<g opacity="0.5">
<path opacity="0.5" d="M30.6142 17.5566L28.3782 21.473L27.981 21.4766L30.2204 17.5566H30.6142Z" fill="#EEEFEE"/>
<path opacity="0.5" d="M32.5125 19.0121L31.1133 21.466H31.1098L29.6086 21.473L31.6336 17.9258L32.5125 19.0121Z" fill="#EEEFEE"/>
</g>
</svg>
