<svg width="102" height="29" viewBox="0 0 102 29" fill="none" xmlns="http://www.w3.org/2000/svg">
<g clip-path="url(#clip0)">
<path fill-rule="evenodd" clip-rule="evenodd" d="M27.7101 0.848633V0.860743C27.6977 0.860743 23.7715 0.848633 22.7247 4.49369C21.7649 7.836 19.0601 17.0637 18.9855 17.3181H18.2376C18.2376 17.3181 15.4706 7.88445 14.4984 4.48159C13.4514 0.836523 9.51285 0.848633 9.51285 0.848633H0.538818V28.5802H9.51285V12.1108H9.88675H10.2607L15.4955 28.5802H21.7276L26.9623 12.1229H27.7101V28.5802H36.6842V0.848633H27.7101Z" fill="#4DB45E"/>
<path fill-rule="evenodd" clip-rule="evenodd" d="M60.4904 0.848633C60.4904 0.848633 57.8607 1.07872 56.6267 3.75499L50.2701 17.3181H49.5222V0.848633H40.5482V28.5802H49.0237C49.0237 28.5802 51.7782 28.3379 53.0122 25.6738L59.244 12.1108H59.9919V28.5802H68.966V0.848633H60.4904Z" fill="#4DB45E"/>
<path fill-rule="evenodd" clip-rule="evenodd" d="M72.9543 13.4424V28.5796H81.9282V19.7395H91.6502C95.8878 19.7395 99.4775 17.1116 100.811 13.4424H72.9543Z" fill="#4DB45E"/>
<path fill-rule="evenodd" clip-rule="evenodd" d="M91.6503 0.848633H71.6955C72.6926 6.12852 76.7683 10.367 82.0406 11.7475C83.2371 12.0623 84.496 12.2319 85.7922 12.2319H101.173C101.31 11.6022 101.372 10.9604 101.372 10.2943C101.372 5.07497 97.0222 0.848633 91.6503 0.848633Z" fill="url(#paint0_linear)"/>
</g>
<defs>
<linearGradient id="paint0_linear" x1="71.6979" y1="6.54025" x2="101.372" y2="6.54025" gradientUnits="userSpaceOnUse">
<stop offset="0.3" stop-color="#00B4E6"/>
<stop offset="1" stop-color="#088CCB"/>
</linearGradient>
<clipPath id="clip0">
<rect width="101.682" height="28.5981" fill="white" transform="translate(0.317749)"/>
</clipPath>
</defs>
</svg>
