<svg width="80" height="26" viewBox="0 0 80 26" fill="none" xmlns="http://www.w3.org/2000/svg">
<path d="M52.4195 11.6728C60.2582 10.8634 58.9897 5.45201 55.1097 5.56019C50.6132 5.66836 48.134 10.8634 48.134 14.7825C48.134 17.2588 49.71 19.3129 52.6111 19.3129C55.5894 19.3129 58.0478 17.3357 57.819 14.4228C57.6066 11.8696 54.5099 11.33 52.3229 12.0325L52.4195 11.6728ZM54.4175 7.9153C54.8987 7.9153 54.9166 8.16684 54.8987 8.40014C54.7441 9.49753 52.8428 10.3069 52.8428 10.3069C53.0331 9.67608 53.5915 7.9153 54.4175 7.9153ZM53.1295 13.5196C54.0948 13.6825 54.398 14.3107 54.3401 15.2817C54.3209 15.8031 53.8411 17.2771 52.8413 17.2771C51.4392 17.2771 51.861 14.4189 52.0141 13.6278C52.3755 13.5264 52.7541 13.491 53.1295 13.5235V13.5196Z" fill="white"/>
<path d="M47.2108 9.96388H47.2314C44.2353 9.38911 41.5258 9.42431 38.8743 9.96388C38.8515 9.96619 38.8306 9.97694 38.8161 9.99378C38.8017 10.0106 38.7949 10.0322 38.7971 10.0538C38.7971 10.0538 38.4318 12.9485 37.8554 14.3548C36.7592 16.9418 35.5679 17.0723 35.5292 17.4072C35.4714 17.7838 35.9512 19.3843 37.7354 19.3843C39.2921 19.3843 40.369 18.4498 40.9454 16.2929C41.3429 14.7612 41.574 13.1951 41.6348 11.6191H43.1915C42.8454 14.2805 42.2264 18.9008 42.2264 18.9008C42.2264 18.9908 42.3035 18.9908 42.3035 18.9908H46.0112C46.0112 18.9908 46.0884 18.9908 46.0884 18.9008C46.0884 18.9008 47.2024 10.4513 47.2603 10.0382C47.2686 9.98213 47.2314 9.96388 47.2108 9.96388Z" fill="white"/>
<path d="M34.8763 9.80176H31.0335C31.0335 9.80176 30.919 9.82001 30.919 9.90994C30.919 9.90994 30.8418 10.3961 30.7454 11.1507C30.2847 10.1445 29.4396 9.44336 28.1132 9.44336C25.5967 9.44336 23.9435 11.6368 23.6181 14.0988C23.2913 16.5073 24.3076 19.2222 26.7301 19.2222C28.0745 19.2222 29.2272 18.3594 30.0394 17.1916C30.1166 18.4676 31.0583 19.2405 32.3833 19.2405C33.4588 19.2405 34.5895 18.5393 34.8653 17.9631C35.1148 17.4783 33.7319 18.0935 34.0973 15.2262C34.2696 13.9854 34.9425 9.88258 34.9425 9.88258C34.9414 9.86435 34.9346 9.84685 34.9228 9.83243C34.911 9.81799 34.8948 9.8073 34.8763 9.80176ZM30.464 14.3152C30.2917 15.6628 29.6367 16.7419 28.6963 16.7419C27.7561 16.7419 27.41 15.6628 27.5823 14.3152C27.7546 12.9675 28.3889 11.8701 29.3306 11.8701C30.2724 11.8701 30.6308 12.9662 30.4572 14.3152H30.464Z" fill="white"/>
<path d="M24.194 8.36538C24.2312 6.76489 23.0206 5.52544 21.0998 5.68704C19.3323 5.83041 18.7945 6.94475 18.9296 7.07117C19.3323 7.43089 20.4656 9.91112 18.4871 10.9903L16.4836 6.22532C16.4836 6.22532 16.4449 6.11844 16.3457 6.11844H11.4936C11.3391 6.11844 11.3777 6.24878 11.3777 6.24878L14.4898 12.0564C11.7624 12.7928 9.62936 14.68 9.51354 16.5321C9.4184 18.1142 10.629 19.3902 12.3002 19.3902C14.0678 19.3902 15.0482 17.9162 14.8938 17.6829C14.5284 17.3232 13.5149 15.3812 15.3543 14.1639L17.4226 18.9106C17.4284 18.9357 17.4429 18.9582 17.464 18.9745C17.485 18.9907 17.5112 18.9999 17.5384 19.0005H22.7256C22.8413 19.0005 22.7836 18.9106 22.7836 18.9106L19.4205 12.9414C22.214 12.1581 24.154 10.2526 24.194 8.36538Z" fill="white"/>
<path d="M70.0959 9.80209H66.2599C66.2599 9.80209 66.1442 9.82034 66.1442 9.91027C66.1442 9.91027 66.0683 10.3965 65.9718 11.1511C65.51 10.1449 64.6647 9.44238 63.3396 9.44238C60.8219 9.44238 59.1701 11.6359 58.8432 14.0992C58.5164 16.5077 59.5327 19.2226 61.9552 19.2226C63.301 19.2226 64.4537 18.3599 65.2645 17.1908C65.3417 18.468 66.2834 19.2408 67.6085 19.2408C68.6853 19.2408 69.8146 18.5397 70.0904 17.9636C70.3399 17.4788 68.957 18.0939 69.3224 15.2266C69.4947 13.9858 70.1676 9.88289 70.1676 9.88289C70.1661 9.864 70.1585 9.84602 70.1456 9.83152C70.1327 9.81701 70.1153 9.80671 70.0959 9.80209ZM65.6768 14.3142C65.503 15.6632 64.8495 16.7423 63.9091 16.7423C62.9687 16.7423 62.6212 15.6632 62.7949 14.3142C62.9687 12.9653 63.6015 11.8705 64.5434 11.8705C65.4851 11.8705 65.8464 12.9666 65.6768 14.3142Z" fill="white"/>
<path d="M29.3233 11.8701C28.3814 11.8701 27.7486 12.9662 27.5749 14.3151C27.4011 15.664 27.7486 16.7419 28.689 16.7419C29.6293 16.7419 30.2842 15.6627 30.4566 14.3151C30.629 12.9675 30.2719 11.8701 29.3233 11.8701Z" fill="#FF4D4F"/>
<path d="M65.7082 0.388672H14.0018C6.38506 0.388672 0.213379 5.94214 0.213379 12.7925C0.213379 19.6428 6.38643 25.1962 14.0018 25.1962H65.7082C73.3235 25.1962 79.4965 19.644 79.4965 12.7925C79.4965 5.94084 73.3235 0.388672 65.7082 0.388672ZM22.7905 18.896C22.7905 18.896 22.8484 18.9859 22.7325 18.9859H17.5453C17.5181 18.9853 17.4921 18.9761 17.4711 18.9598C17.45 18.9435 17.4355 18.9211 17.4295 18.896L15.3613 14.1492C13.5178 15.3717 14.534 17.3136 14.9008 17.6682C15.0552 17.9016 14.0735 19.3756 12.3072 19.3756C10.636 19.3756 9.42539 18.0996 9.52053 16.5174C9.63636 14.6653 11.7694 12.7781 14.4968 12.0417L11.382 6.2419C11.382 6.2419 11.3434 6.11158 11.4978 6.11158H16.3582C16.4548 6.11158 16.496 6.21844 16.496 6.21844L18.494 10.9834C20.4727 9.90425 19.3392 7.42402 18.9367 7.0643C18.7988 6.93398 19.3392 5.82353 21.1069 5.68018C23.0277 5.51857 24.2383 6.75802 24.2011 8.3585C24.1611 10.2458 22.2209 12.1512 19.4344 12.9202L22.7905 18.896ZM34.0886 15.2284C33.7233 18.0866 35.1062 17.4753 34.8567 17.9653C34.5878 18.5415 33.4544 19.2425 32.3748 19.2425C31.0484 19.2425 30.1065 18.4697 30.0308 17.1937C29.2241 18.3668 28.0714 19.2243 26.7215 19.2243C24.3002 19.2243 23.2827 16.5095 23.6095 14.101C23.9349 11.639 25.5882 9.44549 28.1045 9.44549C29.431 9.44549 30.2761 10.1467 30.7367 11.1529C30.8332 10.3982 30.9104 9.91206 30.9104 9.91206C30.9104 9.82213 31.0249 9.80389 31.0249 9.80389H34.8677C34.8862 9.81123 34.9017 9.82386 34.9121 9.84001C34.9224 9.85615 34.9271 9.87497 34.9257 9.89382C34.9257 9.89382 34.2527 13.9928 34.0804 15.2375L34.0886 15.2284ZM47.2689 10.0333C47.211 10.4465 46.097 18.896 46.097 18.896C46.097 18.9859 46.0198 18.9859 46.0198 18.9859H42.3121C42.3121 18.9859 42.2349 18.9859 42.2349 18.896C42.2349 18.896 42.8498 14.2756 43.2001 11.6142H41.6392C41.5785 13.1903 41.3474 14.7563 40.9497 16.288C40.3734 18.445 39.2951 19.3794 37.7399 19.3794C35.9473 19.3794 35.473 17.779 35.5337 17.4024C35.5722 17.0608 36.7636 16.9344 37.8585 14.346C38.4348 12.9436 38.8002 10.0451 38.8002 10.0451C38.7979 10.0235 38.8047 10.0019 38.8191 9.98498C38.8337 9.96813 38.8545 9.95738 38.8773 9.95508C41.5288 9.41551 44.2383 9.38032 47.2344 9.95508H47.2152C47.2359 9.95508 47.2731 9.97333 47.2731 10.0281L47.2689 10.0333ZM57.8184 14.419C58.0474 17.332 55.5889 19.3091 52.6106 19.3091C49.715 19.3091 48.1336 17.2589 48.1336 14.7787C48.1336 10.8596 50.6155 5.66453 55.109 5.55636C58.9891 5.44818 60.2576 10.8596 52.4189 11.669L52.3225 12.0274C54.5134 11.3288 57.6061 11.8684 57.8184 14.4216V14.419ZM69.3083 15.2284C68.943 18.0866 70.3259 17.4753 70.0762 17.9653C69.8075 18.5415 68.6741 19.2425 67.5944 19.2425C66.2694 19.2425 65.3277 18.4697 65.2503 17.1925C64.4437 18.3654 63.2911 19.2243 61.9411 19.2243C59.5199 19.2243 58.5024 16.5095 58.8292 14.101C59.1559 11.6377 60.8077 9.44417 63.3255 9.44417C64.6505 9.44417 65.4958 10.1467 65.9577 11.1529C66.0543 10.3982 66.13 9.91206 66.13 9.91206C66.13 9.82213 66.2459 9.80389 66.2459 9.80389H70.0887C70.1071 9.81123 70.1227 9.82386 70.133 9.84001C70.1434 9.85615 70.1482 9.87497 70.1466 9.89382C70.1466 9.89382 69.4737 13.9928 69.3014 15.2375L69.3083 15.2284Z" fill="#FF4D4F"/>
<path d="M54.8977 8.3989C54.9156 8.1656 54.8977 7.91406 54.4165 7.91406C53.5892 7.91406 53.0377 9.67485 52.8418 10.3057C52.8418 10.3057 54.7433 9.49629 54.8977 8.3989Z" fill="#FF4D4F"/>
<path d="M64.5432 11.8701C63.6015 11.8701 62.9672 12.9662 62.7949 14.3138C62.6226 15.6614 62.9672 16.7419 63.9091 16.7419C64.8508 16.7419 65.503 15.6627 65.6766 14.3138C65.8504 12.9649 65.485 11.8701 64.5432 11.8701Z" fill="#FF4D4F"/>
<path d="M52.841 17.2806C53.8406 17.2806 54.3205 15.8077 54.3398 15.2852C54.3977 14.3142 54.0901 13.686 53.1292 13.5231C52.7538 13.4924 52.3757 13.5295 52.015 13.6325C51.8606 14.4224 51.4387 17.2806 52.841 17.2806Z" fill="#FF4D4F"/>
</svg>
