<svg width="53" height="42" viewBox="0 0 53 42" fill="none" xmlns="http://www.w3.org/2000/svg">
<g clip-path="url(#clip0)">
<path d="M51.3956 40.7479V40.8553H51.4935C51.5151 40.8553 51.5337 40.8502 51.5471 40.8418C51.5594 40.8335 51.5666 40.8189 51.5666 40.8011C51.5666 40.7833 51.5594 40.7698 51.5471 40.7614C51.5337 40.752 51.5151 40.7479 51.4935 40.7479H51.3956ZM51.4945 40.6727C51.545 40.6727 51.5842 40.6842 51.612 40.7072C51.6398 40.7301 51.6532 40.7614 51.6532 40.8011C51.6532 40.8345 51.6429 40.8616 51.6203 40.8836C51.5985 40.9044 51.5677 40.918 51.5264 40.9231L51.6564 41.0745H51.5553L51.4347 40.9242H51.3956V41.0745H51.3111V40.6727H51.4945ZM51.4687 41.2132C51.5151 41.2132 51.5583 41.2039 51.5976 41.1862C51.6378 41.1684 51.6727 41.1444 51.7026 41.1141C51.7326 41.0839 51.7563 41.0485 51.7738 41.0067C51.7903 40.966 51.7995 40.9222 51.7995 40.8751C51.7995 40.8283 51.7903 40.7844 51.7738 40.7438C51.7563 40.7031 51.7326 40.6665 51.7026 40.6362C51.6727 40.606 51.6378 40.582 51.5976 40.5642C51.5583 40.5475 51.5151 40.5391 51.4687 40.5391C51.4223 40.5391 51.378 40.5475 51.338 40.5642C51.2967 40.582 51.2606 40.606 51.2307 40.6362C51.2009 40.6665 51.1772 40.7031 51.1607 40.7438C51.1432 40.7844 51.1349 40.8283 51.1349 40.8751C51.1349 40.9222 51.1432 40.966 51.1607 41.0067C51.1772 41.0485 51.2009 41.0839 51.2307 41.1141C51.2606 41.1444 51.2967 41.1684 51.338 41.1862C51.378 41.2039 51.4223 41.2132 51.4687 41.2132ZM51.4687 40.4422C51.5296 40.4422 51.5852 40.4536 51.6387 40.4765C51.6913 40.4984 51.7368 40.5297 51.7768 40.5695C51.816 40.6081 51.847 40.654 51.8696 40.7072C51.8923 40.7593 51.9036 40.8157 51.9036 40.8751C51.9036 40.9347 51.8923 40.991 51.8696 41.0432C51.847 41.0954 51.816 41.1413 51.7768 41.181C51.7368 41.2196 51.6913 41.2509 51.6387 41.2738C51.5852 41.2968 51.5296 41.3083 51.4687 41.3083C51.4069 41.3083 51.3502 41.2968 51.2967 41.2738C51.2431 41.2509 51.1967 41.2196 51.1575 41.181C51.1184 41.1413 51.0874 41.0954 51.0649 41.0432C51.0421 40.991 51.0309 40.9347 51.0309 40.8751C51.0309 40.8157 51.0421 40.7593 51.0649 40.7072C51.0874 40.654 51.1184 40.6081 51.1575 40.5695C51.1967 40.5297 51.2431 40.4984 51.2967 40.4765C51.3502 40.4536 51.4069 40.4422 51.4687 40.4422ZM11.321 38.8946C11.321 38.1286 11.8166 37.4995 12.6265 37.4995C13.4004 37.4995 13.9229 38.1016 13.9229 38.8946C13.9229 39.6877 13.4004 40.2898 12.6265 40.2898C11.8166 40.2898 11.321 39.6605 11.321 38.8946ZM14.8049 38.8946V36.7157H13.8693V37.2448C13.5725 36.8525 13.1222 36.6062 12.5101 36.6062C11.3034 36.6062 10.3575 37.5641 10.3575 38.8946C10.3575 40.2261 11.3034 41.1831 12.5101 41.1831C13.1222 41.1831 13.5725 40.9368 13.8693 40.5444V41.0734H14.8049V38.8946ZM46.4235 38.8946C46.4235 38.1286 46.9192 37.4995 47.7292 37.4995C48.5041 37.4995 49.0255 38.1016 49.0255 38.8946C49.0255 39.6877 48.5041 40.2898 47.7292 40.2898C46.9192 40.2898 46.4235 39.6605 46.4235 38.8946ZM49.9087 38.8946V34.9658H48.972V37.2448C48.6752 36.8525 48.2249 36.6062 47.6127 36.6062C46.4061 36.6062 45.4601 37.5641 45.4601 38.8946C45.4601 40.2261 46.4061 41.1831 47.6127 41.1831C48.2249 41.1831 48.6752 40.9368 48.972 40.5444V41.0734H49.9087V38.8946ZM26.4193 37.4545C27.0221 37.4545 27.4096 37.8375 27.5084 38.5117H25.2754C25.3755 37.8824 25.7525 37.4545 26.4193 37.4545ZM26.4379 36.6062C25.1766 36.6062 24.2945 37.536 24.2945 38.8946C24.2945 40.2805 25.2126 41.1831 26.5007 41.1831C27.1489 41.1831 27.7425 41.0193 28.2648 40.5726L27.8063 39.8702C27.4457 40.1615 26.986 40.3264 26.5542 40.3264C25.9514 40.3264 25.4022 40.0436 25.2673 39.2587H28.4626C28.472 39.1408 28.4812 39.022 28.4812 38.8946C28.472 37.536 27.6435 36.6062 26.4379 36.6062ZM37.7357 38.8946C37.7357 38.1286 38.2314 37.4995 39.0414 37.4995C39.8153 37.4995 40.3377 38.1016 40.3377 38.8946C40.3377 39.6877 39.8153 40.2898 39.0414 40.2898C38.2314 40.2898 37.7357 39.6605 37.7357 38.8946ZM41.2198 38.8946V36.7157H40.2842V37.2448C39.9863 36.8525 39.5371 36.6062 38.925 36.6062C37.7183 36.6062 36.7723 37.5641 36.7723 38.8946C36.7723 40.2261 37.7183 41.1831 38.925 41.1831C39.5371 41.1831 39.9863 40.9368 40.2842 40.5444V41.0734H41.2198V38.8946ZM32.4516 38.8946C32.4516 40.2168 33.3604 41.1831 34.7474 41.1831C35.3956 41.1831 35.8275 41.0369 36.2952 40.6634L35.8459 39.8974C35.4946 40.153 35.1257 40.2898 34.7196 40.2898C33.9726 40.2805 33.4233 39.7336 33.4233 38.8946C33.4233 38.0557 33.9726 37.5088 34.7196 37.4995C35.1257 37.4995 35.4946 37.6361 35.8459 37.8917L36.2952 37.1259C35.8275 36.7523 35.3956 36.6062 34.7474 36.6062C33.3604 36.6062 32.4516 37.5725 32.4516 38.8946ZM44.5153 36.6062C43.9752 36.6062 43.6238 36.8619 43.3807 37.2448V36.7157H42.4533V41.0734H43.3899V38.6307C43.3899 37.9095 43.6959 37.5088 44.3081 37.5088C44.4976 37.5088 44.6956 37.536 44.8934 37.6185L45.1819 36.7251C44.9747 36.6428 44.7048 36.6062 44.5153 36.6062ZM19.4328 37.0622C18.9824 36.7616 18.3621 36.6062 17.6778 36.6062C16.5876 36.6062 15.8859 37.1353 15.8859 38.0014C15.8859 38.712 16.4084 39.1502 17.3709 39.287L17.8129 39.3505C18.326 39.4236 18.5682 39.5604 18.5682 39.8067C18.5682 40.1437 18.2261 40.3358 17.5873 40.3358C16.939 40.3358 16.4711 40.1259 16.1559 39.8796L15.7148 40.6174C16.228 41.0003 16.8761 41.1831 17.5779 41.1831C18.8206 41.1831 19.541 40.5903 19.541 39.7608C19.541 38.9948 18.9743 38.5941 18.0375 38.4573L17.5965 38.3927C17.1915 38.3385 16.8669 38.257 16.8669 37.9648C16.8669 37.6455 17.1729 37.4545 17.6861 37.4545C18.2353 37.4545 18.7671 37.6644 19.0278 37.8282L19.4328 37.0622ZM31.5056 36.6062C30.9656 36.6062 30.6143 36.8619 30.372 37.2448V36.7157H29.4447V41.0734H30.3803V38.6307C30.3803 37.9095 30.6865 37.5088 31.2985 37.5088C31.4882 37.5088 31.686 37.536 31.8838 37.6185L32.1723 36.7251C31.9653 36.6428 31.6952 36.6062 31.5056 36.6062ZM23.5206 36.7157H21.9904V35.3937H21.0444V36.7157H20.1716V37.5819H21.0444V39.5698C21.0444 40.5809 21.4318 41.1831 22.5385 41.1831C22.9445 41.1831 23.4124 41.0558 23.7092 40.8459L23.4392 40.034C23.1599 40.198 22.8539 40.2805 22.6107 40.2805C22.1429 40.2805 21.9904 39.9883 21.9904 39.5511V37.5819H23.5206V36.7157ZM9.53001 41.0734V38.3385C9.53001 37.3085 8.88185 36.6156 7.83696 36.6062C7.28771 36.5969 6.72096 36.77 6.32424 37.3816C6.02747 36.8984 5.55964 36.6062 4.9022 36.6062C4.44261 36.6062 3.99334 36.7429 3.64195 37.2532V36.7157H2.70526V41.0734H3.65019V38.6577C3.65019 37.9013 4.06443 37.4995 4.70435 37.4995C5.32572 37.4995 5.64002 37.9095 5.64002 38.6483V41.0734H6.58598V38.6577C6.58598 37.9013 7.01773 37.4995 7.63911 37.4995C8.27799 37.4995 8.58404 37.9095 8.58404 38.6483V41.0734H9.53001Z" fill="white"/>
<path d="M51.9727 26.5813V25.9448H51.8089L51.6194 26.3821L51.4308 25.9448H51.2659V26.5813H51.3823V26.1013L51.5595 26.5155H51.68L51.8574 26.1002V26.5813H51.9727ZM50.933 26.5813V26.0533H51.1432V25.9458H50.6073V26.0533H50.8177V26.5813H50.933Z" fill="#F79410"/>
<path d="M33.3417 29.3193H19.1609V3.51123H33.3417V29.3193Z" fill="#FF5F00"/>
<path d="M20.0695 16.4133C20.0695 11.1781 22.4901 6.51464 26.2595 3.50932C23.5031 1.31169 20.0241 0 16.2434 0C7.29283 0 0.0373535 7.3484 0.0373535 16.4133C0.0373535 25.4783 7.29283 32.8267 16.2434 32.8267C20.0241 32.8267 23.5031 31.515 26.2595 29.3174C22.4901 26.3121 20.0695 21.6487 20.0695 16.4133Z" fill="#EB001B"/>
<path d="M52.4673 16.4133C52.4673 25.4783 45.2119 32.8267 36.2613 32.8267C32.4805 32.8267 29.0017 31.515 26.2442 29.3174C30.0145 26.3121 32.4352 21.6487 32.4352 16.4133C32.4352 11.1781 30.0145 6.51464 26.2442 3.50932C29.0017 1.31169 32.4805 0 36.2613 0C45.2119 0 52.4673 7.3484 52.4673 16.4133Z" fill="#F79E1B"/>
</g>
<defs>
<clipPath id="clip0">
<rect width="52.4299" height="41.3084" fill="white" transform="translate(0.0373535)"/>
</clipPath>
</defs>
</svg>
