<svg width="53" height="42" viewBox="0 0 53 42" fill="none" xmlns="http://www.w3.org/2000/svg">
<g clip-path="url(#clip0)">
<path d="M33.1368 29.6634H19.25V4.6377H33.1368V29.6634Z" fill="#6C6BBD"/>
<path d="M51.3809 27.0074V26.3901H51.2204L51.0349 26.8142L50.8501 26.3901H50.6887V27.0074H50.8027V26.542L50.9762 26.9437H51.0944L51.2679 26.5409V27.0074H51.3809ZM50.3628 27.0074V26.4955H50.5686V26.3912H50.0439V26.4955H50.2497V27.0074H50.3628Z" fill="#0099DF"/>
<path d="M44.4381 40.7452V40.8494H44.5341C44.5552 40.8494 44.5735 40.8443 44.5855 40.8362C44.5986 40.8281 44.6057 40.814 44.6057 40.7968C44.6057 40.7797 44.5986 40.7665 44.5855 40.7584C44.5735 40.7492 44.5552 40.7452 44.5341 40.7452H44.4381ZM44.535 40.6723C44.5844 40.6723 44.6229 40.6836 44.65 40.7058C44.6774 40.728 44.6904 40.7584 44.6904 40.7968C44.6904 40.8292 44.6804 40.8555 44.6581 40.8767C44.637 40.8969 44.6057 40.9101 44.5663 40.9152L44.6934 41.0618H44.5946L44.4765 40.9161H44.4381V41.0618H44.3555V40.6723H44.535ZM44.5097 41.1955C44.5552 41.1955 44.5976 41.1874 44.6359 41.1702C44.6753 41.153 44.7096 41.1297 44.7388 41.1003C44.7681 41.0711 44.7913 41.0366 44.8084 40.9961C44.8246 40.9567 44.8337 40.9142 44.8337 40.8686C44.8337 40.823 44.8246 40.7806 44.8084 40.7412C44.7913 40.7017 44.7681 40.6662 44.7388 40.637C44.7096 40.6076 44.6753 40.5843 44.6359 40.568C44.5976 40.5509 44.5552 40.5428 44.5097 40.5428C44.4645 40.5428 44.4209 40.5509 44.3817 40.568C44.3413 40.5843 44.3059 40.6076 44.2767 40.637C44.2474 40.6662 44.2242 40.7017 44.208 40.7412C44.1909 40.7806 44.1829 40.823 44.1829 40.8686C44.1829 40.9142 44.1909 40.9567 44.208 40.9961C44.2242 41.0366 44.2474 41.0711 44.2767 41.1003C44.3059 41.1297 44.3413 41.153 44.3817 41.1702C44.4209 41.1874 44.4645 41.1955 44.5097 41.1955ZM44.5097 40.4487C44.5693 40.4487 44.6238 40.4599 44.6753 40.4821C44.7277 40.5034 44.7722 40.5337 44.8115 40.5722C44.8499 40.6097 44.8801 40.6542 44.9023 40.7058C44.9246 40.7563 44.9357 40.811 44.9357 40.8686C44.9357 40.9263 44.9246 40.981 44.9023 41.0315C44.8801 41.0822 44.8499 41.1267 44.8115 41.1642C44.7722 41.2026 44.7277 41.233 44.6753 41.2552C44.6238 41.2774 44.5693 41.2886 44.5097 41.2886C44.4492 41.2886 44.3938 41.2774 44.3413 41.2552C44.2887 41.233 44.2435 41.2026 44.205 41.1642C44.1667 41.1267 44.1364 41.0822 44.1143 41.0315C44.0921 40.981 44.0809 40.9263 44.0809 40.8686C44.0809 40.811 44.0921 40.7563 44.1143 40.7058C44.1364 40.6542 44.1667 40.6097 44.205 40.5722C44.2435 40.5337 44.2887 40.5034 44.3413 40.4821C44.3938 40.4599 44.4492 40.4487 44.5097 40.4487Z" fill="#231F20"/>
<path d="M37.8184 36.7294C38.0031 36.7294 38.2684 36.7648 38.4713 36.8448L38.1888 37.711C37.995 37.631 37.8013 37.6047 37.6156 37.6047C37.0161 37.6047 36.7165 37.9933 36.7165 38.6914V41.0612H35.7993V36.8357H36.7074V37.3487C36.9456 36.9774 37.2897 36.7294 37.8184 36.7294ZM34.4299 37.6755H32.9313V39.5849C32.9313 40.009 33.0807 40.2923 33.5398 40.2923C33.778 40.2923 34.0776 40.2123 34.3501 40.0535L34.6145 40.8398C34.3239 41.0431 33.8657 41.1675 33.4691 41.1675C32.3845 41.1675 32.006 40.5836 32.006 39.6021V37.6755H31.1503V36.8357H32.006V35.5537H32.9313V36.8357H34.4299V37.6755ZM22.6951 38.5772C22.793 37.9669 23.1622 37.5511 23.8152 37.5511C24.4054 37.5511 24.7848 37.9224 24.8818 38.5772H22.6951ZM25.8344 38.9485C25.8253 37.631 25.0139 36.7294 23.8324 36.7294C22.5982 36.7294 21.7344 37.631 21.7344 38.9485C21.7344 40.2913 22.6335 41.1666 23.8948 41.1666C24.5295 41.1666 25.1109 41.0077 25.6224 40.5746L25.1723 39.8936C24.8203 40.1769 24.3702 40.3358 23.9474 40.3358C23.357 40.3358 22.8192 40.0616 22.687 39.3017H25.8161C25.8253 39.1863 25.8344 39.0719 25.8344 38.9485ZM29.8626 37.9143C29.6074 37.7545 29.0877 37.5511 28.5498 37.5511C28.0473 37.5511 27.7476 37.7373 27.7476 38.047C27.7476 38.3292 28.0644 38.4092 28.461 38.4618L28.893 38.5235C29.8102 38.6571 30.3651 39.0457 30.3651 39.7883C30.3651 40.5929 29.6599 41.1675 28.4438 41.1675C27.7557 41.1675 27.121 40.9905 26.6185 40.6191L27.0503 39.9027C27.3591 40.1415 27.8183 40.3449 28.453 40.3449C29.0785 40.3449 29.4136 40.1598 29.4136 39.8318C29.4136 39.5941 29.1754 39.4605 28.6729 39.3906L28.2411 39.329C27.2975 39.1954 26.7859 38.7715 26.7859 38.0823C26.7859 37.2424 27.4742 36.7294 28.5407 36.7294C29.2107 36.7294 29.8192 36.8802 30.2593 37.1716L29.8626 37.9143ZM41.1697 37.6028C40.9809 37.6028 40.8063 37.6361 40.6439 37.7019C40.4824 37.7686 40.3421 37.8617 40.224 37.9812C40.106 38.1005 40.0132 38.2442 39.9455 38.4111C39.878 38.5781 39.8446 38.7623 39.8446 38.9626C39.8446 39.1641 39.878 39.3473 39.9455 39.5141C40.0132 39.6811 40.106 39.8248 40.224 39.9442C40.3421 40.0636 40.4824 40.1567 40.6439 40.2235C40.8063 40.2902 40.9809 40.3226 41.1697 40.3226C41.3583 40.3226 41.5338 40.2902 41.6954 40.2235C41.8578 40.1567 41.999 40.0636 42.1172 39.9442C42.2372 39.8248 42.3301 39.6811 42.3987 39.5141C42.4663 39.3473 42.4996 39.1641 42.4996 38.9626C42.4996 38.7623 42.4663 38.5781 42.3987 38.4111C42.3301 38.2442 42.2372 38.1005 42.1172 37.9812C41.999 37.8617 41.8578 37.7686 41.6954 37.7019C41.5338 37.6361 41.3583 37.6028 41.1697 37.6028ZM41.1697 36.7294C41.4965 36.7294 41.7993 36.7861 42.0778 36.9005C42.3563 37.0138 42.5975 37.1706 42.8002 37.37C43.0041 37.5692 43.1626 37.805 43.2777 38.0762C43.3927 38.3484 43.4502 38.6439 43.4502 38.9626C43.4502 39.2815 43.3927 39.5768 43.2777 39.849C43.1626 40.1202 43.0041 40.3571 42.8002 40.5563C42.5975 40.7557 42.3563 40.9116 42.0778 41.0258C41.7993 41.1392 41.4965 41.1958 41.1697 41.1958C40.8427 41.1958 40.5399 41.1392 40.2614 41.0258C39.9828 40.9116 39.7437 40.7557 39.542 40.5563C39.3402 40.3571 39.1816 40.1202 39.0666 39.849C38.9516 39.5768 38.894 39.2815 38.894 38.9626C38.894 38.6439 38.9516 38.3484 39.0666 38.0762C39.1816 37.805 39.3402 37.5692 39.542 37.37C39.7437 37.1706 39.9828 37.0138 40.2614 36.9005C40.5399 36.7861 40.8427 36.7294 41.1697 36.7294ZM17.3387 38.9485C17.3387 38.2057 17.8242 37.5956 18.6173 37.5956C19.3752 37.5956 19.8868 38.1795 19.8868 38.9485C19.8868 39.7176 19.3752 40.3004 18.6173 40.3004C17.8242 40.3004 17.3387 39.6912 17.3387 38.9485ZM20.7506 38.9485V36.8357H19.8342V37.3487C19.5426 36.9682 19.1027 36.7294 18.5033 36.7294C17.3217 36.7294 16.3962 37.6573 16.3962 38.9485C16.3962 40.2386 17.3217 41.1675 18.5033 41.1675C19.1027 41.1675 19.5426 40.9287 19.8342 40.5482V41.0612H20.7506V38.9485ZM15.5849 41.0612V38.4092C15.5849 37.4104 14.9502 36.7386 13.928 36.7294C13.3902 36.7204 12.8342 36.8883 12.4467 37.4812C12.156 37.0129 11.6969 36.7294 11.0531 36.7294C10.604 36.7294 10.1631 36.8621 9.81896 37.3568V36.8357H8.90271V41.0612H9.82805V38.7187C9.82805 37.9852 10.2337 37.5956 10.8593 37.5956C11.4678 37.5956 11.7766 37.9933 11.7766 38.7097V41.0612H12.702V38.7187C12.702 37.9852 13.1258 37.5956 13.7333 37.5956C14.3599 37.5956 14.6596 37.9933 14.6596 38.7097V41.0612H15.5849Z" fill="white"/>
<path d="M51.8653 17.1478C51.8653 25.9379 44.7601 33.0636 35.9951 33.0636C32.2928 33.0636 28.8861 31.7916 26.1858 29.6606C29.878 26.7464 32.2484 22.2244 32.2484 17.1478C32.2484 12.0712 29.878 7.54909 26.1858 4.63487C28.8861 2.50387 32.2928 1.23193 35.9951 1.23193C44.7601 1.23193 51.8653 8.35757 51.8653 17.1478Z" fill="#0099DF"/>
<path d="M20.1392 17.1478C20.1392 12.0712 22.5097 7.54909 26.2009 4.63487C23.5016 2.50387 20.0949 1.23193 16.3924 1.23193C7.62745 1.23193 0.5224 8.35757 0.5224 17.1478C0.5224 25.9379 7.62745 33.0636 16.3924 33.0636C20.0949 33.0636 23.5016 31.7916 26.2009 29.6606C22.5097 26.7464 20.1392 22.2244 20.1392 17.1478Z" fill="#EB001B"/>
</g>
<defs>
<clipPath id="clip0">
<rect width="52.4299" height="41.3084" fill="white" transform="translate(0.177551)"/>
</clipPath>
</defs>
</svg>
