<svg width="96" height="32" viewBox="0 0 96 32" fill="none" xmlns="http://www.w3.org/2000/svg">
<g clip-path="url(#clip0)">
<path d="M41.2566 31.3109H33.544L38.368 1.4834H46.0802L41.2566 31.3109Z" fill="#00579F"/>
<path d="M69.2148 2.21324C67.6935 1.60972 65.2806 0.943359 62.2972 0.943359C54.6809 0.943359 49.3176 5.00478 49.2847 10.8114C49.2213 15.0955 53.1247 17.475 56.044 18.9034C59.0278 20.3631 60.0422 21.3158 60.0422 22.617C60.0117 24.6152 57.6311 25.5362 55.4106 25.5362C52.3314 25.5362 50.6814 25.0613 48.1742 23.9497L47.1586 23.473L46.0793 30.1686C47.8883 30.9927 51.221 31.7241 54.6809 31.7562C62.7733 31.7562 68.0419 27.7577 68.1042 21.5697C68.135 18.1743 66.074 15.5725 61.6305 13.4465C58.9329 12.0817 57.2809 11.1614 57.2809 9.76504C57.3127 8.49558 58.6783 7.19534 61.7233 7.19534C64.2306 7.13164 66.0728 7.73432 67.4682 8.33742L68.1658 8.65416L69.2148 2.21324Z" fill="#00579F"/>
<path d="M79.4655 20.7441C80.1007 19.0306 82.5447 12.3986 82.5447 12.3986C82.5126 12.4623 83.1786 10.6534 83.5595 9.54298L84.0984 12.1131C84.0984 12.1131 85.559 19.2529 85.8761 20.7441C84.6708 20.7441 80.989 20.7441 79.4655 20.7441ZM88.9856 1.4834H83.0201C81.1804 1.4834 79.7828 2.02239 78.989 3.95821L67.5331 31.3106H75.6256C75.6256 31.3106 76.9579 27.6291 77.2442 26.8363C78.132 26.8363 86.0043 26.8363 87.1465 26.8363C87.3678 27.8835 88.0667 31.3106 88.0667 31.3106H95.2077L88.9856 1.4834Z" fill="#00579F"/>
<path d="M27.1021 1.4834L19.549 21.823L18.7237 17.6979C17.3273 12.938 12.9479 7.76658 8.06067 5.19519L14.979 31.2793H23.1348L35.2573 1.4834H27.1021Z" fill="#00579F"/>
<path d="M12.5356 1.4834H0.126945L0 2.08607C9.67951 4.5613 16.0901 10.5278 18.7238 17.6992L16.0264 3.99069C15.5823 2.08565 14.2175 1.54624 12.5356 1.4834Z" fill="#FAA61A"/>
</g>
<defs>
<clipPath id="clip0">
<rect width="95.3271" height="31.7757" fill="white"/>
</clipPath>
</defs>
</svg>
