<svg width="80" height="80" viewBox="0 0 80 80" fill="none" xmlns="http://www.w3.org/2000/svg">
<path d="M55.8364 26.1812V65.6175H20.4502V18.0969H47.7521L55.8364 26.1812Z" fill="#DBD8DD"/>
<path d="M59.5501 22.4669V61.9031H24.1638V14.3825H51.4657L59.5501 22.4669Z" fill="#EEEFEE"/>
<path d="M59.5502 22.4669H51.4658V14.3825L59.5502 22.4669Z" fill="#DBD8DD"/>
<path d="M26.8174 17.8163V25.2807H34.2711V17.8163H26.8174ZM33.2243 24.2675H27.8643V18.9075H33.2243V24.2675Z" fill="#EF5261"/>
<path d="M29.857 23.1275L28.6101 21.8812L29.1464 21.345L29.857 22.055L31.9426 19.9694L32.4789 20.5056L29.857 23.1275Z" fill="#EF5261"/>
<path d="M35.9143 24.1412H48.238V25.2812H35.9143V24.1412Z" fill="#DBD8DD"/>
<path d="M35.9143 20.4125H48.238V21.5525H35.9143V20.4125Z" fill="#DBD8DD"/>
<path d="M26.8174 28.8794V36.3438H34.2711V28.8794H26.8174ZM33.2243 35.3306H27.8643V29.97H33.2243V35.3306Z" fill="#EF5261"/>
<path d="M29.857 34.1906L28.6101 32.9443L29.1464 32.4081L29.857 33.1181L31.9426 31.0325L32.4789 31.5687L29.857 34.1906Z" fill="#EF5261"/>
<path d="M35.9143 35.2037H56.8962V36.3437H35.9143V35.2037Z" fill="#DBD8DD"/>
<path d="M35.9143 31.4756H48.238V32.6156H35.9143V31.4756Z" fill="#DBD8DD"/>
<path d="M26.8174 39.9419V47.4069H34.2711V39.9419H26.8174ZM33.2243 46.3931H27.8643V41.0331H33.2243V46.3931Z" fill="#EF5261"/>
<path d="M29.857 45.2538L28.6101 44.0069L29.1464 43.4707L29.857 44.1813L31.9426 42.095L32.4789 42.6313L29.857 45.2538Z" fill="#EF5261"/>
<path d="M35.9143 46.2668H56.8962V47.4068H35.9143V46.2668Z" fill="#DBD8DD"/>
<path d="M35.9143 42.5388H48.238V43.6788H35.9143V42.5388Z" fill="#DBD8DD"/>
<path d="M26.8174 51.005V58.47H34.2711V51.005H26.8174ZM33.2243 57.4563H27.8643V52.0963H33.2243V57.4563Z" fill="#EF5261"/>
<path d="M29.857 56.3162L28.6101 55.07L29.1464 54.5337L29.857 55.2443L31.9426 53.1581L32.4789 53.6943L29.857 56.3162Z" fill="#EF5261"/>
<path d="M35.9143 57.33H56.8962V58.47H35.9143V57.33Z" fill="#DBD8DD"/>
<path d="M35.9143 53.6019H48.238V54.7419H35.9143V53.6019Z" fill="#DBD8DD"/>
</svg>
