<svg width="80" height="80" viewBox="0 0 80 80" fill="none" xmlns="http://www.w3.org/2000/svg">
<path d="M40 39.9869V64.375L19.6519 54.3344V29.9462L40 39.9869Z" fill="#F6B863"/>
<path d="M40 39.9869V64.375L60.3481 54.3344V29.9462L40 39.9869Z" fill="#EAA14E"/>
<path d="M60.3469 29.9506L40 39.9856V22.0575L60.3469 29.9506Z" fill="#EA9644"/>
<path d="M40 22.0575V39.9856L19.6531 29.9506L40 22.0575Z" fill="#EAA14E"/>
<path d="M60.3481 29.9481L63.7687 36.2144L44.4344 46.2787L40 39.985L60.3481 29.9481Z" fill="#F2B15A"/>
<path d="M19.6521 29.9481L16.2314 36.2144L35.5658 46.2787L40.0002 39.985L19.6521 29.9481Z" fill="#F2B15A"/>
<path d="M46.5599 26.2487L39.9999 34.5181L33.4399 26.2487H36.8368V15.625H43.1631V26.2487H46.5599Z" fill="#EEEFEE"/>
</svg>
