<svg width="80" height="80" viewBox="0 0 80 80" fill="none" xmlns="http://www.w3.org/2000/svg">
<path d="M14.8232 14.375L17.6457 16.3994L20.472 14.375L23.2964 16.3994L26.1251 14.375L28.9501 16.3994L31.7745 14.375L34.6026 16.3994L37.4245 14.375L40.2501 16.3994L43.0782 14.375L45.9076 16.3994L48.7376 14.375L51.572 16.3994L54.4064 14.375V57.7125L59.7914 65.625H21.1251C20.2972 65.6247 19.4774 65.4613 18.7126 65.1441C17.9478 64.8269 17.253 64.3622 16.6678 63.7765C16.0826 63.1908 15.6185 62.4955 15.302 61.7305C14.9855 60.9654 14.8228 60.1455 14.8232 59.3175V14.375Z" fill="#F1F1F1"/>
<path d="M20.4406 32.1775V30.9056C19.7589 30.9034 19.0912 30.7115 18.5125 30.3512L18.8125 29.5062C19.3522 29.8568 19.9813 30.0449 20.625 30.0481C21.52 30.0481 22.125 29.5312 22.125 28.8131C22.125 28.12 21.6337 27.6912 20.7006 27.3131C19.42 26.8125 18.625 26.2293 18.625 25.1331C18.6328 24.6187 18.8322 24.1257 19.1841 23.7504C19.536 23.3751 20.0152 23.1446 20.5281 23.1037V21.8318H21.3125V23.0537C21.8875 23.0582 22.4517 23.2101 22.9512 23.495L22.6387 24.3268C22.1589 24.0411 21.6096 23.893 21.0512 23.8987C20.0806 23.8987 19.715 24.4787 19.715 24.9825C19.715 25.6375 20.1812 25.9656 21.2775 26.42C22.5756 26.9493 23.2306 27.6075 23.2306 28.7262C23.2205 29.2658 23.0118 29.7827 22.6444 30.1781C22.277 30.5734 21.7767 30.8193 21.2393 30.8687V32.1812L20.4406 32.1775Z" fill="#EF5261"/>
<path d="M26.9148 21.8488H34.721V23.0963H26.9148V21.8488Z" fill="#A4B6C5"/>
<path d="M37.0974 21.8488H51.1487V23.0963H37.0974V21.8488Z" fill="#A4B6C5"/>
<path d="M26.9148 26.3806H41.3054V27.6281H26.9148V26.3806Z" fill="#A4B6C5"/>
<path d="M44.6326 26.3806H51.1494V27.6281H44.6326V26.3806Z" fill="#A4B6C5"/>
<path d="M26.9148 30.9125H32.006V32.16H26.9148V30.9125Z" fill="#A4B6C5"/>
<path d="M35.3323 30.9125H51.1485V32.16H35.3323V30.9125Z" fill="#A4B6C5"/>
<path d="M18.0806 38.925H29.2749V40.1726H18.0806V38.925Z" fill="#A4B6C5"/>
<path d="M33.5354 38.925H51.1485V40.1726H33.5354V38.925Z" fill="#A4B6C5"/>
<path d="M18.0806 43.6218H29.2749V44.8693H18.0806V43.6218Z" fill="#A4B6C5"/>
<path d="M33.5354 43.6218H51.1485V44.8693H33.5354V43.6218Z" fill="#A4B6C5"/>
<path d="M18.0806 48.3188H29.2749V49.5663H18.0806V48.3188Z" fill="#A4B6C5"/>
<path d="M33.5354 48.3188H51.1485V49.5663H33.5354V48.3188Z" fill="#A4B6C5"/>
<path d="M18.0806 53.0156H29.2749V54.2631H18.0806V53.0156Z" fill="#A4B6C5"/>
<path d="M33.5354 53.0156H51.1485V54.2631H33.5354V53.0156Z" fill="#A4B6C5"/>
<path d="M18.0806 57.7125H29.2749V58.96H18.0806V57.7125Z" fill="#A4B6C5"/>
<path d="M33.5354 57.7125H51.1485V58.96H33.5354V57.7125Z" fill="#A4B6C5"/>
<path d="M65.1769 39.8563V60.245C65.1775 60.9517 65.0388 61.6516 64.7687 62.3046C64.4985 62.9577 64.1023 63.551 63.6026 64.0507C63.1029 64.5504 62.5095 64.9467 61.8565 65.2168C61.2035 65.487 60.5036 65.6257 59.7969 65.625H59.7862C58.358 65.6235 56.9888 65.0548 55.9799 64.0438C54.971 63.0329 54.4049 61.6626 54.4063 60.2344V39.8563H65.1769Z" fill="#DBD8DD"/>
</svg>
