<svg width="80" height="80" viewBox="0 0 80 80" fill="none" xmlns="http://www.w3.org/2000/svg">
<path d="M40.2656 20.5937C40.2656 20.5937 44.3956 12.0369 54.2606 13.0356C54.4784 13.0599 54.6886 13.1296 54.8777 13.2402C55.0669 13.3507 55.2307 13.4997 55.3587 13.6775C56.4436 15.122 57.0008 16.8946 56.9375 18.7C56.75 21.9962 44.5787 24.5362 44.5787 24.5362L41.9987 24.0231L40.2656 20.5937Z" fill="#EEEFEE"/>
<path d="M40.2631 20.5937C40.2631 20.5937 36.1331 12.0369 26.2681 13.0356C26.0503 13.0599 25.8401 13.1296 25.651 13.2402C25.4618 13.3507 25.298 13.4997 25.1699 13.6775C24.0858 15.1222 23.5292 16.8948 23.5931 18.7C23.7806 21.9962 35.9518 24.5362 35.9518 24.5362L38.5318 24.0231L40.2631 20.5937Z" fill="#EEEFEE"/>
<path d="M43.7458 23.7879C43.9224 21.7186 42.388 19.8979 40.3187 19.7213C38.2494 19.5447 36.4287 21.0791 36.2521 23.1484C36.0755 25.2177 37.6099 27.0384 39.6792 27.215C41.7485 27.3916 43.5692 25.8572 43.7458 23.7879Z" fill="#DBD8DD"/>
<path d="M64.99 23.4487H15.01C14.6593 23.4487 14.375 23.733 14.375 24.0837V32.3387C14.375 32.6894 14.6593 32.9737 15.01 32.9737H64.99C65.3407 32.9737 65.625 32.6894 65.625 32.3387V24.0837C65.625 23.733 65.3407 23.4487 64.99 23.4487Z" fill="#E48D56"/>
<path d="M63.1 31.2275V62.66C63.0995 62.8282 63.0324 62.9895 62.9134 63.1085C62.7944 63.2274 62.6332 63.2945 62.465 63.295H17.5381C17.3698 63.2945 17.2086 63.2274 17.0896 63.1085C16.9706 62.9895 16.9036 62.8282 16.9031 62.66V31.2275H63.1Z" fill="#E48D56"/>
<path d="M16.9031 32.9738H63.0993V35.1963H16.9031V32.9738Z" fill="#EE7719"/>
<path d="M36.2856 23.4487H43.7175V63.295H36.2856V23.4487Z" fill="#EEEFEE"/>
<path d="M16.9031 43.3719H63.0993V50.8038H16.9031V43.3719Z" fill="#EEEFEE"/>
<path d="M36.2837 32.9738H43.7193V35.1963H36.2837V32.9738Z" fill="#DBD8DD"/>
<path d="M36.2856 42.265H43.7175V43.3719H36.2856V42.265Z" fill="#DBD8DD"/>
<path d="M36.2856 50.8038H43.7175V51.9106H36.2856V50.8038Z" fill="#DBD8DD"/>
</svg>
