<svg width="80" height="80" viewBox="0 0 80 80" fill="none" xmlns="http://www.w3.org/2000/svg">
<rect width="80" height="80" rx="40" fill="white"/>
<path d="M64.5788 38.8938V47.4688H47.0413V28.8913H56.3856L57.9256 30.7669L64.5788 38.8938Z" fill="#F6C863"/>
<path d="M47.0394 27.0175V47.4681H15.4175V27.0175C15.4175 26.8446 15.4515 26.6735 15.5177 26.5138C15.5838 26.3541 15.6808 26.209 15.803 26.0868C15.9252 25.9645 16.0703 25.8676 16.23 25.8014C16.3897 25.7353 16.5609 25.7012 16.7337 25.7012H45.7231C46.0722 25.7012 46.407 25.8399 46.6538 26.0868C46.9007 26.3336 47.0394 26.6684 47.0394 27.0175Z" fill="#EEEFEE"/>
<path d="M62.237 38.8981L48.4995 38.9331C48.4166 38.9331 48.3371 38.9002 48.2785 38.8416C48.2199 38.783 48.187 38.7035 48.187 38.6206V30.7762C48.187 30.6934 48.2199 30.6139 48.2785 30.5553C48.3371 30.4967 48.4166 30.4637 48.4995 30.4637H55.9164C55.9631 30.4637 56.0093 30.4741 56.0515 30.4942C56.0937 30.5143 56.1308 30.5436 56.1602 30.58L62.4795 38.3881C62.5169 38.434 62.5405 38.4895 62.5476 38.5482C62.5547 38.6069 62.545 38.6664 62.5196 38.7198C62.4942 38.7732 62.4542 38.8183 62.4041 38.8499C62.3541 38.8815 62.2962 38.8982 62.237 38.8981Z" fill="#575B6D"/>
<path d="M61.3187 38.15L55.3125 38.1625H55.3062L52.6375 38.175H50.45L49.7437 38.1812H48.9375V31.2125H55.7062L56.2375 31.8687L57.8 33.8L61.3187 38.15Z" fill="#69B0EE"/>
<path d="M52.3058 40.6687H50.2395C49.9596 40.6687 49.7327 40.8956 49.7327 41.1756V41.2287C49.7327 41.5086 49.9596 41.7356 50.2395 41.7356H52.3058C52.5857 41.7356 52.8127 41.5086 52.8127 41.2287V41.1756C52.8127 40.8956 52.5857 40.6687 52.3058 40.6687Z" fill="#575B6D"/>
<path d="M64.5788 43.8688V41H62.6875C62.6282 41.0003 62.5697 41.0148 62.517 41.0421C62.4643 41.0694 62.4189 41.1089 62.3844 41.1572C62.3499 41.2055 62.3274 41.2614 62.3187 41.3201C62.31 41.3788 62.3154 41.4388 62.3344 41.495L63.0644 43.615C63.0902 43.688 63.138 43.7513 63.2013 43.7961C63.2645 43.8408 63.3401 43.8649 63.4175 43.865L64.5788 43.8688Z" fill="#EAB54E"/>
<path d="M64.5787 44.8163V45.8788H63.3913C63.3373 45.8785 63.2857 45.8569 63.2475 45.8187C63.2094 45.7806 63.1878 45.729 63.1875 45.675V45.0207C63.1878 44.9667 63.2094 44.9151 63.2475 44.8769C63.2857 44.8388 63.3373 44.8172 63.3913 44.8169L64.5787 44.8163Z" fill="#EF5261"/>
<path d="M65.625 47.625V49.0875C65.6247 49.2584 65.5566 49.4223 65.4357 49.5432C65.3148 49.6641 65.151 49.7321 64.98 49.7325H15.0131C14.9289 49.7321 14.8455 49.7152 14.7677 49.6826C14.69 49.6499 14.6195 49.6023 14.5602 49.5424C14.5009 49.4825 14.4541 49.4115 14.4223 49.3334C14.3905 49.2553 14.3744 49.1717 14.375 49.0875V47.625C14.3746 47.541 14.3908 47.4579 14.4227 47.3803C14.4547 47.3027 14.5017 47.2322 14.561 47.1728C14.6203 47.1135 14.6908 47.0665 14.7685 47.0346C14.8461 47.0026 14.9292 46.9864 15.0131 46.9868H64.98C65.0643 46.9863 65.1479 47.0023 65.2259 47.0341C65.304 47.0659 65.375 47.1128 65.435 47.172C65.4949 47.2313 65.5425 47.3018 65.5751 47.3796C65.6077 47.4573 65.6247 47.5407 65.625 47.625Z" fill="#62667C"/>
<path d="M29.9375 49.375C29.9375 49.4938 29.9306 49.6125 29.9237 49.7313H18.1624C18.1556 49.6125 18.1487 49.4938 18.1487 49.375C18.1465 48.4896 18.347 47.6153 18.735 46.8194C19.2168 45.8212 19.9703 44.9791 20.9091 44.3899C21.8478 43.8006 22.9338 43.488 24.0421 43.488C25.1505 43.488 26.2364 43.8006 27.1752 44.3899C28.114 44.9791 28.8675 45.8212 29.3493 46.8194C29.7379 47.6152 29.9391 48.4894 29.9375 49.375Z" fill="#62667C"/>
<path d="M28.9375 49.3994C28.9381 50.3678 28.6516 51.3146 28.1141 52.1202C27.5766 52.9257 26.8123 53.5537 25.9179 53.9249C25.0234 54.296 24.039 54.3936 23.0891 54.2053C22.1392 54.017 21.2665 53.5512 20.5813 52.8669C19.8961 52.1826 19.4292 51.3105 19.2397 50.3608C19.0502 49.4112 19.1465 48.4266 19.5165 47.5317C19.8865 46.6368 20.5136 45.8717 21.3185 45.3332C22.1233 44.7947 23.0698 44.5069 24.0381 44.5063C24.6812 44.5058 25.318 44.632 25.9122 44.8776C26.5064 45.1233 27.0464 45.4836 27.5014 45.938C27.9564 46.3924 28.3174 46.9319 28.5638 47.5258C28.8102 48.1198 28.9372 48.7564 28.9375 49.3994Z" fill="#414451"/>
<path d="M24.0406 52.105C25.5341 52.105 26.7449 50.8943 26.7449 49.4007C26.7449 47.9071 25.5341 46.6963 24.0406 46.6963C22.547 46.6963 21.3362 47.9071 21.3362 49.4007C21.3362 50.8943 22.547 52.105 24.0406 52.105Z" fill="#EEEFEE"/>
<path d="M24.0407 50.1312C24.4442 50.1312 24.7713 49.8041 24.7713 49.4005C24.7713 48.997 24.4442 48.6699 24.0407 48.6699C23.6372 48.6699 23.3101 48.997 23.3101 49.4005C23.3101 49.8041 23.6372 50.1312 24.0407 50.1312Z" fill="#575B6D"/>
<path d="M62.3124 49.375C62.3124 49.4938 62.3055 49.6125 62.2986 49.7313H50.5399C50.533 49.6125 50.5261 49.4938 50.5261 49.375C50.5239 48.4896 50.7244 47.6153 51.1124 46.8194C51.5942 45.8212 52.3478 44.9791 53.2865 44.3899C54.2253 43.8006 55.3112 43.488 56.4196 43.488C57.5279 43.488 58.6138 43.8006 59.5526 44.3899C60.4914 44.9791 61.2449 45.8212 61.7267 46.8194C62.1145 47.6154 62.3148 48.4896 62.3124 49.375Z" fill="#62667C"/>
<path d="M61.3164 49.3994C61.317 50.3678 61.0305 51.3146 60.493 52.1202C59.9555 52.9257 59.1912 53.5537 58.2968 53.9249C57.4023 54.296 56.4179 54.3936 55.468 54.2053C54.5181 54.017 53.6454 53.5512 52.9602 52.8669C52.275 52.1826 51.8081 51.3105 51.6186 50.3608C51.4291 49.4112 51.5254 48.4266 51.8954 47.5317C52.2655 46.6368 52.8925 45.8717 53.6974 45.3332C54.5022 44.7947 55.4487 44.5069 56.417 44.5063C57.0601 44.5058 57.6969 44.632 58.2911 44.8776C58.8853 45.1233 59.4253 45.4836 59.8803 45.938C60.3353 46.3924 60.6963 46.9319 60.9427 47.5258C61.1891 48.1198 61.3161 48.7564 61.3164 49.3994Z" fill="#414451"/>
<path d="M56.418 52.105C57.9116 52.105 59.1224 50.8943 59.1224 49.4007C59.1224 47.9071 57.9116 46.6963 56.418 46.6963C54.9244 46.6963 53.7136 47.9071 53.7136 49.4007C53.7136 50.8943 54.9244 52.105 56.418 52.105Z" fill="#EEEFEE"/>
<path d="M56.4181 50.1312C56.8216 50.1312 57.1488 49.8041 57.1488 49.4005C57.1488 48.997 56.8216 48.6699 56.4181 48.6699C56.0146 48.6699 55.6875 48.997 55.6875 49.4005C55.6875 49.8041 56.0146 50.1312 56.4181 50.1312Z" fill="#575B6D"/>
<path d="M42.7481 28.8913H19.7088C19.4381 28.8913 19.2188 29.1107 19.2188 29.3813V29.4338C19.2188 29.7044 19.4381 29.9238 19.7088 29.9238H42.7481C43.0187 29.9238 43.2381 29.7044 43.2381 29.4338V29.3813C43.2381 29.1107 43.0187 28.8913 42.7481 28.8913Z" fill="#DBD8DD"/>
<path d="M42.7481 33.6544H19.7088C19.4381 33.6544 19.2188 33.8738 19.2188 34.1444V34.1969C19.2188 34.4675 19.4381 34.6869 19.7088 34.6869H42.7481C43.0187 34.6869 43.2381 34.4675 43.2381 34.1969V34.1444C43.2381 33.8738 43.0187 33.6544 42.7481 33.6544Z" fill="#DBD8DD"/>
<path d="M42.7481 38.4176H19.7088C19.4381 38.4176 19.2188 38.637 19.2188 38.9076V38.9601C19.2188 39.2307 19.4381 39.4501 19.7088 39.4501H42.7481C43.0187 39.4501 43.2381 39.2307 43.2381 38.9601V38.9076C43.2381 38.637 43.0187 38.4176 42.7481 38.4176Z" fill="#DBD8DD"/>
<g opacity="0.5">
<path opacity="0.5" d="M54.4251 31.2125L50.4501 38.175L49.7439 38.1812L53.7251 31.2125H54.4251Z" fill="#EEEFEE"/>
<path opacity="0.5" d="M57.8002 33.8L55.3127 38.1625H55.3064L52.6377 38.175L56.2377 31.8687L57.8002 33.8Z" fill="#EEEFEE"/>
</g>
<circle cx="24.5" cy="27.5" r="14.5" fill="white"/>
<path d="M24.5 16C27.7505 16 30.7832 17.3026 33.0003 19.5288L33 18L33.0067 17.8834C33.0645 17.386 33.4872 17 34 17C34.5523 17 35 17.4477 35 18V22L34.9933 22.1166C34.9355 22.614 34.5128 23 34 23H30L29.8834 22.9933C29.386 22.9355 29 22.5128 29 22C29 21.4477 29.4477 21 30 21L31.6427 21.0004C29.7897 19.108 27.2386 18 24.5 18C18.9772 18 14.5 22.4772 14.5 28C14.5 33.5228 18.9772 38 24.5 38C27.1897 38 29.7082 36.9345 31.5722 35.0699C31.9627 34.6793 32.5959 34.6792 32.9864 35.0697C33.377 35.4601 33.3771 36.0933 32.9867 36.4839C30.7513 38.72 27.7257 40 24.5 40C17.8726 40 12.5 34.6274 12.5 28C12.5 21.3726 17.8726 16 24.5 16ZM24 22C24.5523 22 25 22.4477 25 23V27.5858L27.7071 30.2929C28.0976 30.6834 28.0976 31.3166 27.7071 31.7071C27.3166 32.0976 26.6834 32.0976 26.2929 31.7071L23.2929 28.7071C23.1054 28.5196 23 28.2652 23 28V23C23 22.4477 23.4477 22 24 22Z" fill="#E48D56"/>
<path d="M33.5376 26.72C33.5376 26.4067 33.4842 26.1967 33.3776 26.09C33.2776 25.9767 33.1409 25.92 32.9676 25.92C32.7942 25.92 32.6542 25.9733 32.5476 26.08C32.4476 26.18 32.3976 26.3567 32.3976 26.61V27.06H31.3576V26.68C31.3576 26.1133 31.4942 25.68 31.7676 25.38C32.0476 25.0733 32.4576 24.92 32.9976 24.92C33.5376 24.92 33.9442 25.0733 34.2176 25.38C34.4976 25.68 34.6376 26.1133 34.6376 26.68V26.86C34.6376 27.6067 34.3809 28.0867 33.8676 28.3C34.1476 28.42 34.3442 28.6067 34.4576 28.86C34.5776 29.1067 34.6376 29.41 34.6376 29.77V30.32C34.6376 30.8867 34.4976 31.3233 34.2176 31.63C33.9442 31.93 33.5376 32.08 32.9976 32.08C32.4576 32.08 32.0476 31.93 31.7676 31.63C31.4942 31.3233 31.3576 30.8867 31.3576 30.32V29.74H32.3976V30.39C32.3976 30.6433 32.4476 30.8233 32.5476 30.93C32.6542 31.03 32.7942 31.08 32.9676 31.08C33.1409 31.08 33.2776 31.0267 33.3776 30.92C33.4842 30.8133 33.5376 30.6033 33.5376 30.29V29.74C33.5376 29.4133 33.4809 29.1833 33.3676 29.05C33.2542 28.9167 33.0709 28.85 32.8176 28.85H32.4476V27.85H32.8776C33.0842 27.85 33.2442 27.7967 33.3576 27.69C33.4776 27.5833 33.5376 27.39 33.5376 27.11V26.72Z" fill="#538742"/>
</svg>
