<svg width="17" height="17" viewBox="0 0 17 17" fill="none" xmlns="http://www.w3.org/2000/svg">
<path d="M8.5 1.53212C10.7695 1.53212 11.0386 1.54062 11.9354 1.58171C14.2389 1.68654 15.3148 2.7795 15.4197 5.066C15.4608 5.96204 15.4686 6.23121 15.4686 8.5007C15.4686 10.7709 15.4601 11.0394 15.4197 11.9354C15.3141 14.2198 14.2411 15.3148 11.9354 15.4197C11.0386 15.4608 10.7709 15.4693 8.5 15.4693C6.2305 15.4693 5.96134 15.4608 5.06529 15.4197C2.75612 15.3141 1.68584 14.2162 1.581 11.9347C1.53991 11.0386 1.53141 10.7702 1.53141 8.5C1.53141 6.2305 1.54062 5.96204 1.581 5.06529C1.68654 2.7795 2.75966 1.68584 5.06529 1.581C5.96204 1.54062 6.2305 1.53212 8.5 1.53212ZM8.5 0C6.19154 0 5.90254 0.00991664 4.99587 0.051C1.90896 0.192666 0.193375 1.90541 0.0517084 4.99516C0.00991664 5.90254 0 6.19154 0 8.5C0 10.8084 0.00991664 11.0981 0.051 12.0049C0.192666 15.0917 1.90541 16.8074 4.99516 16.949C5.90254 16.9901 6.19154 17 8.5 17C10.8084 17 11.0981 16.9901 12.0049 16.949C15.0889 16.8074 16.8088 15.0946 16.9483 12.0049C16.9901 11.0981 17 10.8084 17 8.5C17 6.19154 16.9901 5.90254 16.949 4.99587C16.8101 1.91179 15.0953 0.193375 12.0056 0.0517084C11.0981 0.00991664 10.8084 0 8.5 0ZM8.5 4.13525C6.08954 4.13525 4.13525 6.08954 4.13525 8.5C4.13525 10.9104 6.08954 12.8654 8.5 12.8654C10.9104 12.8654 12.8647 10.9111 12.8647 8.5C12.8647 6.08954 10.9104 4.13525 8.5 4.13525ZM8.5 11.3334C6.93529 11.3334 5.66666 10.0654 5.66666 8.5C5.66666 6.93529 6.93529 5.66666 8.5 5.66666C10.0647 5.66666 11.3334 6.93529 11.3334 8.5C11.3334 10.0654 10.0647 11.3334 8.5 11.3334ZM13.0376 2.94312C12.4737 2.94312 12.0169 3.4 12.0169 3.96312C12.0169 4.52625 12.4737 4.98312 13.0376 4.98312C13.6007 4.98312 14.0568 4.52625 14.0568 3.96312C14.0568 3.4 13.6007 2.94312 13.0376 2.94312Z" fill="white"/>
</svg>
