<svg width="15" height="13" viewBox="0 0 15 13" fill="none" xmlns="http://www.w3.org/2000/svg">
<g clip-path="url(#clip0)">
<path fill-rule="evenodd" clip-rule="evenodd" d="M11.0306 12.8564C11.2238 13.0046 11.4728 13.0417 11.6948 12.9507C11.9168 12.859 12.08 12.6536 12.1292 12.4047C12.6506 9.75008 13.9154 3.03105 14.39 0.616297C14.426 0.434297 14.366 0.245147 14.234 0.123597C14.102 0.00204638 13.919 -0.0330537 13.7558 0.0325964C11.24 1.0414 3.49224 4.19065 0.325439 5.46011C0.124439 5.54071 -0.0063613 5.75001 0.000238713 5.97946C0.00743872 6.20956 0.150239 6.40911 0.356039 6.47606C1.77624 6.93626 3.64044 7.57651 3.64044 7.57651C3.64044 7.57651 4.51164 10.4267 4.96585 11.8762C5.02285 12.0582 5.15425 12.2012 5.32765 12.2506C5.50045 12.2994 5.68525 12.248 5.81425 12.1161C6.54385 11.3699 7.67183 10.2161 7.67183 10.2161C7.67183 10.2161 9.81503 11.9185 11.0306 12.8564ZM4.42464 7.21641L5.43205 10.8161L5.65585 8.53653C5.65585 8.53653 9.54803 4.73341 11.7668 2.56565C11.8316 2.50195 11.8406 2.39535 11.7866 2.3206C11.7332 2.24585 11.6348 2.2283 11.561 2.279C8.98942 4.05805 4.42464 7.21641 4.42464 7.21641Z" fill="white"/>
</g>
<defs>
<clipPath id="clip0">
<rect width="15" height="13" fill="white"/>
</clipPath>
</defs>
</svg>
