<svg width="17" height="10" viewBox="0 0 17 10" fill="none" xmlns="http://www.w3.org/2000/svg">
<g clip-path="url(#clip0)">
<path d="M16.726 9.03108C16.7057 8.98538 16.6867 8.94738 16.6691 8.917C16.3774 8.36931 15.8198 7.69708 14.9969 6.9001L14.9794 6.88185L14.9708 6.8729L14.962 6.86373H14.9531C14.5796 6.49261 14.3431 6.24307 14.2441 6.11532C14.0628 5.87195 14.0223 5.62562 14.1213 5.37602C14.1913 5.18743 14.4541 4.78918 14.9092 4.1807C15.1486 3.85822 15.3383 3.59978 15.4783 3.40505C16.4881 2.00572 16.9259 1.11153 16.7916 0.722125L16.7394 0.631127C16.7043 0.576342 16.6139 0.526225 16.4681 0.480518C16.3221 0.434907 16.1354 0.427364 15.9076 0.457761L13.3863 0.475915C13.3454 0.460828 13.2871 0.462235 13.2111 0.480518C13.1352 0.498801 13.0973 0.507974 13.0973 0.507974L13.0534 0.530828L13.0186 0.558283C12.9894 0.576438 12.9573 0.608369 12.9222 0.654012C12.8873 0.699495 12.8582 0.752873 12.8349 0.8137C12.5604 1.54984 12.2483 2.23425 11.898 2.86693C11.682 3.24418 11.4836 3.57114 11.3026 3.84797C11.1216 4.1247 10.9699 4.32859 10.8474 4.45928C10.7248 4.59012 10.6141 4.69492 10.5146 4.77409C10.4154 4.85329 10.3396 4.88676 10.2871 4.87452C10.2346 4.86228 10.1851 4.85013 10.1381 4.83798C10.0565 4.7832 9.99083 4.70869 9.9413 4.6144C9.89156 4.52012 9.85808 4.40144 9.84056 4.25846C9.82312 4.1154 9.81284 3.99235 9.80989 3.88888C9.80715 3.78555 9.80841 3.63938 9.81432 3.45079C9.82038 3.26212 9.82312 3.13446 9.82312 3.06753C9.82312 2.83631 9.82748 2.58537 9.83613 2.31465C9.845 2.04392 9.85209 1.82942 9.85808 1.67139C9.86407 1.51321 9.8668 1.34585 9.8668 1.16942C9.8668 0.992977 9.85653 0.854608 9.83613 0.754184C9.81602 0.653884 9.78513 0.556525 9.74447 0.462139C9.70353 0.367848 9.64358 0.294909 9.56494 0.24313C9.48622 0.191414 9.38821 0.150373 9.27165 0.119881C8.96233 0.0469095 8.56837 0.00743533 8.08963 0.00129846C7.0041 -0.0108475 6.30657 0.0622195 5.99723 0.220404C5.87466 0.287238 5.76375 0.378556 5.66458 0.49407C5.55949 0.627962 5.54484 0.70103 5.6207 0.713048C5.97095 0.767736 6.2189 0.898562 6.36484 1.10539L6.41743 1.21499C6.45834 1.29407 6.49918 1.43407 6.54006 1.63479C6.58087 1.83552 6.60721 2.05757 6.6188 2.3008C6.64793 2.74499 6.64793 3.12522 6.6188 3.44152C6.58958 3.75796 6.56198 4.0043 6.53564 4.18073C6.5093 4.35717 6.46993 4.50014 6.41743 4.60961C6.36484 4.71912 6.32985 4.78605 6.31231 4.81034C6.2948 4.83463 6.28021 4.84994 6.26861 4.85595C6.19275 4.88625 6.11385 4.90168 6.03218 4.90168C5.95041 4.90168 5.85124 4.85905 5.73453 4.77384C5.61785 4.68862 5.49675 4.57158 5.37125 4.4225C5.24573 4.27339 5.10418 4.06502 4.94654 3.79737C4.78901 3.52972 4.62557 3.21338 4.45631 2.84836L4.31626 2.58365C4.22871 2.41335 4.10912 2.16538 3.95736 1.83996C3.80551 1.51442 3.67129 1.19952 3.55461 0.895331C3.50797 0.767576 3.4379 0.670314 3.34453 0.603383L3.30071 0.575927C3.27158 0.551635 3.22481 0.525841 3.16066 0.498353C3.09642 0.470897 3.02939 0.451208 2.95929 0.439094L0.560426 0.457248C0.315294 0.457248 0.148969 0.515133 0.0613905 0.630743L0.0263409 0.685432C0.00883143 0.715892 0 0.76454 0 0.8315C0 0.898431 0.0175095 0.980577 0.0525591 1.07784C0.402749 1.93572 0.783574 2.76308 1.19503 3.56005C1.60649 4.35701 1.96404 4.99898 2.26746 5.48539C2.57095 5.97215 2.8803 6.43155 3.1955 6.86338C3.5107 7.29535 3.71934 7.57218 3.82142 7.69377C3.92363 7.81562 4.00391 7.90677 4.06226 7.96754L4.28118 8.18654C4.42126 8.33262 4.62695 8.50746 4.89837 8.71123C5.16984 8.91515 5.47038 9.11585 5.80015 9.31377C6.12998 9.51131 6.51368 9.67254 6.95148 9.79723C7.38922 9.922 7.81527 9.97215 8.2297 9.94792H9.23654C9.44077 9.92954 9.59547 9.86262 9.70057 9.74715L9.73546 9.70138C9.75889 9.66508 9.78076 9.60869 9.80102 9.53277C9.82149 9.45669 9.83169 9.37292 9.83169 9.28185C9.8257 9.02023 9.84477 8.78454 9.88846 8.57469C9.93214 8.36485 9.98188 8.20669 10.0375 8.10015C10.093 7.99369 10.1558 7.90392 10.2256 7.83108C10.2956 7.75808 10.3455 7.71392 10.3747 7.69869C10.4038 7.68338 10.427 7.67299 10.4445 7.66676C10.5846 7.61812 10.7495 7.66523 10.9394 7.80831C11.129 7.95131 11.307 8.12785 11.4734 8.33762C11.6398 8.54762 11.8397 8.78323 12.0731 9.04477C12.3067 9.30646 12.5109 9.50092 12.6859 9.62885L12.8609 9.73838C12.9779 9.81146 13.1296 9.87838 13.3164 9.93923C13.5029 10 13.6662 10.0152 13.8066 9.98477L16.0477 9.94839C16.2694 9.94839 16.4419 9.91008 16.5643 9.83423C16.6868 9.75815 16.7597 9.67439 16.7831 9.58323C16.8066 9.492 16.8078 9.38854 16.7876 9.27285C16.7669 9.15738 16.7464 9.07669 16.726 9.03108Z" fill="white"/>
</g>
<defs>
<clipPath id="clip0">
<rect width="17" height="10" fill="white"/>
</clipPath>
</defs>
</svg>
