<svg width="80" height="80" viewBox="0 0 80 80" fill="none" xmlns="http://www.w3.org/2000/svg">
<path d="M26.7581 36.2844H27.9912C28.2775 36.286 28.5575 36.2009 28.7945 36.0404C29.0316 35.8799 29.2145 35.6514 29.3193 35.385C29.7874 34.1713 31.3481 31.7431 36.5118 28.1862C38.5923 26.7616 40.3604 24.9275 41.7079 22.7962C43.0554 20.6649 43.9539 18.2811 44.3487 15.7906C44.461 15.0332 44.8414 14.3412 45.4207 13.8406C46.0001 13.3399 46.7399 13.0638 47.5056 13.0625H47.5368C48.37 13.0622 49.1712 13.3837 49.773 13.9599C50.3748 14.5362 50.7309 15.3226 50.7668 16.155C50.9206 19.7013 50.5568 25.485 47.1306 29.07H62.0174C62.9741 29.07 63.8916 29.45 64.5681 30.1264C65.2446 30.8028 65.6248 31.7202 65.6249 32.6769C65.6249 33.6336 65.2449 34.5512 64.5683 35.2278C63.8918 35.9043 62.9742 36.2844 62.0174 36.2844L60.9749 36.3469C60.9371 36.3493 60.9015 36.366 60.8755 36.3936C60.8495 36.4212 60.835 36.4577 60.8349 36.4956C60.8349 36.5152 60.8388 36.5347 60.8463 36.5528C60.8538 36.5709 60.8648 36.5874 60.8787 36.6013C60.8926 36.6151 60.909 36.6261 60.9272 36.6336C60.9453 36.6411 60.9647 36.645 60.9843 36.645H61.1343C61.6877 36.6419 62.2342 36.7674 62.7307 37.0117C63.2272 37.2561 63.6601 37.6125 63.9952 38.0529C64.3303 38.4933 64.5584 39.0056 64.6615 39.5492C64.7646 40.0929 64.7399 40.6531 64.5893 41.1856C64.3621 41.8316 63.967 42.4055 63.4446 42.8482C62.9222 43.291 62.2913 43.5867 61.6168 43.705C61.6168 43.705 64.1018 44.455 63.9568 47.7131C63.8574 49.9538 60.5312 50.3488 60.5312 50.3488C60.5312 50.3488 65.3818 56.2306 56.5899 58.6556C47.7981 61.0806 38.9449 59.5931 38.9449 59.5931L27.1218 58.3556L26.7581 36.2844Z" fill="#FED19A"/>
<path d="M23.9375 35.5352H27.7825V58.9452H23.9375V35.5352Z" fill="white"/>
<path d="M23.2938 32.9316H15.625C14.9346 32.9316 14.375 33.4913 14.375 34.1816V60.6885C14.375 61.3789 14.9346 61.9385 15.625 61.9385H23.2938C23.9841 61.9385 24.5438 61.3789 24.5438 60.6885V34.1816C24.5438 33.4913 23.9841 32.9316 23.2938 32.9316Z" fill="#575B6D"/>
<path d="M19.4593 40.3742C20.5974 40.3742 21.5199 39.4516 21.5199 38.3136C21.5199 37.1755 20.5974 36.2529 19.4593 36.2529C18.3213 36.2529 17.3987 37.1755 17.3987 38.3136C17.3987 39.4516 18.3213 40.3742 19.4593 40.3742Z" fill="#EEEFEE"/>
</svg>
