<svg width="80" height="80" viewBox="0 0 80 80" fill="none" xmlns="http://www.w3.org/2000/svg">
<path d="M63.3599 23.4538V54.21H16.6399V23.4538C16.6399 22.9131 16.8547 22.3945 17.237 22.0122C17.6194 21.6298 18.1379 21.415 18.6786 21.415H61.3211C61.8619 21.415 62.3804 21.6298 62.7628 22.0122C63.1451 22.3945 63.3599 22.9131 63.3599 23.4538Z" fill="#62667C"/>
<path d="M13.75 52.1714H66.25V56.0851C66.25 56.7482 65.9866 57.3841 65.5178 57.8529C65.0489 58.3217 64.413 58.5851 63.75 58.5851H16.25C15.587 58.5851 14.9511 58.3217 14.4822 57.8529C14.0134 57.3841 13.75 56.7482 13.75 56.0851V52.1714Z" fill="#62667C"/>
<path d="M19.4001 24.0498H60.6001V52.1685H19.4001V24.0498Z" fill="#69B0EE"/>
<path d="M44.3645 54.2101H35.6358L34.457 52.1714H45.5433L44.3645 54.2101Z" fill="#828A9E"/>
<path d="M37.1461 48.785C38.2455 48.785 39.1368 47.8937 39.1368 46.7943C39.1368 45.6949 38.2455 44.8037 37.1461 44.8037C36.0467 44.8037 35.1555 45.6949 35.1555 46.7943C35.1555 47.8937 36.0467 48.785 37.1461 48.785Z" fill="#414451"/>
<path d="M37.1461 47.6951C37.6439 47.6951 38.0474 47.2916 38.0474 46.7938C38.0474 46.2961 37.6439 45.8926 37.1461 45.8926C36.6484 45.8926 36.2449 46.2961 36.2449 46.7938C36.2449 47.2916 36.6484 47.6951 37.1461 47.6951Z" fill="#DBD8DD"/>
<path d="M44.9208 48.785C46.0202 48.785 46.9114 47.8937 46.9114 46.7943C46.9114 45.6949 46.0202 44.8037 44.9208 44.8037C43.8214 44.8037 42.9302 45.6949 42.9302 46.7943C42.9302 47.8937 43.8214 48.785 44.9208 48.785Z" fill="#414451"/>
<path d="M44.9205 47.6951C45.4183 47.6951 45.8218 47.2916 45.8218 46.7938C45.8218 46.2961 45.4183 45.8926 44.9205 45.8926C44.4228 45.8926 44.0193 46.2961 44.0193 46.7938C44.0193 47.2916 44.4228 47.6951 44.9205 47.6951Z" fill="#DBD8DD"/>
<path d="M49.8501 39.6877C49.7942 39.872 49.6856 40.036 49.5377 40.1594C49.3898 40.2828 49.209 40.3602 49.0176 40.3821L35.2988 42.4471L33.0801 30.7896L51.3188 32.1702C51.4139 32.1771 51.5063 32.2054 51.589 32.2529C51.6717 32.3004 51.7427 32.3658 51.7967 32.4444C51.8507 32.5231 51.8864 32.6128 51.901 32.7071C51.9157 32.8013 51.9089 32.8976 51.8813 32.9889L49.8501 39.6877Z" fill="#EEEFEE"/>
<path d="M48.9325 44.8026H34.3444C33.9071 44.8026 33.4877 44.6289 33.1785 44.3197C32.8693 44.0105 32.6956 43.5912 32.6956 43.1539C32.6956 42.7166 32.8693 42.2972 33.1785 41.988C33.4877 41.6788 33.9071 41.5051 34.3444 41.5051H34.5675L32.375 28.7051H29.8919C29.761 28.7051 29.6355 28.6532 29.543 28.5606C29.4504 28.4681 29.3984 28.3426 29.3984 28.2117C29.3984 28.0808 29.4504 27.9553 29.543 27.8628C29.6355 27.7702 29.761 27.7183 29.8919 27.7183H32.7906C32.907 27.7182 33.0197 27.7594 33.1087 27.8344C33.1977 27.9094 33.2573 28.0135 33.2769 28.1283L35.6388 41.9151C35.651 41.986 35.6475 42.0586 35.6287 42.128C35.6099 42.1973 35.5762 42.2617 35.5298 42.3167C35.4835 42.3717 35.4257 42.4158 35.3606 42.4461C35.2954 42.4764 35.2244 42.4921 35.1525 42.492H34.3444C34.2575 42.492 34.1714 42.5091 34.0911 42.5424C34.0108 42.5757 33.9378 42.6244 33.8764 42.6859C33.8149 42.7473 33.7661 42.8203 33.7329 42.9006C33.6996 42.9809 33.6825 43.067 33.6825 43.1539C33.6825 43.2408 33.6996 43.3269 33.7329 43.4072C33.7661 43.4875 33.8149 43.5604 33.8764 43.6219C33.9378 43.6834 34.0108 43.7321 34.0911 43.7654C34.1714 43.7986 34.2575 43.8158 34.3444 43.8158H48.9325C49.0634 43.8158 49.1889 43.8678 49.2814 43.9603C49.3739 44.0528 49.4259 44.1783 49.4259 44.3092C49.4259 44.4401 49.3739 44.5656 49.2814 44.6581C49.1889 44.7506 49.0634 44.8026 48.9325 44.8026Z" fill="#EEEFEE"/>
<path d="M31.413 27.5106V28.8687C31.413 28.8876 31.4055 28.9057 31.3922 28.9191C31.3788 28.9324 31.3607 28.9399 31.3418 28.9399H28.8418C28.7433 28.9399 28.6458 28.9205 28.5548 28.8828C28.4638 28.8452 28.3811 28.7899 28.3115 28.7203C28.2418 28.6506 28.1866 28.5679 28.1489 28.477C28.1112 28.386 28.0918 28.2884 28.0918 28.1899C28.0918 27.991 28.1708 27.8003 28.3115 27.6596C28.4521 27.519 28.6429 27.4399 28.8418 27.4399H31.3418C31.3606 27.4399 31.3786 27.4474 31.392 27.4606C31.4053 27.4738 31.4129 27.4918 31.413 27.5106Z" fill="#575B6D"/>
<path d="M46.7944 33.313H46.4107C46.2429 33.313 46.1069 33.449 46.1069 33.6167V38.6824C46.1069 38.8501 46.2429 38.9861 46.4107 38.9861H46.7944C46.9622 38.9861 47.0982 38.8501 47.0982 38.6824V33.6167C47.0982 33.449 46.9622 33.313 46.7944 33.313Z" fill="#DBD8DD"/>
<path d="M42.6855 33.313H42.3018C42.134 33.313 41.998 33.449 41.998 33.6167V38.6824C41.998 38.8501 42.134 38.9861 42.3018 38.9861H42.6855C42.8533 38.9861 42.9893 38.8501 42.9893 38.6824V33.6167C42.9893 33.449 42.8533 33.313 42.6855 33.313Z" fill="#DBD8DD"/>
<path d="M38.5762 33.313H38.1924C38.0247 33.313 37.8887 33.449 37.8887 33.6167V38.6824C37.8887 38.8501 38.0247 38.9861 38.1924 38.9861H38.5762C38.7439 38.9861 38.8799 38.8501 38.8799 38.6824V33.6167C38.8799 33.449 38.7439 33.313 38.5762 33.313Z" fill="#DBD8DD"/>
</svg>
