<svg width="80" height="80" viewBox="0 0 80 80" fill="none" xmlns="http://www.w3.org/2000/svg">
<path d="M31.4024 55.5196H13.9143L17.9499 46.1665H27.3668L31.4024 55.5196Z" fill="#F6C863"/>
<path d="M15.948 53.9625L18.7561 47.7231H26.3105L19.498 49.3838L15.948 53.9625Z" fill="#EAB54E"/>
<path d="M40.147 46.1661H22.6582L26.6945 36.813H36.1107L40.147 46.1661Z" fill="#F6C863"/>
<path d="M24.6926 44.6095L27.5001 38.3701H35.0551L28.242 40.0301L24.6926 44.6095Z" fill="#EAB54E"/>
<path d="M57.6351 46.1661H40.147L44.1826 36.813H53.5989L57.6351 46.1661Z" fill="#F6C863"/>
<path d="M42.1807 44.6095L44.9882 38.3701H52.5432L45.73 40.0301L42.1807 44.6095Z" fill="#EAB54E"/>
<path d="M48.8905 36.8127H31.4023L35.438 27.459H44.8548L48.8905 36.8127Z" fill="#F6C863"/>
<path d="M33.4363 35.2561L36.2444 29.0161H43.7994L36.9863 30.6767L33.4363 35.2561Z" fill="#EAB54E"/>
<path d="M48.8905 55.5196H31.4023L35.438 46.1665H44.8548L48.8905 55.5196Z" fill="#F6C863"/>
<path d="M33.4363 53.9625L36.2444 47.7231H43.7994L36.9863 49.3838L33.4363 53.9625Z" fill="#EAB54E"/>
<path d="M66.3788 55.5196H48.8906L52.9263 46.1665H62.3431L66.3788 55.5196Z" fill="#F6C863"/>
<path d="M50.925 53.9625L53.7325 47.7231H61.2875L54.4744 49.3838L50.925 53.9625Z" fill="#EAB54E"/>
<path d="M39.457 14.6597H40.8364V20.9028H39.457V14.6597Z" fill="#F6C863"/>
<path d="M26.0916 18.5312L27.2861 17.8416L30.4077 23.2481L29.2131 23.9378L26.0916 18.5312Z" fill="#F6C863"/>
<path d="M16.4536 28.5684L17.1433 27.3738L22.5498 30.4954L21.8602 31.6899L16.4536 28.5684Z" fill="#F6C863"/>
<path d="M13.125 42.0776V40.6983H19.3681V42.0776H13.125Z" fill="#F6C863"/>
<path d="M66.875 40.9917V42.3711H60.6319V40.9917H66.875Z" fill="#F6C863"/>
<path d="M63.0037 27.6255L63.6934 28.82L58.2868 31.9416L57.5971 30.747L63.0037 27.6255Z" fill="#F6C863"/>
<path d="M52.9658 17.9883L54.1604 18.678L51.0388 24.0845L49.8443 23.3948L52.9658 17.9883Z" fill="#F6C863"/>
</svg>
