<svg width="24" height="24" viewBox="0 0 24 24" fill="none" xmlns="http://www.w3.org/2000/svg">
<path d="M15.0871 12.2883L17.4653 18.606L15.0387 17.54L14.0943 19.8751L11.7158 13.5575L15.0871 12.2883Z" fill="#EF5261"/>
<path d="M8.91243 12.2883L6.53418 18.606L8.96081 17.54L9.90524 19.8751L12.2837 13.5575L8.91243 12.2883Z" fill="#EF5261"/>
<path d="M11.9999 14.7889C14.9447 14.7889 17.3319 12.4017 17.3319 9.45694C17.3319 6.51219 14.9447 4.125 11.9999 4.125C9.05516 4.125 6.66797 6.51219 6.66797 9.45694C6.66797 12.4017 9.05516 14.7889 11.9999 14.7889Z" fill="#F6C863"/>
<path d="M12 13.8125C11.1386 13.8125 10.2965 13.557 9.58024 13.0784C8.86399 12.5999 8.30575 11.9197 7.97609 11.1238C7.64643 10.328 7.56017 9.45224 7.72821 8.60737C7.89625 7.76251 8.31105 6.98644 8.92015 6.37731C9.52925 5.76818 10.3053 5.35335 11.1502 5.18528C11.995 5.0172 12.8707 5.10342 13.6666 5.43305C14.4625 5.76267 15.1427 6.32089 15.6213 7.03712C16.0999 7.75334 16.3554 8.59541 16.3554 9.45682C16.3542 10.6116 15.8949 11.7187 15.0784 12.5353C14.2618 13.3519 13.1547 13.8112 12 13.8125Z" fill="#EAB54E"/>
<path d="M12 7.08325L12.8188 8.58025L14.4958 8.89638L13.3249 10.1378L13.5426 11.8304L12 11.1004L10.4576 11.8304L10.6751 10.1378L9.50439 8.89638L11.1812 8.58025L12 7.08325Z" fill="#F6C863"/>
</svg>
