<svg width="2000" height="587" viewBox="0 0 2000 587" fill="none" xmlns="http://www.w3.org/2000/svg">
<path d="M0 0H2000V587H0V0Z" fill="#232934"/>
<mask id="mask0" mask-type="alpha" maskUnits="userSpaceOnUse" x="0" y="0" width="2000" height="587">
<path d="M0 0H2000V587H0V0Z" fill="#232934"/>
</mask>
<g mask="url(#mask0)">
<g opacity="0.35">
<path d="M2079.29 -850H-80.7122V590H2079.29V-850Z" fill="url(#paint0_linear)"/>
<path d="M2079.29 -308.848V589.712H-80.7122V-368.464C-17.0642 -411.952 45.4318 -457.744 121.176 -477.904C251.352 -512.464 363.096 -416.848 488.664 -400.144C551.16 -391.792 613.368 -418.576 676.728 -418C787.032 -417.136 878.328 -334.768 986.616 -315.184C1101.53 -294.448 1215.29 -346 1322.42 -390.352C1429.56 -434.704 1516.25 -463.504 1622.81 -417.712C1716.41 -377.68 1816.06 -288.112 1917.43 -271.408C1966.68 -263.344 2026.01 -298.768 2079.29 -308.848Z" fill="url(#paint1_linear)"/>
<path d="M2079.29 -271.696V26.6721L1979.64 27.8241L1231.99 36.4641V-109.84C1270.01 -144.976 1332.22 -149.872 1375.42 -121.648C1386.07 -142.096 1417.46 -151.024 1437.91 -140.08C1450.3 -176.368 1484.86 -199.12 1522.87 -202C1560.89 -204.88 1599.77 -183.28 1617.34 -149.296C1636.92 -159.376 1667.74 -146.704 1682.42 -130.576C1711.8 -147.856 1761.62 -136.336 1776.89 -106.096C1785.53 -128.848 1807.13 -144.688 1830.17 -152.464C1853.21 -160.24 1879.42 -157.072 1900.15 -144.112C1903.61 -166.864 1937.59 -187.888 1958.62 -178.384C1962.65 -200.56 1975.32 -222.16 1992.31 -239.152C2002.97 -249.808 2015.35 -258.16 2028.6 -263.632C2044.44 -270.256 2062.01 -273.136 2079.29 -271.696Z" fill="url(#paint2_linear)"/>
<path d="M2079.29 51.44V590H-80.7122V14.576C81.7198 -64.0479 244.44 -142.672 406.872 -221.584C409.464 -222.736 412.056 -224.176 414.648 -225.328C419.544 -227.632 424.44 -229.936 429.048 -232.24C491.256 -261.904 556.92 -290.416 624.6 -293.008L626.904 -303.376L629.208 -293.296C640.152 -293.584 651.096 -293.008 662.04 -291.856C679.32 -289.84 696.024 -286.096 712.44 -281.2L717.336 -301.936L722.808 -277.744C723.384 -277.456 723.96 -277.456 724.536 -277.168L726.84 -287.536L729.72 -275.44C766.008 -262.48 801.144 -244.624 836.856 -229.072L839.448 -240.016L842.616 -226.48C875.448 -212.368 908.568 -200.848 944.28 -197.104C958.104 -195.664 972.216 -195.376 986.04 -195.952L989.784 -212.08L993.528 -196.24C994.104 -196.24 994.68 -196.24 995.544 -196.24L999.288 -212.08L1002.74 -196.816C1039.9 -199.408 1077.05 -205.744 1113.34 -206.608L1116.5 -219.856L1118.23 -211.792L1124.86 -240.88L1131.48 -212.368L1134.65 -226.48L1139.26 -206.32H1136.66C1138.97 -206.32 1141.27 -206.032 1143.29 -206.032L1146.17 -218.704L1149.34 -205.744C1162.87 -204.304 1176.41 -201.712 1189.37 -197.392L1192.82 -212.08L1196.86 -194.8C1198.01 -194.224 1199.45 -193.936 1200.6 -193.36L1202.04 -199.984L1203.77 -191.92C1233.14 -178.96 1257.34 -156.784 1282.39 -136.624C1290.17 -130.288 1297.94 -124.24 1306.01 -118.768L1306.58 -121.36L1307.45 -117.616C1310.62 -115.6 1313.5 -113.584 1316.66 -111.568L1320.12 -126.832L1323 -113.872L1325.3 -123.376L1329.62 -104.08C1331.35 -103.216 1333.08 -102.352 1334.81 -101.776L1337.11 -110.992L1339.7 -99.472C1342.01 -98.608 1344.31 -97.744 1346.9 -96.88L1350.07 -110.992L1353.82 -94.576C1354.68 -94.288 1355.26 -94 1356.12 -94L1357.85 -100.912L1359.58 -93.136C1400.47 -83.344 1442.81 -92.56 1485.72 -101.488L1489.46 -117.616L1492.92 -102.928C1494.65 -103.216 1496.38 -103.504 1498.1 -104.08L1502.14 -121.36L1505.88 -105.52C1529.78 -110.128 1553.69 -113.872 1577.3 -113.584C1604.95 -113.008 1630.87 -106.96 1655.93 -97.168L1657.94 -105.52L1659.67 -97.456L1662.55 -109.552L1666.3 -93.136C1674.94 -89.392 1683.58 -85.36 1691.93 -81.04L1694.23 -91.12L1697.11 -78.16C1741.18 -54.544 1782.94 -23.152 1826.71 3.63202C1841.98 12.848 1857.53 21.488 1873.37 29.264C1899.86 41.648 1927.22 50.864 1956.6 54.608C1962.94 55.472 1969.56 55.76 1976.18 56.048C1998.36 57.2 2021.11 55.472 2043.86 53.744C2055.67 52.88 2067.48 52.016 2079.29 51.44Z" fill="#E0E8EC"/>
<path d="M1885.18 162.896C1733.4 176.432 1579.61 167.216 1431 134.672C1416.6 131.504 1402.49 128.336 1388.38 124.88C1266.55 94.6396 1150.2 49.1357 1035 0.175659L1033.56 -5.87234L1032.41 -0.97641C1023.19 -5.00842 1013.98 -9.04034 1004.76 -12.7843L1001.88 -26.0324L999.288 -15.3764C999 -15.6644 998.712 -15.6644 998.136 -15.9524L996.984 -20.5604L996.12 -16.8164C894.168 -61.1684 792.792 -107.248 689.112 -147.856L687.384 -155.056L685.944 -149.008C685.08 -149.296 683.928 -149.872 683.064 -150.16L679.608 -164.848L676.728 -152.464C674.136 -153.616 671.544 -154.48 668.664 -155.632L666.648 -165.136L664.92 -157.36C662.904 -158.224 661.176 -158.8 659.16 -159.664L655.128 -177.52L652.824 -168.016L649.944 -180.688L646.2 -164.272C643.608 -165.136 640.728 -166.288 638.136 -167.44L636.408 -175.216L634.968 -168.592C600.408 -181.264 564.984 -193.072 529.272 -204.016L526.392 -216.976L523.8 -205.744C517.752 -207.472 511.992 -209.2 505.944 -210.928L501.624 -229.072L499.32 -219.568L496.44 -232.24L492.408 -214.384C485.208 -216.4 478.008 -218.128 471.096 -220.144L469.656 -226.768L468.216 -221.008C466.776 -221.296 465.624 -221.584 464.184 -222.16L459.864 -241.168L455.832 -224.176C447.192 -226.48 438.552 -228.496 429.624 -230.512L425.88 -246.928L422.424 -232.24C417.24 -233.392 412.056 -234.544 406.872 -235.696C385.272 -240.304 363.384 -244.624 341.496 -248.08L338.616 -260.752L336.024 -248.944C334.584 -249.232 333.432 -249.52 331.992 -249.52L329.4 -260.464L327.096 -250.096C322.2 -250.96 317.592 -251.536 312.696 -252.112L310.104 -263.344L307.8 -252.688C210.744 -265.936 113.112 -267.664 18.936 -252.112L16.344 -263.344L13.464 -251.248C10.872 -250.96 8.56801 -250.384 5.97601 -249.808L3.672 -259.6L1.08 -248.944C-2.66399 -248.368 -6.408 -247.504 -10.152 -246.928L-10.728 -249.808L-11.304 -246.64C-15.912 -245.776 -20.52 -244.624 -25.416 -243.76L-28.584 -257.584L-31.752 -243.472L-38.376 -271.984L-46.152 -238.864C-57.96 -235.984 -69.48 -232.816 -81 -229.072V590H2079V132.656C2015.35 147.056 1950.55 157.136 1885.18 162.896Z" fill="#E3EFF7"/>
<path d="M1338.84 240.944C1330.49 216.464 1309.18 197.168 1284.98 186.8C1258.2 175.28 1230.84 179.6 1201.75 179.312C1184.76 149.36 1154.23 128.624 1120.82 120.272C1106.42 100.976 1083.67 88.0162 1059.77 86.0002C1035.86 83.6962 1012.54 95.5042 994.68 111.632C972.792 90.8962 941.976 80.2402 912.024 82.2562C882.072 84.5602 849.816 95.7922 831.384 119.408C814.68 100.976 788.472 95.7922 769.464 111.632C744.696 74.7682 705.24 48.5602 661.752 39.9202C618.264 31.2802 562.104 40.7841 525.24 65.2641C507.96 37.3281 464.472 30.7041 439.992 52.3041C426.168 20.9121 399.096 -4.7198 367.128 -17.1038C335.16 -29.4878 294.84 -28.9118 263.448 -14.7998C255.096 -41.0078 224.856 -62.6078 197.784 -57.9998C160.92 -92.8478 102.168 -95.4399 56.0879 -74.4159C16.3439 -102.064 -32.0401 -115.888 -80.4241 -115.312V240.944H1338.84Z" fill="#FFFAF2"/>
<path d="M2079.29 -174.352V590H526.968C618.264 553.137 688.536 474.8 766.008 408.56C772.056 403.376 778.392 397.904 784.728 393.008C829.08 357.008 876.312 325.905 931.32 309.777C1027.51 281.553 1134.65 303.44 1230.26 273.488C1298.52 252.176 1353.53 206.96 1408.25 161.168C1415.74 154.832 1423.22 148.496 1431 142.448C1433.59 140.432 1435.9 138.416 1438.49 136.4C1480.54 102.128 1524.31 69.8725 1575 50.2885C1596.6 41.9365 1618.78 36.1765 1641.82 31.5685C1702.87 19.4725 1767.38 16.5924 1826.71 3.34441C1869.05 -6.15959 1908.5 -20.8476 1941.62 -47.9196C1974.74 -74.7036 1997.5 -111.28 2028.31 -140.368C2042.71 -153.904 2060.28 -166.288 2079.29 -174.352Z" fill="#C2D2DC"/>
<path d="M2061.43 424.689C1939.03 373.713 1816.34 323.025 1693.94 272.337C1673.78 263.985 1653.91 255.633 1633.75 247.281C1621.94 242.385 1610.14 237.489 1598.33 232.593L1593.14 210.417L1588.82 228.849C1587.38 228.273 1585.66 227.697 1584.22 226.833L1575 187.089L1567.51 219.921C1562.04 217.617 1556.57 215.601 1551.1 213.297L1545.05 186.801L1539.86 208.689C1536.12 207.249 1532.38 205.809 1528.63 204.369L1517.98 158.577L1512.79 180.465L1505.88 150.801L1496.38 192.273C1490.04 189.969 1483.7 187.665 1477.66 185.361L1474.2 170.673L1471.32 183.057C1450.3 175.281 1429.27 168.081 1407.96 161.169C1350.36 142.449 1297.37 128.625 1245.24 120.849L1242.65 109.041L1240.06 119.985C1224.5 117.681 1208.95 115.953 1193.4 115.089L1185.34 80.8167L1180.15 102.705L1173.24 73.0407L1163.74 113.937C1148.18 113.649 1132.63 113.649 1117.08 114.513L1110.46 86.2887L1103.83 115.377C1103.26 115.377 1102.68 115.377 1102.1 115.377L1087.7 52.8807L1072.73 118.257C1066.68 118.833 1060.63 119.697 1054.58 120.561L1050.84 104.433L1046.81 121.713C1030.97 124.017 1014.84 127.185 998.424 130.641C848.088 163.473 700.92 218.769 549.144 192.273C548.28 192.273 547.704 191.985 546.84 191.697L543.096 174.705L539.64 190.257C518.904 185.937 498.744 179.601 479.16 172.113L469.08 128.337L462.168 158.001L458.424 141.297L453.816 161.457C369.432 122.865 292.824 61.5207 206.136 23.2167L203.256 10.2567L200.664 20.9127C183.384 13.4246 165.816 7.08863 147.672 1.90462L143.064 -17.9674L139.032 -0.399338C126.936 -3.56734 114.84 -6.15936 102.168 -7.88735L98.136 -24.8793L95.256 -12.2074L87.192 -52.2393L77.688 -11.9193C73.368 -12.2073 69.336 -12.4953 65.016 -12.7833L57.816 -43.5993L50.616 -12.7833C42.84 -12.7833 34.776 -12.4953 26.712 -11.9193L24.696 -20.2713L22.68 -11.6313C12.024 -10.7673 1.368 -9.32732 -9.864 -7.31132L-17.064 -38.7033L-24.552 -6.15934L-39.816 -72.1113L-57.384 4.20868C-65.16 6.51268 -73.224 9.39265 -81 12.2726V590.001H2079V432.177C2073.24 429.585 2067.19 426.993 2061.43 424.689Z" fill="#C2D2DC"/>
<path d="M2079.29 -66.6407V523.471H972.504C975.384 510.799 980.28 498.703 987.192 487.471C991.512 480.559 996.12 473.935 1001.59 467.887C1005.62 463.567 1009.66 459.535 1014.26 456.079C1022.33 449.743 1030.97 444.559 1040.76 441.679C1056.02 437.071 1073.59 438.799 1086.55 448.015C1088.86 431.023 1103.26 419.503 1119.38 416.047C1129.46 414.031 1157.11 415.183 1162.3 427.855C1162.58 428.431 1162.58 429.007 1162.87 429.583C1162.87 429.007 1162.58 428.431 1162.58 427.855C1158.55 403.951 1177.27 379.183 1199.45 368.815C1221.91 358.159 1248.41 359.311 1272.89 364.207C1281.53 351.247 1292.18 341.455 1305.43 339.439C1309.75 338.863 1314.36 338.863 1319.26 340.015C1327.03 312.367 1354.39 293.071 1382.62 288.751C1411.13 284.431 1441.37 298.255 1456.92 322.447C1480.54 299.983 1519.99 299.119 1544.18 320.431C1570.97 267.727 1635.19 242.383 1693.66 251.599C1695.67 251.887 1697.69 252.175 1699.7 252.751C1699.7 251.311 1699.42 250.159 1699.42 248.719C1697.11 220.495 1704.89 189.679 1723.9 168.655C1725.34 166.927 1726.78 165.487 1728.5 164.047C1751.83 142.447 1785.53 132.655 1816.63 138.415C1820.38 118.831 1837.08 104.143 1855.8 97.2313C1869.91 91.7593 1886.33 92.6233 1900.15 98.6713C1904.47 100.399 1908.22 102.991 1911.96 105.871C1912.54 104.431 1912.82 103.279 1913.69 101.839C1923.77 79.3753 1952.57 62.0953 1974.74 71.8873C1975.32 66.4153 1975.61 61.2313 1976.18 55.7593C1977.05 46.2553 1978.2 37.0394 1979.64 27.5354C1982.52 9.96737 1987.13 -7.02465 1996.34 -23.1526C2013.05 -51.9526 2046.46 -74.1287 2079.29 -66.6407Z" fill="#EFF4F6"/>
<path d="M2079.29 34.448V590H-80.7122V293.36C-8.42416 247.28 66.4558 205.232 148.536 181.328C158.04 178.448 167.544 176.144 177.048 174.416L193.176 104.144L208.44 170.096C213.048 169.808 217.656 169.232 222.264 168.944L230.328 134.672L236.952 162.896L248.76 111.344L262.008 169.52C291.672 171.824 321.048 177.872 349.56 187.088L353.88 168.08L359.064 190.256C395.352 203.216 430.776 221.072 464.472 242.384C508.824 270.32 554.616 303.728 598.68 335.12C640.728 364.784 683.352 401.936 737.784 400.496C747.288 400.208 756.792 399.056 766.008 397.328C772.344 396.176 778.392 394.736 784.728 393.296C812.952 386.672 841.176 378.032 869.688 381.776C890.424 384.368 909.144 393.008 927 403.664L929.592 392.72L933.048 407.12C938.232 410.288 943.416 413.744 948.312 417.2L960.984 362.192L978.264 437.072C987.192 442.544 996.12 447.728 1005.34 452.048C1008.22 453.488 1011.38 454.64 1014.55 456.08C1087.42 485.168 1171.51 464.144 1246.97 439.664C1285.85 426.992 1324.15 413.744 1362.46 399.344L1378.87 328.496L1392.7 387.824C1395.58 386.672 1398.74 385.52 1401.62 384.368L1407.96 357.008L1413.14 379.76C1509.05 342.032 1602.94 299.408 1694.52 251.6C1696.54 250.736 1698.26 249.584 1700.28 248.72C1740.02 227.984 1779.48 206.096 1818.36 183.632L1822.1 167.216L1824.41 157.712L1826.71 167.216L1829.02 177.584C1835.64 173.84 1841.98 169.808 1848.6 166.064C1855.22 162.032 1861.85 158 1868.47 153.968C1874.23 150.512 1880.28 146.768 1886.04 143.312C1888.06 142.16 1889.78 141.008 1891.8 139.856L1901.3 98.96L1907.64 71.312L1914.84 102.128L1919.74 123.152C1928.09 118.256 1936.73 113.072 1945.08 108.464L1949.98 87.44L1953.72 103.568C1982.81 87.44 2012.47 73.328 2043 62.96L2045.02 54.032L2051.06 27.248L2051.35 26.672L2051.64 27.248L2056.25 47.12L2060.86 26.96L2069.78 -12.208L2080.73 26.96V34.448H2079.29Z" fill="#A4B6C5"/>
<path d="M2004.7 439.952L1973.59 385.52L1952.86 450.32L1937.59 414.32L1921.18 467.6C1919.16 467.6 1917.14 467.888 1915.13 467.888L1894.39 376.88L1884.6 439.376L1864.15 349.808L1845.14 470.768H1844.86L1834.2 431.024L1823.83 471.92C1795.61 473.36 1767.38 475.088 1739.16 476.816L1723.32 431.6L1714.39 463.568L1698.84 407.12L1687.9 477.392L1677.53 446.576L1667.45 481.424C1657.08 482.288 1647 482.864 1636.63 483.728L1630.87 457.808L1625.4 484.592C1621.37 484.88 1617.05 485.168 1613.02 485.456L1600.63 431.024L1589.4 487.184C1579.9 488.048 1570.1 488.624 1560.6 489.488L1552.82 467.024L1545.34 490.64C1504.15 494.096 1463.26 497.84 1422.36 501.872L1407.67 456.656L1396.15 498.416L1375.42 444.272L1355.54 508.496C1347.48 509.36 1339.7 510.224 1331.64 511.088L1322.42 470.768L1315.8 512.816C1313.21 513.104 1310.62 513.392 1308.02 513.68L1292.18 443.984L1280.66 516.56C1247.54 520.304 1214.71 524.336 1181.88 528.08L1163.74 486.608L1151.93 525.2L1143.58 498.992L1135.8 534.128C1094.62 539.312 1054.01 544.784 1013.98 550.544L992.952 472.208L973.656 556.304C965.016 557.456 956.376 558.896 948.024 560.048L943.704 540.752L938.232 561.776C923.544 564.08 908.856 566.096 894.168 568.4L864.504 472.784L832.536 556.592L814.68 491.792L789.336 570.416C766.008 566.96 742.968 563.504 720.216 560.048L695.448 482.288L670.968 553.136C662.616 551.984 654.264 550.832 646.2 549.68L621.72 426.416L595.224 542.768C593.496 542.48 592.056 542.48 590.328 542.192L574.776 467.888L558.648 538.16C547.992 536.72 537.048 535.28 526.392 534.128L502.2 450.608L486.072 498.416L469.08 389.84L445.176 477.104L431.352 427.568L400.536 515.696L373.752 516.272C341.496 512.816 310.104 509.36 279.864 506.48L259.992 426.704L243.576 488.336L213.624 301.136L182.52 442.832L166.968 342.32L132.408 492.656C130.968 492.656 129.528 492.368 128.088 492.368L99.8638 400.784L76.2478 456.656L44.2799 356.72L-3.81615 440.816L-62.2802 179.024C-62.2802 179.024 -69.7682 204.944 -80.7122 241.808V590H2079.29V394.736C2062.87 338.288 2042.71 270.896 2042.71 270.896L2004.7 439.952Z" fill="#232934"/>
</g>
</g>
<defs>
<linearGradient id="paint0_linear" x1="1014.07" y1="-850.776" x2="1003.89" y2="-354.52" gradientUnits="userSpaceOnUse">
<stop stop-color="#FFC875"/>
<stop offset="1" stop-color="#FFE6C1"/>
</linearGradient>
<linearGradient id="paint1_linear" x1="1027.38" y1="-383.655" x2="1015.29" y2="-170.866" gradientUnits="userSpaceOnUse">
<stop stop-color="#FFB05C"/>
<stop offset="1" stop-color="#FFC875"/>
</linearGradient>
<linearGradient id="paint2_linear" x1="1643.8" y1="-237.897" x2="1659.12" y2="-82.2014" gradientUnits="userSpaceOnUse">
<stop stop-color="#FFFAF2"/>
<stop offset="0.9975" stop-color="#FFE6C1" stop-opacity="0"/>
</linearGradient>
</defs>
</svg>
