<svg width="318" height="42" viewBox="0 0 318 42" fill="none" xmlns="http://www.w3.org/2000/svg">
<path d="M46.664 30.296C47.08 30.296 47.4 30.488 47.624 30.872C47.88 31.256 48.008 31.784 48.008 32.456C48.008 33.704 47.704 34.696 47.096 35.432C45.464 37.448 43.832 38.92 42.2 39.848C40.6 40.776 38.888 41.24 37.064 41.24C34.344 41.24 32.232 40.44 30.728 38.84C29.224 37.208 28.472 35.032 28.472 32.312C28.472 30.616 28.856 27.88 29.624 24.104L31.4 15.32C32.296 10.904 32.808 7.88 32.936 6.248C30.824 6.152 28.328 6.104 25.448 6.104C23.72 6.104 22.472 6.12 21.704 6.152C20.552 11.976 19.464 17.88 18.44 23.864C18.088 26.04 17.72 28.568 17.336 31.448C16.952 34.296 16.696 36.6 16.568 38.36C16.504 39.288 16.12 40.008 15.416 40.52C14.712 41 13.864 41.24 12.872 41.24C11.816 41.24 11 40.984 10.424 40.472C9.848 39.96 9.56 39.288 9.56 38.456C9.56 37.688 9.672 36.424 9.896 34.664C10.152 32.872 10.44 31 10.76 29.048C11.112 27.096 11.384 25.4 11.576 23.96C11.992 21.304 12.44 18.712 12.92 16.184C13.4 13.656 13.88 11.224 14.36 8.888L14.84 6.584C11.864 6.936 9.704 7.512 8.36 8.312C7.048 9.112 6.392 10.2 6.392 11.576C6.392 12.696 6.664 13.672 7.208 14.504C7.368 14.728 7.448 15.016 7.448 15.368C7.448 16.008 7.096 16.6 6.392 17.144C5.72 17.656 5 17.912 4.232 17.912C3.688 17.912 3.24 17.752 2.888 17.432C2.248 16.888 1.72 16.12 1.304 15.128C0.888 14.104 0.68 12.952 0.68 11.672C0.68 8.952 1.624 6.776 3.512 5.144C5.4 3.48 8.248 2.264 12.056 1.496C15.896 0.727998 20.84 0.343997 26.888 0.343997C33.16 0.343997 39.304 0.823997 45.32 1.784C46.312 1.944 47.016 2.28 47.432 2.792C47.88 3.272 48.104 3.832 48.104 4.472C48.104 5.432 47.864 6.168 47.384 6.68C46.904 7.16 46.184 7.4 45.224 7.4C44.872 7.4 44.6 7.384 44.408 7.352L39.56 6.728C39.432 8.968 39.096 11.272 38.552 13.64L35.624 27.368C35.304 28.968 35.144 30.344 35.144 31.496C35.144 32.84 35.448 33.848 36.056 34.52C36.696 35.192 37.576 35.528 38.696 35.528C39.752 35.528 40.776 35.176 41.768 34.472C42.792 33.768 43.992 32.6 45.368 30.968C45.752 30.52 46.184 30.296 46.664 30.296ZM51.3969 41.24C49.9569 41.24 48.7729 40.584 47.8449 39.272C46.9489 37.928 46.5009 36.264 46.5009 34.28C46.5009 31.88 46.6609 29.688 46.9809 27.704C47.3009 25.688 47.8289 23.56 48.5649 21.32C48.8849 20.36 49.3329 19.672 49.9089 19.256C50.4849 18.84 51.3969 18.632 52.6449 18.632C53.3489 18.632 53.8289 18.744 54.0849 18.968C54.3729 19.192 54.5169 19.528 54.5169 19.976C54.5169 20.232 54.3409 21.096 53.9889 22.568C53.6689 23.752 53.4129 24.824 53.2209 25.784C52.5809 29.144 52.2609 31.384 52.2609 32.504C52.2609 33.176 52.3409 33.656 52.5009 33.944C52.6609 34.2 52.9169 34.328 53.2689 34.328C53.7489 34.328 54.3409 33.848 55.0449 32.888C55.7809 31.928 56.5489 30.472 57.3489 28.52C58.1809 26.568 58.9809 24.168 59.7489 21.32C60.0049 20.36 60.3889 19.672 60.9009 19.256C61.4449 18.84 62.2449 18.632 63.3009 18.632C64.0369 18.632 64.5489 18.728 64.8369 18.92C65.1249 19.08 65.2689 19.4 65.2689 19.88C65.2689 20.68 64.8689 22.872 64.0689 26.456C63.1729 30.552 62.7249 33.08 62.7249 34.04C62.7249 34.648 62.8529 35.128 63.1089 35.48C63.3649 35.8 63.7009 35.96 64.1169 35.96C64.7569 35.96 65.5089 35.576 66.3729 34.808C67.2689 34.008 68.4529 32.728 69.9249 30.968C70.3089 30.52 70.7409 30.296 71.2209 30.296C71.6369 30.296 71.9569 30.488 72.1809 30.872C72.4369 31.256 72.5649 31.784 72.5649 32.456C72.5649 33.736 72.2609 34.728 71.6529 35.432C70.2769 37.128 68.7889 38.52 67.1889 39.608C65.6209 40.696 63.8289 41.24 61.8129 41.24C60.2769 41.24 59.1409 40.648 58.4049 39.464C57.7009 38.28 57.3489 36.616 57.3489 34.472C56.8049 36.648 55.9889 38.328 54.9009 39.512C53.8129 40.664 52.6449 41.24 51.3969 41.24ZM99.3928 30.296C99.8088 30.296 100.129 30.488 100.353 30.872C100.609 31.256 100.737 31.784 100.737 32.456C100.737 33.736 100.433 34.728 99.8248 35.432C98.7688 36.68 97.8408 37.688 97.0408 38.456C96.2728 39.192 95.3128 39.848 94.1608 40.424C93.0408 40.968 91.7608 41.24 90.3208 41.24C88.4328 41.24 87.0888 40.504 86.2888 39.032C85.4888 37.528 85.0888 35.272 85.0888 32.264C85.0888 30.76 85.1528 29.304 85.2808 27.896H85.1848C83.9048 32.152 82.3208 35.432 80.4328 37.736C78.5768 40.04 76.4488 41.192 74.0488 41.192C72.4168 41.192 71.1368 40.6 70.2088 39.416C69.2808 38.232 68.8168 36.744 68.8168 34.952C68.8168 33.352 69.1848 32.056 69.9208 31.064C70.6568 30.072 71.6968 29.576 73.0408 29.576C73.6488 29.576 74.0968 29.704 74.3848 29.96C74.7048 30.216 74.8328 30.568 74.7688 31.016C74.5128 32.552 74.3848 33.608 74.3848 34.184C74.3848 35.336 74.6728 35.912 75.2488 35.912C75.5688 35.912 75.9208 35.672 76.3048 35.192C76.7208 34.712 77.4088 33.544 78.3688 31.688C79.1048 30.28 79.8568 28.696 80.6248 26.936C81.4248 25.176 82.0808 23.608 82.5928 22.232C83.1048 20.888 83.6968 19.976 84.3688 19.496C85.0408 18.984 86.0008 18.728 87.2488 18.728C88.4648 18.728 89.3608 18.968 89.9368 19.448C90.5128 19.928 90.8008 20.712 90.8008 21.8L90.7048 25.352C90.5768 28.04 90.5128 29.976 90.5128 31.16C90.5128 34.52 91.2008 36.2 92.5768 36.2C93.1528 36.2 93.7128 35.928 94.2568 35.384C94.8328 34.84 95.7128 33.848 96.8968 32.408L98.0968 30.968C98.4808 30.52 98.9128 30.296 99.3928 30.296ZM104.712 41.24C103.272 41.24 102.088 40.584 101.16 39.272C100.264 37.928 99.8165 36.264 99.8165 34.28C99.8165 31.88 99.9765 29.688 100.296 27.704C100.616 25.688 101.144 23.56 101.88 21.32C102.2 20.36 102.648 19.672 103.224 19.256C103.8 18.84 104.712 18.632 105.96 18.632C106.664 18.632 107.144 18.744 107.4 18.968C107.688 19.192 107.832 19.528 107.832 19.976C107.832 20.232 107.656 21.096 107.304 22.568C106.984 23.752 106.728 24.824 106.536 25.784C105.896 29.144 105.576 31.384 105.576 32.504C105.576 33.176 105.656 33.656 105.816 33.944C105.976 34.2 106.232 34.328 106.584 34.328C107.064 34.328 107.656 33.848 108.36 32.888C109.096 31.928 109.864 30.472 110.664 28.52C111.496 26.568 112.296 24.168 113.064 21.32C113.32 20.36 113.704 19.672 114.216 19.256C114.76 18.84 115.56 18.632 116.616 18.632C117.352 18.632 117.864 18.728 118.152 18.92C118.44 19.08 118.584 19.4 118.584 19.88C118.584 20.68 118.184 22.872 117.384 26.456C116.488 30.552 116.04 33.08 116.04 34.04C116.04 34.648 116.168 35.128 116.424 35.48C116.68 35.8 117.016 35.96 117.432 35.96C118.072 35.96 118.824 35.576 119.688 34.808C120.584 34.008 121.768 32.728 123.24 30.968C123.624 30.52 124.056 30.296 124.536 30.296C124.952 30.296 125.272 30.488 125.496 30.872C125.752 31.256 125.88 31.784 125.88 32.456C125.88 33.736 125.576 34.728 124.968 35.432C123.592 37.128 122.104 38.52 120.504 39.608C118.936 40.696 117.144 41.24 115.128 41.24C113.592 41.24 112.456 40.648 111.72 39.464C111.016 38.28 110.664 36.616 110.664 34.472C110.12 36.648 109.304 38.328 108.216 39.512C107.128 40.664 105.96 41.24 104.712 41.24ZM162.164 30.296C162.58 30.296 162.9 30.488 163.124 30.872C163.38 31.256 163.508 31.784 163.508 32.456C163.508 33.768 163.204 34.776 162.596 35.48C161.124 37.208 159.684 38.6 158.276 39.656C156.9 40.712 155.38 41.24 153.716 41.24C152.02 41.24 150.804 40.6 150.068 39.32C149.332 38.04 148.964 36.184 148.964 33.752C148.964 31.64 149.22 29 149.732 25.832H149.636C148.836 27.208 148.084 28.76 147.38 30.488C146.676 32.216 145.892 34.264 145.028 36.632L144.212 38.792C143.86 39.752 143.444 40.408 142.964 40.76C142.484 41.08 141.908 41.24 141.236 41.24C140.532 41.24 140.02 41.048 139.7 40.664C139.38 40.28 139.092 39.672 138.836 38.84C138.548 37.88 138.308 36.568 138.116 34.904C137.924 33.208 137.828 31.496 137.828 29.768C137.828 28.712 137.876 27.704 137.972 26.744H137.876C137.076 29.848 136.292 32.408 135.524 34.424C134.756 36.408 133.716 38.04 132.404 39.32C131.092 40.568 129.428 41.192 127.412 41.192C125.716 41.192 124.404 40.6 123.476 39.416C122.58 38.232 122.132 36.744 122.132 34.952C122.132 33.352 122.5 32.024 123.236 30.968C123.972 29.88 125.012 29.336 126.356 29.336C127.636 29.336 128.276 29.768 128.276 30.632C128.276 30.792 128.26 30.92 128.228 31.016C127.972 32.552 127.844 33.64 127.844 34.28C127.844 35.368 128.084 35.912 128.564 35.912C129.012 35.912 129.46 35.592 129.908 34.952C130.356 34.28 130.98 32.84 131.78 30.632C132.868 27.656 133.892 24.616 134.852 21.512C135.172 20.52 135.636 19.8 136.244 19.352C136.884 18.872 137.732 18.632 138.788 18.632C139.684 18.632 140.42 18.808 140.996 19.16C141.604 19.512 141.908 20.088 141.908 20.888C141.908 25.528 142.02 29.064 142.244 31.496H142.34C142.884 29.672 143.732 27.576 144.884 25.208C146.036 22.84 146.948 21.288 147.62 20.552C148.228 19.912 148.836 19.432 149.444 19.112C150.084 18.76 150.788 18.584 151.556 18.584C152.708 18.584 153.492 18.84 153.908 19.352C154.324 19.832 154.532 20.744 154.532 22.088C154.532 22.824 154.516 23.56 154.484 24.296C154.452 25 154.42 25.656 154.388 26.264C154.26 28.632 154.196 30.392 154.196 31.544C154.196 33.368 154.324 34.6 154.58 35.24C154.836 35.88 155.316 36.2 156.02 36.2C157.3 36.2 158.916 34.52 160.868 31.16C161.22 30.584 161.652 30.296 162.164 30.296Z" fill="#E48D56"/>
<path d="M209.558 30.296C209.974 30.296 210.294 30.488 210.518 30.872C210.774 31.256 210.902 31.784 210.902 32.456C210.902 33.704 210.598 34.696 209.99 35.432C208.454 37.288 206.902 38.728 205.334 39.752C203.766 40.744 201.91 41.24 199.766 41.24C197.398 41.24 195.462 40.552 193.958 39.176C192.454 37.768 191.046 35.592 189.734 32.648C188.774 30.536 187.974 28.968 187.334 27.944C186.726 26.888 186.118 26.152 185.51 25.736C184.902 25.288 184.134 25.016 183.206 24.92L182.678 28.472C182.006 33.048 180.694 36.344 178.742 38.36C176.822 40.376 174.166 41.384 170.774 41.384C168.566 41.384 166.598 40.856 164.87 39.8C163.174 38.712 161.99 37.336 161.318 35.672C161.094 35.096 160.982 34.472 160.982 33.8C160.982 32.84 161.206 32.008 161.654 31.304C162.102 30.6 162.678 30.248 163.382 30.248C163.798 30.248 164.15 30.36 164.438 30.584C164.726 30.776 164.998 31.128 165.254 31.64C166.246 33.496 167.11 34.792 167.846 35.528C168.614 36.264 169.558 36.632 170.678 36.632C171.958 36.632 173.046 36.056 173.942 34.904C174.87 33.72 175.526 31.912 175.91 29.48L176.582 24.92H175.814C175.078 24.92 174.502 24.712 174.086 24.296C173.67 23.88 173.462 23.304 173.462 22.568C173.462 21.736 173.67 21.08 174.086 20.6C174.534 20.088 175.078 19.832 175.718 19.832H177.302C177.526 18.264 177.686 17.176 177.782 16.568L179.27 5.768C178.438 5.672 177.654 5.624 176.918 5.624C174.198 5.624 172.134 6.104 170.726 7.064C169.318 7.992 168.614 9.336 168.614 11.096C168.614 11.896 168.694 12.552 168.854 13.064C169.046 13.544 169.286 14.088 169.574 14.696C169.702 14.952 169.766 15.24 169.766 15.56C169.766 16.264 169.43 16.888 168.758 17.432C168.118 17.944 167.398 18.2 166.598 18.2C165.574 18.2 164.822 17.752 164.342 16.856C163.382 15.16 162.902 13.336 162.902 11.384C162.902 9.368 163.446 7.528 164.534 5.864C165.654 4.2 167.334 2.872 169.574 1.88C171.814 0.855997 174.582 0.343997 177.878 0.343997C179.318 0.343997 180.63 0.423997 181.814 0.583997C183.03 0.743999 184.358 1.048 185.798 1.496C187.366 1.976 188.15 2.872 188.15 4.184C188.15 5.944 187.398 6.824 185.894 6.824L184.022 19.736C187.766 19.352 190.806 17.752 193.142 14.936C195.51 12.088 197.478 8.232 199.046 3.368C199.334 2.472 199.814 1.784 200.486 1.304C201.19 0.823997 202.07 0.583997 203.126 0.583997C204.022 0.583997 204.71 0.791997 205.19 1.208C205.702 1.592 205.958 2.152 205.958 2.888C205.958 3.112 205.894 3.48 205.766 3.992C204.166 9.272 201.878 13.464 198.902 16.568C195.926 19.672 192.678 21.736 189.158 22.76C190.374 23.048 191.366 23.48 192.134 24.056C192.934 24.632 193.606 25.352 194.15 26.216C194.694 27.048 195.318 28.216 196.022 29.72C197.014 31.832 197.942 33.336 198.806 34.232C199.67 35.096 200.678 35.528 201.83 35.528C202.854 35.528 203.83 35.192 204.758 34.52C205.686 33.816 206.854 32.632 208.262 30.968C208.646 30.52 209.078 30.296 209.558 30.296ZM233.871 26.264C234.287 26.264 234.607 26.472 234.831 26.888C235.055 27.304 235.167 27.832 235.167 28.472C235.167 30.008 234.703 30.92 233.775 31.208C231.855 31.88 229.743 32.264 227.439 32.36C226.831 35.048 225.631 37.208 223.839 38.84C222.047 40.44 220.015 41.24 217.743 41.24C215.823 41.24 214.175 40.776 212.799 39.848C211.455 38.92 210.431 37.688 209.727 36.152C209.023 34.616 208.671 32.952 208.671 31.16C208.671 28.728 209.135 26.568 210.063 24.68C210.991 22.76 212.271 21.272 213.903 20.216C215.535 19.128 217.343 18.584 219.327 18.584C221.759 18.584 223.711 19.432 225.183 21.128C226.687 22.792 227.567 24.856 227.823 27.32C229.327 27.224 231.119 26.904 233.199 26.36C233.455 26.296 233.679 26.264 233.871 26.264ZM218.127 36.152C219.151 36.152 220.031 35.736 220.767 34.904C221.535 34.072 222.047 32.872 222.303 31.304C221.311 30.632 220.543 29.752 219.999 28.664C219.487 27.576 219.231 26.424 219.231 25.208C219.231 24.696 219.279 24.184 219.375 23.672H219.135C217.855 23.672 216.783 24.296 215.919 25.544C215.087 26.76 214.671 28.488 214.671 30.728C214.671 32.488 215.007 33.832 215.679 34.76C216.383 35.688 217.199 36.152 218.127 36.152ZM242.616 41.24C239.48 41.24 237.032 40.36 235.272 38.6C233.544 36.808 232.68 34.456 232.68 31.544C232.68 28.952 233.192 26.68 234.216 24.728C235.24 22.776 236.568 21.272 238.2 20.216C239.832 19.16 241.544 18.632 243.336 18.632C245.096 18.632 246.456 19.16 247.416 20.216C248.408 21.24 248.904 22.568 248.904 24.2C248.904 25.544 248.6 26.68 247.992 27.608C247.416 28.536 246.648 29 245.688 29C245.08 29 244.584 28.856 244.2 28.568C243.848 28.28 243.672 27.88 243.672 27.368C243.672 27.144 243.704 26.888 243.768 26.6C243.832 26.312 243.88 26.104 243.912 25.976C244.072 25.496 244.152 25.048 244.152 24.632C244.152 24.216 244.04 23.896 243.816 23.672C243.624 23.448 243.336 23.336 242.952 23.336C242.216 23.336 241.528 23.672 240.888 24.344C240.248 24.984 239.736 25.864 239.352 26.984C238.968 28.104 238.776 29.336 238.776 30.68C238.776 34.392 240.392 36.248 243.624 36.248C244.936 36.248 246.344 35.816 247.848 34.952C249.384 34.056 250.888 32.728 252.36 30.968C252.744 30.52 253.176 30.296 253.656 30.296C254.072 30.296 254.392 30.488 254.616 30.872C254.872 31.256 255 31.784 255 32.456C255 33.672 254.696 34.664 254.088 35.432C252.584 37.288 250.776 38.728 248.664 39.752C246.584 40.744 244.568 41.24 242.616 41.24ZM258.416 41.24C256.976 41.24 255.792 40.584 254.864 39.272C253.968 37.928 253.52 36.264 253.52 34.28C253.52 31.88 253.68 29.688 254 27.704C254.32 25.688 254.848 23.56 255.584 21.32C255.904 20.36 256.352 19.672 256.928 19.256C257.504 18.84 258.416 18.632 259.664 18.632C260.368 18.632 260.848 18.744 261.104 18.968C261.392 19.192 261.536 19.528 261.536 19.976C261.536 20.232 261.36 21.096 261.008 22.568C260.688 23.752 260.432 24.824 260.24 25.784C259.6 29.144 259.28 31.384 259.28 32.504C259.28 33.176 259.36 33.656 259.52 33.944C259.68 34.2 259.936 34.328 260.288 34.328C260.768 34.328 261.36 33.848 262.064 32.888C262.8 31.928 263.568 30.472 264.368 28.52C265.2 26.568 266 24.168 266.768 21.32C267.024 20.36 267.408 19.672 267.92 19.256C268.464 18.84 269.264 18.632 270.32 18.632C271.056 18.632 271.568 18.728 271.856 18.92C272.144 19.08 272.288 19.4 272.288 19.88C272.288 20.68 271.888 22.872 271.088 26.456C270.192 30.552 269.744 33.08 269.744 34.04C269.744 34.648 269.872 35.128 270.128 35.48C270.384 35.8 270.72 35.96 271.136 35.96C271.776 35.96 272.528 35.576 273.392 34.808C274.288 34.008 275.472 32.728 276.944 30.968C277.328 30.52 277.76 30.296 278.24 30.296C278.656 30.296 278.976 30.488 279.2 30.872C279.456 31.256 279.584 31.784 279.584 32.456C279.584 33.736 279.28 34.728 278.672 35.432C277.296 37.128 275.808 38.52 274.208 39.608C272.64 40.696 270.848 41.24 268.832 41.24C267.296 41.24 266.16 40.648 265.424 39.464C264.72 38.28 264.368 36.616 264.368 34.472C263.824 36.648 263.008 38.328 261.92 39.512C260.832 40.664 259.664 41.24 258.416 41.24ZM315.868 30.296C316.284 30.296 316.604 30.488 316.828 30.872C317.084 31.256 317.212 31.784 317.212 32.456C317.212 33.768 316.908 34.776 316.3 35.48C314.828 37.208 313.388 38.6 311.98 39.656C310.604 40.712 309.084 41.24 307.42 41.24C305.724 41.24 304.508 40.6 303.772 39.32C303.036 38.04 302.668 36.184 302.668 33.752C302.668 31.64 302.924 29 303.436 25.832H303.34C302.54 27.208 301.788 28.76 301.084 30.488C300.38 32.216 299.596 34.264 298.732 36.632L297.916 38.792C297.564 39.752 297.148 40.408 296.668 40.76C296.188 41.08 295.612 41.24 294.94 41.24C294.236 41.24 293.724 41.048 293.404 40.664C293.084 40.28 292.796 39.672 292.54 38.84C292.252 37.88 292.012 36.568 291.82 34.904C291.628 33.208 291.532 31.496 291.532 29.768C291.532 28.712 291.58 27.704 291.676 26.744H291.58C290.78 29.848 289.996 32.408 289.228 34.424C288.46 36.408 287.42 38.04 286.108 39.32C284.796 40.568 283.132 41.192 281.116 41.192C279.42 41.192 278.108 40.6 277.18 39.416C276.284 38.232 275.836 36.744 275.836 34.952C275.836 33.352 276.204 32.024 276.94 30.968C277.676 29.88 278.716 29.336 280.06 29.336C281.34 29.336 281.98 29.768 281.98 30.632C281.98 30.792 281.964 30.92 281.932 31.016C281.676 32.552 281.548 33.64 281.548 34.28C281.548 35.368 281.788 35.912 282.268 35.912C282.716 35.912 283.164 35.592 283.612 34.952C284.06 34.28 284.684 32.84 285.484 30.632C286.572 27.656 287.596 24.616 288.556 21.512C288.876 20.52 289.34 19.8 289.948 19.352C290.588 18.872 291.436 18.632 292.492 18.632C293.388 18.632 294.124 18.808 294.7 19.16C295.308 19.512 295.612 20.088 295.612 20.888C295.612 25.528 295.724 29.064 295.948 31.496H296.044C296.588 29.672 297.436 27.576 298.588 25.208C299.74 22.84 300.652 21.288 301.324 20.552C301.932 19.912 302.54 19.432 303.148 19.112C303.788 18.76 304.492 18.584 305.26 18.584C306.412 18.584 307.196 18.84 307.612 19.352C308.028 19.832 308.236 20.744 308.236 22.088C308.236 22.824 308.22 23.56 308.188 24.296C308.156 25 308.124 25.656 308.092 26.264C307.964 28.632 307.9 30.392 307.9 31.544C307.9 33.368 308.028 34.6 308.284 35.24C308.54 35.88 309.02 36.2 309.724 36.2C311.004 36.2 312.62 34.52 314.572 31.16C314.924 30.584 315.356 30.296 315.868 30.296Z" fill="#538742"/>
</svg>
