<svg width="52" height="52" viewBox="0 0 52 52" fill="none" xmlns="http://www.w3.org/2000/svg">
<path d="M12.3752 21.1803H40.6689V40.7124H12.3752V21.1803Z" fill="#EEEFEE"/>
<path d="M14.6444 25.1551H23.0774C23.1493 25.1551 23.2184 25.1837 23.2692 25.2345C23.3201 25.2854 23.3487 25.3545 23.3487 25.4264V40.7124H14.373V25.426C14.3732 25.3541 14.4018 25.2852 14.4527 25.2344C14.5036 25.1836 14.5725 25.1551 14.6444 25.1551Z" fill="#575B6D"/>
<path d="M22.7483 25.8282V40.7124H14.9739V25.8282H22.7483Z" fill="#F6B863"/>
<path d="M25.8599 26.3944H38.3183V34.9639H25.8599V26.3944Z" fill="#69B0EE"/>
<path d="M38.6226 19.8981H42.6562V21.8562C42.6562 22.391 42.4438 22.904 42.0656 23.2822C41.6874 23.6604 41.1744 23.8728 40.6396 23.8728C40.3747 23.8729 40.1125 23.8208 39.8677 23.7194C39.623 23.6181 39.4007 23.4696 39.2134 23.2823C39.0261 23.0951 38.8775 22.8727 38.7761 22.628C38.6747 22.3833 38.6226 22.1211 38.6226 21.8562V19.8981Z" fill="#DA364C"/>
<path d="M34.5894 19.8981H38.623V21.8562C38.623 22.391 38.4105 22.904 38.0324 23.2822C37.6542 23.6604 37.1412 23.8728 36.6064 23.8728C36.3415 23.8729 36.0792 23.8208 35.8345 23.7194C35.5898 23.6181 35.3675 23.4696 35.1802 23.2823C34.9929 23.0951 34.8443 22.8727 34.7429 22.628C34.6415 22.3833 34.5894 22.1211 34.5894 21.8562V19.8981Z" fill="#DBD8DD"/>
<path d="M30.5557 19.8981H34.5893V21.8562C34.5893 22.391 34.3769 22.904 33.9987 23.2822C33.6205 23.6604 33.1075 23.8728 32.5727 23.8728C32.3078 23.8729 32.0456 23.8208 31.8008 23.7194C31.5561 23.6181 31.3338 23.4696 31.1465 23.2823C30.9592 23.0951 30.8106 22.8727 30.7092 22.628C30.6078 22.3833 30.5557 22.1211 30.5557 21.8562V19.8981Z" fill="#DA364C"/>
<path d="M26.522 19.8981H30.5556V21.8562C30.5556 22.391 30.3432 22.904 29.965 23.2822C29.5868 23.6604 29.0738 23.8728 28.539 23.8728C28.2741 23.8729 28.0119 23.8208 27.7671 23.7194C27.5224 23.6181 27.3001 23.4696 27.1128 23.2823C26.9255 23.0951 26.7769 22.8727 26.6755 22.628C26.5741 22.3833 26.522 22.1211 26.522 21.8562V19.8981Z" fill="#DBD8DD"/>
<path d="M26.522 19.8982V14.9188H29.5993L30.5556 19.8982H26.522Z" fill="#EEEFEE"/>
<path d="M30.5557 19.8982L29.5994 14.9188H32.7836L34.5893 19.8982H30.5557Z" fill="#EE7719"/>
<path d="M34.5892 19.8982L32.7834 14.9188H35.8604L38.6225 19.8982H34.5892Z" fill="#EEEFEE"/>
<path d="M39.0448 14.9188L42.6563 19.8982H38.6227L35.8606 14.9188H39.0448Z" fill="#EE7719"/>
<path d="M12.4048 23.8725C12.1399 23.8726 11.8775 23.8205 11.6328 23.7192C11.388 23.6179 11.1656 23.4694 10.9783 23.2821C10.7909 23.0948 10.6423 22.8725 10.5409 22.6278C10.4395 22.383 10.3873 22.1207 10.3873 21.8558V19.8977H14.4214V21.8558C14.4214 22.3907 14.2089 22.9036 13.8307 23.2818C13.4525 23.66 12.9396 23.8725 12.4048 23.8725Z" fill="#DBD8DD"/>
<path d="M16.4381 23.8725C15.9033 23.8725 15.3903 23.66 15.0122 23.2818C14.634 22.9036 14.4215 22.3907 14.4215 21.8558V19.8977H18.4543V21.8558C18.4543 22.3906 18.2419 22.9035 17.8638 23.2817C17.4857 23.6598 16.9729 23.8724 16.4381 23.8725Z" fill="#DA364C"/>
<path d="M20.4717 23.8725C19.9368 23.8725 19.4239 23.66 19.0457 23.2818C18.6675 22.9036 18.455 22.3907 18.455 21.8558V19.8977H22.4883V21.8558C22.4883 22.3907 22.2758 22.9036 21.8976 23.2818C21.5194 23.66 21.0065 23.8725 20.4717 23.8725Z" fill="#DBD8DD"/>
<path d="M24.5049 23.8725C23.9701 23.8725 23.4572 23.66 23.079 23.2818C22.7008 22.9036 22.4883 22.3907 22.4883 21.8558V19.8977H26.522V21.8558C26.522 22.1207 26.4698 22.383 26.3684 22.6277C26.2671 22.8724 26.1185 23.0947 25.9312 23.282C25.7439 23.4692 25.5215 23.6178 25.2768 23.7191C25.0321 23.8204 24.7698 23.8725 24.5049 23.8725Z" fill="#DA364C"/>
<path d="M26.522 19.8982V14.9188H23.4446L22.4883 19.8982H26.522Z" fill="#EE7719"/>
<path d="M22.4883 19.8982L23.4446 14.9188H20.2605L18.4551 19.8982H22.4883Z" fill="#EEEFEE"/>
<path d="M18.455 19.8982L20.2604 14.9188H17.1835L14.4214 19.8982H18.455Z" fill="#EE7719"/>
<path d="M13.9993 14.9188L10.3877 19.8982H14.4214L17.1834 14.9188H13.9993Z" fill="#EEEFEE"/>
<path d="M41.9575 40.0924H11.0866C10.9367 40.0924 10.8152 40.2139 10.8152 40.3638V41.8084C10.8152 41.9583 10.9367 42.0798 11.0866 42.0798H41.9575C42.1074 42.0798 42.2289 41.9583 42.2289 41.8084V40.3638C42.2289 40.2139 42.1074 40.0924 41.9575 40.0924Z" fill="#EE7719"/>
<path d="M25.4963 26.5013V34.9842C25.4963 35.0522 25.5233 35.1174 25.5714 35.1655C25.6195 35.2136 25.6847 35.2406 25.7527 35.2406H38.4277C38.4957 35.2406 38.5609 35.2136 38.6089 35.1655C38.657 35.1174 38.684 35.0522 38.684 34.9842V26.5013C38.684 26.4333 38.657 26.3681 38.6089 26.3201C38.5609 26.272 38.4957 26.245 38.4277 26.245H25.7527C25.6847 26.245 25.6195 26.272 25.5714 26.3201C25.5233 26.3681 25.4963 26.4333 25.4963 26.5013ZM38.0876 34.6767H26.0915V26.8125H38.0876V34.6767Z" fill="#575B6D"/>
<path d="M31.79 26.6293H32.3884V34.9635H31.79V26.6293Z" fill="#575B6D"/>
<path d="M38.3184 30.4977V31.0961H25.8599V30.4977H38.3184Z" fill="#575B6D"/>
<path d="M21.4094 33.4405C21.6899 33.4405 21.9172 33.2131 21.9172 32.9327C21.9172 32.6522 21.6899 32.4248 21.4094 32.4248C21.129 32.4248 20.9016 32.6522 20.9016 32.9327C20.9016 33.2131 21.129 33.4405 21.4094 33.4405Z" fill="#EAA14E"/>
<path d="M15.9136 12.3906C15.9136 15.8515 12.6287 19.2343 12.6287 19.2343C12.6287 19.2343 9.34375 15.873 9.34375 12.3906C9.34375 11.9592 9.42872 11.5321 9.5938 11.1335C9.75888 10.735 10.0009 10.3728 10.3059 10.0678C10.6109 9.76278 10.973 9.52081 11.3716 9.35573C11.7701 9.19065 12.1973 9.10568 12.6287 9.10568C13.0601 9.10568 13.4872 9.19065 13.8858 9.35573C14.2843 9.52081 14.6465 9.76278 14.9515 10.0678C15.2565 10.3728 15.4985 10.735 15.6636 11.1335C15.8287 11.5321 15.9136 11.9592 15.9136 12.3906Z" fill="#EE7719"/>
<path d="M12.6286 14.1778C13.6144 14.1778 14.4136 13.3786 14.4136 12.3927C14.4136 11.4068 13.6144 10.6076 12.6286 10.6076C11.6427 10.6076 10.8435 11.4068 10.8435 12.3927C10.8435 13.3786 11.6427 14.1778 12.6286 14.1778Z" fill="#EEEFEE"/>
</svg>
