<svg width="2000" height="354" viewBox="0 0 2000 354" fill="none" xmlns="http://www.w3.org/2000/svg">
<rect width="2000" height="354" fill="white"/>
<mask id="mask0" mask-type="alpha" maskUnits="userSpaceOnUse" x="0" y="0" width="2000" height="354">
<rect width="2000" height="354" fill="white"/>
</mask>
<g mask="url(#mask0)">
<g opacity="0.15">
<path d="M2079.29 -1076H-80.7122V364H2079.29V-1076Z" fill="url(#paint0_linear)"/>
<path d="M2079.29 -534.848V363.712H-80.7122V-594.464C-17.0642 -637.952 45.4318 -683.744 121.176 -703.904C251.352 -738.464 363.096 -642.848 488.664 -626.144C551.16 -617.792 613.368 -644.576 676.728 -644C787.032 -643.136 878.328 -560.768 986.616 -541.184C1101.53 -520.448 1215.29 -572 1322.42 -616.352C1429.56 -660.704 1516.25 -689.504 1622.81 -643.712C1716.41 -603.68 1816.06 -514.112 1917.43 -497.408C1966.68 -489.344 2026.01 -524.768 2079.29 -534.848Z" fill="url(#paint1_linear)"/>
<path d="M2079.29 -174.56V364H-80.7122V-211.424C81.7198 -290.048 244.44 -368.672 406.872 -447.584C409.464 -448.736 412.056 -450.176 414.648 -451.328C419.544 -453.632 424.44 -455.936 429.048 -458.24C491.256 -487.904 556.92 -516.416 624.6 -519.008L626.904 -529.376L629.208 -519.296C640.152 -519.584 651.096 -519.008 662.04 -517.856C679.32 -515.84 696.024 -512.096 712.44 -507.2L717.336 -527.936L722.808 -503.744C723.384 -503.456 723.96 -503.456 724.536 -503.168L726.84 -513.536L729.72 -501.44C766.008 -488.48 801.144 -470.624 836.856 -455.072L839.448 -466.016L842.616 -452.48C875.448 -438.368 908.568 -426.848 944.28 -423.104C958.104 -421.664 972.216 -421.376 986.04 -421.952L989.784 -438.08L993.528 -422.24C994.104 -422.24 994.68 -422.24 995.544 -422.24L999.288 -438.08L1002.74 -422.816C1039.9 -425.408 1077.05 -431.744 1113.34 -432.608L1116.5 -445.856L1118.23 -437.792L1124.86 -466.88L1131.48 -438.368L1134.65 -452.48L1139.26 -432.32H1136.66C1138.97 -432.32 1141.27 -432.032 1143.29 -432.032L1146.17 -444.704L1149.34 -431.744C1162.87 -430.304 1176.41 -427.712 1189.37 -423.392L1192.82 -438.08L1196.86 -420.8C1198.01 -420.224 1199.45 -419.936 1200.6 -419.36L1202.04 -425.984L1203.77 -417.92C1233.14 -404.96 1257.34 -382.784 1282.39 -362.624C1290.17 -356.288 1297.94 -350.24 1306.01 -344.768L1306.58 -347.36L1307.45 -343.616C1310.62 -341.6 1313.5 -339.584 1316.66 -337.568L1320.12 -352.832L1323 -339.872L1325.3 -349.376L1329.62 -330.08C1331.35 -329.216 1333.08 -328.352 1334.81 -327.776L1337.11 -336.992L1339.7 -325.472C1342.01 -324.608 1344.31 -323.744 1346.9 -322.88L1350.07 -336.992L1353.82 -320.576C1354.68 -320.288 1355.26 -320 1356.12 -320L1357.85 -326.912L1359.58 -319.136C1400.47 -309.344 1442.81 -318.56 1485.72 -327.488L1489.46 -343.616L1492.92 -328.928C1494.65 -329.216 1496.38 -329.504 1498.1 -330.08L1502.14 -347.36L1505.88 -331.52C1529.78 -336.128 1553.69 -339.872 1577.3 -339.584C1604.95 -339.008 1630.87 -332.96 1655.93 -323.168L1657.94 -331.52L1659.67 -323.456L1662.55 -335.552L1666.3 -319.136C1674.94 -315.392 1683.58 -311.36 1691.93 -307.04L1694.23 -317.12L1697.11 -304.16C1741.18 -280.544 1782.94 -249.152 1826.71 -222.368C1841.98 -213.152 1857.53 -204.512 1873.37 -196.736C1899.86 -184.352 1927.22 -175.136 1956.6 -171.392C1962.94 -170.528 1969.56 -170.24 1976.18 -169.952C1998.36 -168.8 2021.11 -170.528 2043.86 -172.256C2055.67 -173.12 2067.48 -173.984 2079.29 -174.56Z" fill="#E0E8EC"/>
<path d="M1885.18 -63.104C1733.4 -49.5681 1579.61 -58.7841 1431 -91.3281C1416.6 -94.4961 1402.49 -97.6641 1388.38 -101.12C1266.55 -131.36 1150.2 -176.864 1035 -225.824L1033.56 -231.872L1032.41 -226.976C1023.19 -231.008 1013.98 -235.04 1004.76 -238.784L1001.88 -252.032L999.288 -241.376C999 -241.664 998.712 -241.664 998.136 -241.952L996.984 -246.56L996.12 -242.816C894.168 -287.168 792.792 -333.248 689.112 -373.856L687.384 -381.056L685.944 -375.008C685.08 -375.296 683.928 -375.872 683.064 -376.16L679.608 -390.848L676.728 -378.464C674.136 -379.616 671.544 -380.48 668.664 -381.632L666.648 -391.136L664.92 -383.36C662.904 -384.224 661.176 -384.8 659.16 -385.664L655.128 -403.52L652.824 -394.016L649.944 -406.688L646.2 -390.272C643.608 -391.136 640.728 -392.288 638.136 -393.44L636.408 -401.216L634.968 -394.592C600.408 -407.264 564.984 -419.072 529.272 -430.016L526.392 -442.976L523.8 -431.744C517.752 -433.472 511.992 -435.2 505.944 -436.928L501.624 -455.072L499.32 -445.568L496.44 -458.24L492.408 -440.384C485.208 -442.4 478.008 -444.128 471.096 -446.144L469.656 -452.768L468.216 -447.008C466.776 -447.296 465.624 -447.584 464.184 -448.16L459.864 -467.168L455.832 -450.176C447.192 -452.48 438.552 -454.496 429.624 -456.512L425.88 -472.928L422.424 -458.24C417.24 -459.392 412.056 -460.544 406.872 -461.696C385.272 -466.304 363.384 -470.624 341.496 -474.08L338.616 -486.752L336.024 -474.944C334.584 -475.232 333.432 -475.52 331.992 -475.52L329.4 -486.464L327.096 -476.096C322.2 -476.96 317.592 -477.536 312.696 -478.112L310.104 -489.344L307.8 -478.688C210.744 -491.936 113.112 -493.664 18.936 -478.112L16.344 -489.344L13.464 -477.248C10.872 -476.96 8.56801 -476.384 5.97601 -475.808L3.672 -485.6L1.08 -474.944C-2.66399 -474.368 -6.408 -473.504 -10.152 -472.928L-10.728 -475.808L-11.304 -472.64C-15.912 -471.776 -20.52 -470.624 -25.416 -469.76L-28.584 -483.584L-31.752 -469.472L-38.376 -497.984L-46.152 -464.864C-57.96 -461.984 -69.48 -458.816 -81 -455.072V364H2079V-93.3441C2015.35 -78.944 1950.55 -68.864 1885.18 -63.104Z" fill="#E3EFF7"/>
<path d="M1338.84 14.944C1330.49 -9.53604 1309.18 -28.832 1284.98 -39.2C1258.2 -50.72 1230.84 -46.4 1201.75 -46.688C1184.76 -76.64 1154.23 -97.376 1120.82 -105.728C1106.42 -125.024 1083.67 -137.984 1059.77 -140C1035.86 -142.304 1012.54 -130.496 994.68 -114.368C972.792 -135.104 941.976 -145.76 912.024 -143.744C882.072 -141.44 849.816 -130.208 831.384 -106.592C814.68 -125.024 788.472 -130.208 769.464 -114.368C744.696 -151.232 705.24 -177.44 661.752 -186.08C618.264 -194.72 562.104 -185.216 525.24 -160.736C507.96 -188.672 464.472 -195.296 439.992 -173.696C426.168 -205.088 399.096 -230.72 367.128 -243.104C335.16 -255.488 294.84 -254.912 263.448 -240.8C255.096 -267.008 224.856 -288.608 197.784 -284C160.92 -318.848 102.168 -321.44 56.0879 -300.416C16.3439 -328.064 -32.0401 -341.888 -80.4241 -341.312V14.944H1338.84Z" fill="#FFFAF2"/>
<path d="M2079.29 -400.352V364H526.968C618.264 327.136 688.536 248.8 766.008 182.56C772.056 177.376 778.392 171.904 784.728 167.008C829.08 131.008 876.312 99.9043 931.32 83.7763C1027.51 55.5523 1134.65 77.4402 1230.26 47.4883C1298.52 26.1762 1353.53 -19.0398 1408.25 -64.8318C1415.74 -71.1678 1423.22 -77.5038 1431 -83.5518C1433.59 -85.5678 1435.9 -87.5838 1438.49 -89.5998C1480.54 -123.872 1524.31 -156.128 1575 -175.712C1596.6 -184.064 1618.78 -189.824 1641.82 -194.432C1702.87 -206.528 1767.38 -209.408 1826.71 -222.656C1869.05 -232.16 1908.5 -246.848 1941.62 -273.92C1974.74 -300.704 1997.5 -337.28 2028.31 -366.368C2042.71 -379.904 2060.28 -392.288 2079.29 -400.352Z" fill="#C2D2DC"/>
<path d="M2061.43 198.688C1939.03 147.712 1816.34 97.0243 1693.94 46.3362C1673.78 37.9843 1653.91 29.6322 1633.75 21.2802C1621.94 16.3842 1610.14 11.4882 1598.33 6.59219L1593.14 -15.5838L1588.82 2.84821C1587.38 2.27222 1585.66 1.6962 1584.22 0.832184L1575 -38.9118L1567.51 -6.0798C1562.04 -8.38379 1556.57 -10.3997 1551.1 -12.7038L1545.05 -39.1998L1539.86 -17.3118C1536.12 -18.7518 1532.38 -20.1918 1528.63 -21.6318L1517.98 -67.4238L1512.79 -45.5358L1505.88 -75.1998L1496.38 -33.7278C1490.04 -36.0318 1483.7 -38.3358 1477.66 -40.6398L1474.2 -55.3278L1471.32 -42.9438C1450.3 -50.7198 1429.27 -57.9198 1407.96 -64.8318C1350.36 -83.5518 1297.37 -97.3758 1245.24 -105.152L1242.65 -116.96L1240.06 -106.016C1224.5 -108.32 1208.95 -110.048 1193.4 -110.912L1185.34 -145.184L1180.15 -123.296L1173.24 -152.96L1163.74 -112.064C1148.18 -112.352 1132.63 -112.352 1117.08 -111.488L1110.46 -139.712L1103.83 -110.624C1103.26 -110.624 1102.68 -110.624 1102.1 -110.624L1087.7 -173.12L1072.73 -107.744C1066.68 -107.168 1060.63 -106.304 1054.58 -105.44L1050.84 -121.568L1046.81 -104.288C1030.97 -101.984 1014.84 -98.8158 998.424 -95.3598C848.088 -62.5278 700.92 -7.23181 549.144 -33.7278C548.28 -33.7278 547.704 -34.0158 546.84 -34.3038L543.096 -51.2958L539.64 -35.7438C518.904 -40.0638 498.744 -46.3998 479.16 -53.8878L469.08 -97.6638L462.168 -67.9998L458.424 -84.7038L453.816 -64.5438C369.432 -103.136 292.824 -164.48 206.136 -202.784L203.256 -215.744L200.664 -205.088C183.384 -212.576 165.816 -218.912 147.672 -224.096L143.064 -243.968L139.032 -226.4C126.936 -229.568 114.84 -232.16 102.168 -233.888L98.136 -250.88L95.256 -238.208L87.192 -278.24L77.688 -237.92C73.368 -238.208 69.336 -238.496 65.016 -238.784L57.816 -269.6L50.616 -238.784C42.84 -238.784 34.776 -238.496 26.712 -237.92L24.696 -246.272L22.68 -237.632C12.024 -236.768 1.368 -235.328 -9.864 -233.312L-17.064 -264.704L-24.552 -232.16L-39.816 -298.112L-57.384 -221.792C-65.16 -219.488 -73.224 -216.608 -81 -213.728V364H2079V206.176C2073.24 203.584 2067.19 200.992 2061.43 198.688Z" fill="#C2D2DC"/>
<path d="M2079.29 -292.64V297.472H972.504C975.384 284.8 980.28 272.704 987.192 261.472C991.512 254.56 996.12 247.936 1001.59 241.888C1005.62 237.568 1009.66 233.536 1014.26 230.08C1022.33 223.744 1030.97 218.56 1040.76 215.68C1056.02 211.072 1073.59 212.8 1086.55 222.016C1088.86 205.024 1103.26 193.504 1119.38 190.048C1129.46 188.032 1157.11 189.184 1162.3 201.856C1162.58 202.432 1162.58 203.008 1162.87 203.584C1162.87 203.008 1162.58 202.432 1162.58 201.856C1158.55 177.952 1177.27 153.184 1199.45 142.816C1221.91 132.16 1248.41 133.312 1272.89 138.208C1281.53 125.248 1292.18 115.456 1305.43 113.44C1309.75 112.864 1314.36 112.864 1319.26 114.016C1327.03 86.3677 1354.39 67.0717 1382.62 62.7517C1411.13 58.4317 1441.37 72.2557 1456.92 96.4477C1480.54 73.9837 1519.99 73.1197 1544.18 94.4317C1570.97 41.7277 1635.19 16.3837 1693.66 25.5997C1695.67 25.8877 1697.69 26.1757 1699.7 26.7517C1699.7 25.3117 1699.42 24.1597 1699.42 22.7197C1697.11 -5.50427 1704.89 -36.3203 1723.9 -57.3442C1725.34 -59.0722 1726.78 -60.5123 1728.5 -61.9523C1751.83 -83.5522 1785.53 -93.3442 1816.63 -87.5842C1820.38 -107.168 1837.08 -121.856 1855.8 -128.768C1869.91 -134.24 1886.33 -133.376 1900.15 -127.328C1904.47 -125.6 1908.22 -123.008 1911.96 -120.128C1912.54 -121.568 1912.82 -122.72 1913.69 -124.16C1923.77 -146.624 1952.57 -163.904 1974.74 -154.112C1975.32 -159.584 1975.61 -164.768 1976.18 -170.24C1977.05 -179.744 1978.2 -188.96 1979.64 -198.464C1982.52 -216.032 1987.13 -233.024 1996.34 -249.152C2013.05 -277.952 2046.46 -300.128 2079.29 -292.64Z" fill="#EFF4F6"/>
<path d="M2079.29 -191.552V364H-80.7122V67.3599C-8.42416 21.2799 66.4558 -20.7681 148.536 -44.6721C158.04 -47.5521 167.544 -49.8561 177.048 -51.5841L193.176 -121.856L208.44 -55.9041C213.048 -56.1921 217.656 -56.7682 222.264 -57.0562L230.328 -91.3281L236.952 -63.1041L248.76 -114.656L262.008 -56.4801C291.672 -54.1761 321.048 -48.1281 349.56 -38.9121L353.88 -57.9201L359.064 -35.7441C395.352 -22.7841 430.776 -4.92816 464.472 16.3838C508.824 44.3199 554.616 77.7279 598.68 109.12C640.728 138.784 683.352 175.936 737.784 174.496C747.288 174.208 756.792 173.056 766.008 171.328C772.344 170.176 778.392 168.736 784.728 167.296C812.952 160.672 841.176 152.032 869.688 155.776C890.424 158.368 909.144 167.008 927 177.664L929.592 166.72L933.048 181.12C938.232 184.288 943.416 187.744 948.312 191.2L960.984 136.192L978.264 211.072C987.192 216.544 996.12 221.728 1005.34 226.048C1008.22 227.488 1011.38 228.64 1014.55 230.08C1087.42 259.168 1171.51 238.144 1246.97 213.664C1285.85 200.992 1324.15 187.744 1362.46 173.344L1378.87 102.496L1392.7 161.824C1395.58 160.672 1398.74 159.52 1401.62 158.368L1407.96 131.008L1413.14 153.76C1509.05 116.032 1602.94 73.4079 1694.52 25.5999C1696.54 24.7359 1698.26 23.5839 1700.28 22.7199C1740.02 1.98387 1779.48 -19.9041 1818.36 -42.3681L1822.1 -58.7841L1824.41 -68.2881L1826.71 -58.7841L1829.02 -48.4162C1835.64 -52.1602 1841.98 -56.1922 1848.6 -59.9362C1855.22 -63.9682 1861.85 -68.0001 1868.47 -72.0321C1874.23 -75.4881 1880.28 -79.2321 1886.04 -82.6881C1888.06 -83.8401 1889.78 -84.9921 1891.8 -86.1441L1901.3 -127.04L1907.64 -154.688L1914.84 -123.872L1919.74 -102.848C1928.09 -107.744 1936.73 -112.928 1945.08 -117.536L1949.98 -138.56L1953.72 -122.432C1982.81 -138.56 2012.47 -152.672 2043 -163.04L2045.02 -171.968L2051.06 -198.752L2051.35 -199.328L2051.64 -198.752L2056.25 -178.88L2060.86 -199.04L2069.78 -238.208L2080.73 -199.04V-191.552H2079.29Z" fill="#A4B6C5"/>
<path d="M2004.7 213.952L1973.59 159.52L1952.86 224.32L1937.59 188.32L1921.18 241.6C1919.16 241.6 1917.14 241.888 1915.13 241.888L1894.39 150.88L1884.6 213.376L1864.15 123.808L1845.14 244.768H1844.86L1834.2 205.024L1823.83 245.92C1795.61 247.36 1767.38 249.088 1739.16 250.816L1723.32 205.6L1714.39 237.568L1698.84 181.12L1687.9 251.392L1677.53 220.576L1667.45 255.424C1657.08 256.288 1647 256.864 1636.63 257.728L1630.87 231.808L1625.4 258.592C1621.37 258.88 1617.05 259.168 1613.02 259.456L1600.63 205.024L1589.4 261.184C1579.9 262.048 1570.1 262.624 1560.6 263.488L1552.82 241.024L1545.34 264.64C1504.15 268.096 1463.26 271.84 1422.36 275.872L1407.67 230.656L1396.15 272.416L1375.42 218.272L1355.54 282.496C1347.48 283.36 1339.7 284.224 1331.64 285.088L1322.42 244.768L1315.8 286.816C1313.21 287.104 1310.62 287.392 1308.02 287.68L1292.18 217.984L1280.66 290.56C1247.54 294.304 1214.71 298.336 1181.88 302.08L1163.74 260.608L1151.93 299.2L1143.58 272.992L1135.8 308.128C1094.62 313.312 1054.01 318.784 1013.98 324.544L992.952 246.208L973.656 330.304C965.016 331.456 956.376 332.896 948.024 334.048L943.704 314.752L938.232 335.776C923.544 338.08 908.856 340.096 894.168 342.4L864.504 246.784L832.536 330.592L814.68 265.792L789.336 344.416C766.008 340.96 742.968 337.504 720.216 334.048L695.448 256.288L670.968 327.136C662.616 325.984 654.264 324.832 646.2 323.68L621.72 200.416L595.224 316.768C593.496 316.48 592.056 316.48 590.328 316.192L574.776 241.888L558.648 312.16C547.992 310.72 537.048 309.28 526.392 308.128L502.2 224.608L486.072 272.416L469.08 163.84L445.176 251.104L431.352 201.568L400.536 289.696L373.752 290.272C341.496 286.816 310.104 283.36 279.864 280.48L259.992 200.704L243.576 262.336L213.624 75.1362L182.52 216.832L166.968 116.32L132.408 266.656C130.968 266.656 129.528 266.368 128.088 266.368L99.8638 174.784L76.2478 230.656L44.2799 130.72L-3.81615 214.816L-62.2802 -46.9758C-62.2802 -46.9758 -69.7682 -21.0558 -80.7122 15.8082V364H2079.29V168.736C2062.87 112.288 2042.71 44.8962 2042.71 44.8962L2004.7 213.952Z" fill="#232934"/>
</g>
</g>
<path d="M338.993 247.557H330.394V294.565H338.993V247.557Z" fill="#DDECF5"/>
<path d="M342.72 145.944C339.28 139.352 329.964 139.352 326.524 145.944C309.612 178.478 276.792 253.719 334.55 253.719C392.452 253.719 359.632 178.478 342.72 145.944Z" fill="#C2D2DC"/>
<path d="M1020.2 99.1708L1026.51 325.899H1013.75L1020.2 99.1708Z" fill="#DDECF5"/>
<path d="M1018.19 234.176L1071.94 184.301L1022.06 238.189L1018.19 234.176Z" fill="#DDECF5"/>
<path d="M1018.19 252.95L950.688 181.578L1022.06 249.081L1018.19 252.95Z" fill="#DDECF5"/>
<path d="M1112.5 152.198C1114.5 145.606 1108.49 139.443 1101.89 141.593C1069.5 151.912 998.558 179.715 1036.54 217.551C1074.37 255.673 1102.32 184.731 1112.5 152.198Z" fill="#C2D2DC"/>
<path d="M931.34 169.826C929.334 163.234 935.353 157.071 941.946 159.221C974.337 169.54 1045.28 197.343 1007.3 235.179C969.464 273.158 941.516 202.216 931.34 169.826Z" fill="#C2D2DC"/>
<path d="M1029.66 80.5395C1025.65 72.8004 1014.61 72.8004 1010.6 80.5395C990.819 118.805 952.122 207.089 1020.06 207.089C1087.99 207.232 1049.44 118.805 1029.66 80.5395Z" fill="#C2D2DC"/>
<path d="M834.025 171.403H566.157V302.682H834.025V171.403Z" fill="#B3C2CF"/>
<path d="M834.025 182.438H566.157V184.015H834.025V182.438Z" fill="#C2D2DC"/>
<path d="M834.025 204.652H566.157V206.229H834.025V204.652Z" fill="#C2D2DC"/>
<path d="M834.025 226.723H566.157V228.3H834.025V226.723Z" fill="#C2D2DC"/>
<path d="M834.025 248.938H566.157V250.514H834.025V248.938Z" fill="#C2D2DC"/>
<path d="M834.025 271.152H566.157V272.728H834.025V271.152Z" fill="#C2D2DC"/>
<path d="M834.025 293.223H566.157V294.799H834.025V293.223Z" fill="#C2D2DC"/>
<path d="M607.865 72.8004L542.94 163.09H641.259H643.552H794.182H796.332H846.495L781.427 72.8004H607.865Z" fill="#DDECF5"/>
<path d="M796.332 163.09H794.182H643.551H641.258H542.939V177.422H846.494V163.09H796.332Z" fill="#C2D2DC"/>
<path d="M671.355 64.058H627.212V108.2H671.355V64.058Z" fill="#B3C2CF"/>
<path d="M674.508 51.1594H624.203V63.9147H674.508V51.1594Z" fill="#DDECF5"/>
<path d="M671.355 70.5073H627.212V72.0838H671.355V70.5073Z" fill="#B3C2CF"/>
<path d="M671.355 84.1224H627.212V85.6989H671.355V84.1224Z" fill="#B3C2CF"/>
<path d="M671.355 97.5943H627.212V99.1708H671.355V97.5943Z" fill="#B3C2CF"/>
<path d="M484.178 176.276V302.681H417.247V176.276H484.178ZM480.308 298.095V247.361H421.116V298.095H480.308ZM480.308 231.453V180.718H421.116V231.453H480.308Z" fill="#C2D2DC"/>
<path d="M480.308 247.361H421.116V298.095H480.308V247.361Z" fill="#DDECF5"/>
<path d="M480.308 180.718H421.116V231.453H480.308V180.718Z" fill="#DDECF5"/>
<path d="M640.255 147.469H372.387V302.682H640.255V147.469Z" fill="#C2D2DC"/>
<path d="M640.255 160.654H372.387V162.23H640.255V160.654Z" fill="#B3C2CF"/>
<path d="M640.255 186.881H372.387V188.458H640.255V186.881Z" fill="#B3C2CF"/>
<path d="M640.255 213.108H372.387V214.685H640.255V213.108Z" fill="#B3C2CF"/>
<path d="M640.255 239.335H372.387V240.912H640.255V239.335Z" fill="#B3C2CF"/>
<path d="M640.255 265.419H372.387V266.996H640.255V265.419Z" fill="#B3C2CF"/>
<path d="M640.255 291.646H372.387V293.223H640.255V291.646Z" fill="#B3C2CF"/>
<path d="M484.178 176.276H417.247V302.681H484.178V176.276Z" fill="#C2D2DC"/>
<path d="M477.872 190.034H423.409V296.662H477.872V190.034Z" fill="#DDECF5"/>
<path d="M472.425 239.765V279.321H428.999V239.765H472.425ZM473.858 238.332H427.422V280.897H473.858V238.332Z" fill="#C2D2DC"/>
<path d="M473.858 194.19H427.422V233.889H473.858V194.19Z" fill="white"/>
<path d="M419.396 46L354.472 136.147H452.79H455.083H605.714H608.007H658.026L593.102 46H419.396Z" fill="#E48D56"/>
<path d="M608.007 136.147H605.714H455.083H452.79H354.472V150.478H658.026V136.147H608.007Z" fill="#C2D2DC"/>
<path d="M489.767 176.276H411.801V183.728H489.767V176.276Z" fill="#DDECF5"/>
<path d="M603.421 183.585H522.444V245.641H603.421V183.585Z" fill="white"/>
<path d="M604.854 247.218H520.868V182.152H604.854V247.218ZM524.021 244.208H601.988V185.161H524.021V244.208Z" fill="#DDECF5"/>
<path d="M608.294 176.276H517.428V183.728H608.294V176.276Z" fill="#DDECF5"/>
<path d="M608.294 245.641H517.428V253.094H608.294V245.641Z" fill="#DDECF5"/>
<path d="M603.421 199.35H522.445V202.359H603.421V199.35Z" fill="#DDECF5"/>
<path d="M564.437 177.422H561.428V246.501H564.437V177.422Z" fill="#DDECF5"/>
<path d="M772.54 200.353H691.564V262.409H772.54V200.353Z" fill="white"/>
<path d="M774.117 263.842H690.13V198.776H774.117V263.842ZM693.14 260.833H771.107V201.786H693.14V260.833Z" fill="#DDECF5"/>
<path d="M777.556 192.9H686.691V200.353H777.556V192.9Z" fill="#DDECF5"/>
<path d="M777.556 262.409H686.691V269.862H777.556V262.409Z" fill="#DDECF5"/>
<path d="M772.54 216.118H691.564V219.128H772.54V216.118Z" fill="#DDECF5"/>
<path d="M733.557 195.193H730.547V262.409H733.557V195.193Z" fill="#DDECF5"/>
<path d="M451.787 193.33H449.637V234.606H451.787V193.33Z" fill="#DDECF5"/>
<path d="M474.516 215.071V212.921H426.933V215.071H474.516Z" fill="#DDECF5"/>
<path d="M472.425 285.913V290.929H428.999V285.913H472.425ZM473.858 284.337H427.422V292.363H473.858V284.337Z" fill="#C2D2DC"/>
<path d="M634.952 298.095C634.952 301.392 634.522 304.545 633.805 307.554H553.115C552.399 304.545 551.969 301.392 551.969 298.095C551.969 275.165 570.601 256.677 593.389 256.677C606.574 256.677 618.327 262.839 625.923 272.442C631.655 279.464 634.952 288.35 634.952 298.095Z" fill="#DDECF5"/>
<path d="M674.222 304.688C674.222 305.691 674.222 306.551 674.078 307.554H604.568C604.424 306.551 604.424 305.691 604.424 304.688C604.424 290.07 613.31 277.601 626.066 272.442C630.222 270.722 634.665 269.862 639.395 269.862C658.6 269.718 674.222 285.34 674.222 304.688Z" fill="#C2D2DC"/>
<path d="M526.457 294.083H297V301.822H526.457V294.083Z" fill="#C2D2DC"/>
<path d="M521.585 344.817H510.979V286.057L516.282 279.177L521.585 286.057V344.817Z" fill="#C2D2DC"/>
<path d="M487.187 344.817H476.438V286.057L481.741 279.177L487.187 286.057V344.817Z" fill="#C2D2DC"/>
<path d="M452.647 344.817H442.041V286.057L447.344 279.177L452.647 286.057V344.817Z" fill="#C2D2DC"/>
<path d="M418.107 344.817H407.501V286.057L412.804 279.177L418.107 286.057V344.817Z" fill="#C2D2DC"/>
<path d="M383.566 344.817H372.96V286.057L378.263 279.177L383.566 286.057V344.817Z" fill="#C2D2DC"/>
<path d="M349.026 344.817H338.42V286.057L343.723 279.177L349.026 286.057V344.817Z" fill="#C2D2DC"/>
<path d="M314.628 344.817H304.023V286.057L309.326 279.177L314.628 286.057V344.817Z" fill="#C2D2DC"/>
<path d="M1041.41 294.083H811.954V301.822H1041.41V294.083Z" fill="#C2D2DC"/>
<path d="M1036.54 344.817H1025.93V286.057L1031.24 279.177L1036.54 286.057V344.817Z" fill="#C2D2DC"/>
<path d="M1002 344.817H991.392V286.057L996.695 279.177L1002 286.057V344.817Z" fill="#C2D2DC"/>
<path d="M967.6 344.817H956.995V286.057L962.297 279.177L967.6 286.057V344.817Z" fill="#C2D2DC"/>
<path d="M933.06 344.817H922.454V286.057L927.757 279.177L933.06 286.057V344.817Z" fill="#C2D2DC"/>
<path d="M898.52 344.817H887.914V286.057L893.217 279.177L898.52 286.057V344.817Z" fill="#C2D2DC"/>
<path d="M863.979 344.817H853.373V286.057L858.676 279.177L863.979 286.057V344.817Z" fill="#C2D2DC"/>
<path d="M829.582 344.817H818.833V286.057L824.136 279.177L829.582 286.057V344.817Z" fill="#C2D2DC"/>
<defs>
<linearGradient id="paint0_linear" x1="1014.07" y1="-1076.78" x2="1003.89" y2="-580.52" gradientUnits="userSpaceOnUse">
<stop stop-color="#FFC875"/>
<stop offset="1" stop-color="#FFE6C1"/>
</linearGradient>
<linearGradient id="paint1_linear" x1="1027.38" y1="-609.655" x2="1015.29" y2="-396.866" gradientUnits="userSpaceOnUse">
<stop stop-color="#FFB05C"/>
<stop offset="1" stop-color="#FFC875"/>
</linearGradient>
</defs>
</svg>
