<svg width="575" height="575" viewBox="0 0 575 575" fill="none" xmlns="http://www.w3.org/2000/svg">
<path d="M336.758 450.115C304.597 467.234 268.083 474.431 231.832 470.796C195.58 467.162 161.221 452.86 133.099 429.698C104.976 406.536 84.3535 375.555 73.8386 340.672C63.3237 305.79 63.3889 268.573 74.0258 233.727C84.6628 198.882 105.394 167.973 133.597 144.91C161.801 121.847 196.21 107.665 232.473 104.157C268.737 100.65 305.226 107.975 337.327 125.206C369.427 142.437 395.698 168.8 412.815 200.961L392.183 211.94C377.241 183.86 354.308 160.841 326.284 145.795C298.26 130.749 266.404 124.351 234.743 127.41C203.083 130.469 173.041 142.848 148.416 162.981C123.791 183.114 105.69 210.098 96.4006 240.519C87.1116 270.94 87.0522 303.433 96.23 333.887C105.408 364.342 123.41 391.392 147.962 411.615C172.513 431.838 202.509 444.327 234.158 447.502C265.807 450.677 297.687 444.395 325.766 429.451L336.758 450.115Z" fill="#EE7719"/>
<path d="M429.941 179.413L423.369 245.646L364.737 214.12L429.941 179.413Z" fill="#EE7719"/>
<path d="M228.083 303.6C228.083 294.2 226.483 287.9 223.283 284.7C220.283 281.3 216.183 279.6 210.983 279.6C205.783 279.6 201.583 281.2 198.383 284.4C195.383 287.4 193.883 292.7 193.883 300.3V313.8H162.683V302.4C162.683 285.4 166.783 272.4 174.983 263.4C183.383 254.2 195.683 249.6 211.883 249.6C228.083 249.6 240.283 254.2 248.483 263.4C256.883 272.4 261.083 285.4 261.083 302.4V307.8C261.083 330.2 253.383 344.6 237.983 351C246.383 354.6 252.283 360.2 255.683 367.8C259.283 375.2 261.083 384.3 261.083 395.1V411.6C261.083 428.6 256.883 441.7 248.483 450.9C240.283 459.9 228.083 464.4 211.883 464.4C195.683 464.4 183.383 459.9 174.983 450.9C166.783 441.7 162.683 428.6 162.683 411.6V394.2H193.883V413.7C193.883 421.3 195.383 426.7 198.383 429.9C201.583 432.9 205.783 434.4 210.983 434.4C216.183 434.4 220.283 432.8 223.283 429.6C226.483 426.4 228.083 420.1 228.083 410.7V394.2C228.083 384.4 226.383 377.5 222.983 373.5C219.583 369.5 214.083 367.5 206.483 367.5H195.383V337.5H208.283C214.483 337.5 219.283 335.9 222.683 332.7C226.283 329.5 228.083 323.7 228.083 315.3V303.6ZM281.329 304.2C281.329 286.4 285.429 272.9 293.629 263.7C301.829 254.3 314.529 249.6 331.729 249.6C347.929 249.6 360.129 254.2 368.329 263.4C376.729 272.4 380.929 285.4 380.929 302.4V307.8H349.729V300.3C349.729 292.7 348.129 287.4 344.929 284.4C341.929 281.2 337.829 279.6 332.629 279.6C326.829 279.6 322.329 281.4 319.129 285C315.929 288.6 314.329 295.4 314.329 305.4V343.8C320.129 331.4 330.329 325.2 344.929 325.2C357.129 325.2 366.229 329.3 372.229 337.5C378.429 345.7 381.529 357.6 381.529 373.2V411.6C381.529 428.6 377.229 441.7 368.629 450.9C360.029 459.9 347.629 464.4 331.429 464.4C315.229 464.4 302.829 459.9 294.229 450.9C285.629 441.7 281.329 428.6 281.329 411.6V304.2ZM331.429 355.2C326.229 355.2 322.029 356.8 318.829 360C315.829 363 314.329 368.3 314.329 375.9V413.7C314.329 421.3 315.829 426.6 318.829 429.6C322.029 432.6 326.229 434.1 331.429 434.1C336.629 434.1 340.729 432.6 343.729 429.6C346.929 426.6 348.529 421.3 348.529 413.7V375.9C348.529 368.3 346.929 363 343.729 360C340.729 356.8 336.629 355.2 331.429 355.2ZM432.674 413.7C432.674 421.3 434.174 426.7 437.174 429.9C440.374 432.9 444.574 434.4 449.774 434.4C454.974 434.4 459.074 432.9 462.074 429.9C465.274 426.7 466.874 421.3 466.874 413.7V300.3C466.874 292.7 465.274 287.4 462.074 284.4C459.074 281.2 454.974 279.6 449.774 279.6C444.574 279.6 440.374 281.2 437.174 284.4C434.174 287.4 432.674 292.7 432.674 300.3V413.7ZM399.674 302.4C399.674 285.4 403.974 272.4 412.574 263.4C421.174 254.2 433.574 249.6 449.774 249.6C465.974 249.6 478.374 254.2 486.974 263.4C495.574 272.4 499.874 285.4 499.874 302.4V411.6C499.874 428.6 495.574 441.7 486.974 450.9C478.374 459.9 465.974 464.4 449.774 464.4C433.574 464.4 421.174 459.9 412.574 450.9C403.974 441.7 399.674 428.6 399.674 411.6V302.4Z" fill="#538742"/>
</svg>
