<svg width="690" height="340" viewBox="0 0 690 340" fill="none" xmlns="http://www.w3.org/2000/svg">
<mask id="mask0" mask-type="alpha" maskUnits="userSpaceOnUse" x="0" y="0" width="690" height="340">
<rect width="690" height="340" rx="5" fill="#C4C4C4"/>
</mask>
<g mask="url(#mask0)">
<rect width="690" height="340" rx="5" fill="white"/>
<path fill-rule="evenodd" clip-rule="evenodd" d="M597.307 164.892C660.852 189.339 721.045 237.305 727.348 309.892C733.864 384.941 683.021 456.074 627.411 511.61C573.235 565.714 505.861 604.05 435.693 601.159C362.953 598.162 298.555 559.822 263.049 496.6C227.157 432.691 212.832 346.241 253.316 276.423C289.794 213.511 370.558 219.199 436.246 197.901C491.835 179.878 546.162 145.216 597.307 164.892Z" fill="#F2C94C"/>
<path fill-rule="evenodd" clip-rule="evenodd" d="M506.744 87.5071C528.756 43.4464 562.315 5.57298 609.683 -8.08025C658.696 -22.2075 712.102 -13.8773 753.118 16.493C794.455 47.1005 817.495 95.8843 819.429 147.224C821.385 199.111 804.789 253.045 763.205 284.144C723.829 313.591 671.74 302.287 623.231 293.949C572.286 285.192 512.769 281.73 487.377 236.73C461.422 190.732 483.162 134.709 506.744 87.5071Z" fill="#ADD14D"/>
</g>
<path d="M478.912 259.375H621.088C633.108 249.117 642.756 236.372 649.366 222.02C655.977 207.668 659.392 192.051 659.375 176.25C659.375 115.844 610.406 66.875 550 66.875C489.594 66.875 440.625 115.844 440.625 176.25C440.608 192.051 444.023 207.668 450.634 222.02C457.244 236.372 466.893 249.117 478.912 259.375Z" fill="#ECF8E2"/>
<path d="M536.688 198.219H484.375L510.531 113.211L536.688 198.219Z" fill="#538742"/>
<path d="M589 198.219H523.609L556.305 93.5938L589 198.219Z" fill="#ADD14D"/>
<path d="M550 198H563V224H550V198Z" fill="#FDC069"/>
<path d="M504 198H517V224H504V198Z" fill="#FDC069"/>
<path d="M650.625 294.375V287.812C650.625 284.912 649.473 282.13 647.421 280.079C645.37 278.027 642.588 276.875 639.688 276.875H460.312C457.412 276.875 454.63 278.027 452.579 280.079C450.527 282.13 449.375 284.912 449.375 287.812V294.375H418.75V303.125H681.25V294.375H650.625Z" fill="#EE7719"/>
<path d="M473.438 259.375H626.562C629.463 259.375 632.245 260.527 634.296 262.579C636.348 264.63 637.5 267.412 637.5 270.312V276.875H462.5V270.312C462.5 267.412 463.652 264.63 465.704 262.579C467.755 260.527 470.537 259.375 473.438 259.375Z" fill="#994635"/>
<path d="M648.245 224.375H451.754C458.334 237.766 467.575 249.675 478.912 259.375H621.088C632.425 249.675 641.666 237.766 648.245 224.375Z" fill="#E8F7FF"/>
<path d="M583.906 241.875H516.094C513.073 241.875 510.625 244.323 510.625 247.344V271.406C510.625 274.427 513.073 276.875 516.094 276.875H583.906C586.927 276.875 589.375 274.427 589.375 271.406V247.344C589.375 244.323 586.927 241.875 583.906 241.875Z" fill="#F2C94C"/>
<path d="M484.35 128.305H493.1V137.055H484.35V128.305Z" fill="white"/>
<path d="M458.125 176.25H466.875V185H458.125V176.25Z" fill="white"/>
<path d="M510.625 88.75H519.375V97.5H510.625V88.75Z" fill="white"/>
<path d="M541.25 110.625H550V119.375H541.25V110.625Z" fill="white"/>
<path d="M633.125 189.375H641.875V198.125H633.125V189.375Z" fill="white"/>
<path d="M615.625 145.625H624.375V154.375H615.625V145.625Z" fill="white"/>
<g clip-path="url(#clip0)">
<path d="M556.821 199.987H538.898V182.064H556.821V199.987Z" fill="#406080"/>
<path d="M547.858 182.064H556.82V199.987H547.858V182.064Z" fill="#334D66"/>
<path d="M568.769 211.934V194.011C568.769 184.128 576.809 176.088 586.692 176.088V188.037C583.396 188.037 580.718 190.718 580.718 194.011V211.934H568.769Z" fill="#334D66"/>
<path d="M559.808 194.012H535.91C533.58 194.012 531.489 194.908 529.936 196.342V208.948H527.785C528.801 210.741 530.713 211.935 532.923 211.935H568.769V202.974C568.769 198.015 564.767 194.012 559.808 194.012Z" fill="#4D7F99"/>
<path d="M559.807 194.012H547.858V211.935H568.769V202.974C568.769 198.015 564.766 194.012 559.807 194.012Z" fill="#406080"/>
<path d="M532.923 205.961V167.127C532.923 162.185 528.903 158.166 523.962 158.166H515V164.14H523.962C525.607 164.14 526.949 165.479 526.949 167.127V205.961C526.949 208.057 526.949 224.746 526.949 223.884H529.936C531.581 223.884 532.923 225.223 532.923 226.871V229.858H592.667V214.922C592.667 213.365 593.093 211.781 593.869 210.459L596.5 205.961H532.923Z" fill="#F2994A"/>
<path d="M565.783 229.858H592.668V214.922C592.668 213.364 593.093 211.78 593.869 210.458L596.501 205.96H565.783V229.858Z" fill="#EE7719"/>
<path d="M529.936 235.831C524.994 235.831 520.974 231.811 520.974 226.87C520.974 221.928 524.994 217.908 529.936 217.908C534.877 217.908 538.897 221.928 538.897 226.87C538.897 231.811 534.877 235.831 529.936 235.831Z" fill="#406080"/>
<path d="M529.935 229.857C531.585 229.857 532.923 228.519 532.923 226.87C532.923 225.22 531.585 223.882 529.935 223.882C528.286 223.882 526.948 225.22 526.948 226.87C526.948 228.519 528.286 229.857 529.935 229.857Z" fill="#ECF2FF"/>
<path d="M592.667 176.088H598.641V182.062H592.667V176.088Z" fill="white"/>
<path d="M592.667 188.036H598.641V194.011H592.667V188.036Z" fill="white"/>
<path d="M604.615 182.062H610.59V188.036H604.615V182.062Z" fill="white"/>
<path d="M604.615 170.114H610.59V176.088H604.615V170.114Z" fill="white"/>
<path d="M610.055 229.858L604.079 199.986H601.629C596.267 199.986 591.436 202.772 588.712 207.437C587.393 209.695 586.693 212.282 586.693 214.922V226.871C586.693 231.813 590.713 235.833 595.654 235.833C597.921 235.833 617.975 235.833 616.963 235.833V229.858H610.055Z" fill="#F2994A"/>
</g>
<path d="M68.7261 141.875C66.2017 141.875 64.2323 142.913 62.8179 144.99C61.4035 147.049 60.6963 149.895 60.6963 153.53C60.6963 161.085 63.5698 164.863 69.3169 164.863C71.0535 164.863 72.7365 164.621 74.3657 164.138C75.995 163.654 77.6331 163.072 79.2803 162.392V171.362C76.0039 172.812 72.2979 173.537 68.1621 173.537C62.236 173.537 57.6885 171.818 54.5195 168.381C51.3685 164.943 49.793 159.975 49.793 153.476C49.793 149.412 50.5539 145.84 52.0757 142.761C53.6154 139.681 55.8175 137.318 58.6821 135.671C61.5646 134.006 64.9484 133.173 68.8335 133.173C73.0767 133.173 77.1318 134.095 80.999 135.939L77.7495 144.292C76.2993 143.611 74.8491 143.038 73.3989 142.573C71.9487 142.107 70.3911 141.875 68.7261 141.875ZM92.0098 173.537C89.5033 173.537 87.2116 173.269 85.1348 172.731V164.299C86.8177 164.961 88.9482 165.292 91.5264 165.292C92.6364 165.292 93.5674 165.042 94.3193 164.541C95.0892 164.021 95.7158 163.117 96.1992 161.828L83.3892 133.737H94.8296L99.6636 145.715C99.8426 146.18 100.057 146.735 100.308 147.38C100.577 148.024 100.836 148.696 101.087 149.394C101.338 150.074 101.57 150.755 101.785 151.435C102 152.115 102.17 152.706 102.295 153.208H102.671C103.28 150.773 104.184 147.926 105.384 144.667L109.385 133.737H120.826L108.902 161.291C107.416 164.729 105.957 167.262 104.524 168.891C103.092 170.502 101.373 171.684 99.3682 172.436C97.3809 173.17 94.9281 173.537 92.0098 173.537ZM124.451 133.737H138.147C143.483 133.737 147.439 134.534 150.018 136.127C152.614 137.703 153.912 140.165 153.912 143.513C153.912 145.715 153.348 147.595 152.22 149.152C151.092 150.71 149.606 151.713 147.762 152.16V152.429C150.197 153.073 151.96 154.147 153.052 155.651C154.144 157.155 154.69 159.107 154.69 161.506C154.69 165.069 153.348 167.88 150.662 169.938C147.994 171.979 144.351 173 139.732 173H124.451V133.737ZM135.059 148.803H138.255C139.777 148.803 140.949 148.49 141.773 147.863C142.614 147.237 143.035 146.306 143.035 145.07C143.035 142.868 141.37 141.767 138.04 141.767H135.059V148.803ZM135.059 156.564V164.809H138.792C142.104 164.809 143.76 163.413 143.76 160.62C143.76 159.313 143.313 158.31 142.417 157.612C141.54 156.914 140.26 156.564 138.577 156.564H135.059ZM184.822 173H161.512V133.737H184.822V142.25H172.12V148.427H183.882V156.94H172.12V164.353H184.822V173ZM225.347 173H214.686V156.994H202.359V173H191.697V133.737H202.359V148.293H214.686V133.737H225.347V173ZM233.86 133.737H243.313V150.603C243.313 152.393 243.17 155.974 242.884 161.345H243.099L258.755 133.737H271.861V173H262.461V156.564C262.461 154.076 262.623 150.352 262.945 145.393H262.73L246.939 173H233.86V133.737ZM308.868 146.225C308.868 150.611 307.57 154.004 304.974 156.403C302.396 158.785 298.725 159.975 293.963 159.975H290.982V173H280.374V133.737H293.963C298.922 133.737 302.646 134.82 305.135 136.987C307.623 139.153 308.868 142.233 308.868 146.225ZM290.982 151.328H292.916C294.509 151.328 295.771 150.88 296.702 149.985C297.651 149.09 298.125 147.854 298.125 146.279C298.125 143.629 296.657 142.304 293.721 142.304H290.982V151.328ZM343.162 159.975C343.162 164.165 341.73 167.387 338.865 169.643C336.019 171.881 331.972 173 326.727 173H315.125V133.737H325.787V147.702H326.324C331.802 147.702 335.974 148.741 338.838 150.817C341.721 152.876 343.162 155.929 343.162 159.975ZM325.787 164.809H326.216C330.37 164.809 332.447 163.269 332.447 160.19C332.447 157.218 330.352 155.732 326.163 155.732H325.787V164.809ZM357.422 173H346.734V133.737H357.422V173Z" fill="#538742"/>
<path d="M57.2891 208H55.4141V198.18H50.375V208H48.5078V196.578H57.2891V208ZM64.4922 208.156C63.3984 208.156 62.5495 207.763 61.9453 206.977H61.8359C61.9089 207.706 61.9453 208.148 61.9453 208.305V211.844H60.1094V199.359H61.5938C61.6354 199.521 61.7214 199.906 61.8516 200.516H61.9453C62.5182 199.641 63.3776 199.203 64.5234 199.203C65.6016 199.203 66.4401 199.594 67.0391 200.375C67.6432 201.156 67.9453 202.253 67.9453 203.664C67.9453 205.076 67.638 206.177 67.0234 206.969C66.4141 207.76 65.5703 208.156 64.4922 208.156ZM64.0469 200.703C63.3177 200.703 62.7839 200.917 62.4453 201.344C62.112 201.771 61.9453 202.453 61.9453 203.391V203.664C61.9453 204.716 62.112 205.479 62.4453 205.953C62.7786 206.422 63.3229 206.656 64.0781 206.656C64.7135 206.656 65.2031 206.396 65.5469 205.875C65.8906 205.354 66.0625 204.612 66.0625 203.648C66.0625 202.68 65.8906 201.948 65.5469 201.453C65.2083 200.953 64.7083 200.703 64.0469 200.703ZM71.8359 199.359V203.789C71.8359 204.305 71.7943 205.062 71.7109 206.062L76.0469 199.359H78.2891V208H76.5234V203.648C76.5234 203.409 76.5365 203.021 76.5625 202.484C76.5938 201.948 76.6198 201.557 76.6406 201.312L72.3203 208H70.0781V199.359H71.8359ZM88.5703 203.664C88.5703 205.076 88.2083 206.177 87.4844 206.969C86.7604 207.76 85.7526 208.156 84.4609 208.156C83.6536 208.156 82.9401 207.974 82.3203 207.609C81.7005 207.245 81.224 206.721 80.8906 206.039C80.5573 205.357 80.3906 204.565 80.3906 203.664C80.3906 202.263 80.75 201.169 81.4688 200.383C82.1875 199.596 83.2005 199.203 84.5078 199.203C85.7578 199.203 86.7474 199.607 87.4766 200.414C88.2057 201.216 88.5703 202.299 88.5703 203.664ZM82.2812 203.664C82.2812 205.659 83.0182 206.656 84.4922 206.656C85.9505 206.656 86.6797 205.659 86.6797 203.664C86.6797 201.69 85.9453 200.703 84.4766 200.703C83.7057 200.703 83.1458 200.958 82.7969 201.469C82.4531 201.979 82.2812 202.711 82.2812 203.664ZM90.1875 202.812C90.1875 200.885 90.513 199.404 91.1641 198.367C91.8203 197.331 92.862 196.664 94.2891 196.367C95.3672 196.148 96.6094 195.935 98.0156 195.727L98.2734 197.344C96.5651 197.604 95.3151 197.807 94.5234 197.953C93.7057 198.104 93.1146 198.44 92.75 198.961C92.3906 199.482 92.1823 200.266 92.125 201.312H92.2422C92.5391 200.88 92.9271 200.547 93.4062 200.312C93.8854 200.073 94.3984 199.953 94.9453 199.953C96.0078 199.953 96.8359 200.289 97.4297 200.961C98.0234 201.633 98.3203 202.576 98.3203 203.789C98.3203 205.18 97.9583 206.255 97.2344 207.016C96.5156 207.776 95.5182 208.156 94.2422 208.156C92.9766 208.156 91.9844 207.688 91.2656 206.75C90.5469 205.812 90.1875 204.5 90.1875 202.812ZM94.3672 206.656C95.7318 206.656 96.4141 205.76 96.4141 203.969C96.4141 202.24 95.7969 201.375 94.5625 201.375C94.224 201.375 93.8958 201.448 93.5781 201.594C93.2604 201.74 92.9661 201.932 92.6953 202.172C92.4297 202.411 92.224 202.659 92.0781 202.914C92.0781 204.143 92.2734 205.076 92.6641 205.711C93.0547 206.341 93.6224 206.656 94.3672 206.656ZM104.82 208.156C103.727 208.156 102.878 207.763 102.273 206.977H102.164C102.237 207.706 102.273 208.148 102.273 208.305V211.844H100.438V199.359H101.922C101.964 199.521 102.049 199.906 102.18 200.516H102.273C102.846 199.641 103.706 199.203 104.852 199.203C105.93 199.203 106.768 199.594 107.367 200.375C107.971 201.156 108.273 202.253 108.273 203.664C108.273 205.076 107.966 206.177 107.352 206.969C106.742 207.76 105.898 208.156 104.82 208.156ZM104.375 200.703C103.646 200.703 103.112 200.917 102.773 201.344C102.44 201.771 102.273 202.453 102.273 203.391V203.664C102.273 204.716 102.44 205.479 102.773 205.953C103.107 206.422 103.651 206.656 104.406 206.656C105.042 206.656 105.531 206.396 105.875 205.875C106.219 205.354 106.391 204.612 106.391 203.648C106.391 202.68 106.219 201.948 105.875 201.453C105.536 200.953 105.036 200.703 104.375 200.703ZM114.18 208.156C112.836 208.156 111.784 207.766 111.023 206.984C110.268 206.198 109.891 205.117 109.891 203.742C109.891 202.331 110.242 201.221 110.945 200.414C111.648 199.607 112.615 199.203 113.844 199.203C114.984 199.203 115.885 199.549 116.547 200.242C117.208 200.935 117.539 201.888 117.539 203.102V204.094H111.781C111.807 204.932 112.034 205.578 112.461 206.031C112.888 206.479 113.49 206.703 114.266 206.703C114.776 206.703 115.25 206.656 115.688 206.562C116.13 206.464 116.604 206.302 117.109 206.078V207.57C116.661 207.784 116.208 207.935 115.75 208.023C115.292 208.112 114.768 208.156 114.18 208.156ZM113.844 200.594C113.26 200.594 112.792 200.779 112.438 201.148C112.089 201.518 111.88 202.057 111.812 202.766H115.734C115.724 202.052 115.552 201.513 115.219 201.148C114.885 200.779 114.427 200.594 113.844 200.594ZM123.109 208.156C121.802 208.156 120.807 207.776 120.125 207.016C119.448 206.25 119.109 205.154 119.109 203.727C119.109 202.273 119.464 201.156 120.172 200.375C120.885 199.594 121.914 199.203 123.258 199.203C124.169 199.203 124.99 199.372 125.719 199.711L125.164 201.188C124.388 200.885 123.747 200.734 123.242 200.734C121.747 200.734 121 201.727 121 203.711C121 204.68 121.185 205.409 121.555 205.898C121.93 206.383 122.477 206.625 123.195 206.625C124.013 206.625 124.786 206.422 125.516 206.016V207.617C125.188 207.81 124.836 207.948 124.461 208.031C124.091 208.115 123.641 208.156 123.109 208.156ZM134.039 199.359V200.797H131.227V208H129.383V200.797H126.57V199.359H134.039ZM137.461 199.359V203.789C137.461 204.305 137.419 205.062 137.336 206.062L141.672 199.359H143.914V208H142.148V203.648C142.148 203.409 142.161 203.021 142.188 202.484C142.219 201.948 142.245 201.557 142.266 201.312L137.945 208H135.703V199.359H137.461Z" fill="black"/>
<path d="M47 209.602H145.219V210.398H47V209.602Z" fill="black"/>
<defs>
<clipPath id="clip0">
<rect width="102" height="102" fill="white" transform="translate(515 146)"/>
</clipPath>
</defs>
</svg>
