<svg width="690" height="340" viewBox="0 0 690 340" fill="none" xmlns="http://www.w3.org/2000/svg">
<mask id="mask0" mask-type="alpha" maskUnits="userSpaceOnUse" x="0" y="0" width="690" height="340">
<rect width="690" height="340" rx="5" fill="#C4C4C4"/>
</mask>
<g mask="url(#mask0)">
<rect width="690" height="340" rx="5" fill="white"/>
<path fill-rule="evenodd" clip-rule="evenodd" d="M601.443 167.548C666.191 192.767 727.765 241.62 734.87 314.723C742.217 390.305 691.296 461.388 635.383 516.73C580.912 570.644 512.89 608.563 441.628 604.971C367.755 601.246 302.006 562.038 265.344 498.074C228.285 433.416 212.9 346.285 253.318 276.424C289.737 213.474 371.782 219.985 438.259 199.194C494.516 181.6 549.329 147.25 601.443 167.548Z" fill="#F2C94C"/>
<path fill-rule="evenodd" clip-rule="evenodd" d="M506.744 87.5071C528.756 43.4464 562.315 5.57298 609.683 -8.08025C658.696 -22.2075 712.102 -13.8773 753.118 16.493C794.455 47.1005 817.495 95.8843 819.429 147.224C821.385 199.111 804.789 253.045 763.205 284.144C723.829 313.591 671.74 302.287 623.231 293.949C572.286 285.192 512.769 281.73 487.377 236.73C461.422 190.732 483.162 134.709 506.744 87.5071Z" fill="#ADD14D"/>
<g filter="url(#filter0_d)">
<path fill-rule="evenodd" clip-rule="evenodd" d="M498.048 83.0659C501.786 69.7747 515.592 62.0309 528.883 65.7698L817.675 147.007C830.966 150.746 838.71 164.552 834.971 177.843L782.693 363.686C778.954 376.977 765.149 384.721 751.857 380.982L463.066 299.744C449.775 296.005 442.031 282.2 445.77 268.909L498.048 83.0659Z" fill="white"/>
<path fill-rule="evenodd" clip-rule="evenodd" d="M498.048 83.0659C501.786 69.7747 515.592 62.0309 528.883 65.7698L817.675 147.007C830.966 150.746 838.71 164.552 834.971 177.843L782.693 363.686C778.954 376.977 765.149 384.721 751.857 380.982L463.066 299.744C449.775 296.005 442.031 282.2 445.77 268.909L498.048 83.0659Z" stroke="#EE7719"/>
</g>
<path d="M659.649 223.534L645.257 213.236C644.818 212.901 644.252 212.636 643.659 212.469L541.006 183.593C538.237 182.814 535.454 184.361 534.681 187.11L515.262 256.143C512.97 264.29 517.746 272.73 525.955 275.039L624.849 302.858C633.058 305.167 641.533 300.455 643.825 292.308L661.615 229.065C662.195 227.004 661.434 224.778 659.649 223.534Z" fill="#EE7719"/>
<path d="M677.335 170.905C677.558 163.543 673.932 156.713 667.595 152.563C661.331 148.54 653.552 147.967 646.865 151.25L632.312 158.133L634.286 142.225C635.141 134.933 632.261 127.773 626.294 123.082C625.124 122.215 623.926 121.447 622.672 120.879C617.437 118.223 611.356 117.804 605.765 119.89C598.383 122.548 593.184 129.048 592.116 136.71C591.149 144.401 594.421 152.101 600.875 156.607L610.666 163.558L622.696 172.214C622.797 172.243 622.797 172.243 622.797 172.243L643.694 187.267C645.787 188.717 648.094 189.797 650.412 190.449C655.351 191.838 660.693 191.403 665.477 189.091C672.523 185.693 677.102 178.695 677.335 170.905Z" fill="#FE9923"/>
<path d="M687.128 219.805L674.897 236.897C673.518 238.694 671.255 239.368 669.232 238.799C668.625 238.628 668.046 238.356 667.598 238.012L620.654 204.274L620.313 187.25L606.872 186.526L595.033 185.927L548.089 152.189C545.744 150.437 545.255 147.132 546.877 144.858L559.209 127.795C561.605 124.319 565.292 122.079 569.418 121.383C573.543 120.688 577.747 121.651 581.192 124.149L617.149 149.991L619.596 151.771C619.596 151.771 624.94 174.681 625.244 174.766C625.447 174.823 630.479 173.618 635.382 172.485C640.285 171.352 645.217 170.119 645.217 170.119L683.518 197.712C686.964 200.21 689.201 203.898 689.895 208.025C690.591 212.152 689.625 216.358 687.128 219.805Z" fill="#F1A45C"/>
<path d="M686.08 223.521L673.657 241.22C672.257 243.081 669.977 243.792 667.948 243.222C667.339 243.05 666.76 242.775 666.311 242.423L619.386 208.03L619.173 190.497L605.669 189.854L616.278 152.143L618.723 153.957C618.723 153.957 623.92 177.515 624.224 177.601C624.428 177.658 629.495 176.378 634.432 175.173C639.368 173.969 644.334 172.661 644.334 172.661L682.62 200.791C686.064 203.338 688.285 207.119 688.951 211.365C689.619 215.611 688.616 219.951 686.08 223.521Z" fill="#EE7719"/>
<path d="M584.573 197.354L560.024 284.623L588.729 292.697L613.277 205.429L584.573 197.354Z" fill="#FCBF29"/>
<path d="M614.336 156.519L609.741 162.942L591.009 189.157L600.447 195.982L611.184 203.694L615.218 206.601L638.545 173.964L614.336 156.519Z" fill="#FCBF29"/>
</g>
<path d="M83.416 117H72.7275V86.4116H61.9048V117H51.2432V77.7373H83.416V117ZM128.641 97.3149C128.641 103.921 127.02 108.943 123.78 112.381C120.539 115.818 115.795 117.537 109.546 117.537C103.388 117.537 98.661 115.809 95.3667 112.354C92.0903 108.899 90.4521 103.868 90.4521 97.2612C90.4521 90.7264 92.0814 85.7402 95.3398 82.3027C98.6162 78.8473 103.37 77.1196 109.6 77.1196C115.848 77.1196 120.584 78.8294 123.807 82.249C127.029 85.6686 128.641 90.6906 128.641 97.3149ZM101.624 97.3149C101.624 104.906 104.265 108.702 109.546 108.702C112.232 108.702 114.219 107.78 115.508 105.936C116.815 104.091 117.469 101.218 117.469 97.3149C117.469 93.394 116.806 90.5026 115.481 88.6406C114.174 86.7607 112.214 85.8208 109.6 85.8208C104.283 85.8208 101.624 89.6522 101.624 97.3149ZM175.262 129.219H164.922V117H142.042V129.219H131.702V108.299H134.952C137.297 104.324 139.231 99.7319 140.752 94.522C142.274 89.2941 143.259 83.6992 143.707 77.7373H169.891V108.299H175.262V129.219ZM159.202 108.299V86.4116H152.22C151.486 94.0744 149.472 101.37 146.177 108.299H159.202ZM204.615 117L202.681 109.642H189.925L187.938 117H176.282L189.092 77.5762H203.245L216.216 117H204.615ZM200.479 100.94L198.787 94.4951C198.393 93.0628 197.91 91.2098 197.337 88.936C196.782 86.6623 196.415 85.033 196.236 84.0483C196.075 84.9614 195.752 86.4653 195.269 88.5601C194.804 90.6548 193.756 94.7816 192.127 100.94H200.479ZM248.98 90.2251C248.98 94.6115 247.682 98.0042 245.086 100.403C242.508 102.785 238.838 103.975 234.075 103.975H231.094V117H220.486V77.7373H234.075C239.035 77.7373 242.758 78.8205 245.247 80.9868C247.736 83.1532 248.98 86.2326 248.98 90.2251ZM231.094 95.3276H233.028C234.621 95.3276 235.883 94.88 236.814 93.9849C237.763 93.0897 238.238 91.8543 238.238 90.2788C238.238 87.6291 236.77 86.3042 233.833 86.3042H231.094V95.3276ZM291.976 97.3149C291.976 103.921 290.355 108.943 287.115 112.381C283.874 115.818 279.13 117.537 272.881 117.537C266.722 117.537 261.996 115.809 258.702 112.354C255.425 108.899 253.787 103.868 253.787 97.2612C253.787 90.7264 255.416 85.7402 258.675 82.3027C261.951 78.8473 266.705 77.1196 272.935 77.1196C279.183 77.1196 283.919 78.8294 287.142 82.249C290.364 85.6686 291.976 90.6906 291.976 97.3149ZM264.959 97.3149C264.959 104.906 267.6 108.702 272.881 108.702C275.567 108.702 277.554 107.78 278.843 105.936C280.15 104.091 280.804 101.218 280.804 97.3149C280.804 93.394 280.141 90.5026 278.816 88.6406C277.509 86.7607 275.549 85.8208 272.935 85.8208C267.618 85.8208 264.959 89.6522 264.959 97.3149ZM332.339 117H321.651V102.471C317.121 104.047 313.075 104.834 309.512 104.834C305.788 104.834 302.879 103.921 300.784 102.095C298.707 100.251 297.669 97.6641 297.669 94.334V77.7373H308.357V90.8159C308.357 92.7316 308.742 94.1012 309.512 94.9248C310.282 95.7484 311.508 96.1602 313.191 96.1602C315.483 96.1602 318.303 95.5514 321.651 94.334V77.7373H332.339V117ZM374.449 117H363.787V100.994H351.46V117H340.799V77.7373H351.46V92.293H363.787V77.7373H374.449V117ZM410.999 103.975C410.999 108.165 409.567 111.387 406.702 113.643C403.855 115.881 399.809 117 394.563 117H382.962V77.7373H393.624V91.7021H394.161C399.639 91.7021 403.811 92.7406 406.675 94.8174C409.558 96.8763 410.999 99.9289 410.999 103.975ZM393.624 108.809H394.053C398.207 108.809 400.284 107.269 400.284 104.19C400.284 101.218 398.189 99.7319 394 99.7319H393.624V108.809ZM425.259 117H414.571V77.7373H425.259V117ZM433.719 77.7373H443.172V94.6025C443.172 96.3929 443.029 99.9736 442.742 105.345H442.957L458.614 77.7373H471.719V117H462.32V100.564C462.32 98.0758 462.481 94.3519 462.803 89.3926H462.588L446.797 117H433.719V77.7373ZM452.625 74.5952C448.346 74.5952 445.141 73.7627 443.011 72.0977C440.898 70.4326 439.716 67.8545 439.466 64.3633H448.221C448.31 66.1178 448.695 67.389 449.375 68.1768C450.056 68.9645 451.139 69.3584 452.625 69.3584C455.311 69.3584 456.779 67.6934 457.029 64.3633H465.918C465.184 71.1846 460.753 74.5952 452.625 74.5952ZM68.7261 149.875C66.2017 149.875 64.2323 150.913 62.8179 152.99C61.4035 155.049 60.6963 157.895 60.6963 161.53C60.6963 169.085 63.5698 172.863 69.3169 172.863C71.0535 172.863 72.7365 172.621 74.3657 172.138C75.995 171.654 77.6331 171.072 79.2803 170.392V179.362C76.0039 180.812 72.2979 181.537 68.1621 181.537C62.236 181.537 57.6885 179.818 54.5195 176.381C51.3685 172.943 49.793 167.975 49.793 161.476C49.793 157.412 50.5539 153.84 52.0757 150.761C53.6154 147.681 55.8175 145.318 58.6821 143.671C61.5646 142.006 64.9484 141.173 68.8335 141.173C73.0767 141.173 77.1318 142.095 80.999 143.939L77.7495 152.292C76.2993 151.611 74.8491 151.038 73.3989 150.573C71.9487 150.107 70.3911 149.875 68.7261 149.875ZM110.271 181H86.9609V141.737H110.271V150.25H97.5688V156.427H109.332V164.94H97.5688V172.353H110.271V181ZM145.64 154.225C145.64 158.611 144.342 162.004 141.746 164.403C139.168 166.785 135.498 167.975 130.735 167.975H127.754V181H117.146V141.737H130.735C135.695 141.737 139.419 142.82 141.907 144.987C144.396 147.153 145.64 150.233 145.64 154.225ZM127.754 159.328H129.688C131.281 159.328 132.544 158.88 133.475 157.985C134.424 157.09 134.898 155.854 134.898 154.279C134.898 151.629 133.43 150.304 130.494 150.304H127.754V159.328ZM169.219 181H158.611V150.412H149.024V141.737H178.78V150.412H169.219V181ZM184.393 141.737H193.846V158.603C193.846 160.393 193.702 163.974 193.416 169.345H193.631L209.288 141.737H222.393V181H212.994V164.564C212.994 162.076 213.155 158.352 213.477 153.393H213.262L197.471 181H184.393V141.737ZM246.133 141.173H256.365V146.007H257.144C260.51 146.007 263.446 146.625 265.953 147.86C268.477 149.096 270.411 150.832 271.753 153.07C273.114 155.308 273.794 157.851 273.794 160.697C273.794 163.669 273.132 166.274 271.807 168.512C270.482 170.732 268.54 172.451 265.979 173.668C263.419 174.886 260.322 175.495 256.688 175.495H256.365V181.537H246.133V175.495H245.596C241.98 175.495 238.9 174.904 236.358 173.722C233.833 172.523 231.927 170.822 230.638 168.62C229.349 166.4 228.704 163.741 228.704 160.644C228.704 157.725 229.384 155.138 230.745 152.882C232.124 150.609 234.039 148.899 236.492 147.753C238.963 146.589 241.845 146.007 245.14 146.007H246.133V141.173ZM256.365 167.465H256.688C258.943 167.465 260.635 166.91 261.763 165.8C262.891 164.69 263.455 162.971 263.455 160.644C263.455 158.603 262.873 157.009 261.709 155.863C260.546 154.7 258.908 154.118 256.795 154.118H256.365V167.465ZM246.133 154.118H245.516C243.421 154.118 241.819 154.673 240.708 155.783C239.598 156.893 239.043 158.513 239.043 160.644C239.043 163.061 239.581 164.806 240.655 165.88C241.747 166.937 243.394 167.465 245.596 167.465H246.133V154.118ZM280.105 141.737H289.559V158.603C289.559 160.393 289.415 163.974 289.129 169.345H289.344L305 141.737H318.106V181H308.707V164.564C308.707 162.076 308.868 158.352 309.19 153.393H308.975L293.184 181H280.105V141.737ZM360.94 181H348.936L337.281 161.1V181H326.619V141.737H337.281V160.751L348.506 141.737H360.162L348.05 160.482L360.94 181ZM389.058 181L387.125 173.642H374.368L372.381 181H360.726L373.536 141.576H387.688L400.66 181H389.058ZM384.922 164.94L383.23 158.495C382.837 157.063 382.353 155.21 381.78 152.936C381.225 150.662 380.858 149.033 380.679 148.048C380.518 148.961 380.196 150.465 379.712 152.56C379.247 154.655 378.2 158.782 376.57 164.94H384.922ZM422.251 181H411.644V150.412H402.056V141.737H431.812V150.412H422.251V181Z" fill="#538742"/>
<path d="M57.2891 226H55.4141V216.18H50.375V226H48.5078V214.578H57.2891V226ZM64.4922 226.156C63.3984 226.156 62.5495 225.763 61.9453 224.977H61.8359C61.9089 225.706 61.9453 226.148 61.9453 226.305V229.844H60.1094V217.359H61.5938C61.6354 217.521 61.7214 217.906 61.8516 218.516H61.9453C62.5182 217.641 63.3776 217.203 64.5234 217.203C65.6016 217.203 66.4401 217.594 67.0391 218.375C67.6432 219.156 67.9453 220.253 67.9453 221.664C67.9453 223.076 67.638 224.177 67.0234 224.969C66.4141 225.76 65.5703 226.156 64.4922 226.156ZM64.0469 218.703C63.3177 218.703 62.7839 218.917 62.4453 219.344C62.112 219.771 61.9453 220.453 61.9453 221.391V221.664C61.9453 222.716 62.112 223.479 62.4453 223.953C62.7786 224.422 63.3229 224.656 64.0781 224.656C64.7135 224.656 65.2031 224.396 65.5469 223.875C65.8906 223.354 66.0625 222.612 66.0625 221.648C66.0625 220.68 65.8906 219.948 65.5469 219.453C65.2083 218.953 64.7083 218.703 64.0469 218.703ZM71.8359 217.359V221.789C71.8359 222.305 71.7943 223.062 71.7109 224.062L76.0469 217.359H78.2891V226H76.5234V221.648C76.5234 221.409 76.5365 221.021 76.5625 220.484C76.5938 219.948 76.6198 219.557 76.6406 219.312L72.3203 226H70.0781V217.359H71.8359ZM88.5703 221.664C88.5703 223.076 88.2083 224.177 87.4844 224.969C86.7604 225.76 85.7526 226.156 84.4609 226.156C83.6536 226.156 82.9401 225.974 82.3203 225.609C81.7005 225.245 81.224 224.721 80.8906 224.039C80.5573 223.357 80.3906 222.565 80.3906 221.664C80.3906 220.263 80.75 219.169 81.4688 218.383C82.1875 217.596 83.2005 217.203 84.5078 217.203C85.7578 217.203 86.7474 217.607 87.4766 218.414C88.2057 219.216 88.5703 220.299 88.5703 221.664ZM82.2812 221.664C82.2812 223.659 83.0182 224.656 84.4922 224.656C85.9505 224.656 86.6797 223.659 86.6797 221.664C86.6797 219.69 85.9453 218.703 84.4766 218.703C83.7057 218.703 83.1458 218.958 82.7969 219.469C82.4531 219.979 82.2812 220.711 82.2812 221.664ZM90.1875 220.812C90.1875 218.885 90.513 217.404 91.1641 216.367C91.8203 215.331 92.862 214.664 94.2891 214.367C95.3672 214.148 96.6094 213.935 98.0156 213.727L98.2734 215.344C96.5651 215.604 95.3151 215.807 94.5234 215.953C93.7057 216.104 93.1146 216.44 92.75 216.961C92.3906 217.482 92.1823 218.266 92.125 219.312H92.2422C92.5391 218.88 92.9271 218.547 93.4062 218.312C93.8854 218.073 94.3984 217.953 94.9453 217.953C96.0078 217.953 96.8359 218.289 97.4297 218.961C98.0234 219.633 98.3203 220.576 98.3203 221.789C98.3203 223.18 97.9583 224.255 97.2344 225.016C96.5156 225.776 95.5182 226.156 94.2422 226.156C92.9766 226.156 91.9844 225.688 91.2656 224.75C90.5469 223.812 90.1875 222.5 90.1875 220.812ZM94.3672 224.656C95.7318 224.656 96.4141 223.76 96.4141 221.969C96.4141 220.24 95.7969 219.375 94.5625 219.375C94.224 219.375 93.8958 219.448 93.5781 219.594C93.2604 219.74 92.9661 219.932 92.6953 220.172C92.4297 220.411 92.224 220.659 92.0781 220.914C92.0781 222.143 92.2734 223.076 92.6641 223.711C93.0547 224.341 93.6224 224.656 94.3672 224.656ZM104.82 226.156C103.727 226.156 102.878 225.763 102.273 224.977H102.164C102.237 225.706 102.273 226.148 102.273 226.305V229.844H100.438V217.359H101.922C101.964 217.521 102.049 217.906 102.18 218.516H102.273C102.846 217.641 103.706 217.203 104.852 217.203C105.93 217.203 106.768 217.594 107.367 218.375C107.971 219.156 108.273 220.253 108.273 221.664C108.273 223.076 107.966 224.177 107.352 224.969C106.742 225.76 105.898 226.156 104.82 226.156ZM104.375 218.703C103.646 218.703 103.112 218.917 102.773 219.344C102.44 219.771 102.273 220.453 102.273 221.391V221.664C102.273 222.716 102.44 223.479 102.773 223.953C103.107 224.422 103.651 224.656 104.406 224.656C105.042 224.656 105.531 224.396 105.875 223.875C106.219 223.354 106.391 222.612 106.391 221.648C106.391 220.68 106.219 219.948 105.875 219.453C105.536 218.953 105.036 218.703 104.375 218.703ZM114.18 226.156C112.836 226.156 111.784 225.766 111.023 224.984C110.268 224.198 109.891 223.117 109.891 221.742C109.891 220.331 110.242 219.221 110.945 218.414C111.648 217.607 112.615 217.203 113.844 217.203C114.984 217.203 115.885 217.549 116.547 218.242C117.208 218.935 117.539 219.888 117.539 221.102V222.094H111.781C111.807 222.932 112.034 223.578 112.461 224.031C112.888 224.479 113.49 224.703 114.266 224.703C114.776 224.703 115.25 224.656 115.688 224.562C116.13 224.464 116.604 224.302 117.109 224.078V225.57C116.661 225.784 116.208 225.935 115.75 226.023C115.292 226.112 114.768 226.156 114.18 226.156ZM113.844 218.594C113.26 218.594 112.792 218.779 112.438 219.148C112.089 219.518 111.88 220.057 111.812 220.766H115.734C115.724 220.052 115.552 219.513 115.219 219.148C114.885 218.779 114.427 218.594 113.844 218.594ZM123.109 226.156C121.802 226.156 120.807 225.776 120.125 225.016C119.448 224.25 119.109 223.154 119.109 221.727C119.109 220.273 119.464 219.156 120.172 218.375C120.885 217.594 121.914 217.203 123.258 217.203C124.169 217.203 124.99 217.372 125.719 217.711L125.164 219.188C124.388 218.885 123.747 218.734 123.242 218.734C121.747 218.734 121 219.727 121 221.711C121 222.68 121.185 223.409 121.555 223.898C121.93 224.383 122.477 224.625 123.195 224.625C124.013 224.625 124.786 224.422 125.516 224.016V225.617C125.188 225.81 124.836 225.948 124.461 226.031C124.091 226.115 123.641 226.156 123.109 226.156ZM134.039 217.359V218.797H131.227V226H129.383V218.797H126.57V217.359H134.039ZM137.461 217.359V221.789C137.461 222.305 137.419 223.062 137.336 224.062L141.672 217.359H143.914V226H142.148V221.648C142.148 221.409 142.161 221.021 142.188 220.484C142.219 219.948 142.245 219.557 142.266 219.312L137.945 226H135.703V217.359H137.461Z" fill="black"/>
<path d="M47 227.602H145.219V228.398H47V227.602Z" fill="black"/>
<defs>
<filter id="filter0_d" x="430.383" y="54.3833" width="419.974" height="345.985" filterUnits="userSpaceOnUse" color-interpolation-filters="sRGB">
<feFlood flood-opacity="0" result="BackgroundImageFix"/>
<feColorMatrix in="SourceAlpha" type="matrix" values="0 0 0 0 0 0 0 0 0 0 0 0 0 0 0 0 0 0 127 0"/>
<feOffset dy="4"/>
<feGaussianBlur stdDeviation="4"/>
<feColorMatrix type="matrix" values="0 0 0 0 0 0 0 0 0 0 0 0 0 0 0 0 0 0 0.05 0"/>
<feBlend mode="normal" in2="BackgroundImageFix" result="effect1_dropShadow"/>
<feBlend mode="normal" in="SourceGraphic" in2="effect1_dropShadow" result="shape"/>
</filter>
</defs>
</svg>
