<svg width="1410" height="508" viewBox="0 0 1410 508" fill="none" xmlns="http://www.w3.org/2000/svg">
<rect width="1410" height="508" fill="white"/>
<mask id="mask0" mask-type="alpha" maskUnits="userSpaceOnUse" x="0" y="0" width="1410" height="508">
<rect width="1410" height="508" fill="#F2F2F2"/>
</mask>
<g mask="url(#mask0)">
<g opacity="0.15">
<path d="M1568.85 -643.999H-159.77V508.412H1568.85V-643.999Z" fill="url(#paint0_linear)"/>
<path d="M1568.85 -210.923V508.182H-159.77V-258.633C-108.833 -293.435 -58.8185 -330.082 1.79832 -346.216C105.976 -373.874 195.403 -297.354 295.894 -283.986C345.908 -277.302 395.693 -298.736 446.399 -298.275C534.673 -297.584 607.736 -231.666 694.398 -215.993C786.36 -199.399 877.401 -240.655 963.14 -276.149C1048.88 -311.643 1118.25 -334.692 1203.53 -298.045C1278.44 -266.008 1358.19 -194.328 1439.32 -180.96C1478.73 -174.507 1526.21 -202.856 1568.85 -210.923Z" fill="url(#paint1_linear)"/>
<path d="M1531.08 -147.709V91.0709L1451.33 91.9928L853 98.9073V-18.1777C883.424 -46.2965 933.208 -50.2148 967.78 -27.6275C976.308 -43.9917 1001.43 -51.1367 1017.79 -42.3783C1027.71 -71.4191 1055.36 -89.6272 1085.79 -91.932C1116.21 -94.2369 1147.33 -76.9507 1161.39 -49.7538C1177.06 -57.8207 1201.72 -47.6794 1213.47 -34.7724C1236.98 -48.6014 1276.86 -39.3821 1289.07 -15.1815C1295.99 -33.3896 1313.27 -46.0661 1331.71 -52.2891C1350.15 -58.5121 1371.12 -55.9768 1387.72 -45.6051C1390.48 -63.8132 1417.68 -80.6384 1434.51 -73.0325C1437.73 -90.7796 1447.87 -108.066 1461.47 -121.664C1470 -130.192 1479.91 -136.876 1490.51 -141.255C1503.19 -146.556 1517.25 -148.861 1531.08 -147.709Z" fill="url(#paint2_linear)"/>
<path d="M1568.85 77.4107V508.413H-159.77V47.909C-29.7777 -15.0126 100.445 -77.9343 230.437 -141.086C232.511 -142.008 234.585 -143.161 236.66 -144.083C240.578 -145.927 244.496 -147.77 248.184 -149.614C297.968 -173.354 350.518 -196.172 404.681 -198.246L406.525 -206.543L408.369 -198.477C417.127 -198.707 425.886 -198.246 434.644 -197.324C448.473 -195.711 461.841 -192.715 474.979 -188.796L478.897 -205.391L483.276 -186.031C483.737 -185.8 484.198 -185.8 484.659 -185.57L486.503 -193.867L488.807 -184.187C517.848 -173.815 545.967 -159.525 574.547 -147.079L576.621 -155.837L579.157 -145.005C605.432 -133.711 631.937 -124.492 660.517 -121.495C671.58 -120.343 682.874 -120.113 693.937 -120.574L696.933 -133.481L699.929 -120.804C700.39 -120.804 700.851 -120.804 701.543 -120.804L704.539 -133.481L707.305 -121.265C737.037 -123.339 766.769 -128.41 795.81 -129.101L798.345 -139.704L799.728 -133.25L805.029 -156.529L810.33 -133.711L812.866 -145.005L816.553 -128.871H814.479C816.323 -128.871 818.167 -128.64 819.78 -128.64L822.085 -138.782L824.62 -128.41C835.453 -127.258 846.286 -125.183 856.657 -121.726L859.423 -133.481L862.65 -119.652C863.572 -119.191 864.724 -118.96 865.646 -118.499L866.798 -123.8L868.181 -117.347C891.691 -106.975 911.051 -89.228 931.103 -73.0942C937.326 -68.0236 943.549 -63.1835 950.003 -58.8043L950.464 -60.8786L951.155 -57.8824C953.69 -56.269 955.995 -54.6556 958.53 -53.0423L961.296 -65.2578L963.601 -54.8861L965.445 -62.492L968.902 -47.0497C970.285 -46.3583 971.668 -45.6668 973.051 -45.2059L974.895 -52.5813L976.969 -43.362C978.813 -42.6705 980.657 -41.9791 982.731 -41.2876L985.266 -52.5813L988.263 -39.4438C988.954 -39.2133 989.415 -38.9828 990.106 -38.9828L991.489 -44.5144L992.872 -38.2914C1025.6 -30.455 1059.48 -37.8304 1093.82 -44.9754L1096.82 -57.8824L1099.59 -46.1278C1100.97 -46.3583 1102.35 -46.5887 1103.73 -47.0497L1106.96 -60.8786L1109.96 -48.2021C1129.09 -51.8898 1148.22 -54.8861 1167.12 -54.6556C1189.24 -54.1947 1209.99 -49.3545 1230.04 -41.5181L1231.65 -48.2021L1233.03 -41.7486L1235.34 -51.4288L1238.34 -38.2914C1245.25 -35.2951 1252.16 -32.0683 1258.85 -28.6111L1260.69 -36.678L1263 -26.3063C1298.26 -7.40674 1331.68 17.7158 1366.71 39.1507C1378.93 46.5261 1391.38 53.4406 1404.05 59.6636C1425.26 69.5743 1447.15 76.9498 1470.66 79.9461C1475.73 80.6375 1481.03 80.868 1486.33 81.0985C1504.08 82.0204 1522.29 80.6375 1540.5 79.2546C1549.95 78.5631 1559.4 77.8717 1568.85 77.4107Z" fill="#E5F1F6"/>
<path d="M1413.5 166.608C1292.04 177.441 1168.96 170.065 1050.03 144.021C1038.51 141.485 1027.21 138.95 1015.92 136.184C918.427 111.984 825.312 75.5674 733.119 36.3854L731.967 31.5452L731.045 35.4634C723.669 32.2366 716.294 29.01 708.918 26.0137L706.614 15.4115L704.539 23.9393C704.309 23.7088 704.078 23.7088 703.617 23.4784L702.695 19.7906L702.004 22.7869C620.413 -12.7074 539.283 -49.5845 456.31 -82.0825L454.927 -87.8446L453.774 -83.0045C453.083 -83.235 452.161 -83.6959 451.47 -83.9264L448.704 -95.681L446.399 -85.7703C444.325 -86.6922 442.25 -87.3836 439.945 -88.3055L438.332 -95.9115L436.949 -89.6885C435.336 -90.3799 433.953 -90.8409 432.34 -91.5323L429.113 -105.822L427.269 -98.2163L424.964 -108.358L421.968 -95.22C419.893 -95.9115 417.589 -96.8334 415.514 -97.7553L414.131 -103.978L412.979 -98.6772C385.321 -108.818 356.972 -118.268 328.392 -127.027L326.087 -137.398L324.013 -128.409C319.173 -129.792 314.563 -131.175 309.723 -132.558L306.266 -147.079L304.422 -139.473L302.117 -149.614L298.89 -135.324C293.128 -136.937 287.366 -138.32 281.835 -139.934L280.682 -145.235L279.53 -140.625C278.377 -140.856 277.455 -141.086 276.303 -141.547L272.846 -156.759L269.619 -143.16C262.705 -145.004 255.79 -146.618 248.645 -148.231L245.649 -161.368L242.883 -149.614C238.734 -150.536 234.586 -151.458 230.437 -152.38C213.151 -156.067 195.634 -159.525 178.118 -162.29L175.813 -172.432L173.738 -162.982C172.586 -163.212 171.664 -163.443 170.512 -163.443L168.437 -172.201L166.593 -163.904C162.675 -164.595 158.988 -165.056 155.069 -165.517L152.995 -174.506L151.151 -165.978C73.4786 -176.58 -4.65492 -177.963 -80.0226 -165.517L-82.097 -174.506L-84.4018 -164.826C-86.4761 -164.595 -88.32 -164.134 -90.3943 -163.673L-92.2382 -171.51L-94.3125 -162.982C-97.3088 -162.521 -100.305 -161.829 -103.301 -161.368L-103.762 -163.673L-104.223 -161.138C-107.911 -160.447 -111.599 -159.525 -115.517 -158.833L-118.052 -169.896L-120.588 -158.603L-125.889 -181.42L-132.112 -154.915C-141.561 -152.61 -150.781 -150.075 -160 -147.079V508.413H1568.62V142.407C1517.68 153.931 1465.82 161.998 1413.5 166.608Z" fill="#E3EFF7"/>
<path d="M976.278 229.068C969.594 209.477 952.538 194.035 933.178 185.738C911.743 176.518 889.847 179.975 866.568 179.745C852.97 155.775 828.539 139.18 801.803 132.496C790.279 117.054 772.071 106.682 752.94 105.069C733.81 103.225 715.141 112.675 700.852 125.582C683.335 108.987 658.673 100.459 634.703 102.072C610.733 103.916 584.919 112.905 570.168 131.805C556.8 117.054 535.826 112.905 520.614 125.582C500.793 96.0799 469.217 75.106 434.414 68.1915C399.611 61.2771 354.667 68.883 325.165 88.474C311.336 66.1172 276.534 60.8161 256.943 78.1022C245.879 52.9797 224.214 32.4668 198.63 22.5561C173.047 12.6453 140.779 13.1063 115.657 24.3999C108.973 3.42601 84.7722 -13.8602 63.1069 -10.1724C33.6051 -38.0608 -13.4133 -40.1352 -50.2904 -23.31C-82.097 -45.4363 -120.818 -56.4994 -159.539 -56.0384V229.068H976.278Z" fill="#FFFAF2"/>
<path d="M1568.85 -103.287V508.413H326.548C399.611 478.911 455.849 416.22 517.848 363.209C522.689 359.06 527.759 354.681 532.83 350.763C568.324 321.953 606.123 297.061 650.145 284.154C727.126 261.566 812.866 279.083 889.386 255.113C944.01 238.057 988.032 201.871 1031.82 165.225C1037.82 160.154 1043.81 155.084 1050.03 150.243C1052.11 148.63 1053.95 147.017 1056.02 145.403C1089.68 117.976 1124.71 92.1619 1165.27 76.4891C1182.56 69.8051 1200.31 65.1955 1218.75 61.5078C1267.61 51.8275 1319.24 49.5226 1366.71 38.9204C1400.6 31.3145 1432.17 19.56 1458.68 -2.10538C1485.18 -23.5402 1503.39 -52.8115 1528.05 -76.0902C1539.58 -86.9229 1553.64 -96.8336 1568.85 -103.287Z" fill="#C2D2DC"/>
<path d="M1554.56 376.116C1456.6 335.32 1358.42 294.755 1260.46 254.191C1244.33 247.507 1228.43 240.823 1212.29 234.139C1202.84 230.22 1193.39 226.302 1183.94 222.384L1179.79 204.637L1176.34 219.388C1175.18 218.927 1173.8 218.466 1172.65 217.774L1165.27 185.968L1159.28 212.243C1154.9 210.399 1150.52 208.786 1146.14 206.942L1141.3 185.737L1137.15 203.254C1134.16 202.102 1131.16 200.949 1128.17 199.797L1119.64 163.15L1115.49 180.667L1109.96 156.927L1102.35 190.116C1097.28 188.273 1092.21 186.429 1087.37 184.585L1084.6 172.83L1082.3 182.741C1065.47 176.518 1048.65 170.756 1031.59 165.224C985.497 150.243 943.088 139.18 901.371 132.957L899.297 123.507L897.222 132.265C884.776 130.421 872.33 129.039 859.884 128.347L853.431 100.92L849.282 118.436L843.75 94.6968L836.145 127.425C823.699 127.195 811.253 127.195 798.806 127.886L793.505 105.299L788.204 128.578C787.743 128.578 787.282 128.578 786.821 128.578L775.297 78.563L763.312 130.883C758.472 131.343 753.632 132.035 748.792 132.726L745.796 119.819L742.569 133.648C729.892 135.492 716.985 138.027 703.848 140.793C583.536 167.068 465.76 211.321 344.295 190.116C343.604 190.116 343.143 189.886 342.451 189.656L339.455 176.057L336.689 188.503C320.095 185.046 303.961 179.975 288.288 173.983L280.221 138.949L274.69 162.689L271.693 149.321L268.006 165.455C200.474 134.57 139.166 85.4775 69.7909 54.8233L67.486 44.4516L65.4117 52.9795C51.5827 46.9869 37.5233 41.9163 23.003 37.7676L19.3152 21.8643L16.0885 35.9238C6.40823 33.3885 -3.27203 31.3141 -13.4133 29.9312L-16.64 16.3328L-18.9448 26.474L-25.3983 -5.56304L-33.0042 26.7045C-36.4615 26.474 -39.6882 26.2435 -43.1455 26.0131L-48.9075 1.35143L-54.6696 26.0131C-60.8926 26.0131 -67.3461 26.2435 -73.7996 26.7045L-75.413 20.0205L-77.0264 26.935C-85.5542 27.6264 -94.0821 28.7788 -103.071 30.3922L-108.833 5.26965L-114.825 31.3141L-127.041 -21.4663L-141.1 39.6115C-147.323 41.4554 -153.777 43.7602 -160 46.065V508.413H1568.62V382.108C1564.01 380.034 1559.17 377.96 1554.56 376.116Z" fill="#C2D2DC"/>
<path d="M1568.85 -17.0876V455.171H683.104C685.409 445.029 689.327 435.349 694.859 426.36C698.316 420.829 702.004 415.528 706.383 410.688C709.61 407.23 712.837 404.004 716.524 401.238C722.978 396.167 729.892 392.018 737.729 389.714C749.944 386.026 764.004 387.409 774.375 394.784C776.219 381.186 787.743 371.966 800.65 369.201C808.717 367.587 830.844 368.509 834.992 378.65C835.223 379.111 835.223 379.572 835.453 380.033C835.453 379.572 835.223 379.111 835.223 378.65C831.996 359.52 846.977 339.699 864.725 331.402C882.702 322.874 903.907 323.796 923.498 327.714C930.412 317.342 938.94 309.506 949.542 307.892C952.999 307.431 956.687 307.431 960.605 308.353C966.828 286.227 988.724 270.785 1011.31 267.328C1034.13 263.87 1058.33 274.933 1070.78 294.294C1089.68 276.316 1121.25 275.625 1140.61 292.681C1162.05 250.502 1213.44 230.22 1260.23 237.595C1261.85 237.826 1263.46 238.056 1265.07 238.517C1265.07 237.365 1264.84 236.443 1264.84 235.29C1263 212.703 1269.22 188.042 1284.43 171.216C1285.59 169.834 1286.74 168.681 1288.12 167.529C1306.79 150.243 1333.76 142.406 1358.65 147.016C1361.64 131.343 1375.01 119.588 1389.99 114.057C1401.29 109.678 1414.42 110.369 1425.49 115.209C1428.95 116.592 1431.94 118.666 1434.94 120.971C1435.4 119.819 1435.63 118.897 1436.32 117.745C1444.39 99.7669 1467.44 85.938 1485.18 93.7744C1485.64 89.3952 1485.87 85.2465 1486.34 80.8674C1487.03 73.2615 1487.95 65.886 1489.1 58.2801C1491.41 44.2207 1495.09 30.6222 1502.47 17.7152C1515.84 -5.33299 1542.57 -23.0801 1568.85 -17.0876Z" fill="#EFF4F6"/>
<path d="M1568.85 63.8118V508.412H-159.77V271.015C-101.919 234.138 -41.9933 200.488 23.6941 181.358C31.3 179.053 38.906 177.209 46.5119 175.826L59.4189 119.588L71.6344 172.369C75.3222 172.138 79.0099 171.677 82.6976 171.447L89.1511 144.02L94.4522 166.607L103.902 125.351L114.504 171.908C138.244 173.752 161.753 178.592 184.571 185.967L188.028 170.756L192.177 188.503C221.217 198.874 249.567 213.164 276.533 230.22C312.027 252.577 348.674 279.313 383.938 304.435C417.588 328.175 451.7 357.907 495.261 356.755C502.867 356.524 510.473 355.602 517.848 354.219C522.919 353.298 527.759 352.145 532.83 350.993C555.417 345.692 578.004 338.777 600.822 341.773C617.417 343.848 632.398 350.762 646.688 359.29L648.762 350.532L651.528 362.056C655.677 364.591 659.825 367.357 663.743 370.123L673.885 326.101L687.714 386.026C694.859 390.405 702.004 394.554 709.379 398.011C711.684 399.164 714.219 400.085 716.754 401.238C775.066 424.517 842.367 407.691 902.754 388.1C933.869 377.959 964.523 367.357 995.177 355.833L1008.31 299.134L1019.38 346.614C1021.68 345.692 1024.22 344.77 1026.52 343.848L1031.59 321.952L1035.74 340.16C1112.49 309.967 1187.63 275.855 1260.92 237.595C1262.54 236.904 1263.92 235.982 1265.53 235.291C1297.34 218.696 1328.92 201.179 1360.03 183.202L1363.03 170.064L1364.87 162.458L1366.71 170.064L1368.56 178.361C1373.86 175.365 1378.93 172.138 1384.23 169.142C1389.53 165.915 1394.83 162.689 1400.13 159.462C1404.74 156.696 1409.58 153.7 1414.19 150.934C1415.81 150.012 1417.19 149.09 1418.8 148.168L1426.41 115.44L1431.48 93.3135L1437.24 117.975L1441.16 134.8C1447.84 130.882 1454.76 126.733 1461.44 123.046L1465.36 106.221L1468.36 119.128C1491.64 106.221 1515.38 94.9269 1539.81 86.6295L1541.42 79.4846L1546.26 58.0497L1546.49 57.5887L1546.72 58.0497L1550.41 73.953L1554.1 57.8192L1561.24 26.4736L1570 57.8192V63.8118H1568.85Z" fill="#A4B6C5"/>
</g>
</g>
<defs>
<linearGradient id="paint0_linear" x1="716.371" y1="-644.62" x2="708.224" y2="-247.473" gradientUnits="userSpaceOnUse">
<stop stop-color="#FFC875"/>
<stop offset="1" stop-color="#FFE6C1"/>
</linearGradient>
<linearGradient id="paint1_linear" x1="727.022" y1="-270.79" x2="717.346" y2="-100.498" gradientUnits="userSpaceOnUse">
<stop stop-color="#FFB05C"/>
<stop offset="1" stop-color="#FFC875"/>
</linearGradient>
<linearGradient id="paint2_linear" x1="1182.57" y1="-120.66" x2="1194.82" y2="3.94096" gradientUnits="userSpaceOnUse">
<stop stop-color="#FFFAF2"/>
<stop offset="0.9975" stop-color="#FFE6C1" stop-opacity="0"/>
</linearGradient>
</defs>
</svg>
